<svg width="51" height="62" viewBox="0 0 51 62" fill="none" xmlns="http://www.w3.org/2000/svg">
<path d="M50.5437 13.9378L49.1812 9.85357C48.6624 8.29802 47.2118 7.25282 45.5724 7.25282H34.1209V3.52448C34.1209 1.66101 32.6059 0.144531 30.7429 0.144531H20.2561C18.3935 0.144531 16.878 1.66101 16.878 3.52448V7.25282H5.42696C3.78713 7.25282 2.33656 8.29802 1.81773 9.85357L0.455203 13.9378C0.14494 14.8677 0.30219 15.8974 0.875166 16.6926C1.44814 17.4878 2.37517 17.9628 3.35539 17.9628H4.77959L7.91425 56.7251C8.1473 59.6012 10.588 61.8545 13.4717 61.8545H38.1633C41.0466 61.8545 43.4877 59.6012 43.7203 56.7246L46.8549 17.9628H47.6435C48.6238 17.9628 49.5508 17.4878 50.1238 16.693C50.6967 15.8978 50.854 14.8677 50.5437 13.9378ZM20.4938 3.76035H30.5051V7.25282H20.4938V3.76035ZM40.1162 56.4332C40.0343 57.4459 39.1765 58.2387 38.1633 58.2387H13.4717C12.4585 58.2387 11.6007 57.4459 11.5188 56.4332L8.40718 17.9628H43.2273L40.1162 56.4332ZM4.13082 14.347L5.24805 10.9976C5.27347 10.9204 5.34551 10.8686 5.42696 10.8686H45.5724C45.6539 10.8686 45.7255 10.9204 45.7514 10.9976L46.8686 14.347H4.13082Z" fill="#242424"/>
<path d="M34.3447 56.3067C34.3768 56.3085 34.4083 56.309 34.4403 56.309C35.3956 56.309 36.1941 55.5604 36.244 54.5953L37.9417 22.0049C37.9935 21.0077 37.2271 20.1569 36.2303 20.1051C35.2308 20.0519 34.3829 20.8194 34.3306 21.8165L32.6333 54.4069C32.5815 55.4041 33.3476 56.2549 34.3447 56.3067Z" fill="#242424"/>
<path d="M14.8371 54.5953C14.8899 55.559 15.6874 56.3048 16.6408 56.3048C16.6737 56.3048 16.7076 56.3038 16.7411 56.302C17.7378 56.2478 18.5019 55.3957 18.4478 54.3985L16.6695 21.8081C16.6154 20.8109 15.7632 20.0468 14.766 20.1014C13.7693 20.1555 13.0052 21.0077 13.0593 22.0049L14.8371 54.5953Z" fill="#242424"/>
<path d="M25.5208 56.3088C26.5194 56.3088 27.3287 55.4994 27.3287 54.5009V21.9104C27.3287 20.9119 26.5194 20.1025 25.5208 20.1025C24.5222 20.1025 23.7129 20.9119 23.7129 21.9104V54.5009C23.7129 55.4994 24.5222 56.3088 25.5208 56.3088Z" fill="#242424"/>
</svg>
