<svg width="46" height="19" viewBox="0 0 46 19" fill="none" xmlns="http://www.w3.org/2000/svg">
<path d="M12.8203 15H11.1953V6.85938H11.0859L7.78125 14.6719H6.45312L3.14844 6.85938H3.03906V15H1.41406V3.72656H3.46094L7.04688 12.2891H7.17969L10.7734 3.72656H12.8203V15ZM14.9375 3.00781C14.9375 2.3099 15.1771 1.74479 15.6562 1.3125C16.1406 0.880208 16.7734 0.664062 17.5547 0.664062C18.3099 0.664062 18.9219 0.859375 19.3906 1.25C19.8646 1.63542 20.1016 2.14062 20.1016 2.76562C20.1016 3.17708 19.9792 3.57552 19.7344 3.96094C19.4948 4.34115 19.0547 4.8151 18.4141 5.38281L17.1641 6.53125V6.66406H20.2109V7.98438H15.0312V6.85938L17.3125 4.67969C17.8125 4.20573 18.1458 3.84896 18.3125 3.60938C18.4844 3.36979 18.5703 3.13021 18.5703 2.89062C18.5703 2.61458 18.4688 2.38802 18.2656 2.21094C18.0677 2.03385 17.8099 1.94531 17.4922 1.94531C17.1641 1.94531 16.8958 2.04427 16.6875 2.24219C16.4844 2.4349 16.3828 2.6901 16.3828 3.00781V3.03906H14.9375V3.00781Z" fill="#242424"/>
<path d="M44.3909 4.0491L46 5.65999L37 14.6104L28 5.65094L29.6091 4.0491L37 11.4067L44.3909 4.0491Z" fill="#242424"/>
</svg>
