<svg width="23" height="26" viewBox="0 0 23 26" fill="none" xmlns="http://www.w3.org/2000/svg">
<path d="M11.5469 1C8.05755 1 5.21875 3.8388 5.21875 7.32812C5.21875 10.8175 8.05755 13.6562 11.5469 13.6562C15.0362 13.6562 17.875 10.8175 17.875 7.32812C17.875 3.8388 15.0362 1 11.5469 1ZM11.5469 12.25C8.83295 12.25 6.625 10.042 6.625 7.32812C6.625 4.6142 8.83295 2.40625 11.5469 2.40625C14.2608 2.40625 16.4688 4.6142 16.4688 7.32812C16.4688 10.042 14.2608 12.25 11.5469 12.25Z" fill="#505050" stroke="#505050" stroke-width="0.5"/>
<path d="M19.4203 17.7904C17.6878 16.0313 15.391 15.0625 12.9531 15.0625H10.1406C7.70275 15.0625 5.40597 16.0313 3.67347 17.7904C1.94945 19.5409 1 21.8515 1 24.2969C1 24.6852 1.31481 25 1.70312 25H21.3906C21.7789 25 22.0938 24.6852 22.0938 24.2969C22.0938 21.8515 21.1443 19.5409 19.4203 17.7904ZM2.43719 23.5938C2.78945 19.6053 6.10989 16.4688 10.1406 16.4688H12.9531C16.9839 16.4688 20.3043 19.6053 20.6566 23.5938H2.43719Z" fill="#505050" stroke="#505050" stroke-width="0.5"/>
</svg>
