<svg width="20" height="22" viewBox="0 0 20 22" fill="none" xmlns="http://www.w3.org/2000/svg">
<path d="M19.6748 13.6647L18.1397 12.3522C18.2123 11.9069 18.2498 11.4522 18.2498 10.9975C18.2498 10.5428 18.2123 10.0881 18.1397 9.64282L19.6748 8.33032C19.7906 8.2312 19.8735 8.09917 19.9124 7.9518C19.9513 7.80443 19.9445 7.6487 19.8928 7.50532L19.8717 7.44438C19.4491 6.2632 18.8162 5.16822 18.0037 4.21235L17.9615 4.16313C17.863 4.04724 17.7316 3.96393 17.5847 3.92418C17.4379 3.88444 17.2824 3.89012 17.1389 3.94048L15.2334 4.61782C14.5303 4.04126 13.7451 3.58657 12.8967 3.26782L12.5287 1.27563C12.501 1.12573 12.4282 0.987828 12.3202 0.880239C12.2122 0.77265 12.074 0.700471 11.924 0.673291L11.8607 0.661572C10.6397 0.44126 9.35528 0.44126 8.13418 0.661572L8.0709 0.673291C7.9209 0.700471 7.78271 0.77265 7.6747 0.880239C7.56669 0.987828 7.49398 1.12573 7.46622 1.27563L7.0959 3.2772C6.25424 3.59601 5.47043 4.05046 4.77559 4.62251L2.85606 3.94048C2.71254 3.88972 2.55698 3.88383 2.41003 3.9236C2.26309 3.96337 2.13173 4.04692 2.0334 4.16313L1.99122 4.21235C1.17968 5.16889 0.546941 6.26369 0.123247 7.44438L0.102153 7.50532C-0.0033156 7.79829 0.0834032 8.12642 0.320122 8.33032L1.87403 9.65688C1.80137 10.0975 1.76622 10.5475 1.76622 10.9952C1.76622 11.4452 1.80137 11.8952 1.87403 12.3334L0.320122 13.66C0.204331 13.7591 0.121457 13.8912 0.0825219 14.0385C0.0435864 14.1859 0.0504336 14.3416 0.102153 14.485L0.123247 14.5459C0.547466 15.7272 1.17559 16.817 1.99122 17.778L2.0334 17.8272C2.13197 17.9431 2.26333 18.0264 2.41019 18.0661C2.55704 18.1059 2.7125 18.1002 2.85606 18.0499L4.77559 17.3678C5.47403 17.942 6.2545 18.3967 7.0959 18.7131L7.46622 20.7147C7.49398 20.8646 7.56669 21.0025 7.6747 21.1101C7.78271 21.2177 7.9209 21.2899 8.0709 21.317L8.13418 21.3288C9.3665 21.5503 10.6284 21.5503 11.8607 21.3288L11.924 21.317C12.074 21.2899 12.2122 21.2177 12.3202 21.1101C12.4282 21.0025 12.501 20.8646 12.5287 20.7147L12.8967 18.7225C13.7448 18.4046 14.5344 17.9484 15.2334 17.3725L17.1389 18.0499C17.2824 18.1006 17.438 18.1065 17.5849 18.0667C17.7318 18.027 17.8632 17.9434 17.9615 17.8272L18.0037 17.778C18.8193 16.8147 19.4475 15.7272 19.8717 14.5459L19.8928 14.485C19.9982 14.1967 19.9115 13.8686 19.6748 13.6647ZM16.4756 9.91938C16.5342 10.2733 16.5647 10.6366 16.5647 10.9999C16.5647 11.3631 16.5342 11.7264 16.4756 12.0803L16.3209 13.0202L18.0717 14.5178C17.8063 15.1293 17.4712 15.7081 17.0732 16.2428L14.8982 15.4717L14.1623 16.0764C13.6022 16.5358 12.9787 16.8967 12.3037 17.1499L11.4107 17.485L10.9912 19.7584C10.3293 19.8334 9.66097 19.8334 8.99903 19.7584L8.5795 17.4803L7.69356 17.1405C7.02559 16.8874 6.4045 16.5264 5.84903 16.0694L5.11309 15.4624L2.92403 16.2405C2.52559 15.7038 2.19278 15.1249 1.92559 14.5155L3.69512 13.0038L3.54278 12.0663C3.48653 11.717 3.45606 11.3561 3.45606 10.9999C3.45606 10.6413 3.48418 10.2827 3.54278 9.93345L3.69512 8.99595L1.92559 7.48423C2.19043 6.87251 2.52559 6.29595 2.92403 5.75923L5.11309 6.53735L5.84903 5.93032C6.4045 5.47329 7.02559 5.11235 7.69356 4.85923L8.58184 4.52407L9.00137 2.24595C9.65997 2.17095 10.3326 2.17095 10.9936 2.24595L11.4131 4.51938L12.3061 4.85454C12.9787 5.10767 13.6045 5.4686 14.1647 5.92798L14.9006 6.53267L17.0756 5.76157C17.474 6.29829 17.8068 6.8772 18.074 7.48657L16.3232 8.98423L16.4756 9.91938ZM9.99981 6.64048C7.72168 6.64048 5.87481 8.48735 5.87481 10.7655C5.87481 13.0436 7.72168 14.8905 9.99981 14.8905C12.2779 14.8905 14.1248 13.0436 14.1248 10.7655C14.1248 8.48735 12.2779 6.64048 9.99981 6.64048ZM11.8561 12.6217C11.6126 12.8659 11.3233 13.0595 11.0047 13.1914C10.6861 13.3234 10.3446 13.391 9.99981 13.3905C9.29903 13.3905 8.64043 13.1163 8.14356 12.6217C7.8994 12.3783 7.70578 12.0889 7.57385 11.7704C7.44192 11.4518 7.37427 11.1103 7.37481 10.7655C7.37481 10.0647 7.64903 9.4061 8.14356 8.90923C8.64043 8.41235 9.29903 8.14048 9.99981 8.14048C10.7006 8.14048 11.3592 8.41235 11.8561 8.90923C12.1002 9.15269 12.2938 9.44203 12.4258 9.7606C12.5577 10.0792 12.6253 10.4207 12.6248 10.7655C12.6248 11.4663 12.3506 12.1249 11.8561 12.6217Z" fill="#505050"/>
</svg>
