<svg width="74" height="62" viewBox="0 0 74 62" fill="none" xmlns="http://www.w3.org/2000/svg">
<path d="M46.625 6.78125H42.9062L42.0203 4.29844C41.9591 4.12855 41.8469 3.98169 41.6991 3.87794C41.5513 3.77419 41.3751 3.71859 41.1945 3.71875H32.8055C32.4363 3.71875 32.1055 3.95117 31.9824 4.29844L31.0938 6.78125H27.375C26.1664 6.78125 25.1875 7.76016 25.1875 8.96875V21.4375C25.1875 22.6461 26.1664 23.625 27.375 23.625H46.625C47.8336 23.625 48.8125 22.6461 48.8125 21.4375V8.96875C48.8125 7.76016 47.8336 6.78125 46.625 6.78125ZM46.8438 21.4375C46.8438 21.5578 46.7453 21.6562 46.625 21.6562H27.375C27.2547 21.6562 27.1562 21.5578 27.1562 21.4375V8.96875C27.1562 8.84844 27.2547 8.75 27.375 8.75H32.4801L32.9477 7.44297L33.5738 5.6875H40.4234L41.0496 7.44297L41.5172 8.75H46.625C46.7453 8.75 46.8438 8.84844 46.8438 8.96875V21.4375ZM37 10.5C34.5828 10.5 32.625 12.4578 32.625 14.875C32.625 17.2922 34.5828 19.25 37 19.25C39.4172 19.25 41.375 17.2922 41.375 14.875C41.375 12.4578 39.4172 10.5 37 10.5ZM37 17.5C35.5508 17.5 34.375 16.3242 34.375 14.875C34.375 13.4258 35.5508 12.25 37 12.25C38.4492 12.25 39.625 13.4258 39.625 14.875C39.625 16.3242 38.4492 17.5 37 17.5Z" fill="#707070"/>
<path d="M10.7852 45L9.93555 42.5801H6.57227L5.72266 45H4.61523L7.73242 36.5449H8.77539L11.8926 45H10.7852ZM8.20703 37.9102L6.88281 41.6836H9.625L8.30078 37.9102H8.20703ZM15.2324 45.1113C14.4238 45.1113 13.7793 44.8145 13.2988 44.2207C12.8184 43.627 12.5781 42.834 12.5781 41.8418C12.5781 40.8535 12.8184 40.0625 13.2988 39.4688C13.7832 38.8711 14.4277 38.5723 15.2324 38.5723C15.6738 38.5723 16.0684 38.6719 16.416 38.8711C16.7676 39.0664 17.0332 39.3359 17.2129 39.6797H17.3008V36.1758H18.3086V45H17.3477V43.9922H17.2539C17.0547 44.3438 16.7773 44.6191 16.4219 44.8184C16.0664 45.0137 15.6699 45.1113 15.2324 45.1113ZM15.4668 39.4805C14.8926 39.4805 14.4414 39.6914 14.1133 40.1133C13.7852 40.5312 13.6211 41.1074 13.6211 41.8418C13.6211 42.5801 13.7832 43.1582 14.1074 43.5762C14.4355 43.9941 14.8887 44.2031 15.4668 44.2031C16.041 44.2031 16.4941 43.9922 16.8262 43.5703C17.1582 43.1484 17.3242 42.5723 17.3242 41.8418C17.3242 41.1191 17.1562 40.5449 16.8203 40.1191C16.4883 39.6934 16.0371 39.4805 15.4668 39.4805ZM22.6035 45.1113C21.7949 45.1113 21.1504 44.8145 20.6699 44.2207C20.1895 43.627 19.9492 42.834 19.9492 41.8418C19.9492 40.8535 20.1895 40.0625 20.6699 39.4688C21.1543 38.8711 21.7988 38.5723 22.6035 38.5723C23.0449 38.5723 23.4395 38.6719 23.7871 38.8711C24.1387 39.0664 24.4043 39.3359 24.584 39.6797H24.6719V36.1758H25.6797V45H24.7188V43.9922H24.625C24.4258 44.3438 24.1484 44.6191 23.793 44.8184C23.4375 45.0137 23.041 45.1113 22.6035 45.1113ZM22.8379 39.4805C22.2637 39.4805 21.8125 39.6914 21.4844 40.1133C21.1562 40.5312 20.9922 41.1074 20.9922 41.8418C20.9922 42.5801 21.1543 43.1582 21.4785 43.5762C21.8066 43.9941 22.2598 44.2031 22.8379 44.2031C23.4121 44.2031 23.8652 43.9922 24.1973 43.5703C24.5293 43.1484 24.6953 42.5723 24.6953 41.8418C24.6953 41.1191 24.5273 40.5449 24.1914 40.1191C23.8594 39.6934 23.4082 39.4805 22.8379 39.4805ZM34.0996 38.5723C34.9043 38.5723 35.5469 38.8691 36.0273 39.4629C36.5117 40.0566 36.7539 40.8496 36.7539 41.8418C36.7539 42.8301 36.5117 43.623 36.0273 44.2207C35.543 44.8145 34.9004 45.1113 34.0996 45.1113C33.6504 45.1113 33.252 45.0195 32.9043 44.8359C32.5566 44.6484 32.2969 44.3867 32.125 44.0508H32.0312V47.1094H31.0234V38.6836H31.9844V39.7383H32.0781C32.2812 39.375 32.5605 39.0898 32.916 38.8828C33.2754 38.6758 33.6699 38.5723 34.0996 38.5723ZM33.8594 44.2031C34.4375 44.2031 34.8906 43.9941 35.2188 43.5762C35.5469 43.1582 35.7109 42.5801 35.7109 41.8418C35.7109 41.1035 35.5469 40.5254 35.2188 40.1074C34.8945 39.6895 34.4434 39.4805 33.8652 39.4805C33.2949 39.4805 32.8418 39.6934 32.5059 40.1191C32.1699 40.541 32.002 41.1152 32.002 41.8418C32.002 42.5645 32.168 43.1387 32.5 43.5645C32.8359 43.9902 33.2891 44.2031 33.8594 44.2031ZM38.3594 45V38.6836H39.3672V45H38.3594ZM39.3613 37.1953C39.2246 37.332 39.0586 37.4004 38.8633 37.4004C38.668 37.4004 38.502 37.332 38.3652 37.1953C38.2285 37.0547 38.1602 36.8887 38.1602 36.6973C38.1602 36.5059 38.2285 36.3418 38.3652 36.2051C38.502 36.0645 38.668 35.9941 38.8633 35.9941C39.0586 35.9941 39.2246 36.0645 39.3613 36.2051C39.498 36.3418 39.5664 36.5059 39.5664 36.6973C39.5664 36.8887 39.498 37.0547 39.3613 37.1953ZM46.5156 40.6172H45.4961C45.4102 40.2852 45.2246 40.0137 44.9395 39.8027C44.6582 39.5879 44.3008 39.4805 43.8672 39.4805C43.3008 39.4805 42.8496 39.6914 42.5137 40.1133C42.1816 40.5352 42.0156 41.1035 42.0156 41.8184C42.0156 42.5449 42.1836 43.125 42.5195 43.5586C42.8555 43.9883 43.3047 44.2031 43.8672 44.2031C44.293 44.2031 44.6465 44.1074 44.9277 43.916C45.2129 43.7246 45.4023 43.4512 45.4961 43.0957H46.5156C46.4219 43.6934 46.1426 44.1797 45.6777 44.5547C45.2129 44.9258 44.6113 45.1113 43.873 45.1113C42.9863 45.1113 42.2812 44.8145 41.7578 44.2207C41.2344 43.623 40.9727 42.8223 40.9727 41.8184C40.9727 40.834 41.2344 40.0469 41.7578 39.457C42.2812 38.8672 42.9844 38.5723 43.8672 38.5723C44.6055 38.5723 45.207 38.7656 45.6719 39.1523C46.1406 39.5391 46.4219 40.0273 46.5156 40.6172ZM48.543 37.0488H49.5508V38.6836H50.957V39.5273H49.5508V43.1016C49.5508 43.4727 49.625 43.7422 49.7734 43.9102C49.9219 44.0781 50.1602 44.1621 50.4883 44.1621C50.6328 44.1621 50.7891 44.1543 50.957 44.1387V44.9883C50.7344 45.0273 50.5371 45.0469 50.3652 45.0469C49.7129 45.0469 49.2461 44.916 48.9648 44.6543C48.6836 44.3926 48.543 43.9609 48.543 43.3594V39.5273H47.5234V38.6836H48.543V37.0488ZM57.5898 38.6836V45H56.6289V44.0098H56.5352C56.375 44.3652 56.1289 44.6387 55.7969 44.8301C55.4648 45.0176 55.0586 45.1113 54.5781 45.1113C53.875 45.1113 53.3398 44.9102 52.9727 44.5078C52.6055 44.1055 52.4219 43.5273 52.4219 42.7734V38.6836H53.4297V42.5273C53.4297 43.1016 53.543 43.5234 53.7695 43.793C53.9961 44.0586 54.3594 44.1914 54.8594 44.1914C55.4102 44.1914 55.834 44.0371 56.1309 43.7285C56.4316 43.416 56.582 42.9805 56.582 42.4219V38.6836H57.5898ZM59.4883 45V38.6836H60.4492V39.6211H60.543C60.6367 39.3125 60.8477 39.0605 61.1758 38.8652C61.5039 38.6699 61.877 38.5723 62.2949 38.5723C62.4863 38.5723 62.6543 38.582 62.7988 38.6016V39.6094C62.6621 39.5703 62.4473 39.5508 62.1543 39.5508C61.6738 39.5508 61.2773 39.6953 60.9648 39.9844C60.6523 40.2734 60.4961 40.6406 60.4961 41.0859V45H59.4883ZM66.4023 39.4629C65.8984 39.4629 65.4844 39.6328 65.1602 39.9727C64.8359 40.3125 64.6543 40.7617 64.6152 41.3203H68.0957C68.084 40.7617 67.9238 40.3125 67.6152 39.9727C67.3066 39.6328 66.9023 39.4629 66.4023 39.4629ZM68.0664 43.3652H69.0742C68.9219 43.9121 68.6113 44.3398 68.1426 44.6484C67.6777 44.957 67.1016 45.1113 66.4141 45.1113C65.5391 45.1113 64.8457 44.8184 64.334 44.2324C63.8223 43.6426 63.5664 42.8477 63.5664 41.8477C63.5664 40.8516 63.8242 40.0566 64.3398 39.4629C64.8555 38.8691 65.5469 38.5723 66.4141 38.5723C67.2656 38.5723 67.9355 38.8555 68.4238 39.4219C68.9121 39.9883 69.1562 40.7637 69.1562 41.748V42.1348H64.6152V42.1816C64.6426 42.8066 64.8184 43.3027 65.1426 43.6699C65.4707 44.0371 65.9023 44.2207 66.4375 44.2207C67.2539 44.2207 67.7969 43.9355 68.0664 43.3652ZM22.8906 58.2383C22.3711 58.8203 21.6621 59.1113 20.7637 59.1113C19.8652 59.1113 19.1543 58.8203 18.6309 58.2383C18.1113 57.6523 17.8516 56.8535 17.8516 55.8418C17.8516 54.8262 18.1113 54.0273 18.6309 53.4453C19.1504 52.8633 19.8613 52.5723 20.7637 52.5723C21.666 52.5723 22.377 52.8633 22.8965 53.4453C23.416 54.0273 23.6758 54.8262 23.6758 55.8418C23.6758 56.8535 23.4141 57.6523 22.8906 58.2383ZM19.3809 57.5879C19.7051 57.998 20.166 58.2031 20.7637 58.2031C21.3613 58.2031 21.8223 57.998 22.1465 57.5879C22.4707 57.1738 22.6328 56.5918 22.6328 55.8418C22.6328 55.0918 22.4707 54.5117 22.1465 54.1016C21.8223 53.6875 21.3613 53.4805 20.7637 53.4805C20.166 53.4805 19.7051 53.6875 19.3809 54.1016C19.0566 54.5117 18.8945 55.0918 18.8945 55.8418C18.8945 56.5918 19.0566 57.1738 19.3809 57.5879ZM25.2578 59V52.6836H26.2188V53.6211H26.3125C26.4062 53.3125 26.6172 53.0605 26.9453 52.8652C27.2734 52.6699 27.6465 52.5723 28.0645 52.5723C28.2559 52.5723 28.4238 52.582 28.5684 52.6016V53.6094C28.4316 53.5703 28.2168 53.5508 27.9238 53.5508C27.4434 53.5508 27.0469 53.6953 26.7344 53.9844C26.4219 54.2734 26.2656 54.6406 26.2656 55.0859V59H25.2578ZM33.2734 59V50.1758H34.2812V59H33.2734ZM40.9609 58.2383C40.4414 58.8203 39.7324 59.1113 38.834 59.1113C37.9355 59.1113 37.2246 58.8203 36.7012 58.2383C36.1816 57.6523 35.9219 56.8535 35.9219 55.8418C35.9219 54.8262 36.1816 54.0273 36.7012 53.4453C37.2207 52.8633 37.9316 52.5723 38.834 52.5723C39.7363 52.5723 40.4473 52.8633 40.9668 53.4453C41.4863 54.0273 41.7461 54.8262 41.7461 55.8418C41.7461 56.8535 41.4844 57.6523 40.9609 58.2383ZM37.4512 57.5879C37.7754 57.998 38.2363 58.2031 38.834 58.2031C39.4316 58.2031 39.8926 57.998 40.2168 57.5879C40.541 57.1738 40.7031 56.5918 40.7031 55.8418C40.7031 55.0918 40.541 54.5117 40.2168 54.1016C39.8926 53.6875 39.4316 53.4805 38.834 53.4805C38.2363 53.4805 37.7754 53.6875 37.4512 54.1016C37.127 54.5117 36.9648 55.0918 36.9648 55.8418C36.9648 56.5918 37.127 57.1738 37.4512 57.5879ZM45.8828 58.0156C46.4648 58.0156 46.9219 57.8125 47.2539 57.4062C47.5898 56.9961 47.7578 56.4434 47.7578 55.748C47.7578 55.0566 47.5898 54.5059 47.2539 54.0957C46.918 53.6855 46.4609 53.4805 45.8828 53.4805C45.3047 53.4805 44.8555 53.6836 44.5352 54.0898C44.2148 54.4961 44.0547 55.0488 44.0547 55.748C44.0547 56.4473 44.2148 57 44.5352 57.4062C44.8555 57.8125 45.3047 58.0156 45.8828 58.0156ZM45.9297 61.4258C45.1758 61.4258 44.5645 61.2695 44.0957 60.957C43.6309 60.6445 43.3594 60.2246 43.2812 59.6973H44.3477C44.4023 59.959 44.5684 60.166 44.8457 60.3184C45.123 60.4707 45.4844 60.5469 45.9297 60.5469C46.4961 60.5469 46.9375 60.4141 47.2539 60.1484C47.5742 59.8867 47.7344 59.5234 47.7344 59.0586V57.8164H47.6406C47.4414 58.1641 47.1699 58.4336 46.8262 58.625C46.4824 58.8125 46.0938 58.9062 45.6602 58.9062C44.8477 58.9062 44.2031 58.6191 43.7266 58.0449C43.25 57.4668 43.0117 56.7012 43.0117 55.748C43.0117 54.7949 43.252 54.0273 43.7324 53.4453C44.2129 52.8633 44.8555 52.5723 45.6602 52.5723C46.1016 52.5723 46.5039 52.6738 46.8672 52.877C47.2305 53.0762 47.5039 53.3457 47.6875 53.6855H47.7812V52.6836H48.7422V59.1113C48.7422 59.8184 48.4883 60.3809 47.9805 60.7988C47.4727 61.2168 46.7891 61.4258 45.9297 61.4258ZM55.3633 58.2383C54.8438 58.8203 54.1348 59.1113 53.2363 59.1113C52.3379 59.1113 51.627 58.8203 51.1035 58.2383C50.584 57.6523 50.3242 56.8535 50.3242 55.8418C50.3242 54.8262 50.584 54.0273 51.1035 53.4453C51.623 52.8633 52.334 52.5723 53.2363 52.5723C54.1387 52.5723 54.8496 52.8633 55.3691 53.4453C55.8887 54.0273 56.1484 54.8262 56.1484 55.8418C56.1484 56.8535 55.8867 57.6523 55.3633 58.2383ZM51.8535 57.5879C52.1777 57.998 52.6387 58.2031 53.2363 58.2031C53.834 58.2031 54.2949 57.998 54.6191 57.5879C54.9434 57.1738 55.1055 56.5918 55.1055 55.8418C55.1055 55.0918 54.9434 54.5117 54.6191 54.1016C54.2949 53.6875 53.834 53.4805 53.2363 53.4805C52.6387 53.4805 52.1777 53.6875 51.8535 54.1016C51.5293 54.5117 51.3672 55.0918 51.3672 55.8418C51.3672 56.5918 51.5293 57.1738 51.8535 57.5879Z" fill="#505050"/>
</svg>
