<svg width="425" height="420" viewBox="0 0 425 420" fill="none" xmlns="http://www.w3.org/2000/svg">
<path d="M63.75 339.967V420.001L95.9792 400.701L197.094 339.967H297.5C308.757 339.921 319.54 335.428 327.501 327.469C335.461 319.51 339.953 308.728 340 297.471V127.488C339.953 116.232 335.461 105.45 327.501 97.4907C319.54 89.5312 308.757 85.039 297.5 84.9924H42.5C31.2427 85.039 20.4597 89.5312 12.4995 97.4907C4.53925 105.45 0.0466149 116.232 0 127.488L0 297.471C0.0466149 308.728 4.53925 319.51 12.4995 327.469C20.4597 335.428 31.2427 339.921 42.5 339.967H63.75ZM42.5 127.488H297.5V297.471H185.406L106.25 344.925V297.471H42.5V127.488Z" fill="#EAA93F"/>
<path d="M382.497 0H127.497C116.24 0.0466102 105.457 4.5388 97.4965 12.4982C89.5363 20.4576 85.0437 31.2396 84.9971 42.4958H339.997C351.254 42.5424 362.037 47.0346 369.998 54.994C377.958 62.9534 382.45 73.7353 382.497 84.9916V254.975C393.754 254.928 404.537 250.436 412.498 242.476C420.458 234.517 424.95 223.735 424.997 212.479V42.4958C424.95 31.2396 420.458 20.4576 412.498 12.4982C404.537 4.5388 393.754 0.0466102 382.497 0V0Z" fill="#EAA93F"/>
</svg>
