<svg width="426" height="315" viewBox="0 0 426 315" fill="none" xmlns="http://www.w3.org/2000/svg">
<path d="M407.294 314H17.711C13.0144 314 8.51026 312.135 5.1893 308.816C1.86834 305.496 0.00264884 300.994 0.00264884 296.3V18.7621C-0.0316663 16.7793 0.267641 14.8048 0.888066 12.9211C1.55087 10.7278 2.6334 8.68394 4.07557 6.90304C5.65711 4.90865 7.65033 3.27859 9.91932 2.12401C12.3182 0.825575 14.9848 0.0986676 17.711 0L407.294 0C409.847 0.135292 412.332 0.86248 414.555 2.12401C416.888 3.25707 418.943 4.88853 420.576 6.90304C422.463 8.57143 423.972 10.6231 425.003 12.9211C425.623 14.8048 425.922 16.7793 425.888 18.7621V295.592C425.99 298.052 425.577 300.505 424.676 302.797C423.775 305.088 422.406 307.166 420.656 308.898C418.907 310.631 416.814 311.979 414.514 312.858C412.213 313.736 409.754 314.125 407.294 314ZM37.0131 277.007H387.992V54.3393L223.305 172.045C220.152 174.294 216.376 175.503 212.503 175.503C208.63 175.503 204.853 174.294 201.701 172.045L37.0131 54.3393V277.007ZM76.1485 36.9932L212.503 134.344L348.857 36.9932H76.1485Z" fill="#EAA93F"/>
</svg>
