<svg width="404" height="425" viewBox="0 0 404 425" fill="none" xmlns="http://www.w3.org/2000/svg">
<path d="M397.687 266.51L366.723 239.948C369.554 221.759 369.554 203.241 366.723 185.052L397.687 159.375C400.237 157.298 402.046 154.45 402.843 151.257C403.641 148.065 403.384 144.7 402.11 141.666V140.427C393.489 116.557 380.665 94.4264 364.246 75.0831L363.361 74.0206C361.359 71.6887 358.699 70.0179 355.731 69.2277C352.762 68.4375 349.624 68.565 346.729 69.5935L308.157 83.2289C294.044 71.5583 278.075 62.3401 260.915 55.9581L253.13 15.7602C252.514 12.7102 250.968 9.92622 248.706 7.79143C246.549 5.68842 243.856 4.21836 240.921 3.54143H239.683C214.752 -0.886449 189.238 -0.886449 164.308 3.54143H163.069C160.047 4.11978 157.27 5.60162 155.107 7.79143C152.861 9.91289 151.369 12.7114 150.86 15.7602L142.544 56.3123C125.762 62.8086 110.16 72.0217 96.3639 83.5831L57.6147 69.7706C54.7199 68.7421 51.5819 68.6146 48.6133 69.4048C45.6447 70.1949 42.9845 71.8658 40.9827 74.1977V75.2602C24.2281 94.4882 11.1529 116.638 2.41051 140.604L1.8797 141.666C0.576945 144.695 0.304188 148.069 1.10335 151.268C1.90251 154.468 3.72936 157.316 6.30312 159.375L37.7978 186.291C34.7315 204.224 34.7315 222.547 37.7978 240.479L6.30312 266.51C3.94585 268.479 2.27321 271.145 1.52583 274.125C0.554185 277.057 0.554185 280.224 1.52583 283.156V284.396C10.0406 308.277 22.8094 330.416 39.2133 349.739V350.802C41.2152 353.134 43.8753 354.805 46.8439 355.595C49.8125 356.385 52.9506 356.257 55.8454 355.229L94.5945 341.416C108.927 353.147 125.139 362.368 142.544 368.687L150.153 409.239C150.662 412.288 152.153 415.087 154.399 417.208C156.563 419.398 159.339 420.88 162.361 421.458H163.6C188.53 425.886 214.045 425.886 238.975 421.458H240.213C243.274 420.843 246.097 419.369 248.352 417.208C250.485 415.026 251.904 412.247 252.422 409.239L259.853 368.864C277.033 362.522 293.008 353.301 307.095 341.594L345.668 355.229C348.562 356.257 351.7 356.385 354.669 355.595C357.638 354.805 360.298 353.134 362.3 350.802L363.184 349.739C379.579 330.378 392.4 308.252 401.049 284.396V283.156C402.203 280.361 402.5 277.285 401.901 274.321C401.303 271.356 399.836 268.637 397.687 266.51ZM332.928 190.719C335.519 205.183 335.519 219.993 332.928 234.458L329.92 253.406L365.308 283.864C359.941 296.394 353.174 308.275 345.137 319.281L301.787 303.166L286.925 315.385C275.416 324.445 262.507 331.563 248.706 336.458L231.013 343.364L222.166 389.583C208.756 391 195.234 391 181.824 389.583L173.331 343.364L155.638 336.458C142.048 331.494 129.374 324.314 118.127 315.208L103.264 302.989L59.0302 318.75C50.9051 307.769 44.0771 295.885 38.6825 283.333L74.0698 252.875L71.7697 234.104C70.5276 226.965 69.8179 219.744 69.6464 212.5C69.8253 205.315 70.535 198.153 71.7697 191.073L74.9545 171.948L38.6825 141.666C44.0771 129.115 50.9051 117.23 59.0302 106.25L103.264 121.833L118.127 109.614C129.332 100.588 141.945 93.4686 155.461 88.5414L173.154 81.6352L181.824 35.4164C195.224 33.8226 208.766 33.8226 222.166 35.4164L231.013 81.4581L248.706 88.5414C262.334 93.6616 275.012 101.023 286.217 110.323L301.787 122.187L345.137 106.25C353.279 117.188 360.053 129.082 365.308 141.666L329.92 171.948L332.928 190.719ZM201.995 123.958C185.477 123.958 169.331 128.86 155.597 138.044C141.863 147.229 131.159 160.283 124.838 175.555C118.517 190.828 116.863 207.634 120.086 223.848C123.308 240.061 131.262 254.954 142.942 266.644C154.621 278.333 169.502 286.294 185.702 289.519C201.902 292.744 218.694 291.089 233.954 284.762C249.215 278.436 262.258 267.723 271.434 253.978C280.611 240.233 285.509 224.073 285.509 207.541C285.532 196.559 283.388 185.679 279.199 175.528C275.011 165.377 268.86 156.153 261.1 148.387C253.341 140.621 244.125 134.465 233.982 130.273C223.839 126.081 212.969 123.935 201.995 123.958ZM239.506 245.083C234.499 250.143 228.465 254.068 221.812 256.594C208.813 261.991 194.204 262.001 181.198 256.621C168.192 251.242 157.852 240.913 152.453 227.906C149.797 221.444 148.415 214.529 148.383 207.541C148.383 193.452 153.976 179.939 163.93 169.976C173.885 160.014 187.386 154.416 201.464 154.416C215.537 154.429 229.03 160.034 238.975 170C244.086 175.001 248.067 181.039 250.653 187.708C254.651 197.433 255.676 208.127 253.597 218.436C251.518 228.744 246.429 238.203 238.975 245.614L239.506 245.083Z" fill="#505050"/>
</svg>
