<svg xmlns="http://www.w3.org/2000/svg" xmlns:xlink="http://www.w3.org/1999/xlink" width="626" height="626" viewBox="0 0 626 626">
  <defs>
    <clipPath id="clip-Artboard_1_1">
      <rect width="626" height="626"/>
    </clipPath>
  </defs>
  <g id="Artboard_1_1" data-name="Artboard 1 – 1" clip-path="url(#clip-Artboard_1_1)">
    <rect width="626" height="626" fill="#fff"/>
    <g id="Shadow">
      <ellipse id="_Path_" data-name="&lt;Path&gt;" cx="193.889" cy="11.323" rx="193.889" ry="11.323" transform="translate(56.111 404.915)" fill="#f5f5f5"/>
    </g>
    <g id="Group_404" data-name="Group 404" transform="translate(1 2)">
      <g id="Background_Complete" data-name="Background Complete" transform="translate(0 66.941)">
        <g id="Group_372" data-name="Group 372">
          <rect id="Rectangle_84" data-name="Rectangle 84" width="625" height="0.313" transform="translate(0 409.307)" fill="#ebebeb"/>
          <rect id="Rectangle_85" data-name="Rectangle 85" width="41.403" height="0.313" transform="translate(520.974 429.427)" fill="#ebebeb"/>
          <rect id="Rectangle_86" data-name="Rectangle 86" width="10.867" height="0.313" transform="translate(403.159 432.819)" fill="#ebebeb"/>
          <rect id="Rectangle_87" data-name="Rectangle 87" width="23.99" height="0.313" transform="translate(495.732 417.819)" fill="#ebebeb"/>
          <rect id="Rectangle_88" data-name="Rectangle 88" width="53.992" height="0.313" transform="translate(65.574 419.919)" fill="#ebebeb"/>
          <rect id="Rectangle_89" data-name="Rectangle 89" width="7.916" height="0.313" transform="translate(130.695 419.919)" fill="#ebebeb"/>
          <rect id="Rectangle_90" data-name="Rectangle 90" width="117.095" height="0.313" transform="translate(164.339 425.197)" fill="#ebebeb"/>
          <path id="Path_349" data-name="Path 349" d="M286.716,408.512H45.342a7.144,7.144,0,0,1-7.135-7.135V62.087a7.143,7.143,0,0,1,7.135-7.134H286.716a7.142,7.142,0,0,1,7.134,7.134v339.29A7.143,7.143,0,0,1,286.716,408.512ZM45.342,55.265a6.829,6.829,0,0,0-6.823,6.821v339.29a6.829,6.829,0,0,0,6.823,6.822H286.716a6.829,6.829,0,0,0,6.821-6.822V62.087a6.829,6.829,0,0,0-6.821-6.821Z" transform="translate(9.552 -54.953)" fill="#ebebeb"/>
          <path id="Path_350" data-name="Path 350" d="M503.011,408.512H261.639a7.143,7.143,0,0,1-7.134-7.135V62.087a7.142,7.142,0,0,1,7.134-7.134H503.011a7.143,7.143,0,0,1,7.136,7.134v339.29A7.144,7.144,0,0,1,503.011,408.512ZM261.639,55.265a6.829,6.829,0,0,0-6.821,6.821v339.29a6.829,6.829,0,0,0,6.821,6.822H503.011a6.831,6.831,0,0,0,6.824-6.822V62.087a6.83,6.83,0,0,0-6.824-6.821Z" transform="translate(63.626 -54.953)" fill="#ebebeb"/>
        </g>
        <g id="Group_380" data-name="Group 380" transform="translate(55.126 24.205)">
          <g id="Group_375" data-name="Group 375" transform="translate(24.116)">
            <rect id="Rectangle_91" data-name="Rectangle 91" width="466.516" height="250.07" transform="translate(466.516 250.07) rotate(180)" fill="#fafafa"/>
            <path id="Path_351" data-name="Path 351" d="M330.766,138.7c4.11-6.818,14.838-12.328,24.041-12.328a16.788,16.788,0,0,1,5.735.9c6.244-4.994,15.19-8.435,23.185-8.435,9.669,0,14.772,5.033,12.8,11.759,8.836.435,12.715,6.043,8.659,12.9-4.225,7.141-15.45,12.93-25.072,12.93h-55.44c-6.821,0-9.924-4.1-6.929-9.166C320.061,143.358,325.34,140.02,330.766,138.7Z" transform="translate(-0.091 -63.185)" fill="#fff"/>
            <path id="Path_352" data-name="Path 352" d="M240.19,111.27c2.509-4.162,9.058-7.525,14.676-7.525a10.28,10.28,0,0,1,3.5.551,24.009,24.009,0,0,1,14.153-5.149c5.9,0,9.018,3.071,7.815,7.179,5.394.264,7.762,3.688,5.285,7.874-2.577,4.36-9.43,7.894-15.3,7.894H236.472c-4.164,0-6.057-2.5-4.23-5.595C233.655,114.11,236.877,112.073,240.19,111.27Z" transform="translate(-21.356 -68.11)" fill="#fff"/>
            <path id="Path_353" data-name="Path 353" d="M110.2,130.969c2.509-4.161,9.056-7.525,14.675-7.525a10.275,10.275,0,0,1,3.5.551,24.008,24.008,0,0,1,14.153-5.149c5.9,0,9.019,3.071,7.816,7.179,5.394.265,7.761,3.688,5.285,7.875-2.579,4.359-9.431,7.892-15.3,7.892H106.484c-4.164,0-6.057-2.505-4.229-5.6C103.668,133.808,106.89,131.771,110.2,130.969Z" transform="translate(-53.853 -63.185)" fill="#fff"/>
            <g id="Group_373" data-name="Group 373" transform="translate(11.59 49.368)">
              <rect id="Rectangle_92" data-name="Rectangle 92" width="38.572" height="177.792" transform="translate(75.545)" fill="#e6e6e6"/>
              <path id="Path_354" data-name="Path 354" d="M195.307,284.465H160.5v-142.1l34.809,34.652Z" transform="translate(-50.708 -106.673)" fill="#e6e6e6"/>
              <rect id="Rectangle_93" data-name="Rectangle 93" width="38.572" height="119.066" transform="translate(25.072 58.726)" fill="#e6e6e6"/>
              <rect id="Rectangle_94" data-name="Rectangle 94" width="19.663" height="133.908" transform="translate(155.701 43.883)" fill="#e6e6e6"/>
              <rect id="Rectangle_95" data-name="Rectangle 95" width="19.663" height="99.705" transform="translate(183.736 78.086)" fill="#e6e6e6"/>
              <rect id="Rectangle_96" data-name="Rectangle 96" width="19.663" height="66.954" transform="translate(198.6 110.837)" fill="#e6e6e6"/>
              <rect id="Rectangle_97" data-name="Rectangle 97" width="19.663" height="66.954" transform="translate(280.209 110.837)" fill="#e6e6e6"/>
              <rect id="Rectangle_98" data-name="Rectangle 98" width="19.663" height="45.819" transform="translate(261.393 131.972)" fill="#e6e6e6"/>
              <rect id="Rectangle_99" data-name="Rectangle 99" width="19.663" height="66.954" transform="translate(0 110.837)" fill="#e6e6e6"/>
              <rect id="Rectangle_100" data-name="Rectangle 100" width="177.997" height="78.086" transform="translate(11.289 99.705)" fill="#e6e6e6"/>
              <rect id="Rectangle_101" data-name="Rectangle 101" width="177.997" height="31.299" transform="translate(121.874 146.492)" fill="#e6e6e6"/>
            </g>
            <g id="Group_374" data-name="Group 374" transform="translate(0 72.278)">
              <rect id="Rectangle_102" data-name="Rectangle 102" width="59.756" height="177.792" transform="translate(347.523 177.792) rotate(180)" fill="#f0f0f0"/>
              <path id="Path_355" data-name="Path 355" d="M255.83,302.793h53.926v-142.1L255.83,195.345Z" transform="translate(-15.285 -125.002)" fill="#f0f0f0"/>
              <rect id="Rectangle_103" data-name="Rectangle 103" width="59.756" height="119.066" transform="translate(425.715 177.792) rotate(180)" fill="#f0f0f0"/>
              <rect id="Rectangle_104" data-name="Rectangle 104" width="30.461" height="133.908" transform="translate(223.347 177.792) rotate(180)" fill="#f0f0f0"/>
              <rect id="Rectangle_105" data-name="Rectangle 105" width="30.461" height="89.355" transform="translate(179.915 177.792) rotate(180)" fill="#f0f0f0"/>
              <rect id="Rectangle_106" data-name="Rectangle 106" width="30.461" height="66.954" transform="translate(156.887 177.792) rotate(180)" fill="#f0f0f0"/>
              <rect id="Rectangle_107" data-name="Rectangle 107" width="30.461" height="66.954" transform="translate(30.461 177.792) rotate(180)" fill="#f0f0f0"/>
              <rect id="Rectangle_108" data-name="Rectangle 108" width="30.461" height="45.819" transform="translate(59.61 177.792) rotate(180)" fill="#f0f0f0"/>
              <rect id="Rectangle_109" data-name="Rectangle 109" width="30.461" height="66.954" transform="translate(464.556 177.792) rotate(180)" fill="#f0f0f0"/>
              <rect id="Rectangle_110" data-name="Rectangle 110" width="275.751" height="78.086" transform="translate(447.067 177.792) rotate(180)" fill="#f0f0f0"/>
              <rect id="Rectangle_111" data-name="Rectangle 111" width="275.751" height="31.299" transform="translate(275.751 177.792) rotate(180)" fill="#f0f0f0"/>
            </g>
            <rect id="Rectangle_112" data-name="Rectangle 112" width="1.96" height="250.07" transform="translate(466.516 250.07) rotate(180)" fill="#ebebeb"/>
          </g>
          <g id="Group_378" data-name="Group 378" transform="translate(0 218.77)">
            <g id="Group_376" data-name="Group 376" transform="translate(13.826 44.122)">
              <path id="Path_356" data-name="Path 356" d="M95.56,374.227a2.885,2.885,0,0,1-2.256-4.679c1.635-2.059-2.336-6.834-6.54-11.891-8.955-10.771-22.487-27.049-4-45.715,11.664-11.781,11.406-16.658,10.754-18.207-1.149-2.731-6.478-3.335-8.33-3.335h-.069a2.885,2.885,0,0,1-.039-5.769c1.081-.009,10.879.079,13.746,6.845,2.482,5.862-1.43,13.884-11.964,24.524-14.8,14.946-4.63,27.177,4.341,37.969,5.745,6.91,11.171,13.438,6.621,19.166A2.877,2.877,0,0,1,95.56,374.227Z" transform="translate(-50.568 -284.632)" fill="#e0e0e0"/>
              <path id="Path_357" data-name="Path 357" d="M57.768,335.518H119.3l-13.626,58.6H71.394Z" transform="translate(-54.51 -271.91)" fill="#f5f5f5"/>
              <path id="Path_358" data-name="Path 358" d="M57.779,338.659h62.81a2.624,2.624,0,0,0,2.616-2.617h0a2.624,2.624,0,0,0-2.616-2.616H57.779a2.624,2.624,0,0,0-2.618,2.616h0A2.625,2.625,0,0,0,57.779,338.659Z" transform="translate(-55.162 -272.433)" fill="#ebebeb"/>
            </g>
            <g id="Group_377" data-name="Group 377">
              <path id="Path_359" data-name="Path 359" d="M113.571,295.338l-58.138,19.2s-21.059-14.23-5.762-20.624c-7.27-12.411-8.2-36.61,15.211-43.634s21.774,27.179,21.774,27.179,28.87-30.535,27.528,5.737C119.676,281.687,143.032,287.214,113.571,295.338Z" transform="translate(-44.101 -249.334)" fill="#e0e0e0"/>
              <path id="Path_360" data-name="Path 360" d="M64.473,316.824h70.5s18.592-13.129-.882-12.471c3.865-16.742-7.034-35.079-31.63-35.784s-15.95,26.591-15.95,26.591-41.324-9.849-28.82,10.505C37.207,306.65,47.8,311.9,64.473,316.824Z" transform="translate(-43.521 -244.528)" fill="#e6e6e6"/>
              <path id="Path_361" data-name="Path 361" d="M118.683,317.183l-55.378,2a8.556,8.556,0,0,1-7.289-3.921c-2.093-2.965-2.638-6.656,6.211-7.74-2.834-8.758,3.431-24.013,26.324-25.189s11.415,19.981,11.415,19.981,34.643-15.124,22.819,7.367C128.118,309.488,147.284,316.15,118.683,317.183Z" transform="translate(-41.445 -241.096)" fill="#e0e0e0"/>
            </g>
          </g>
          <g id="Group_379" data-name="Group 379" transform="translate(143.924 278.41)">
            <rect id="Rectangle_113" data-name="Rectangle 113" width="290.501" height="5.568" fill="#f0f0f0"/>
            <rect id="Rectangle_114" data-name="Rectangle 114" width="31.423" height="5.568" transform="translate(321.924 5.568) rotate(180)" fill="#e6e6e6"/>
            <rect id="Rectangle_115" data-name="Rectangle 115" width="312.706" height="2.784" transform="translate(317.07 8.352) rotate(180)" fill="#e0e0e0"/>
            <rect id="Rectangle_116" data-name="Rectangle 116" width="99.731" height="3.081" transform="translate(4.365 106.691) rotate(-90)" fill="#e0e0e0"/>
            <rect id="Rectangle_117" data-name="Rectangle 117" width="99.731" height="3.081" transform="translate(287.42 106.691) rotate(-90)" fill="#e0e0e0"/>
            <rect id="Rectangle_118" data-name="Rectangle 118" width="99.731" height="3.081" transform="translate(313.989 106.691) rotate(-90)" fill="#e0e0e0"/>
            <rect id="Rectangle_119" data-name="Rectangle 119" width="99.731" height="3.081" transform="translate(30.934 106.691) rotate(-90)" fill="#e0e0e0"/>
          </g>
        </g>
      </g>
      <g id="Table" transform="translate(296.241 275.703)">
        <g id="Group_389" data-name="Group 389">
          <g id="Group_386" data-name="Group 386" transform="translate(0 40.771)">
            <rect id="Rectangle_120" data-name="Rectangle 120" width="189.113" height="5.344" transform="translate(7.904)" fill="#407bff"/>
            <rect id="Rectangle_121" data-name="Rectangle 121" width="43.882" height="5.344" transform="translate(153.135)" opacity="0.2"/>
            <g id="Group_382" data-name="Group 382" transform="translate(148.681 5.344)">
              <path id="Path_364" data-name="Path 364" d="M365.818,458.711l-9.88-199.857h2.479l9.88,199.857Z" transform="translate(-355.938 -258.854)" fill="#407bff"/>
              <path id="Path_365" data-name="Path 365" d="M365.818,458.711l-9.88-199.857h2.479l9.88,199.857Z" transform="translate(-355.938 -258.854)" fill="#fff" opacity="0.7"/>
            </g>
            <g id="Group_383" data-name="Group 383" transform="translate(192.563 5.344)">
              <path id="Path_366" data-name="Path 366" d="M400.924,458.711l-9.88-199.857h2.479l9.88,199.857Z" transform="translate(-391.044 -258.854)" fill="#407bff"/>
              <path id="Path_367" data-name="Path 367" d="M400.924,458.711l-9.88-199.857h2.479l9.88,199.857Z" transform="translate(-391.044 -258.854)" fill="#407bff"/>
              <path id="Path_368" data-name="Path 368" d="M400.924,458.711l-9.88-199.857h2.479l9.88,199.857Z" transform="translate(-391.044 -258.854)" fill="#fff" opacity="0.7"/>
            </g>
            <g id="Group_384" data-name="Group 384" transform="translate(43.882 5.344)">
              <path id="Path_369" data-name="Path 369" d="M274.578,458.711l9.88-199.857h-2.478L272.1,458.711Z" transform="translate(-272.099 -258.854)" fill="#407bff"/>
              <path id="Path_370" data-name="Path 370" d="M274.578,458.711l9.88-199.857h-2.478L272.1,458.711Z" transform="translate(-272.099 -258.854)" fill="#fff" opacity="0.7"/>
            </g>
            <g id="Group_385" data-name="Group 385" transform="translate(0 5.344)">
              <path id="Path_371" data-name="Path 371" d="M239.472,458.711l9.88-199.857h-2.479l-9.88,199.857Z" transform="translate(-236.993 -258.854)" fill="#407bff"/>
              <path id="Path_372" data-name="Path 372" d="M239.472,458.711l9.88-199.857h-2.479l-9.88,199.857Z" transform="translate(-236.993 -258.854)" fill="#fff" opacity="0.7"/>
            </g>
          </g>
          <g id="Group_388" data-name="Group 388" transform="translate(92.822)">
            <path id="Path_373" data-name="Path 373" d="M334.253,221.962h60.8a3,3,0,0,1,3.033,3.576l-5.111,33.619a4.332,4.332,0,0,1-4.12,3.576h-60.8a3.006,3.006,0,0,1-3.032-3.576l5.111-33.619A4.332,4.332,0,0,1,334.253,221.962Z" transform="translate(-307.818 -221.962)" fill="#407bff"/>
            <g id="Group_387" data-name="Group 387" transform="translate(16.224)">
              <path id="Path_374" data-name="Path 374" d="M333.5,221.962h60.8a3,3,0,0,1,3.033,3.576l-5.111,33.619a4.332,4.332,0,0,1-4.12,3.576H327.3a3.005,3.005,0,0,1-3.033-3.576l5.111-33.619A4.332,4.332,0,0,1,333.5,221.962Z" transform="translate(-324.23 -221.962)" fill="#407bff"/>
              <path id="Path_375" data-name="Path 375" d="M333.5,221.962h60.8a3,3,0,0,1,3.033,3.576l-5.111,33.619a4.332,4.332,0,0,1-4.12,3.576H327.3a3.005,3.005,0,0,1-3.033-3.576l5.111-33.619A4.332,4.332,0,0,1,333.5,221.962Z" transform="translate(-324.23 -221.962)" fill="#fff" opacity="0.2"/>
            </g>
            <path id="Path_376" data-name="Path 376" d="M327.089,261.445a1.988,1.988,0,0,1-1.54-.663,2.057,2.057,0,0,1-.433-1.679l5.112-33.618a3.258,3.258,0,0,1,3.059-2.666h60.8a1.984,1.984,0,0,1,1.54.662,2.054,2.054,0,0,1,.431,1.68l-5.111,33.617a3.256,3.256,0,0,1-3.059,2.665Z" transform="translate(-307.792 -221.748)" fill="#fff" opacity="0.8"/>
            <path id="Path_377" data-name="Path 377" d="M312.8,253.506h80.573a1.127,1.127,0,0,1,1.137,1.341H311.251A1.623,1.623,0,0,1,312.8,253.506Z" transform="translate(-311.251 -214.076)" fill="#407bff"/>
          </g>
        </g>
      </g>
      <g id="Character" transform="translate(270.488 161.999)">
        <g id="Group_396" data-name="Group 396">
          <g id="Group_395" data-name="Group 395">
            <g id="Group_391" data-name="Group 391" transform="translate(2.66 137.412)">
              <path id="Path_378" data-name="Path 378" d="M262.818,409.6l-7.959,4.488-9.849-19.078,7.959-4.488Z" transform="translate(-211.896 -203.532)" fill="#ffb573"/>
              <path id="Path_379" data-name="Path 379" d="M254.436,409.036l9.276-4.561a.658.658,0,0,1,.89.262l4.057,7.117a1.632,1.632,0,0,1-.723,2.18c-3.257,1.533-4.892,2.1-8.972,4.106-2.51,1.234-8.481,4.314-11.948,6.018-3.39,1.666-5.051-1.771-3.735-2.8,5.9-4.63,8.55-8.135,9.981-11.112A2.6,2.6,0,0,1,254.436,409.036Z" transform="translate(-212.44 -200.062)" fill="#263238"/>
              <g id="Group_390" data-name="Group 390" transform="translate(33.115 186.991)">
                <path id="Path_380" data-name="Path 380" d="M252.974,390.522l-7.963,4.49,5.081,9.832,8.2-4.021Z" transform="translate(-245.011 -390.522)" opacity="0.2"/>
              </g>
              <path id="Path_381" data-name="Path 381" d="M253.107,240.929s-25.716,51.69-33.421,76.925c-8.437,27.634,31.649,121.174,31.649,121.174l14.631-6.411S239.752,339.978,244.289,329.7c12.528-28.376,41.694-88.171,41.694-88.171Z" transform="translate(-218.518 -240.929)" fill="#263238"/>
              <path id="Path_382" data-name="Path 382" d="M256.018,266.819c-7.019,11.768-9.976,32.969-10.436,46.756,3.959-8.525,8.206-17.4,12.19-25.649l0-.014c2.678-7.864,5.281-15.437,7.7-21.931C264.934,261.513,261.331,257.877,256.018,266.819Z" transform="translate(-211.753 -235.832)" opacity="0.3"/>
              <path id="Path_383" data-name="Path 383" d="M262.107,396.569l-15.985,8.377-4.592-5.408,18.92-10.081Z" transform="translate(-212.766 -203.797)" fill="#407bff"/>
              <path id="Path_384" data-name="Path 384" d="M250.849,410.793a11.518,11.518,0,0,0,2.055-1.378.214.214,0,0,0-.1-.378c-.354-.054-3.476-.5-4.29.39a.8.8,0,0,0-.18.765,1.178,1.178,0,0,0,.754.926A2.491,2.491,0,0,0,250.849,410.793Zm1.389-1.4c-1.333,1.02-2.443,1.51-3.016,1.316a.77.77,0,0,1-.475-.621.376.376,0,0,1,.08-.374C249.264,409.238,250.981,409.258,252.238,409.4Z" transform="translate(-211.073 -198.942)" fill="#407bff"/>
              <path id="Path_385" data-name="Path 385" d="M252.658,409.987a.215.215,0,0,0,.105-.27c-.041-.105-1.024-2.571-2.251-2.964a1.071,1.071,0,0,0-.949.133.821.821,0,0,0-.411.925c.253.995,2.331,2.113,3.4,2.2A.2.2,0,0,0,252.658,409.987Zm-2.774-2.791a.639.639,0,0,1,.5-.035c.732.234,1.469,1.561,1.831,2.356-1.015-.253-2.479-1.16-2.644-1.811-.033-.124-.035-.29.229-.461A.763.763,0,0,1,249.884,407.2Z" transform="translate(-210.867 -199.487)" fill="#407bff"/>
            </g>
            <path id="Path_386" data-name="Path 386" d="M270,187.821c-1.6,3.235-3.214,6.077-4.985,9.006-1.779,2.885-3.6,5.745-5.6,8.515-.98,1.394-2.015,2.764-3.037,4.138-1.09,1.344-2.113,2.709-3.265,4.024a86.809,86.809,0,0,1-7.245,7.69c-.626.626-1.359,1.211-2.034,1.814-.7.594-1.336,1.211-2.122,1.759l-2.266,1.672c-.247.171-.18.158-.949.659a9.712,9.712,0,0,1-1.9.92,9.4,9.4,0,0,1-9.86-2.217,9.125,9.125,0,0,1-.716-.814,6.065,6.065,0,0,1-.493-.711,23.388,23.388,0,0,1-1.5-3.036,35.865,35.865,0,0,1-1.749-5.541,69.926,69.926,0,0,1-1.511-10.384,88.026,88.026,0,0,1-.208-10.2,4.029,4.029,0,0,1,7.925-.845l.035.14a142.091,142.091,0,0,0,5.361,17.686,25.116,25.116,0,0,0,1.739,3.548,9.184,9.184,0,0,0,.861,1.219c.082.125-.056-.112-.14-.215a4.351,4.351,0,0,0-.307-.364,4.042,4.042,0,0,0-4.2-1.07c-.512.115-1.386.776-.8.285l1.5-1.42c.987-.976,1.981-2.026,2.945-3.1a127.237,127.237,0,0,0,10.711-14.595q2.492-3.9,4.872-7.923c1.574-2.641,3.164-5.454,4.575-7.975l.1-.176A8.066,8.066,0,0,1,270,187.821Z" transform="translate(-215.364 -119.704)" fill="#263238"/>
            <g id="Group_392" data-name="Group 392" transform="translate(31.314 78.521)">
              <path id="Path_387" data-name="Path 387" d="M242.687,205.286a58.818,58.818,0,0,0-1.246,11.213c.4-.4.8-.806,1.19-1.21a98.333,98.333,0,0,0,8.557-10.06c1.087-1.431,2.14-2.895,3.153-4.365.62-1.586,1.186-3.182,1.727-4.795.167-.535.33-1.044.5-1.579C252.506,192.521,245.126,194.508,242.687,205.286Z" transform="translate(-241.441 -193.816)" opacity="0.3"/>
            </g>
            <path id="Path_388" data-name="Path 388" d="M227.871,189.363l-1.01-6.46-8.039,3.692a34.389,34.389,0,0,0,2.419,6.176,3.291,3.291,0,0,0,5.242.871h0A4.884,4.884,0,0,0,227.871,189.363Z" transform="translate(-215.782 -118.024)" fill="#ffb573"/>
            <path id="Path_389" data-name="Path 389" d="M222.831,179.433l-6,4.131,2.491,3.9,8.038-3.694Z" transform="translate(-216.28 -118.891)" fill="#ffb573"/>
            <g id="Group_394" data-name="Group 394" transform="translate(0 137.741)">
              <path id="Path_390" data-name="Path 390" d="M240.638,420.1l-8.968-2.056,3.6-21.036,8.968,2.056Z" transform="translate(-212.57 -202.238)" fill="#ffb573"/>
              <path id="Path_391" data-name="Path 391" d="M235.257,412.934l10.075,2.31a.658.658,0,0,1,.525.764l-1.34,8.084a1.629,1.629,0,0,1-1.935,1.235c-3.494-.864-5.122-1.455-9.554-2.47-2.725-.625-10.3-2.064-14.064-2.927-3.682-.844-2.8-4.56-1.131-4.531,7.5.129,12.764-.859,15.753-2.268A2.589,2.589,0,0,1,235.257,412.934Z" transform="translate(-216.39 -198.272)" fill="#263238"/>
              <g id="Group_393" data-name="Group 393" transform="translate(20.843 194.778)">
                <path id="Path_392" data-name="Path 392" d="M243.886,399.071l-8.972-2.057-1.849,10.844,8.972,2.057Z" transform="translate(-233.065 -397.014)" opacity="0.2"/>
              </g>
              <path id="Path_393" data-name="Path 393" d="M268.088,241.192s-14.82,61.621-19.253,87.633c-4.854,28.483-18.374,114.522-18.374,114.522l16.425,3.766s20.486-82.054,27.859-109.666c8-29.969,24.576-66.209,24.576-95.683C289.4,241.764,268.088,241.192,268.088,241.192Z" transform="translate(-212.872 -241.192)" fill="#263238"/>
              <path id="Path_394" data-name="Path 394" d="M248.138,408.261l-20.028-4.592.444-6.459L250.2,403.2Z" transform="translate(-213.46 -202.188)" fill="#407bff"/>
              <path id="Path_395" data-name="Path 395" d="M229,414.1a11.457,11.457,0,0,0,2.464.227.213.213,0,0,0,.2-.127.216.216,0,0,0-.038-.23c-.241-.265-2.381-2.582-3.575-2.4a.8.8,0,0,0-.622.48,1.18,1.18,0,0,0,0,1.195A2.479,2.479,0,0,0,229,414.1Zm1.957-.208c-1.677-.047-2.848-.369-3.17-.881a.772.772,0,0,1,.022-.78.379.379,0,0,1,.3-.241C228.753,411.892,230.071,412.989,230.959,413.889Z" transform="translate(-213.672 -198.602)" fill="#407bff"/>
              <path id="Path_396" data-name="Path 396" d="M230.878,414.639a.213.213,0,0,0,.251-.144c.035-.107.827-2.641.122-3.72a1.069,1.069,0,0,0-.82-.495.821.821,0,0,0-.9.459c-.431.931.478,3.109,1.249,3.846A.212.212,0,0,0,230.878,414.639Zm-.392-3.916a.634.634,0,0,1,.406.286c.423.644.156,2.137-.064,2.984-.629-.837-1.193-2.464-.91-3.074.054-.116.156-.246.469-.212A.769.769,0,0,1,230.486,410.723Z" transform="translate(-213.133 -198.922)" fill="#407bff"/>
            </g>
            <path id="Path_397" data-name="Path 397" d="M251.545,182.646a8.963,8.963,0,0,1,6.9-6.028,53.791,53.791,0,0,1,6.91-1.056,183.643,183.643,0,0,1,20.91.384c3.645.24,7.359.755,10.318,1.244l.106.017a5.851,5.851,0,0,1,4.79,6.908c-1.665,8.446-4.407,23.349-5.209,37.21-1.052,18.193-.335,32.5-.763,36.89l-49.2-.9C244.129,212.828,248.36,192.708,251.545,182.646Z" transform="translate(-209.06 -119.901)" fill="#fff"/>
            <path id="Path_398" data-name="Path 398" d="M281.1,175.117c-2.553,9.6-18.3,26.574-20.216,53.273.7,14.636.115,24.615,1.916,34.424L292.923,262c.457-4.634-2.954-19.55-.713-34.661,2.174-14.649,5.258-34.57,7.01-43.475a6.182,6.182,0,0,0-5.055-7.292l-.111-.014c-3.119-.516-7.031-1.06-10.875-1.318C282.51,175.193,281.815,175.156,281.1,175.117Z" transform="translate(-205.268 -119.97)" fill="#263238"/>
            <path id="Path_399" data-name="Path 399" d="M284.176,235.933a.311.311,0,0,1-.25-.125,49.189,49.189,0,0,1-7.275-13.642.312.312,0,1,1,.6-.179,48.537,48.537,0,0,0,7.179,13.445.314.314,0,0,1-.062.439A.319.319,0,0,1,284.176,235.933Z" transform="translate(-201.328 -108.308)" fill="#fff" opacity="0.2"/>
            <path id="Path_400" data-name="Path 400" d="M285.95,192.519c-2.148,8.741-1.409,20.858.376,31.914,1.84-12.409,4.321-28.512,6.092-38.48C290.328,184.53,287.65,185.534,285.95,192.519Z" transform="translate(-199.329 -117.4)" opacity="0.3"/>
            <path id="Path_401" data-name="Path 401" d="M249.77,182.878a10.413,10.413,0,0,1,7.586-6.895,93.034,93.034,0,0,1,9.91-.837c-2.8,9.076-1.165,35.65.076,56.6-3.717,10.573-3.472,18.335-3.53,31.057L243.2,261C240.956,214.37,246.69,191.346,249.77,182.878Z" transform="translate(-209.814 -119.963)" fill="#263238"/>
            <path id="Path_402" data-name="Path 402" d="M262.281,180.087c6.106-1.327,7.243-5.068,6.909-9.208a24.915,24.915,0,0,0-.428-3.086L276.5,161.6l5.681-4.539c-1.675,6.71-3.649,18.95.823,23.525,0,0-3.884,6.145-14.28,5.393C259.939,185.347,262.281,180.087,262.281,180.087Z" transform="translate(-204.988 -124.483)" fill="#ffb573"/>
            <path id="Path_403" data-name="Path 403" d="M269.866,178.96l-1.722,1.6,5.324,2.018-.648-2.043Z" transform="translate(-203.451 -119.009)" fill="#e0e0e0"/>
            <path id="Path_404" data-name="Path 404" d="M271.461,186.482s.036-5.245-1.939-6.369a22.887,22.887,0,0,0,10.555-5.769l3.165,1.269S282.085,181.651,271.461,186.482Z" transform="translate(-203.107 -120.163)" fill="#f5f5f5"/>
            <path id="Path_405" data-name="Path 405" d="M268.06,178.633l1.219,2.01-5.673.488,1.181-1.789Z" transform="translate(-204.586 -119.091)" fill="#e0e0e0"/>
            <path id="Path_406" data-name="Path 406" d="M263.788,185.365a8.142,8.142,0,0,1,4.814-5.7c-3.052-.917-3.135-5.154-3.135-5.154l-2.993.57S259.421,180.73,263.788,185.365Z" transform="translate(-205.129 -120.122)" fill="#f5f5f5"/>
            <path id="Path_407" data-name="Path 407" d="M267.409,166.886a24.921,24.921,0,0,1,.427,3.086c2.851-.519,6.7-3.477,7.155-6.374a13.27,13.27,0,0,0,.152-2.9Z" transform="translate(-203.635 -123.575)" opacity="0.2"/>
            <path id="Path_408" data-name="Path 408" d="M259.314,141.144a10.458,10.458,0,0,0,.424,10.648l6.134-7.626Z" transform="translate(-205.98 -128.463)" fill="#263238"/>
            <path id="Path_409" data-name="Path 409" d="M284.04,150.472c-.432,9.146-.222,14.506-4.756,19.41a11.9,11.9,0,0,1-20.411-5.251c-2.069-8.1-1.014-21.7,7.846-25.756A12.043,12.043,0,0,1,284.04,150.472Z" transform="translate(-205.995 -129.333)" fill="#ffb573"/>
            <path id="Path_410" data-name="Path 410" d="M289.642,142.713c-3.95-12.649-43.336-19.19-28.061,2.217l16.754-2.295.619,4.3a59.045,59.045,0,0,0,3.429,9.818l-.7,3.892.717,6.32s6.961-7.732,10.494-11.389C298.163,150.124,292.818,142.4,289.642,142.713Z" transform="translate(-205.968 -130.999)" fill="#263238"/>
            <path id="Path_411" data-name="Path 411" d="M259.777,143.988c4.385,3.228,15.819,3.835,15.819,3.835s-1.394-3.021-3.485-4.241c4.589,2.962,8.655,6.39,16.324,6.68a22.252,22.252,0,0,0-11.972-12.78C267.233,133.345,251.569,137.947,259.777,143.988Z" transform="translate(-206.119 -129.775)" fill="#263238"/>
            <path id="Path_412" data-name="Path 412" d="M282.278,131.409s-1.7,1.155-2.087,5.147,3.67,9.169,3.67,9.169l1-2.564C281.073,138.278,282.278,131.409,282.278,131.409Z" transform="translate(-200.447 -130.897)" fill="#263238"/>
            <path id="Path_413" data-name="Path 413" d="M282.258,154.368a8.593,8.593,0,0,1-3.916,4.24c-2.243,1.105-3.425-.926-2.851-3.4.515-2.224,2.3-5.48,4.58-5.548C282.312,149.6,283.243,152.072,282.258,154.368Z" transform="translate(-201.651 -126.334)" fill="#ffb573"/>
            <path id="Path_414" data-name="Path 414" d="M268,150.886c.01.742-.374,1.364-.859,1.387s-.886-.56-.9-1.3.375-1.362.859-1.386S267.994,150.144,268,150.886Z" transform="translate(-203.925 -126.353)" fill="#263238"/>
            <path id="Path_415" data-name="Path 415" d="M261.3,151.213c.01.743-.374,1.364-.859,1.386s-.885-.559-.9-1.3.375-1.364.859-1.387S261.291,150.47,261.3,151.213Z" transform="translate(-205.601 -126.272)" fill="#263238"/>
            <path id="Path_416" data-name="Path 416" d="M263.931,151a27.76,27.76,0,0,1-3.454,6.522c1.329,1.163,3.551.494,3.551.494Z" transform="translate(-205.368 -125.998)" fill="#ed893e"/>
            <path id="Path_417" data-name="Path 417" d="M265.98,158.7a6.391,6.391,0,0,0,4.251-2.65.218.218,0,0,0-.37-.23,6.11,6.11,0,0,1-4.762,2.536.218.218,0,0,0,.022.436A7.32,7.32,0,0,0,265.98,158.7Z" transform="translate(-204.265 -124.821)" fill="#263238"/>
            <path id="Path_418" data-name="Path 418" d="M271.407,148.55a.431.431,0,0,0,.2-.089.437.437,0,0,0,.069-.613,4.188,4.188,0,0,0-3.581-1.635.43.43,0,0,0-.381.484.435.435,0,0,0,.484.381,3.322,3.322,0,0,1,2.8,1.314A.433.433,0,0,0,271.407,148.55Z" transform="translate(-203.56 -127.199)" fill="#263238"/>
            <path id="Path_419" data-name="Path 419" d="M258.111,149.513a.436.436,0,0,0,.324-.247,3.649,3.649,0,0,1,2.439-2.1.436.436,0,0,0-.148-.859h0a4.5,4.5,0,0,0-3.081,2.6.436.436,0,0,0,.468.612Z" transform="translate(-206.087 -127.175)" fill="#263238"/>
            <path id="Path_420" data-name="Path 420" d="M295.754,181.578c.84,1.87,1.555,3.565,2.245,5.362.7,1.774,1.368,3.553,2.023,5.339,1.277,3.585,2.457,7.212,3.5,10.9a113.214,113.214,0,0,1,4.321,23.072,205.646,205.646,0,0,1-.012,22.693c-.364,7.451-.953,14.834-1.93,22.253a4.024,4.024,0,0,1-7.988-.075l0-.04c-.816-7.294-1.454-14.626-2.121-21.886q-.482-5.451-1.04-10.837c-.338-3.586-.793-7.149-1.284-10.538a129.525,129.525,0,0,0-5.192-19.962c-1.128-3.34-2.3-6.687-3.533-10.016-1.186-3.314-2.559-6.71-3.786-9.845l-.07-.18a8.066,8.066,0,0,1,14.871-6.241Z" transform="translate(-200.406 -119.546)" fill="#263238"/>
            <path id="Path_421" data-name="Path 421" d="M295.541,251.945l-5.21,2.45,8.836,3.164s5.984-1.891,3.18-5.187l-1.584-.5C298.21,251.061,296.943,251.154,295.541,251.945Z" transform="translate(-197.905 -100.923)" fill="#ffb573"/>
            <path id="Path_422" data-name="Path 422" d="M287.943,259.432l9.333,1.78,2.489-4.272-8.837-3.163Z" transform="translate(-198.502 -100.305)" fill="#ffb573"/>
          </g>
        </g>
      </g>
      <g id="Chat" transform="translate(99.986 104.636)">
        <g id="Group_403" data-name="Group 403">
          <g id="Group_397" data-name="Group 397" transform="translate(51.737)">
            <rect id="Rectangle_122" data-name="Rectangle 122" width="41.942" height="1.394" transform="translate(24.864)" fill="#407bff"/>
            <path id="Path_423" data-name="Path 423" d="M122.918,92.505l-1.015-.954a20.413,20.413,0,0,1,15.051-6.442V86.5A19.037,19.037,0,0,0,122.918,92.505Z" transform="translate(-121.248 -85.109)" fill="#407bff"/>
            <path id="Path_424" data-name="Path 424" d="M137.085,89.013h80.166a18.129,18.129,0,0,1,17.789,16.73l3.035,48.01.984,15.569-16.552-15.569H141.178a18.128,18.128,0,0,1-17.788-16.731l-1.978-31.279A15.561,15.561,0,0,1,137.085,89.013Z" transform="translate(-121.379 -84.133)" fill="#407bff"/>
            <path id="Path_425" data-name="Path 425" d="M137.928,108.469h75.753a2.593,2.593,0,0,0,2.612-2.787h0a3.022,3.022,0,0,0-2.965-2.789H137.576a2.594,2.594,0,0,0-2.612,2.789h0A3.021,3.021,0,0,0,137.928,108.469Z" transform="translate(-117.984 -80.663)" fill="#fff"/>
            <path id="Path_426" data-name="Path 426" d="M138.578,118.745h75.751a2.594,2.594,0,0,0,2.612-2.789h0a3.022,3.022,0,0,0-2.965-2.789H138.226a2.594,2.594,0,0,0-2.613,2.789h0A3.022,3.022,0,0,0,138.578,118.745Z" transform="translate(-117.822 -78.094)" fill="#fff"/>
            <path id="Path_427" data-name="Path 427" d="M159.861,129.02h49.96a2.594,2.594,0,0,0,2.613-2.788h0a3.022,3.022,0,0,0-2.965-2.789h-49.96a2.593,2.593,0,0,0-2.611,2.789h0A3.021,3.021,0,0,0,159.861,129.02Z" transform="translate(-112.501 -75.525)" fill="#fff"/>
          </g>
          <g id="Group_399" data-name="Group 399" transform="translate(0 85.189)">
            <g id="Group_398" data-name="Group 398">
              <path id="Path_428" data-name="Path 428" d="M175.863,153.26H95.7a15.561,15.561,0,0,0-15.673,16.73l2.224,35.19.985,15.569L97.815,205.18h81.329a15.562,15.562,0,0,0,15.674-16.73l-1.168-18.46A18.129,18.129,0,0,0,175.863,153.26Z" transform="translate(-79.989 -153.26)" fill="#407bff"/>
              <path id="Path_429" data-name="Path 429" d="M175.863,153.26H95.7a15.561,15.561,0,0,0-15.673,16.73l2.224,35.19.985,15.569L97.815,205.18h81.329a15.562,15.562,0,0,0,15.674-16.73l-1.168-18.46A18.129,18.129,0,0,0,175.863,153.26Z" transform="translate(-79.989 -153.26)" fill="#fff" opacity="0.5"/>
            </g>
            <path id="Path_430" data-name="Path 430" d="M171.36,172.716H95.609a3.021,3.021,0,0,1-2.965-2.789h0a2.593,2.593,0,0,1,2.613-2.787h75.751a3.022,3.022,0,0,1,2.965,2.787h0A2.594,2.594,0,0,1,171.36,172.716Z" transform="translate(-76.827 -149.79)" fill="#fff"/>
            <path id="Path_431" data-name="Path 431" d="M146.219,183.012H96.26a3.021,3.021,0,0,1-2.965-2.789h0a2.593,2.593,0,0,1,2.611-2.789h49.96a3.022,3.022,0,0,1,2.965,2.789h0A2.594,2.594,0,0,1,146.219,183.012Z" transform="translate(-76.664 -147.216)" fill="#fff"/>
          </g>
          <g id="Group_402" data-name="Group 402" transform="translate(61.08 152.678)">
            <g id="Group_400" data-name="Group 400">
              <path id="Path_432" data-name="Path 432" d="M144.559,207.251h80.168a18.129,18.129,0,0,1,17.788,16.731l2.374,37.549.984,15.569-16.552-15.569H147.99A18.128,18.128,0,0,1,130.2,244.8l-1.316-20.819A15.562,15.562,0,0,1,144.559,207.251Z" transform="translate(-128.853 -207.251)" fill="#407bff"/>
            </g>
            <g id="Group_401" data-name="Group 401" transform="translate(31.844 19.247)">
              <path id="Path_433" data-name="Path 433" d="M170.049,228.535a6.358,6.358,0,0,0,6.259,5.886,5.459,5.459,0,0,0,5.514-5.886,6.358,6.358,0,0,0-6.259-5.886A5.459,5.459,0,0,0,170.049,228.535Z" transform="translate(-150.401 -222.649)" fill="#fff"/>
              <path id="Path_434" data-name="Path 434" d="M154.34,230.116A6.359,6.359,0,0,0,160.6,236a5.46,5.46,0,0,0,5.515-5.886,6.358,6.358,0,0,0-6.259-5.886A5.46,5.46,0,0,0,154.34,230.116Z" transform="translate(-154.328 -222.254)" fill="#fff"/>
              <path id="Path_435" data-name="Path 435" d="M186.107,232.487a6.358,6.358,0,0,0,6.259,5.886,5.459,5.459,0,0,0,5.514-5.886,6.358,6.358,0,0,0-6.259-5.886A5.459,5.459,0,0,0,186.107,232.487Z" transform="translate(-146.387 -221.661)" fill="#fff"/>
            </g>
          </g>
        </g>
      </g>
      <rect id="Rectangle_62" data-name="Rectangle 62" width="597" height="608" transform="translate(14 7)" fill="#0047ff" style="mix-blend-mode: hue;isolation: isolate"/>
    </g>
  </g>
</svg>
