<svg xmlns="http://www.w3.org/2000/svg" xmlns:xlink="http://www.w3.org/1999/xlink" width="800" height="600" viewBox="0 0 800 600">
  <defs>
    <clipPath id="clip-Mesa_de_trabajo_1">
      <rect width="800" height="600"/>
    </clipPath>
  </defs>
  <g id="Mesa_de_trabajo_1" data-name="Mesa de trabajo 1" clip-path="url(#clip-Mesa_de_trabajo_1)">
    <rect width="800" height="600" fill="#fff"/>
    <g id="Group_213" data-name="Group 213" transform="translate(-84 -17.741)">
      <g id="Group_212" data-name="Group 212" transform="translate(90 16.741)">
        <g id="Group_210" data-name="Group 210" transform="translate(0 44.861)">
          <g id="Background_2" data-name="Background 2" transform="translate(16.397 38.317)">
            <g id="Group_52" data-name="Group 52" transform="translate(463.955)">
              <path id="Path_119" data-name="Path 119" d="M438.91,122.158h94.78s.012-21.7-11.189-21.7c-14.779,0-17.379,13.453-17.379,13.453s0-40.5-20.377-34.556c-19.282,5.623-21.461,31.547-21.461,31.547s-3.471-13.037-13.923-5.69S438.91,122.158,438.91,122.158Z" transform="translate(-438.91 -78.761)" fill="#ebebeb"/>
            </g>
            <g id="Group_53" data-name="Group 53" transform="translate(147.428 92.387)">
              <path id="Path_120" data-name="Path 120" d="M203.152,174.018h57.757s.008-13.223-6.819-13.223a10.5,10.5,0,0,0-10.589,8.2s0-24.68-12.418-21.059c-11.75,3.426-13.078,19.225-13.078,19.225s-2.115-7.945-8.484-3.468S203.152,174.018,203.152,174.018Z" transform="translate(-203.152 -147.573)" fill="#e0e0e0"/>
            </g>
            <g id="Group_55" data-name="Group 55" transform="translate(0 324.756)">
              <g id="Group_54" data-name="Group 54">
                <path id="Path_121" data-name="Path 121" d="M295.675,376.618,274.61,462.333h11.112l19.561-85.714Z" transform="translate(-31.242 -301.473)" fill="#e0e0e0"/>
                <path id="Path_122" data-name="Path 122" d="M319.2,376.618l18.108,85.714h11.456L328.44,376.618Z" transform="translate(-15.966 -301.473)" fill="#e0e0e0"/>
                <path id="Path_123" data-name="Path 123" d="M279.606,324.953l12.111,63.585h13.763l-12.937-63.585Z" transform="translate(-29.531 -319.173)" fill="#e0e0e0"/>
                <path id="Path_124" data-name="Path 124" d="M127.864,376.618,106.8,462.333h11.112l19.561-85.714Z" transform="translate(-88.733 -301.473)" fill="#e0e0e0"/>
                <path id="Path_125" data-name="Path 125" d="M151.39,376.618,169.5,462.333h11.456l-20.326-85.714Z" transform="translate(-73.457 -301.473)" fill="#e0e0e0"/>
                <path id="Path_126" data-name="Path 126" d="M111.795,324.953l12.111,63.585h13.763l-12.937-63.585Z" transform="translate(-87.022 -319.173)" fill="#e0e0e0"/>
                <rect id="Rectangle_41" data-name="Rectangle 41" width="276.359" height="11.561" fill="#f0f0f0"/>
                <rect id="Rectangle_42" data-name="Rectangle 42" width="276.359" height="11.561" transform="translate(3.854 23.672)" fill="#f0f0f0"/>
                <rect id="Rectangle_43" data-name="Rectangle 43" width="276.359" height="11.561" transform="translate(8.258 45.693)" fill="#f0f0f0"/>
                <rect id="Rectangle_44" data-name="Rectangle 44" width="295.076" height="11.561" transform="translate(25.675 69.365)" fill="#f0f0f0"/>
              </g>
            </g>
            <g id="Group_63" data-name="Group 63" transform="translate(545.354 140.072)">
              <path id="Path_127" data-name="Path 127" d="M549.7,441.1a68.745,68.745,0,0,1-46.664-88.073c4.613-13.749,13.5-25.85,17.315-39.843,4.326-15.882,1.749-32.728-.922-48.97s-5.393-33.038-1.337-48.991,16.827-30.935,33.248-32.068c15.232-1.051,29.3,10.233,35.657,24.117s6.4,29.8,4.913,45-4.377,30.371-3.468,45.612c1.841,30.853,19.122,59.894,17.091,90.735-1.058,16.059-7.273,26.339-17.91,38.416C578.453,437.448,563.206,444.3,549.7,441.1" transform="translate(-499.538 -183.09)" fill="#f0f0f0"/>
              <g id="Group_62" data-name="Group 62" transform="translate(22.509 109.367)">
                <g id="Group_57" data-name="Group 57" transform="translate(29.142)">
                  <g id="Group_56" data-name="Group 56">
                    <path id="Path_128" data-name="Path 128" d="M541.659,264.55c.455.007.048,52.957-.908,118.253-.957,65.32-2.1,118.249-2.556,118.241s-.048-52.945.908-118.265C540.059,317.483,541.2,264.543,541.659,264.55Z" transform="translate(-538.009 -264.55)" fill="#e0e0e0"/>
                  </g>
                </g>
                <g id="Group_58" data-name="Group 58" transform="translate(33.638 32.133)">
                  <path id="Path_129" data-name="Path 129" d="M569.99,288.491c.361.277-5.754,8.811-13.656,19.061s-14.6,18.333-14.962,18.055,5.753-8.811,13.657-19.062S569.63,288.213,569.99,288.491Z" transform="translate(-541.358 -288.484)" fill="#e0e0e0"/>
                </g>
                <g id="Group_59" data-name="Group 59" transform="translate(5.712 45.935)">
                  <path id="Path_130" data-name="Path 130" d="M547.053,319.427c-.281.358-6.436-3.971-13.748-9.671s-13.016-10.612-12.737-10.972,6.435,3.971,13.75,9.672S547.332,319.067,547.053,319.427Z" transform="translate(-520.558 -298.764)" fill="#e0e0e0"/>
                </g>
                <g id="Group_60" data-name="Group 60" transform="translate(0 103.01)">
                  <path id="Path_131" data-name="Path 131" d="M546.864,366.192c-.325.344-6.951-5.478-15.374-12.328-8.413-6.87-15.451-12.183-15.179-12.571.246-.361,7.751,4.377,16.22,11.293C541.012,359.483,547.169,365.879,546.864,366.192Z" transform="translate(-516.303 -341.275)" fill="#e0e0e0"/>
                </g>
                <g id="Group_61" data-name="Group 61" transform="translate(33.575 90.01)">
                  <path id="Path_132" data-name="Path 132" d="M572.573,331.6c.354.286-6.353,9.222-14.982,19.959s-15.911,19.212-16.267,18.928,6.352-9.22,14.983-19.96S572.217,331.314,572.573,331.6Z" transform="translate(-541.311 -331.592)" fill="#e0e0e0"/>
                </g>
              </g>
            </g>
          </g>
          <g id="Floor" transform="translate(0 524.703)">
            <g id="Group_64" data-name="Group 64">
              <path id="Path_134" data-name="Path 134" d="M868.22,441.4c0,.2-176.21.362-393.526.362-217.392,0-393.564-.162-393.564-.362s176.172-.361,393.564-.361C692.01,441.034,868.22,441.2,868.22,441.4Z" transform="translate(-81.13 -441.034)" fill="#263238"/>
            </g>
          </g>
          <g id="Plant" transform="translate(514.74 464.856)">
            <g id="Group_68" data-name="Group 68">
              <path id="Path_135" data-name="Path 135" d="M494.992,396.458a12.015,12.015,0,0,0-8.337,4.361,21.226,21.226,0,0,0-4.189,8.628c-1.561,6.042-.509,13.147,1.262,19.131,6.506-2.388,10.471-9.383,12.259-13.057,2.826-5.808,4.408-18.02-.995-19.062" transform="translate(-460.027 -396.458)" fill="#e8505b"/>
              <path id="Path_136" data-name="Path 136" d="M479.933,430.272a10.253,10.253,0,0,0,.391-10.286,13.616,13.616,0,0,0-8.256-6.521c-1.6-.475-3.445-.665-4.823.273a4.388,4.388,0,0,0-1.653,4.126,8.888,8.888,0,0,0,1.913,4.2c3.21,4.269,7.1,7.811,12.427,8.207" transform="translate(-465.559 -390.766)" fill="#e8505b"/>
              <g id="Group_65" data-name="Group 65" transform="translate(7.418 29.561)">
                <path id="Path_137" data-name="Path 137" d="M477.985,449.145a4.785,4.785,0,0,0,.321-1.271c.161-.826.371-2.025.584-3.516a44.008,44.008,0,0,0,.3-11.779,22.051,22.051,0,0,0-4.417-10.9,14.5,14.5,0,0,0-2.568-2.513,4,4,0,0,0-1.121-.689,30.567,30.567,0,0,1,3.3,3.5,23.148,23.148,0,0,1,4.115,10.688,50.991,50.991,0,0,1-.1,11.627A39.569,39.569,0,0,0,477.985,449.145Z" transform="translate(-471.084 -418.475)" fill="#455a64"/>
              </g>
              <g id="Group_66" data-name="Group 66" transform="translate(13.519 9.194)">
                <path id="Path_138" data-name="Path 138" d="M495.048,403.306a12.908,12.908,0,0,0-.963,1.936c-.579,1.265-1.387,3.107-2.36,5.395-1.947,4.574-4.534,10.939-7.218,18.035s-4.951,13.584-6.516,18.3c-.784,2.359-1.4,4.275-1.8,5.607a12.811,12.811,0,0,0-.559,2.089,12.865,12.865,0,0,0,.818-2c.516-1.422,1.191-3.285,2.007-5.533,1.682-4.674,4.024-11.125,6.7-18.218s5.192-13.474,7.022-18.094c.875-2.225,1.6-4.069,2.153-5.476A12.58,12.58,0,0,0,495.048,403.306Z" transform="translate(-475.628 -403.306)" fill="#455a64"/>
              </g>
              <path id="Path_139" data-name="Path 139" d="M481.336,432.967a23.984,23.984,0,0,1,19.257-10.452c1.933-.027,4.232.434,4.989,2.213s-.513,3.766-1.908,5.11a20.488,20.488,0,0,1-22.44,3.644" transform="translate(-460.189 -387.531)" fill="#e8505b"/>
              <g id="Group_67" data-name="Group 67" transform="translate(13.816 39.697)">
                <path id="Path_140" data-name="Path 140" d="M499.11,426.057a4.265,4.265,0,0,0-1.255.019,10.1,10.1,0,0,0-1.462.18,16.713,16.713,0,0,0-1.915.4A25.26,25.26,0,0,0,489.7,428.4a26.966,26.966,0,0,0-9.621,7.818,25.3,25.3,0,0,0-2.684,4.326,17.037,17.037,0,0,0-.78,1.792,10.131,10.131,0,0,0-.475,1.394,4.377,4.377,0,0,0-.275,1.226c.13.043.624-1.677,1.97-4.185a28.178,28.178,0,0,1,2.752-4.154,28.473,28.473,0,0,1,9.4-7.639,28.12,28.12,0,0,1,4.628-1.843C497.341,426.324,499.125,426.193,499.11,426.057Z" transform="translate(-475.85 -426.026)" fill="#455a64"/>
              </g>
            </g>
          </g>
          <g id="Device" transform="translate(310.8)">
            <g id="Group_97" data-name="Group 97">
              <g id="Group_72" data-name="Group 72">
                <g id="Group_71" data-name="Group 71">
                  <g id="Group_69" data-name="Group 69">
                    <path id="Path_141" data-name="Path 141" d="M476.581,445.453l-134.1-.619A29.211,29.211,0,0,1,313.405,415.5l1.422-336.19a29.211,29.211,0,0,1,29.345-29.089l134.1.62a29.212,29.212,0,0,1,29.077,29.334l-1.422,336.191A29.21,29.21,0,0,1,476.581,445.453Z" transform="translate(-313.405 -50.221)" fill="#263238"/>
                  </g>
                  <g id="Group_70" data-name="Group 70" transform="translate(8.205 11.78)">
                    <path id="Path_142" data-name="Path 142" d="M475.286,59.613l-26-.119a6.459,6.459,0,0,0-6.341,6.571l-.02,4.717a6.458,6.458,0,0,1-6.341,6.571l-50.679-.235a6.464,6.464,0,0,1-6.286-6.628l.02-4.717a6.464,6.464,0,0,0-6.286-6.628l-9.143-.043L341.455,59A20.458,20.458,0,0,0,320.9,79.366l-1.387,328.146a20.458,20.458,0,0,0,20.363,20.546l133.831.618A20.459,20.459,0,0,0,494.263,408.3l1.387-328.147A20.459,20.459,0,0,0,475.286,59.613Z" transform="translate(-319.516 -58.995)" fill="#fff"/>
                  </g>
                </g>
              </g>
              <g id="Group_73" data-name="Group 73" transform="translate(81.82 52.549)">
                <rect id="Rectangle_45" data-name="Rectangle 45" width="34.527" height="6.335" transform="translate(0.029 0) rotate(0.264)" fill="#455a64"/>
              </g>
              <g id="Group_78" data-name="Group 78" transform="translate(18.669 72.888)">
                <g id="Group_75" data-name="Group 75" transform="translate(12.391 9.204)">
                  <path id="Path_143" data-name="Path 143" d="M348.991,123.691a5.2,5.2,0,0,0,3.1-4.816,4.893,4.893,0,1,0-9.766-.046,5.2,5.2,0,0,0,3.112,4.862,7.818,7.818,0,0,0-6.614,5.681,11.061,11.061,0,0,0,6.775,3.652l3.01.015a11.072,11.072,0,0,0,6.878-3.68A7.687,7.687,0,0,0,348.991,123.691Z" transform="translate(-335.756 -110.584)" fill="#455a64"/>
                  <g id="Group_74" data-name="Group 74">
                    <path id="Path_144" data-name="Path 144" d="M347.935,133.925c-.005-.083.99-.032,2.678-.479a11.074,11.074,0,0,0,5.952-4.056,10.825,10.825,0,0,0,1.5-10.243,10.833,10.833,0,0,0-3.766-4.994,10.735,10.735,0,0,0-12.722,0,10.807,10.807,0,0,0-3.766,4.994,10.825,10.825,0,0,0,1.5,10.243,11.066,11.066,0,0,0,5.952,4.056c1.689.447,2.684.4,2.678.479a2.679,2.679,0,0,1-.713.035,8.845,8.845,0,0,1-2.031-.25,11.053,11.053,0,0,1-6.279-4.021,11.207,11.207,0,0,1-2.17-4.766,11.379,11.379,0,0,1,.461-6,11.42,11.42,0,0,1,3.966-5.327,11.362,11.362,0,0,1,13.533,0,11.408,11.408,0,0,1,3.966,5.326,11.406,11.406,0,0,1,.461,6,11.215,11.215,0,0,1-2.17,4.766,11.06,11.06,0,0,1-6.279,4.021,8.847,8.847,0,0,1-2.033.25A2.664,2.664,0,0,1,347.935,133.925Z" transform="translate(-336.54 -111.365)" fill="#455a64"/>
                  </g>
                </g>
                <g id="Group_77" data-name="Group 77">
                  <g id="Group_76" data-name="Group 76">
                    <path id="Path_145" data-name="Path 145" d="M481.009,146.289c0-.03.345,0,1-.134a5.242,5.242,0,0,0,2.56-1.348,5.334,5.334,0,0,0,1.618-4.3c-.009-1.908-.02-4.1-.031-6.576-.017-4.953-.038-11-.06-18.027q-.006-2.634-.013-5.451a5.11,5.11,0,0,0-2.512-4.672c-1.655-1.047-3.814-.589-5.9-.687l-6.474.012-138.241.1a4.957,4.957,0,0,0-4.029,2.084,4.837,4.837,0,0,0-.855,2.158c-.1.749-.038,1.631-.054,2.452q0,5,0,9.931,0,9.852.007,19.4a4.9,4.9,0,0,0,2.038,3.777,4.777,4.777,0,0,0,2.013.857,15.1,15.1,0,0,0,2.284.082l9.28.005,17.965.012,62.149.074,41.9.111,11.392.066,2.962.035c.667.012,1.01.036,1.01.036s-.342.023-1.01.035l-2.962.035-11.392.066-41.9.111-62.149.074-17.965.012-9.28.005a15.44,15.44,0,0,1-2.4-.091,5.449,5.449,0,0,1-2.293-.973,5.586,5.586,0,0,1-2.324-4.3q-.008-9.554-.017-19.431,0-4.93,0-9.931a24.528,24.528,0,0,1,.06-2.548,5.523,5.523,0,0,1,.977-2.466,5.656,5.656,0,0,1,4.6-2.378l138.241.1,6.474.012,3.115.005a5.531,5.531,0,0,1,5.717,5.824q-.008,2.815-.015,5.451c-.023,7.023-.043,13.074-.059,18.027-.012,2.472-.023,4.668-.032,6.576a5.479,5.479,0,0,1-1.729,4.4,5.225,5.225,0,0,1-2.644,1.316A3.777,3.777,0,0,1,481.009,146.289Z" transform="translate(-327.31 -104.51)" fill="#e0e0e0"/>
                  </g>
                  <rect id="Rectangle_46" data-name="Rectangle 46" width="39.049" height="2.929" transform="translate(45.209 11.12)" fill="#455a64"/>
                  <rect id="Rectangle_47" data-name="Rectangle 47" width="68.418" height="2.929" transform="translate(45.209 27.67)" fill="#455a64"/>
                  <rect id="Rectangle_48" data-name="Rectangle 48" width="99.151" height="2.929" transform="translate(45.209 19.194)" fill="#455a64"/>
                </g>
              </g>
              <g id="Group_83" data-name="Group 83" transform="translate(18.669 177.892)">
                <g id="Group_80" data-name="Group 80" transform="translate(12.391 9.204)">
                  <path id="Path_146" data-name="Path 146" d="M348.991,201.9a5.208,5.208,0,0,0,3.1-4.817,4.893,4.893,0,1,0-9.766-.046,5.2,5.2,0,0,0,3.112,4.863,7.815,7.815,0,0,0-6.614,5.681,11.075,11.075,0,0,0,6.775,3.652l3.01.013a11.072,11.072,0,0,0,6.878-3.68A7.684,7.684,0,0,0,348.991,201.9Z" transform="translate(-335.756 -188.794)" fill="#455a64"/>
                  <g id="Group_79" data-name="Group 79">
                    <path id="Path_147" data-name="Path 147" d="M347.935,212.135c-.005-.082.99-.032,2.678-.479a11.066,11.066,0,0,0,5.952-4.056,10.825,10.825,0,0,0,1.5-10.243,10.833,10.833,0,0,0-3.766-4.994,10.735,10.735,0,0,0-12.722,0,10.807,10.807,0,0,0-3.766,4.994,10.825,10.825,0,0,0,1.5,10.243,11.059,11.059,0,0,0,5.952,4.056c1.689.447,2.684.4,2.678.479a2.682,2.682,0,0,1-.713.035,8.842,8.842,0,0,1-2.031-.25,11.057,11.057,0,0,1-6.279-4.02,11.22,11.22,0,0,1-2.17-4.768,11.379,11.379,0,0,1,.461-6,11.408,11.408,0,0,1,3.966-5.326,11.359,11.359,0,0,1,13.533,0,11.408,11.408,0,0,1,3.966,5.326,11.406,11.406,0,0,1,.461,6,11.215,11.215,0,0,1-2.17,4.766,11.06,11.06,0,0,1-6.279,4.021,8.844,8.844,0,0,1-2.033.25A2.667,2.667,0,0,1,347.935,212.135Z" transform="translate(-336.54 -189.575)" fill="#455a64"/>
                  </g>
                </g>
                <g id="Group_82" data-name="Group 82">
                  <g id="Group_81" data-name="Group 81">
                    <path id="Path_148" data-name="Path 148" d="M481.009,224.5c0-.03.345,0,1-.133a5.257,5.257,0,0,0,2.56-1.349,5.334,5.334,0,0,0,1.618-4.3c-.009-1.908-.02-4.1-.031-6.575-.017-4.954-.038-11.005-.06-18.027q-.006-2.636-.013-5.452a5.11,5.11,0,0,0-2.512-4.672c-1.655-1.047-3.814-.589-5.9-.687l-6.474.012-138.241.1a4.957,4.957,0,0,0-4.029,2.084,4.843,4.843,0,0,0-.855,2.158c-.1.749-.038,1.631-.054,2.452q0,5,0,9.931,0,9.854.007,19.4a4.9,4.9,0,0,0,2.038,3.777,4.777,4.777,0,0,0,2.013.857,15.272,15.272,0,0,0,2.284.083l9.28,0,17.965.012,62.149.075,41.9.11c4.931.03,8.766.051,11.392.066l2.962.035c.667.012,1.01.036,1.01.036s-.342.024-1.01.035l-2.962.035-11.392.066-41.9.111-62.149.075-17.965.011-9.28.005a15.438,15.438,0,0,1-2.4-.091,5.464,5.464,0,0,1-2.293-.972,5.591,5.591,0,0,1-2.324-4.3q-.008-9.554-.017-19.431,0-4.93,0-9.931a24.528,24.528,0,0,1,.06-2.548,5.512,5.512,0,0,1,.977-2.465,5.658,5.658,0,0,1,4.6-2.379l138.241.1,6.474.012,3.115.005a5.531,5.531,0,0,1,5.717,5.824q-.008,2.815-.015,5.452c-.023,7.022-.043,13.073-.059,18.027-.012,2.47-.023,4.667-.032,6.575a5.479,5.479,0,0,1-1.729,4.4,5.214,5.214,0,0,1-2.644,1.316A3.776,3.776,0,0,1,481.009,224.5Z" transform="translate(-327.31 -182.72)" fill="#e0e0e0"/>
                  </g>
                  <rect id="Rectangle_49" data-name="Rectangle 49" width="39.049" height="2.929" transform="translate(44.421 11.12)" fill="#455a64"/>
                  <rect id="Rectangle_50" data-name="Rectangle 50" width="68.418" height="2.929" transform="translate(45.209 27.671)" fill="#455a64"/>
                  <rect id="Rectangle_51" data-name="Rectangle 51" width="99.151" height="2.929" transform="translate(45.209 19.194)" fill="#455a64"/>
                </g>
              </g>
              <g id="Group_88" data-name="Group 88" transform="translate(18.669 230.394)">
                <g id="Group_85" data-name="Group 85" transform="translate(12.391 9.204)">
                  <path id="Path_149" data-name="Path 149" d="M348.991,241.007a5.208,5.208,0,0,0,3.1-4.817,4.893,4.893,0,1,0-9.766-.044,5.2,5.2,0,0,0,3.112,4.862,7.815,7.815,0,0,0-6.614,5.681,11.075,11.075,0,0,0,6.775,3.652l3.01.013a11.065,11.065,0,0,0,6.878-3.68A7.684,7.684,0,0,0,348.991,241.007Z" transform="translate(-335.756 -227.899)" fill="#455a64"/>
                  <g id="Group_84" data-name="Group 84">
                    <path id="Path_150" data-name="Path 150" d="M347.935,251.24c-.005-.082.99-.032,2.678-.479a11.074,11.074,0,0,0,5.952-4.056,10.824,10.824,0,0,0,1.5-10.243,10.851,10.851,0,0,0-3.766-4.994,10.735,10.735,0,0,0-12.722,0,10.807,10.807,0,0,0-3.766,4.994,10.825,10.825,0,0,0,1.5,10.243,11.077,11.077,0,0,0,5.952,4.057c1.689.446,2.684.4,2.678.478a2.678,2.678,0,0,1-.713.035,8.844,8.844,0,0,1-2.031-.25,11.05,11.05,0,0,1-6.279-4.02,11.222,11.222,0,0,1-2.17-4.766,11.377,11.377,0,0,1,.461-6,11.4,11.4,0,0,1,3.966-5.327,11.359,11.359,0,0,1,13.533,0,11.42,11.42,0,0,1,3.966,5.327,11.4,11.4,0,0,1,.461,5.995,11.215,11.215,0,0,1-2.17,4.766,11.06,11.06,0,0,1-6.279,4.021,8.846,8.846,0,0,1-2.033.25A2.663,2.663,0,0,1,347.935,251.24Z" transform="translate(-336.54 -228.68)" fill="#455a64"/>
                  </g>
                </g>
                <g id="Group_87" data-name="Group 87">
                  <g id="Group_86" data-name="Group 86">
                    <path id="Path_151" data-name="Path 151" d="M481.009,263.6c0-.03.345,0,1-.133a5.257,5.257,0,0,0,2.56-1.349,5.334,5.334,0,0,0,1.618-4.3c-.009-1.908-.02-4.1-.031-6.575-.017-4.954-.038-11.005-.06-18.027q-.006-2.636-.013-5.452a5.11,5.11,0,0,0-2.512-4.672c-1.655-1.047-3.814-.589-5.9-.687l-6.474.012-138.241.1a4.957,4.957,0,0,0-4.029,2.084,4.843,4.843,0,0,0-.855,2.158c-.1.75-.038,1.631-.054,2.453q0,5,0,9.93,0,9.854.007,19.4a4.9,4.9,0,0,0,2.038,3.777,4.777,4.777,0,0,0,2.013.857,15.268,15.268,0,0,0,2.284.083l9.28,0,17.965.012,62.149.075,41.9.11c4.931.03,8.766.051,11.392.066l2.962.035c.667.012,1.01.036,1.01.036s-.342.024-1.01.036l-2.962.034-11.392.066-41.9.111-62.149.075-17.965.011-9.28.005a15.442,15.442,0,0,1-2.4-.091,5.448,5.448,0,0,1-2.293-.972,5.591,5.591,0,0,1-2.324-4.3q-.008-9.554-.017-19.431,0-4.93,0-9.93a24.545,24.545,0,0,1,.06-2.55,5.518,5.518,0,0,1,.977-2.465,5.654,5.654,0,0,1,4.6-2.379l138.241.1,6.474.012,3.115.007a5.531,5.531,0,0,1,5.717,5.823q-.008,2.815-.015,5.452c-.023,7.022-.043,13.073-.059,18.027-.012,2.47-.023,4.667-.032,6.575a5.479,5.479,0,0,1-1.729,4.4,5.214,5.214,0,0,1-2.644,1.316A3.776,3.776,0,0,1,481.009,263.6Z" transform="translate(-327.31 -221.825)" fill="#e0e0e0"/>
                  </g>
                  <rect id="Rectangle_52" data-name="Rectangle 52" width="39.049" height="2.929" transform="translate(45.209 11.12)" fill="#455a64"/>
                  <rect id="Rectangle_53" data-name="Rectangle 53" width="68.418" height="2.929" transform="translate(45.209 27.671)" fill="#455a64"/>
                  <rect id="Rectangle_54" data-name="Rectangle 54" width="99.151" height="2.929" transform="translate(45.209 19.194)" fill="#455a64"/>
                </g>
              </g>
              <g id="Group_93" data-name="Group 93" transform="translate(18.669 282.898)">
                <g id="Group_90" data-name="Group 90" transform="translate(12.391 9.202)">
                  <path id="Path_152" data-name="Path 152" d="M348.991,280.112a5.207,5.207,0,0,0,3.1-4.817,4.893,4.893,0,1,0-9.766-.044,5.2,5.2,0,0,0,3.112,4.862,7.815,7.815,0,0,0-6.614,5.681,11.075,11.075,0,0,0,6.775,3.652l3.01.013a11.065,11.065,0,0,0,6.878-3.68A7.684,7.684,0,0,0,348.991,280.112Z" transform="translate(-335.756 -267.004)" fill="#455a64"/>
                  <g id="Group_89" data-name="Group 89">
                    <path id="Path_153" data-name="Path 153" d="M347.935,290.346c-.005-.083.99-.034,2.678-.479a11.077,11.077,0,0,0,5.952-4.057,10.825,10.825,0,0,0,1.5-10.243,10.838,10.838,0,0,0-3.766-4.993,10.732,10.732,0,0,0-12.722,0,10.807,10.807,0,0,0-3.766,4.994,10.828,10.828,0,0,0,1.5,10.244,11.073,11.073,0,0,0,5.952,4.056c1.689.446,2.684.4,2.678.479a2.728,2.728,0,0,1-.713.034,8.771,8.771,0,0,1-2.031-.25,11.05,11.05,0,0,1-6.279-4.02,11.214,11.214,0,0,1-2.17-4.766,11.377,11.377,0,0,1,.461-6,11.4,11.4,0,0,1,3.966-5.327,11.359,11.359,0,0,1,13.533,0,11.419,11.419,0,0,1,3.966,5.327,11.4,11.4,0,0,1,.461,5.995,11.215,11.215,0,0,1-2.17,4.766,11.053,11.053,0,0,1-6.279,4.021,8.773,8.773,0,0,1-2.033.25A2.713,2.713,0,0,1,347.935,290.346Z" transform="translate(-336.54 -267.785)" fill="#455a64"/>
                  </g>
                </g>
                <g id="Group_92" data-name="Group 92">
                  <g id="Group_91" data-name="Group 91">
                    <path id="Path_154" data-name="Path 154" d="M481.009,302.708c0-.03.345,0,1-.133a5.258,5.258,0,0,0,2.56-1.349,5.332,5.332,0,0,0,1.618-4.3c-.009-1.908-.02-4.1-.031-6.575-.017-4.954-.038-11.005-.06-18.027q-.006-2.636-.013-5.451a5.11,5.11,0,0,0-2.512-4.674c-1.655-1.047-3.814-.589-5.9-.687l-6.474.012-138.241.1a4.957,4.957,0,0,0-4.029,2.084,4.843,4.843,0,0,0-.855,2.158c-.1.751-.038,1.633-.054,2.453q0,5,0,9.93,0,9.854.007,19.4a4.908,4.908,0,0,0,2.038,3.778,4.774,4.774,0,0,0,2.013.855,15.264,15.264,0,0,0,2.284.083l9.28,0,17.965.012,62.149.075,41.9.111,11.392.066,2.962.034c.667.012,1.01.036,1.01.036s-.342.024-1.01.036l-2.962.034-11.392.066-41.9.111-62.149.075-17.965.012-9.28,0a15.438,15.438,0,0,1-2.4-.091,5.447,5.447,0,0,1-2.293-.972,5.591,5.591,0,0,1-2.324-4.3q-.008-9.554-.017-19.431,0-4.93,0-9.93a24.546,24.546,0,0,1,.06-2.55,5.518,5.518,0,0,1,.977-2.465,5.653,5.653,0,0,1,4.6-2.378l138.241.1,6.474.012,3.115.007a5.528,5.528,0,0,1,5.717,5.824q-.008,2.813-.015,5.451c-.023,7.022-.043,13.073-.059,18.027-.012,2.47-.023,4.667-.032,6.575a5.479,5.479,0,0,1-1.729,4.4,5.2,5.2,0,0,1-2.644,1.316A3.776,3.776,0,0,1,481.009,302.708Z" transform="translate(-327.31 -260.931)" fill="#e0e0e0"/>
                  </g>
                  <rect id="Rectangle_55" data-name="Rectangle 55" width="39.049" height="2.929" transform="translate(45.209 11.119)" fill="#455a64"/>
                  <rect id="Rectangle_56" data-name="Rectangle 56" width="68.418" height="2.929" transform="translate(45.209 27.67)" fill="#455a64"/>
                  <rect id="Rectangle_57" data-name="Rectangle 57" width="99.151" height="2.929" transform="translate(45.209 19.193)" fill="#455a64"/>
                </g>
              </g>
              <g id="Group_94" data-name="Group 94" transform="translate(83.403 347.483)">
                <path id="Path_155" data-name="Path 155" d="M381.048,312a2.767,2.767,0,1,1-2.748-2.959A2.856,2.856,0,0,1,381.048,312Z" transform="translate(-375.526 -309.036)" fill="#455a64"/>
              </g>
              <g id="Group_95" data-name="Group 95" transform="translate(91.96 347.524)">
                <path id="Path_156" data-name="Path 156" d="M387.421,312.024a2.767,2.767,0,1,1-2.748-2.958A2.855,2.855,0,0,1,387.421,312.024Z" transform="translate(-381.899 -309.066)" fill="#455a64"/>
              </g>
              <g id="Group_96" data-name="Group 96" transform="translate(100.515 347.563)">
                <path id="Path_157" data-name="Path 157" d="M393.794,312.053a2.767,2.767,0,1,1-2.75-2.958A2.856,2.856,0,0,1,393.794,312.053Z" transform="translate(-388.271 -309.095)" fill="#455a64"/>
              </g>
            </g>
          </g>
          <g id="Character" transform="translate(236.357 113.949)">
            <g id="Group_209" data-name="Group 209">
              <g id="Group_101" data-name="Group 101" transform="translate(35.887)">
                <g id="Group_100" data-name="Group 100" transform="translate(0)">
                  <rect id="Rectangle_58" data-name="Rectangle 58" width="158.625" height="41.428" rx="3.932" transform="translate(0 11.407) rotate(-4.124)" fill="#e8505b"/>
                  <rect id="Rectangle_59" data-name="Rectangle 59" width="39.049" height="2.929" transform="translate(45.515 18.923) rotate(-4.124)" fill="#fafafa"/>
                  <rect id="Rectangle_60" data-name="Rectangle 60" width="68.418" height="2.929" transform="translate(46.705 35.431) rotate(-4.124)" fill="#fafafa"/>
                  <rect id="Rectangle_61" data-name="Rectangle 61" width="99.151" height="2.929" transform="matrix(0.997, -0.072, 0.072, 0.997, 46.096, 26.976)" fill="#fafafa"/>
                  <g id="Group_99" data-name="Group 99" transform="translate(13.43 18.528)">
                    <path id="Path_158" data-name="Path 158" d="M306.938,161.077a5.205,5.205,0,0,0,2.747-5.027,4.893,4.893,0,1,0-9.743.658,5.2,5.2,0,0,0,3.453,4.625,7.815,7.815,0,0,0-6.188,6.141,11.072,11.072,0,0,0,7.02,3.155l3-.2a11.069,11.069,0,0,0,6.6-4.165A7.688,7.688,0,0,0,306.938,161.077Z" transform="translate(-293.58 -148.112)" fill="#fafafa"/>
                    <g id="Group_98" data-name="Group 98">
                      <path id="Path_159" data-name="Path 159" d="M306.708,171.419c-.011-.082.985-.1,2.637-.67a11.072,11.072,0,0,0,5.646-4.475,10.833,10.833,0,0,0,.756-10.323,10.817,10.817,0,0,0-4.115-4.71,10.731,10.731,0,0,0-12.689.914,10.812,10.812,0,0,0-3.4,5.252,10.826,10.826,0,0,0,2.23,10.108A11.072,11.072,0,0,0,304,171.134c1.716.324,2.705.2,2.705.285a2.668,2.668,0,0,1-.708.086,8.848,8.848,0,0,1-2.045-.1,11.043,11.043,0,0,1-6.552-3.558,11.2,11.2,0,0,1-2.508-4.6,11.4,11.4,0,0,1,.028-6.013,11.418,11.418,0,0,1,3.574-5.6,11.358,11.358,0,0,1,13.5-.972,11.414,11.414,0,0,1,4.338,5.027,11.4,11.4,0,0,1,.89,5.948,11.2,11.2,0,0,1-1.821,4.91,11.051,11.051,0,0,1-5.973,4.461,8.807,8.807,0,0,1-2.01.4A2.666,2.666,0,0,1,306.708,171.419Z" transform="translate(-294.505 -148.893)" fill="#fafafa"/>
                    </g>
                  </g>
                </g>
              </g>
              <g id="Group_208" data-name="Group 208" transform="translate(0 12.589)">
                <path id="Path_160" data-name="Path 160" d="M264.118,433.14l-1.966,11.394,17.555,1.279.064-11.195Z" transform="translate(-256.273 -45.574)" fill="#e8505b"/>
                <g id="Group_102" data-name="Group 102" transform="translate(14.54 387.723)">
                  <path id="Path_161" data-name="Path 161" d="M269.811,433.257A51.544,51.544,0,0,1,268.66,443.6a51.521,51.521,0,0,1,1.152-10.345Z" transform="translate(-268.602 -433.257)" fill="#263238"/>
                </g>
                <g id="Group_103" data-name="Group 103" transform="translate(6.212 396.725)">
                  <path id="Path_162" data-name="Path 162" d="M279.628,442.246a13.544,13.544,0,0,1-2.543-.191l-6.1-.677c-2.383-.274-4.539-.565-6.093-.831a11.189,11.189,0,0,1-2.491-.56,13.688,13.688,0,0,1,2.542.191l6.1.677c2.383.275,4.539.565,6.091.831A11.248,11.248,0,0,1,279.628,442.246Z" transform="translate(-262.4 -439.962)" fill="#263238"/>
                </g>
                <g id="Group_156" data-name="Group 156" transform="translate(60.337 382.389)">
                  <g id="Group_108" data-name="Group 108" transform="translate(0.164)">
                    <g id="Group_105" data-name="Group 105">
                      <g id="Group_104" data-name="Group 104">
                        <path id="Path_163" data-name="Path 163" d="M322.662,443.562,324.9,433.6l-18.635-4.315-3.43,14.542,1.137.341c5.076,1.477,25.915,7.148,29.593,6.9C337.67,450.794,322.662,443.562,322.662,443.562Z" transform="translate(-302.836 -429.284)" fill="#e8505b"/>
                      </g>
                    </g>
                    <g id="Group_107" data-name="Group 107" transform="translate(0.081 9.073)">
                      <g id="Group_106" data-name="Group 106">
                        <path id="Path_164" data-name="Path 164" d="M309.6,442.928a6.634,6.634,0,0,0-1.457-4.523,6.448,6.448,0,0,0-4.043-2.363l-1.21,5.207Z" transform="translate(-302.896 -436.042)" fill="#ebebeb"/>
                      </g>
                    </g>
                  </g>
                  <g id="Group_110" data-name="Group 110" transform="translate(0.164 14.132)">
                    <g id="Group_109" data-name="Group 109">
                      <path id="Path_165" data-name="Path 165" d="M329.931,443.765s5.18,2.885,4.275,3.64-22.177-4.186-31.37-7.186l.126-.409,24.766,5.973S328.837,443.56,329.931,443.765Z" transform="translate(-302.836 -439.81)" fill="#ebebeb"/>
                    </g>
                  </g>
                  <g id="Group_113" data-name="Group 113" transform="translate(0 14.051)">
                    <g id="Group_112" data-name="Group 112">
                      <g id="Group_111" data-name="Group 111">
                        <path id="Path_166" data-name="Path 166" d="M302.714,439.751a1.619,1.619,0,0,0,.312.109l.908.27,3.352.932c2.837.767,6.769,1.774,11.135,2.793s8.342,1.851,11.225,2.417l3.42.646.932.158a1.668,1.668,0,0,0,.329.04,1.726,1.726,0,0,0-.32-.086l-.924-.2-3.4-.718c-2.873-.607-6.839-1.466-11.205-2.481s-8.3-2-11.146-2.725l-3.37-.861c-.341-.085-.643-.16-.92-.227A1.731,1.731,0,0,0,302.714,439.751Z" transform="translate(-302.714 -439.75)" fill="#263238"/>
                      </g>
                    </g>
                  </g>
                  <g id="Group_116" data-name="Group 116" transform="translate(24.972 17.884)">
                    <g id="Group_115" data-name="Group 115">
                      <g id="Group_114" data-name="Group 114">
                        <path id="Path_167" data-name="Path 167" d="M321.325,445.113a7.889,7.889,0,0,1,1.008-1.469,7.755,7.755,0,0,1,1.455-1.028,3.089,3.089,0,0,0-2.464,2.5Z" transform="translate(-321.313 -442.605)" fill="#263238"/>
                      </g>
                    </g>
                  </g>
                  <g id="Group_119" data-name="Group 119" transform="translate(20.127 15)">
                    <g id="Group_118" data-name="Group 118">
                      <g id="Group_117" data-name="Group 117">
                        <path id="Path_168" data-name="Path 168" d="M317.71,441.784c.046.046.383-.213.753-.579s.636-.7.592-.744-.383.213-.755.579S317.666,441.738,317.71,441.784Z" transform="translate(-317.705 -440.456)" fill="#263238"/>
                      </g>
                    </g>
                  </g>
                  <g id="Group_122" data-name="Group 122" transform="translate(18.808 14.391)">
                    <g id="Group_121" data-name="Group 121">
                      <g id="Group_120" data-name="Group 120">
                        <path id="Path_169" data-name="Path 169" d="M316.725,440.791c.031.056.371-.073.757-.286s.678-.432.647-.489-.371.073-.759.286S316.694,440.735,316.725,440.791Z" transform="translate(-316.722 -440.003)" fill="#263238"/>
                      </g>
                    </g>
                  </g>
                  <g id="Group_125" data-name="Group 125" transform="translate(18.263 13.174)">
                    <g id="Group_124" data-name="Group 124">
                      <g id="Group_123" data-name="Group 123">
                        <path id="Path_170" data-name="Path 170" d="M316.317,439.121a4.377,4.377,0,1,0,1,.125A2.256,2.256,0,0,0,316.317,439.121Z" transform="translate(-316.317 -439.096)" fill="#263238"/>
                      </g>
                    </g>
                  </g>
                  <g id="Group_128" data-name="Group 128" transform="translate(18.223 11.874)">
                    <g id="Group_127" data-name="Group 127">
                      <g id="Group_126" data-name="Group 126">
                        <path id="Path_171" data-name="Path 171" d="M316.288,438.137a2.817,2.817,0,0,0,2.166.678,84.423,84.423,0,0,1-2.166-.678Z" transform="translate(-316.287 -438.128)" fill="#263238"/>
                      </g>
                    </g>
                  </g>
                  <g id="Group_131" data-name="Group 131" transform="translate(21.142 13.668)">
                    <g id="Group_130" data-name="Group 130">
                      <g id="Group_129" data-name="Group 129">
                        <path id="Path_172" data-name="Path 172" d="M318.461,440.645a3.557,3.557,0,0,0,1.2.27,7.17,7.17,0,0,0,1.34.015,3.558,3.558,0,0,0,.8-.132.662.662,0,0,0,.383-.3.483.483,0,0,0-.071-.521,2.252,2.252,0,0,0-2.864.012,2.184,2.184,0,0,0-.576.708c-.1.195-.12.311-.106.317a3.5,3.5,0,0,1,.783-.9,2.222,2.222,0,0,1,1.176-.427,1.909,1.909,0,0,1,1.4.428c.158.185.032.392-.208.469a3.686,3.686,0,0,1-.74.132,8.354,8.354,0,0,1-1.308.034C318.927,440.713,318.469,440.608,318.461,440.645Z" transform="translate(-318.461 -439.464)" fill="#263238"/>
                      </g>
                    </g>
                  </g>
                  <g id="Group_134" data-name="Group 134" transform="translate(20.286 12.386)">
                    <g id="Group_133" data-name="Group 133">
                      <g id="Group_132" data-name="Group 132">
                        <path id="Path_173" data-name="Path 173" d="M318.976,441.1a1.211,1.211,0,0,0,.332-.8,2.038,2.038,0,0,0-.125-.951,1.232,1.232,0,0,0-.855-.842.49.49,0,0,0-.5.467,1.345,1.345,0,0,0,.079.583,3.741,3.741,0,0,0,.4.855,1.8,1.8,0,0,0,.572.644c.028-.024-.188-.271-.431-.726a4.391,4.391,0,0,1-.334-.835c-.1-.291-.113-.772.2-.756.306.04.542.41.67.691a2.033,2.033,0,0,1,.158.857A4.4,4.4,0,0,1,318.976,441.1Z" transform="translate(-317.824 -438.51)" fill="#263238"/>
                      </g>
                    </g>
                  </g>
                  <g id="Group_137" data-name="Group 137" transform="translate(1.564 9.03)">
                    <g id="Group_136" data-name="Group 136">
                      <g id="Group_135" data-name="Group 135">
                        <path id="Path_174" data-name="Path 174" d="M303.879,436.022c-.007.043.545.074,1.364.368a5.994,5.994,0,0,1,3.977,5.024c.1.865,0,1.407.046,1.412a1.15,1.15,0,0,0,.087-.376,4.978,4.978,0,0,0,.031-1.053,5.812,5.812,0,0,0-4.088-5.162,4.979,4.979,0,0,0-1.031-.212A1.124,1.124,0,0,0,303.879,436.022Z" transform="translate(-303.879 -436.01)" fill="#263238"/>
                      </g>
                    </g>
                  </g>
                  <g id="Group_140" data-name="Group 140" transform="translate(3.413 1.737)">
                    <g id="Group_139" data-name="Group 139">
                      <g id="Group_138" data-name="Group 138">
                        <path id="Path_175" data-name="Path 175" d="M307.138,430.578a32.991,32.991,0,0,0-1.05,3.79,33.46,33.46,0,0,0-.826,3.845,33.087,33.087,0,0,0,1.05-3.79A33.516,33.516,0,0,0,307.138,430.578Z" transform="translate(-305.256 -430.578)" fill="#455a64"/>
                      </g>
                    </g>
                  </g>
                  <g id="Group_143" data-name="Group 143" transform="translate(9.72 14.681)">
                    <g id="Group_142" data-name="Group 142">
                      <g id="Group_141" data-name="Group 141">
                        <path id="Path_176" data-name="Path 176" d="M309.954,440.226a15.737,15.737,0,0,0,5.433,1.316c.008-.067-1.226-.275-2.721-.64S309.977,440.161,309.954,440.226Z" transform="translate(-309.954 -440.219)" fill="#263238"/>
                      </g>
                    </g>
                  </g>
                  <g id="Group_146" data-name="Group 146" transform="translate(6.053 13.83)">
                    <g id="Group_145" data-name="Group 145">
                      <g id="Group_144" data-name="Group 144">
                        <path id="Path_177" data-name="Path 177" d="M307.239,439.589c-.056.035.04.281.1.589s.07.571.134.581.165-.271.093-.627S307.29,439.553,307.239,439.589Z" transform="translate(-307.222 -439.585)" fill="#263238"/>
                      </g>
                    </g>
                  </g>
                  <g id="Group_149" data-name="Group 149" transform="translate(5.073 11.797)">
                    <g id="Group_148" data-name="Group 148">
                      <g id="Group_147" data-name="Group 147">
                        <path id="Path_178" data-name="Path 178" d="M306.511,438.075c-.055.034.02.256.168.5s.311.408.367.375-.021-.255-.169-.5S306.566,438.042,306.511,438.075Z" transform="translate(-306.493 -438.071)" fill="#263238"/>
                      </g>
                    </g>
                  </g>
                  <g id="Group_152" data-name="Group 152" transform="translate(3.304 10.507)">
                    <g id="Group_151" data-name="Group 151">
                      <g id="Group_150" data-name="Group 150">
                        <path id="Path_179" data-name="Path 179" d="M305.175,437.165c0,.066.246.121.5.282s.415.35.474.32-.038-.324-.352-.517S305.168,437.1,305.175,437.165Z" transform="translate(-305.175 -437.11)" fill="#263238"/>
                      </g>
                    </g>
                  </g>
                  <g id="Group_155" data-name="Group 155" transform="translate(1.979 9.842)">
                    <g id="Group_154" data-name="Group 154">
                      <g id="Group_153" data-name="Group 153">
                        <path id="Path_180" data-name="Path 180" d="M304.2,436.639c-.036.054.05.175.189.27s.285.13.321.078-.05-.173-.189-.27S304.232,436.587,304.2,436.639Z" transform="translate(-304.188 -436.615)" fill="#263238"/>
                      </g>
                    </g>
                  </g>
                </g>
                <path id="Path_181" data-name="Path 181" d="M410.006,164.476c-1.4-2.027-10.119,3.381-10.891,3.785-.751.392-1.382-.7-.665-1.026,1.03-.47,11.728-5.67,10.376-7.672-.75-1.112-2.619.42-2.619.42s-9.651,5.6-10.257,4.635,4.939-4.461,6.9-5.5c1.933-1.028,2.23-2.367,1.063-2.845-.795-.325-6.862,2.721-8.772,3.8s-7.1,4.115-5.76.536,1.018-6.834.318-7.654a1.2,1.2,0,0,0-2.009,1.038,13.922,13.922,0,0,1-.639,3.8,6.917,6.917,0,0,1-1.305,2.8c-.375.427-.716.823-1.036,1.2l-.025-.047-1.011,1.28c-1.257,1.52-1.888,2.383-1.888,2.383v0l-50.5,63.909,2.713,26.546,58.577-79.566-.036-.066a107.3,107.3,0,0,0,11.02-3.4c5.255-2.182,5.066-2.654,4.707-3.224-.961-1.527-9.386,3.485-8.2,1.359S411.077,166.029,410.006,164.476Z" transform="translate(-232.59 -141.69)" fill="#e5baab"/>
                <path id="Path_182" data-name="Path 182" d="M287.614,213.033l7.043-41.22c.8-1.011,1.958-2.521,3.281-4.362a9.448,9.448,0,0,1,2.294-2.241,14.428,14.428,0,0,1,3.5-1.932,1.241,1.241,0,0,0,.326-2.324c-1.044-.4-4.343.4-7.387,2.944s-1.851-3.585-1.457-5.824,1.292-9.229.7-9.9c-.869-.977-2.077-.227-2.419,2.019-.346,2.273-1.843,8.911-3.017,8.645-1.156-.262,1.011-11.639,1.011-11.639s.857-2.356-.489-2.709c-2.426-.635-3.838,11.63-3.945,12.8-.074.815-1.359.571-1.232-.3.129-.9,2.425-11.3-.04-11.968-1.89-.514-1.255,10.076-2.931,11.971s.336-8.081-1.49-8.5c-.681-.156-1.208-.177-1.537,5.718a118.279,118.279,0,0,0,.521,12.73c-.281,1.528-8.4,45.957-8.948,52.588-.556,6.748,22.307,45.862,22.307,45.862l15.728-16.1Z" transform="translate(-253.108 -144.47)" fill="#e5baab"/>
                <path id="Path_183" data-name="Path 183" d="M275.912,219.231c-.54,1.212,9.425,15.131,14.464,25.686l4.506,29.389c-5.1,9.348-10.976,20.28-13.811,32.326,20.211,9.442,43.2,8.295,65.309,3.973l-4.688-32.391,7.717-32.271,19.076-23-13.861-18.449-15.177,16.189-7.156,1.779c-6.529,1.622-18.584.553-24.725-2.192h0l-10.291-13.257Z" transform="translate(-251.566 -123.907)" fill="#e8505b"/>
                <g id="Group_157" data-name="Group 157" transform="translate(50.933 148.552)">
                  <path id="Path_184" data-name="Path 184" d="M318.109,255.132a11.043,11.043,0,0,1-3.08,1.388,28.643,28.643,0,0,1-16.146.592,11.022,11.022,0,0,1-3.173-1.16c.052-.232,4.957,1.6,11.263,1.326C313.281,257.086,318.039,254.9,318.109,255.132Z" transform="translate(-295.71 -255.116)" fill="#263238"/>
                </g>
                <g id="Group_158" data-name="Group 158" transform="translate(85.808 107.786)">
                  <path id="Path_185" data-name="Path 185" d="M338.845,233.471c.023.035-.222.255-.725.573a9.444,9.444,0,0,1-2.305,1.011,10.978,10.978,0,0,1-13.576-6.92,9.441,9.441,0,0,1-.537-2.461,2.137,2.137,0,0,1,.039-.922,33.141,33.141,0,0,0,.959,3.2,11.058,11.058,0,0,0,12.99,6.62A33.376,33.376,0,0,0,338.845,233.471Z" transform="translate(-321.685 -224.752)" fill="#263238"/>
                </g>
                <g id="Group_159" data-name="Group 159" transform="translate(101.643 81.683)">
                  <path id="Path_186" data-name="Path 186" d="M346.155,225.549a19.725,19.725,0,0,1-1.825-3c-1.071-1.876-2.567-4.455-4.312-7.246s-3.416-5.263-4.636-7.046a20.138,20.138,0,0,1-1.9-2.95,15.615,15.615,0,0,1,2.3,2.66c1.328,1.715,3.069,4.158,4.828,6.965s3.193,5.44,4.157,7.384A15.678,15.678,0,0,1,346.155,225.549Z" transform="translate(-333.48 -205.31)" fill="#263238"/>
                </g>
                <g id="Group_160" data-name="Group 160" transform="translate(26.061 85.33)">
                  <path id="Path_187" data-name="Path 187" d="M298.871,208.035a20.538,20.538,0,0,1-3.147,1.861l-7.7,4.263-7.625,4.393a20.618,20.618,0,0,1-3.218,1.735,17.577,17.577,0,0,1,2.958-2.156c1.885-1.242,4.539-2.884,7.54-4.581s5.777-3.12,7.815-4.094A17.618,17.618,0,0,1,298.871,208.035Z" transform="translate(-277.184 -208.026)" fill="#263238"/>
                </g>
                <g id="Group_161" data-name="Group 161" transform="translate(40.135 111.103)">
                  <path id="Path_188" data-name="Path 188" d="M289.869,227.227c.179.09-.393,1.547-.964,3.374s-.949,3.346-1.147,3.318-.121-1.639.479-3.528S289.7,227.138,289.869,227.227Z" transform="translate(-287.667 -227.223)" fill="#263238"/>
                </g>
                <g id="Group_165" data-name="Group 165" transform="translate(52.763 52.61)">
                  <g id="Group_162" data-name="Group 162">
                    <path id="Path_189" data-name="Path 189" d="M321.5,229.614c-.243-2.991-.372-6.388-.372-6.388s7.241-1.771,6.694-9.418-3.283-25.089-3.283-25.089l-14.27-5.063-13.2,13.54,7.194,37.65,13.657-.91A3.938,3.938,0,0,0,321.5,229.614Z" transform="translate(-297.072 -183.656)" fill="#e5baab"/>
                  </g>
                  <g id="Group_164" data-name="Group 164" transform="translate(19.052 21.603)">
                    <g id="Group_163" data-name="Group 163">
                      <path id="Path_190" data-name="Path 190" d="M314.657,203.822c.023,0,.042.138-.072.341a1.05,1.05,0,0,1-.8.483c-.859.071-1.8-.764-2.256-1.876a3.673,3.673,0,0,1-.258-1.682,1.456,1.456,0,0,1,.65-1.247.725.725,0,0,1,.567-.062.653.653,0,0,1,.341.267c.129.212.07.36.05.352s-.04-.124-.169-.251a.5.5,0,0,0-.65-.051,1.206,1.206,0,0,0-.423,1.023,3.566,3.566,0,0,0,.259,1.5c.4,1,1.226,1.745,1.872,1.74a.969.969,0,0,0,.69-.291C314.592,203.927,314.628,203.812,314.657,203.822Z" transform="translate(-311.262 -199.747)" fill="#d78776"/>
                    </g>
                  </g>
                </g>
                <g id="Group_168" data-name="Group 168" transform="translate(40.781 43.508)">
                  <path id="Path_191" data-name="Path 191" d="M325.655,185.2l.285.4c-2.9-2.276-6.16-2.426-9.068-2.28a26.521,26.521,0,0,0-9.684,2.337q-1.225.556-2.44,1.148a9.268,9.268,0,0,0,1.015-2.233c.709-2.426.107-5.364-1.947-6.835a5.358,5.358,0,0,0-7,1.042,6.045,6.045,0,0,0-.036,7.231,6.774,6.774,0,0,0,4.793,2.566,17.42,17.42,0,0,0-1.559,1.14,14.994,14.994,0,0,0-5.044,14.679,27.184,27.184,0,0,0,1.528,4.236,13.455,13.455,0,0,1-.149,3.6,9.4,9.4,0,0,1-5.011,6.9,6.4,6.4,0,0,0-2.724,1.573,3.259,3.259,0,0,0,.005,3.37,7.583,7.583,0,0,0,4.923,3.567,6.807,6.807,0,0,0,.977.179,9.253,9.253,0,0,0,.592,4.784,12.907,12.907,0,0,0,12.863,5.911l.2-3.558,1.322,3.974s4.59,1.733,14.662-2.888c3.362-1.543-1.568-13.784-1.568-13.784-2.515-2.478-1.708-6.611-1.708-6.611-2.125.278-4.186-5.268-3.754-7.118s2.047-3.6,3.947-3.515c.846.038.632,4.354,2.836,3.872,1.876-.051,1.168-3.481,1.752-5.221,1.273-3.8,3.859-9.112,2.938-13.01C331.57,187.226,328.646,182.991,325.655,185.2Z" transform="translate(-288.148 -176.876)" fill="#263238"/>
                  <g id="Group_166" data-name="Group 166" transform="translate(2.63 9.988)">
                    <path id="Path_192" data-name="Path 192" d="M290.515,194.909a3.61,3.61,0,0,1-.341-2.623,6.144,6.144,0,0,1,1.139-2.7,5.73,5.73,0,0,1,2.911-2.129,15.526,15.526,0,0,1,3.5-.41,5.011,5.011,0,0,0,2.537-.749,3.069,3.069,0,0,0,1.341-1.983c.035-.005.138.25.058.728a2.809,2.809,0,0,1-1.11,1.657,5.187,5.187,0,0,1-2.764.988,18,18,0,0,0-3.351.436,5.915,5.915,0,0,0-3.773,4.256A11.894,11.894,0,0,0,290.515,194.909Z" transform="translate(-290.107 -184.316)" fill="#263238"/>
                  </g>
                  <g id="Group_167" data-name="Group 167" transform="translate(32.603 39.01)">
                    <path id="Path_193" data-name="Path 193" d="M314.931,225.675a20.345,20.345,0,0,0,1.563-2.7,8.852,8.852,0,0,0-.177-7.16,36.209,36.209,0,0,0-2.241-3.512,10.063,10.063,0,0,1-1.48-3.191c-.493-2.031.277-3.254.324-3.179a6.855,6.855,0,0,0,.154,3.05,10.58,10.58,0,0,0,1.537,2.962,29.684,29.684,0,0,1,2.332,3.562,8.56,8.56,0,0,1,.866,4.248,9.028,9.028,0,0,1-.865,3.422,7.4,7.4,0,0,1-1.337,1.953C315.217,225.534,314.957,225.706,314.931,225.675Z" transform="translate(-312.432 -205.932)" fill="#263238"/>
                  </g>
                </g>
                <path id="Path_194" data-name="Path 194" d="M287.515,281.451,259.149,487.245l28.138.855s28.758-181.141,30.654-180.082,21.115,78.163,20.27,82.888c-.485,2.709-22.192,95.155-20.642,94.8s27.2,2.227,27.2,2.227,22.108-97.245,21.789-99.6c-.776-5.722-15.308-109.386-15.308-109.386Z" transform="translate(-257.302 -98.4)" fill="#263238"/>
                <g id="Group_169" data-name="Group 169" transform="translate(48.324 204.507)">
                  <path id="Path_195" data-name="Path 195" d="M316.709,304.389a15.622,15.622,0,0,1-3.515-.552,83.781,83.781,0,0,1-16.276-5.381,15.7,15.7,0,0,1-3.151-1.653,20.977,20.977,0,0,1,3.343,1.2c2.038.791,4.864,1.853,8.029,2.9s6.066,1.876,8.174,2.456A21,21,0,0,1,316.709,304.389Z" transform="translate(-293.766 -296.793)" fill="#455a64"/>
                </g>
                <g id="Group_186" data-name="Group 186" transform="translate(78.279 196.376)">
                  <g id="Group_170" data-name="Group 170" transform="translate(0 192.313)">
                    <path id="Path_196" data-name="Path 196" d="M316.927,433.978c.189.04.183.808-.015,1.713s-.509,1.607-.7,1.567-.183-.808.013-1.714S316.739,433.937,316.927,433.978Z" transform="translate(-316.077 -433.977)" fill="#455a64"/>
                  </g>
                  <g id="Group_171" data-name="Group 171" transform="translate(2.177 179.365)">
                    <path id="Path_197" data-name="Path 197" d="M319.183,424.333c.189.04.027,1.524-.361,3.311s-.855,3.2-1.045,3.163-.027-1.524.361-3.312S318.995,424.292,319.183,424.333Z" transform="translate(-317.699 -424.332)" fill="#455a64"/>
                  </g>
                  <g id="Group_172" data-name="Group 172" transform="translate(4.988 166.416)">
                    <path id="Path_198" data-name="Path 198" d="M321.277,414.688c.189.04.027,1.524-.361,3.311s-.855,3.2-1.045,3.163-.027-1.524.361-3.311S321.089,414.647,321.277,414.688Z" transform="translate(-319.793 -414.687)" fill="#455a64"/>
                  </g>
                  <g id="Group_173" data-name="Group 173" transform="translate(7.799 153.466)">
                    <path id="Path_199" data-name="Path 199" d="M323.371,405.043c.189.04.027,1.524-.361,3.311s-.855,3.2-1.045,3.163-.027-1.523.361-3.311S323.183,405,323.371,405.043Z" transform="translate(-321.887 -405.042)" fill="#455a64"/>
                  </g>
                  <g id="Group_174" data-name="Group 174" transform="translate(10.611 140.517)">
                    <path id="Path_200" data-name="Path 200" d="M325.465,395.4c.189.04.027,1.524-.361,3.311s-.855,3.2-1.044,3.163-.027-1.522.361-3.311S325.277,395.357,325.465,395.4Z" transform="translate(-323.981 -395.397)" fill="#455a64"/>
                  </g>
                  <g id="Group_175" data-name="Group 175" transform="translate(13.422 127.568)">
                    <path id="Path_201" data-name="Path 201" d="M327.559,385.753c.189.04.027,1.524-.361,3.311s-.855,3.2-1.045,3.163-.027-1.522.361-3.311S327.371,385.712,327.559,385.753Z" transform="translate(-326.075 -385.752)" fill="#455a64"/>
                  </g>
                  <g id="Group_176" data-name="Group 176" transform="translate(16.234 114.618)">
                    <path id="Path_202" data-name="Path 202" d="M329.653,376.108c.189.042.027,1.524-.361,3.311s-.855,3.2-1.045,3.163-.027-1.523.361-3.311S329.465,376.067,329.653,376.108Z" transform="translate(-328.169 -376.107)" fill="#455a64"/>
                  </g>
                  <g id="Group_177" data-name="Group 177" transform="translate(19.045 101.669)">
                    <path id="Path_203" data-name="Path 203" d="M331.747,366.463c.189.04.027,1.524-.361,3.311s-.855,3.2-1.045,3.163-.027-1.523.361-3.311S331.559,366.422,331.747,366.463Z" transform="translate(-330.263 -366.462)" fill="#455a64"/>
                  </g>
                  <g id="Group_178" data-name="Group 178" transform="translate(21.193 88.642)">
                    <path id="Path_204" data-name="Path 204" d="M331.98,356.76c.191-.026.549,1.422.8,3.234a21.775,21.775,0,0,1,.223,2.495v.068l0,.011c-.168.485-.309.763-.395.745s-.1-.33-.05-.842l0,.079a21.955,21.955,0,0,1-.463-2.461C331.836,358.277,331.788,356.787,331.98,356.76Z" transform="translate(-331.862 -356.76)" fill="#455a64"/>
                  </g>
                  <g id="Group_179" data-name="Group 179" transform="translate(19.376 75.517)">
                    <path id="Path_205" data-name="Path 205" d="M330.627,346.984c.191-.027.549,1.422.8,3.233s.3,3.3.107,3.33-.549-1.42-.8-3.234S330.435,347.011,330.627,346.984Z" transform="translate(-330.509 -346.984)" fill="#455a64"/>
                  </g>
                  <g id="Group_180" data-name="Group 180" transform="translate(17.56 62.391)">
                    <path id="Path_206" data-name="Path 206" d="M329.274,337.207c.191-.026.549,1.422.8,3.234s.3,3.3.107,3.33-.549-1.422-.8-3.234S329.082,337.234,329.274,337.207Z" transform="translate(-329.156 -337.207)" fill="#455a64"/>
                  </g>
                  <g id="Group_181" data-name="Group 181" transform="translate(15.743 49.265)">
                    <path id="Path_207" data-name="Path 207" d="M327.921,327.431c.191-.027.549,1.422.8,3.233s.3,3.3.107,3.33-.549-1.42-.8-3.233S327.729,327.458,327.921,327.431Z" transform="translate(-327.803 -327.431)" fill="#455a64"/>
                  </g>
                  <g id="Group_182" data-name="Group 182" transform="translate(13.927 36.139)">
                    <path id="Path_208" data-name="Path 208" d="M326.568,317.654c.191-.025.549,1.422.8,3.234s.3,3.3.107,3.33-.549-1.422-.8-3.234S326.377,317.681,326.568,317.654Z" transform="translate(-326.451 -317.654)" fill="#455a64"/>
                  </g>
                  <g id="Group_183" data-name="Group 183" transform="translate(12.111 23.014)">
                    <path id="Path_209" data-name="Path 209" d="M325.215,307.878c.191-.027.549,1.422.8,3.233s.3,3.3.107,3.33-.549-1.42-.8-3.233S325.024,307.9,325.215,307.878Z" transform="translate(-325.098 -307.878)" fill="#455a64"/>
                  </g>
                  <g id="Group_184" data-name="Group 184" transform="translate(10.295 9.887)">
                    <path id="Path_210" data-name="Path 210" d="M323.862,298.1c.192-.026.549,1.422.8,3.234s.3,3.3.109,3.33-.55-1.422-.8-3.234S323.671,298.128,323.862,298.1Z" transform="translate(-323.745 -298.101)" fill="#455a64"/>
                  </g>
                  <g id="Group_185" data-name="Group 185" transform="translate(8.857)">
                    <path id="Path_211" data-name="Path 211" d="M322.86,290.737c.191-.027.45.7.576,1.614s.075,1.685-.115,1.71-.45-.7-.577-1.614S322.668,290.764,322.86,290.737Z" transform="translate(-322.674 -290.736)" fill="#455a64"/>
                  </g>
                </g>
                <path id="Path_212" data-name="Path 212" d="M300.546,437.933l31.314,1.829,1.649-8.963-31.2-1.25Z" transform="translate(-243.119 -46.804)" fill="#455a64"/>
                <path id="Path_213" data-name="Path 213" d="M257.773,436.219l31.314,1.829,1.649-8.962-31.2-1.25Z" transform="translate(-257.773 -47.391)" fill="#455a64"/>
                <g id="Group_202" data-name="Group 202" transform="translate(25.05 207.398)">
                  <g id="Group_187" data-name="Group 187" transform="translate(29.646)">
                    <path id="Path_214" data-name="Path 214" d="M298.654,302.234c-.189-.039-.191-.807,0-1.714s.493-1.611.682-1.572.189.807,0,1.715S298.844,302.273,298.654,302.234Z" transform="translate(-298.512 -298.946)" fill="#455a64"/>
                  </g>
                  <g id="Group_188" data-name="Group 188" transform="translate(27.066 9.747)">
                    <path id="Path_215" data-name="Path 215" d="M296.675,312.665c-.189-.038-.05-1.516.313-3.3s.811-3.2,1-3.16.048,1.514-.314,3.3S296.864,312.7,296.675,312.665Z" transform="translate(-296.59 -306.205)" fill="#455a64"/>
                  </g>
                  <g id="Group_189" data-name="Group 189" transform="translate(24.479 22.669)">
                    <path id="Path_216" data-name="Path 216" d="M294.749,322.3c-.189-.039-.055-1.517.3-3.3s.8-3.2.985-3.166.055,1.516-.3,3.3S294.938,322.336,294.749,322.3Z" transform="translate(-294.663 -315.83)" fill="#455a64"/>
                  </g>
                  <g id="Group_190" data-name="Group 190" transform="translate(21.952 35.605)">
                    <path id="Path_217" data-name="Path 217" d="M292.869,331.938c-.189-.036-.063-1.516.283-3.3s.781-3.207.971-3.17.063,1.514-.283,3.3S293.059,331.974,292.869,331.938Z" transform="translate(-292.781 -325.465)" fill="#455a64"/>
                  </g>
                  <g id="Group_191" data-name="Group 191" transform="translate(19.49 48.558)">
                    <path id="Path_218" data-name="Path 218" d="M291.038,341.592c-.191-.036-.071-1.514.266-3.3s.764-3.21.955-3.174.07,1.514-.267,3.3S291.227,341.628,291.038,341.592Z" transform="translate(-290.947 -335.113)" fill="#455a64"/>
                  </g>
                  <g id="Group_192" data-name="Group 192" transform="translate(17.102 61.519)">
                    <path id="Path_219" data-name="Path 219" d="M289.262,351.252c-.191-.035-.079-1.514.247-3.305s.746-3.214.936-3.179.079,1.514-.248,3.305S289.451,351.287,289.262,351.252Z" transform="translate(-289.169 -344.767)" fill="#455a64"/>
                  </g>
                  <g id="Group_193" data-name="Group 193" transform="translate(14.792 74.492)">
                    <path id="Path_220" data-name="Path 220" d="M287.543,360.922c-.189-.034-.087-1.514.228-3.307s.725-3.218.916-3.185.089,1.513-.227,3.307S287.734,360.955,287.543,360.922Z" transform="translate(-287.448 -354.43)" fill="#455a64"/>
                  </g>
                  <g id="Group_194" data-name="Group 194" transform="translate(12.566 87.479)">
                    <path id="Path_221" data-name="Path 221" d="M285.889,370.6c-.191-.032-.1-1.513.205-3.308s.7-3.224.9-3.191.1,1.513-.205,3.308S286.08,370.635,285.889,370.6Z" transform="translate(-285.79 -364.103)" fill="#455a64"/>
                  </g>
                  <g id="Group_195" data-name="Group 195" transform="translate(10.43 100.481)">
                    <path id="Path_222" data-name="Path 222" d="M284.3,380.293c-.191-.031-.109-1.512.183-3.308s.681-3.229.871-3.2.11,1.512-.181,3.31S284.493,380.324,284.3,380.293Z" transform="translate(-284.199 -373.787)" fill="#455a64"/>
                  </g>
                  <g id="Group_196" data-name="Group 196" transform="translate(8.388 113.497)">
                    <path id="Path_223" data-name="Path 223" d="M282.785,390c-.191-.03-.119-1.512.158-3.31s.658-3.234.849-3.2.121,1.512-.158,3.311S282.976,390.026,282.785,390Z" transform="translate(-282.678 -383.482)" fill="#455a64"/>
                  </g>
                  <g id="Group_197" data-name="Group 197" transform="translate(6.444 126.53)">
                    <path id="Path_224" data-name="Path 224" d="M281.343,399.71c-.192-.027-.132-1.51.133-3.311s.632-3.238.824-3.21.132,1.51-.133,3.311S281.533,399.738,281.343,399.71Z" transform="translate(-281.23 -393.189)" fill="#455a64"/>
                  </g>
                  <g id="Group_198" data-name="Group 198" transform="translate(4.602 139.577)">
                    <path id="Path_225" data-name="Path 225" d="M279.975,409.436c-.191-.027-.142-1.51.107-3.312s.607-3.244.8-3.217.144,1.509-.106,3.312S280.167,409.463,279.975,409.436Z" transform="translate(-279.858 -402.907)" fill="#455a64"/>
                  </g>
                  <g id="Group_199" data-name="Group 199" transform="translate(2.863 152.639)">
                    <path id="Path_226" data-name="Path 226" d="M278.686,419.173c-.191-.026-.156-1.509.081-3.314s.581-3.249.772-3.224.156,1.508-.079,3.314S278.878,419.2,278.686,419.173Z" transform="translate(-278.564 -412.636)" fill="#455a64"/>
                  </g>
                  <g id="Group_200" data-name="Group 200" transform="translate(1.231 165.716)">
                    <path id="Path_227" data-name="Path 227" d="M277.477,428.92c-.191-.024-.168-1.508.054-3.315s.554-3.253.746-3.229.168,1.506-.052,3.315S277.669,428.943,277.477,428.92Z" transform="translate(-277.348 -422.376)" fill="#455a64"/>
                  </g>
                  <g id="Group_201" data-name="Group 201" transform="translate(0 178.813)">
                    <path id="Path_228" data-name="Path 228" d="M276.637,435.466c-.192-.023-.262-.787-.157-1.708s.348-1.649.54-1.627.262.787.156,1.708S276.827,435.488,276.637,435.466Z" transform="translate(-276.431 -432.131)" fill="#455a64"/>
                  </g>
                </g>
                <g id="Group_203" data-name="Group 203" transform="translate(83.171 290.826)">
                  <path id="Path_229" data-name="Path 229" d="M336.016,362.362c-.027.2-3.664-.141-8.154-.424s-8.14-.419-8.141-.619,3.668-.373,8.187-.079S336.043,362.178,336.016,362.362Z" transform="translate(-319.721 -361.086)" fill="#455a64"/>
                </g>
                <g id="Group_204" data-name="Group 204" transform="translate(84.191 288.617)">
                  <path id="Path_230" data-name="Path 230" d="M334.217,359.518c.024.185-3.03.726-6.845.863s-6.9-.166-6.892-.353,3.084-.2,6.865-.345S334.193,359.319,334.217,359.518Z" transform="translate(-320.481 -359.44)" fill="#455a64"/>
                </g>
                <g id="Group_205" data-name="Group 205" transform="translate(20.352 287.557)">
                  <path id="Path_231" data-name="Path 231" d="M279.468,369.593c-.165.1-1.76-2.27-3.561-5.291s-3.127-5.55-2.962-5.648,1.76,2.269,3.562,5.29S279.634,369.494,279.468,369.593Z" transform="translate(-272.932 -358.651)" fill="#455a64"/>
                </g>
                <g id="Group_206" data-name="Group 206" transform="translate(78.227 188.303)">
                  <path id="Path_232" data-name="Path 232" d="M332.625,284.724a2.379,2.379,0,0,1-.046.94,15.849,15.849,0,0,1-.546,2.5,8.037,8.037,0,0,1-1.9,3.363,5.9,5.9,0,0,1-4.441,1.646,12.894,12.894,0,0,1-4.577-1.09,11.535,11.535,0,0,1-3.279-1.994,4.575,4.575,0,0,1-1.788-3,8.947,8.947,0,0,0,2.109,2.622,12.176,12.176,0,0,0,3.2,1.772,13.149,13.149,0,0,0,4.35.988,5.381,5.381,0,0,0,3.978-1.408,8.041,8.041,0,0,0,1.877-3.062C332.274,286.021,332.506,284.7,332.625,284.724Z" transform="translate(-316.039 -284.724)" fill="#455a64"/>
                </g>
                <g id="Group_207" data-name="Group 207" transform="translate(51.537 189.67)">
                  <path id="Path_233" data-name="Path 233" d="M300.14,303.471c-.04.031-.232-.161-.569-.493a11.709,11.709,0,0,1-1.489-1.412,9.2,9.2,0,0,1-1.709-2.6,13.861,13.861,0,0,1-.165-3.785c.148-2.636.448-4.99.678-6.694a11.331,11.331,0,0,1,.52-2.74c.23.017-.153,4.268-.5,9.469a15.56,15.56,0,0,0,.086,3.574,10.287,10.287,0,0,0,1.482,2.478c.454.706,1.01,1.1,1.3,1.536C300.061,303.2,300.175,303.443,300.14,303.471Z" transform="translate(-296.159 -285.742)" fill="#455a64"/>
                </g>
              </g>
            </g>
          </g>
        </g>
        <rect id="Rectangle_62" data-name="Rectangle 62" width="435" height="602" transform="translate(176.672)" fill="#0047ff" style="mix-blend-mode: hue;isolation: isolate"/>
      </g>
    </g>
  </g>
</svg>
