<svg xmlns="http://www.w3.org/2000/svg" xmlns:xlink="http://www.w3.org/1999/xlink" width="251" height="253" viewBox="0 0 251 253">
  <defs>
    <clipPath id="clip-Mesa_de_trabajo_1_2">
      <rect width="251" height="253"/>
    </clipPath>
  </defs>
  <g id="Mesa_de_trabajo_1_2" data-name="Mesa de trabajo 1 – 2" clip-path="url(#clip-Mesa_de_trabajo_1_2)">
    <rect width="251" height="253" fill="#fff"/>
    <g id="Group_442" data-name="Group 442" transform="translate(-91 -84)">
      <g id="OBJECTS" transform="translate(-20.007 -3.734)">
        <g id="Group_441" data-name="Group 441" transform="translate(188.007 94.734)">
          <g id="Group_439" data-name="Group 439">
            <g id="Group_414" data-name="Group 414" transform="translate(33.872 38.479)">
              <path id="Path_444" data-name="Path 444" d="M265.931,153.449s3.393-6.063,7.634-3.465c6.9,4.228,4.7,13.742,4.7,13.742l-1.586-4.228s2.114,6.695-1.233,11.275l.352-4.4s-2.643,6.342-7.4,7.047-5.462.7-5.99,3.524,3.339,4.693,2.114,4.493c-4.316-.7-3.876-6.166-3.876-6.166l-.7,3.964s-5.462-10.571-5.109-15.5a18.218,18.218,0,0,1,2.643-8.28l-2.819,1.057S263.113,143.054,265.931,153.449Z" transform="translate(-241.559 -149.337)" fill="#333"/>
              <path id="Path_445" data-name="Path 445" d="M264.607,170.485c2.261-4.087,5.7-8.649-2.343-12.877-1.3-.681-4.362-.154-5.579-.205-.849-.036-.948.86-1.708.976a14.252,14.252,0,0,0-8.69,5.187s5.089,7.784-10.046,17.664c-1.768,1.154,10.862,20.933,12.1,13.611C252.574,169.94,263.248,172.939,264.607,170.485Z" transform="translate(-236.072 -151.675)" fill="#eabfa5"/>
              <g id="Group_413" data-name="Group 413" transform="translate(6.449 5.258)">
                <g id="Group_412" data-name="Group 412" transform="translate(6.993 3.062)">
                  <path id="Path_446" data-name="Path 446" d="M257.091,161.193s2.466-.676,5.21,2.922a.633.633,0,0,1-.3,1.007,9.34,9.34,0,0,1-5.378.094C253.047,163.975,257.091,161.193,257.091,161.193Z" transform="translate(-255.146 -161.142)" fill="#d84744"/>
                  <path id="Path_447" data-name="Path 447" d="M263.2,166.539c.017,0,.025-.018.042-.024a3.022,3.022,0,0,0-1.778-.572,2.941,2.941,0,0,0-2.243,1A10.605,10.605,0,0,0,263.2,166.539Z" transform="translate(-256.35 -162.56)" fill="#822a2a"/>
                  <path id="Path_448" data-name="Path 448" d="M262.243,164.7s-2.408-2.349-4.992-2.584c0,0,2.349.676-.117.764,0,0-.7-.352-.352-.94a5.912,5.912,0,0,1,.707-.586.767.767,0,0,1,.546-.158A4.758,4.758,0,0,1,262.243,164.7Z" transform="translate(-255.6 -161.158)" fill="#eef9f9"/>
                  <path id="Path_449" data-name="Path 449" d="M255.586,165.848c-.006,0-.012.015-.018.02a3.024,3.024,0,0,0,1.178.669,6.5,6.5,0,0,0,1.383.3l.012-.025s.4-.352-.088-.793A2.653,2.653,0,0,0,255.586,165.848Z" transform="translate(-255.27 -162.465)" fill="#eef9f9"/>
                  <path id="Path_450" data-name="Path 450" d="M257.182,166.836a7.752,7.752,0,0,0,3.328.3,4.749,4.749,0,0,0-2.2-.509,5.26,5.26,0,0,0-1.266.154C257.093,166.8,257.134,166.819,257.182,166.836Z" transform="translate(-255.707 -162.763)" fill="#ffabab"/>
                </g>
                <path id="Path_451" data-name="Path 451" d="M248.661,174.162c.6,5.781-2.662,18.5-3.438,21.42.1.123.205.245.307.364l6.527-3.414c2.972-12.332,7.765-15.921,11.215-17.461-1.312-.6-2.658-1.237-4-1.9-8.1-3.994-10.281-6.962-10.281-6.962S251.031,169.347,248.661,174.162Z" transform="translate(-245.223 -159.577)" fill="#d8a98f"/>
                <path id="Path_452" data-name="Path 452" d="M274.965,174.322s1.7.411.411,2.173-5.285,1.82-4.287-.411S274.965,174.322,274.965,174.322Z" transform="translate(-252.814 -161.96)" fill="#eabfa5"/>
                <path id="Path_453" data-name="Path 453" d="M269.156,161.883s3.347-1.586,4.316,2.643A4.067,4.067,0,0,0,269.156,161.883Z" transform="translate(-252.29 -158.213)" fill="#822a2a"/>
                <path id="Path_454" data-name="Path 454" d="M271.156,160.437s4.7-1.233,4.228,3.113A4.09,4.09,0,0,0,271.156,160.437Z" transform="translate(-252.881 -157.825)" fill="#333"/>
                <path id="Path_455" data-name="Path 455" d="M264.614,157.208s2.643.118,2.8,1.586C267.412,158.794,267.815,155.711,264.614,157.208Z" transform="translate(-250.949 -156.798)" fill="#333"/>
                <path id="Path_456" data-name="Path 456" d="M265.559,159.8s.362-1.921-2.986-.746C262.573,159.055,264.716,158.673,265.559,159.8Z" transform="translate(-250.346 -157.352)" fill="#822a2a"/>
                <path id="Path_457" data-name="Path 457" d="M263.736,160.039l-.555-.515s.247-.63,1.744-.057a3.928,3.928,0,0,0,2.51.22l-2.731,1.982Z" transform="translate(-250.526 -157.515)" fill="#f7cab2"/>
                <path id="Path_458" data-name="Path 458" d="M261.968,160.322l.855-.736a.617.617,0,0,1,1,.3l.527,1.847A4.409,4.409,0,0,0,261.968,160.322Z" transform="translate(-250.168 -157.577)" fill="#d8a98f"/>
                <path id="Path_459" data-name="Path 459" d="M275.307,175.443s.264,1.629-2.026,1.629c0,0,1.1-.484.881-.925s-.837-.4-.837-.4,1.145-.088,1.233.176a1.668,1.668,0,0,1,.044.617Z" transform="translate(-253.508 -162.303)" fill="#d8a98f"/>
              </g>
              <path id="Path_460" data-name="Path 460" d="M272.031,171.864s3.524-.44,3.876-2.907a6.767,6.767,0,0,0,2.5-1.5c1.092-1.037-1.879,5.726-1.879,5.726s-.7-1.233-3.876.176Z" transform="translate(-246.69 -154.656)" fill="#333"/>
            </g>
            <path id="Path_514" data-name="Path 514" d="M266.686,199.6a9.217,9.217,0,0,1-5.388-3.385l-4.574,6.44L252.5,184.8c-1.259-5.036-6.766-9.027-12.082-11.8-11.908,3.547-11.514-7.279-11.291-9.4-2.31-13.927,7.9-25.773,16.817-36.914l-10-3.431c-37.985,34.673-41.5,92.294-41.5,92.294l46.071,6.835c-7.158-8.573.946-13.271-3.156-13.749-.87-.1,1.245-1.793,1.4-2.576.147-.742-.738-1.352-.526-2.014a17.61,17.61,0,0,1,5.106-7.969c.264,22.273,14.329,27.248,14.329,27.248Z" transform="translate(-189.906 -103.156)" fill="#3ac1b0"/>
            <path id="Path_515" data-name="Path 515" d="M244.241,202.354a.848.848,0,0,0-1.105.4c-.114.372.2.8.691.949a.847.847,0,0,0,1.1-.4C245.047,202.932,244.737,202.507,244.241,202.354Zm-2.171,5.883c.114-.372-.2-.8-.691-.95a.848.848,0,0,0-1.1.4c-.115.372.2.8.691.949A.848.848,0,0,0,242.07,208.237Zm-.458,6.154c-.519,0-.939.316-.939.7s.421.7.939.7.939-.315.939-.7S242.131,214.391,241.612,214.391Zm-.685,5.675a.979.979,0,1,0,1,.613A.848.848,0,0,0,240.927,220.066Zm-4.321,4.667a.734.734,0,1,0,.462,1.08A.849.849,0,0,0,236.606,224.734Z" transform="translate(-201.992 -126.497)" fill="#4addc7"/>
            <g id="Group_436" data-name="Group 436" transform="translate(33.912 71.261)">
              <path id="Path_516" data-name="Path 516" d="M236.3,229.6l-.171-.684c1.495-.374,1.586-3.548,1.5-4.741l-.01-.135,1.9-2.466.079-.037c.042-.019,4.215-1.934,5.237-2.615.233-.268-.418-2.083-.893-3.408-.814-2.27-1.827-5.094-1.731-7.413a8.491,8.491,0,0,1,3.605-6.454l-1.091-2.364.36-.131A12.816,12.816,0,0,0,247.8,197.8a.286.286,0,0,0,.135-.242c0-.371-.564-.93-.836-1.142l.433-.557c.113.088,1.1.88,1.107,1.693a.994.994,0,0,1-.4.8,11.62,11.62,0,0,1-2.561,1.328l1.032,2.235-.271.163a7.96,7.96,0,0,0-3.53,6.056c-.09,2.18.9,4.934,1.69,7.146.838,2.338,1.345,3.749.62,4.232-1,.667-4.65,2.355-5.254,2.634l-1.628,2.116C238.379,225.066,238.479,229.052,236.3,229.6Z" transform="translate(-236.129 -195.855)" fill="#39aa99"/>
            </g>
            <g id="Group_437" data-name="Group 437" transform="translate(8.092 26.727)">
              <path id="Path_517" data-name="Path 517" d="M282.775,228.007l-9.161,17.265c-9.514-12.861-8.985-25.017-8.985-25.017-4.228,20.613,13.213,30.831,13.213,30.831l7.576-20.789Z" transform="translate(-218.529 -158.526)" fill="#39aa99"/>
              <path id="Path_518" data-name="Path 518" d="M199.489,245.978c.235,2.819,3.054-1.175,3.054-1.175s.469-11.51.235-12.919S199.489,245.978,199.489,245.978Z" transform="translate(-199.489 -161.933)" fill="#39aa99"/>
              <path id="Path_519" data-name="Path 519" d="M243.069,211.067c-.281-2.524-48.155-25.487,1.057-71.528,0,0-11.361,3.656-11.158.939a16.251,16.251,0,0,1,2.666-7.819c-7.98,8.762-23.434,33.89-19.05,54.858,4.874,23.315,19.086,23.667,19.086,23.667A20.157,20.157,0,0,1,223.1,194.624S227.8,205.9,243.069,211.067Z" transform="translate(-204.31 -132.66)" fill="#39aa99"/>
              <path id="Path_520" data-name="Path 520" d="M243.962,193.6c.7.238-2.335-2.422-2.731-3.788a4.179,4.179,0,0,1,.191-2.886,12.96,12.96,0,0,1-.782-5.032c-1.678,1.847-6.985,8.1-6.985,13.291,0,0,3.083-8.721,6.254-9.426C239.91,185.76,238.5,191.75,243.962,193.6Z" transform="translate(-209.578 -147.199)" fill="#39aa99"/>
              <path id="Path_521" data-name="Path 521" d="M256.369,218.262c-5.285,7.4-13.213,2.114-13.213,2.114l8.633,10.218s2.29-6.871,5.814-10.042l2.643-7.047S257.477,216.711,256.369,218.262Z" transform="translate(-212.383 -156.533)" fill="#39aa99"/>
              <path id="Path_522" data-name="Path 522" d="M274.418,236.046l4.933-2.29-6.695,1.586,1.409,6.519Z" transform="translate(-221.094 -162.512)" fill="#39aa99"/>
            </g>
            <path id="Path_523" data-name="Path 523" d="M252.234,192.568l.44-.881,2.378-1.057,2.951,1.1,1.894,2.819s-5.33.132-6.783-.573S252.234,192.568,252.234,192.568Z" transform="translate(-206.94 -123.051)" fill="#39aa99"/>
            <path id="Path_524" data-name="Path 524" d="M250.156,192.858l3.993-2.114,1.468,5.579,5.2-1.586-.264-4.052-6.284-.763Z" transform="translate(-206.359 -122.842)" fill="#4addc7"/>
            <path id="Path_525" data-name="Path 525" d="M254.06,194.005s11.628,13.654,24.753,5.726c0,0-5.373,7.135-11.628,5.814s-12.685-7.4-13.654-10.747Z" transform="translate(-207.355 -124.048)" fill="#db7631"/>
            <path id="Path_526" data-name="Path 526" d="M252.323,190.283s8.691,26.309,31.947,4.933c0,0,1.634-2.506,1.335-9.932a.52.52,0,0,0-.786-.43l-7.126,4.254s-2.949,16.331-14.33,11.98C255.377,198.035,252.323,190.283,252.323,190.283Z" transform="translate(-206.999 -121.323)" fill="#b64e00"/>
            <path id="Path_527" data-name="Path 527" d="M248.406,192.372s2.114-1.645,3.289-.94a7.562,7.562,0,0,1,2.055,2.056l-1.409,1.351A5.287,5.287,0,0,1,248.406,192.372Z" transform="translate(-205.842 -123.236)" fill="#b64e00"/>
            <path id="Path_528" data-name="Path 528" d="M246.654,188.089a4.553,4.553,0,0,0,2.349,3.7s1.82,1,.822,1.174-2.584-1-3.289-2.877S246.654,188.089,246.654,188.089Z" transform="translate(-205.206 -122.301)" fill="#db7631"/>
            <path id="Path_529" data-name="Path 529" d="M246.869,189.445l2.173-3.993-4.7-5.7-.7.352S242.993,187.566,246.869,189.445Z" transform="translate(-204.423 -119.84)" fill="#4addc7"/>
            <g id="Group_438" data-name="Group 438" transform="translate(44.288)">
              <path id="Path_530" data-name="Path 530" d="M252.593,114.833l10,3.431,0,0a147.259,147.259,0,0,1,10.337-11.579l4.3-.662,1.644-1.908,1.2.03s.721-.567.557-1.057c-.529-1.586-1.608-1.015-2.026-1.85-.782-1.564-1.642-3.314-1.938-4.023-.457-1.1-.428-2.65-2-2.466-8.985,1.057-5.285,7.047-7.5,9.106a95.5,95.5,0,0,0-16.325,12.605Q251.71,115.639,252.593,114.833Z" transform="translate(-250.853 -94.734)" fill="#eabfa5"/>
              <path id="Path_531" data-name="Path 531" d="M296.312,206.255h-9.69l-2.466,3.171s.176,1.938,1.762,2.29c.712.159,1.1-.323,1.319-.9.314,2.155,2.715,4.87,3.521,5.729l-2.967,4.177a9.217,9.217,0,0,0,5.388,3.385l2.6-6.849C297.546,213.109,296.312,206.255,296.312,206.255Z" transform="translate(-260.687 -127.665)" fill="#eabfa5"/>
            </g>
            <path id="Path_532" data-name="Path 532" d="M192.34,247.306s13.389-13.155,45.76-1.273l-1.364,3.622s30.784,14.127,38.644,38.269L231.863,305.59l4.118,12.645s-1.738,2.474-5.153-1.182-9.438-17.271-9.438-17.271l33.2-19.076s-17.525-15.75-36.814-11.535c0,0-20.673,31.207-12.357,72.365,0,0,.816,20.078-4.913,19.082s-2.353-18.942-2.353-18.942S179.916,301.893,192.34,247.306Z" transform="translate(-188.007 -137.943)" fill="#333"/>
            <path id="Path_533" data-name="Path 533" d="M253.93,116.82s5.4-6.578,10.571,5.168l-4.463,6.577s-4.933-8.221-12.215-5.872Z" transform="translate(-205.67 -100.713)" fill="#4addc7"/>
            <path id="Path_534" data-name="Path 534" d="M286.075,225.422s3.827,4.346,8.08,3.876l-3.615,9.866s-6.166.118-8.717-8.809Z" transform="translate(-215.71 -133.325)" fill="#4addc7"/>
          </g>
          <path id="Path_535" data-name="Path 535" d="M226.471,402.411A174.882,174.882,0,0,1,220.423,384c-1.7-6.239-3.06-12.569-4.174-18.941l-.739-4.8-.574-4.818c-.214-1.6-.331-3.218-.449-4.831s-.289-3.223-.3-4.842a119.075,119.075,0,0,1,.752-19.361l-.292,4.834c-.039.805-.13,1.608-.125,2.415l-.007,2.42-.021,2.418c-.008.806-.027,1.611.025,2.416l.21,4.831a177.085,177.085,0,0,0,2.22,19.2c1.053,6.359,2.417,12.666,4,18.919.8,3.125,1.646,6.238,2.575,9.328C224.412,396.291,225.414,399.359,226.471,402.411Z" transform="translate(-195.703 -163.145)" fill="#333" opacity="0.2"/>
          <path id="Path_536" data-name="Path 536" d="M231.136,403.309c-1.138-2.453-2.1-4.983-2.989-7.537s-1.643-5.154-2.361-7.762c-.669-2.622-1.276-5.261-1.741-7.927a74.384,74.384,0,0,1-.992-8.048c.268,1.327.432,2.664.726,3.983l.373,1.986.426,1.975c.573,2.631,1.17,5.256,1.889,7.852.658,2.611,1.414,5.2,2.193,7.775q.58,1.936,1.209,3.858C230.269,400.753,230.7,402.028,231.136,403.309Z" transform="translate(-198.356 -176.618)" fill="#333" opacity="0.2"/>
          <g id="Group_440" data-name="Group 440" transform="translate(73.981 139.737)" opacity="0.3">
            <path id="Path_537" data-name="Path 537" d="M308.014,293.024c1.463,2.327,2.83,4.7,4.186,7.084q2.008,3.587,3.931,7.216l.335.632-.662.3c-1.875.844-3.741,1.705-5.63,2.517-1.879.832-3.773,1.634-5.669,2.428-3.8,1.569-7.617,3.106-11.517,4.454,3.614-1.992,7.311-3.794,11.024-5.564,1.86-.876,3.724-1.744,5.6-2.582,1.868-.858,3.759-1.665,5.641-2.492l-.328.93q-1.834-3.675-3.583-7.395C310.193,298.062,309.056,295.567,308.014,293.024Z" transform="translate(-292.987 -293.024)" fill="#333"/>
          </g>
        </g>
      </g>
      <rect id="Rectangle_62" data-name="Rectangle 62" width="246" height="246" transform="translate(94 88)" fill="#0047ff" style="mix-blend-mode: hue;isolation: isolate"/>
    </g>
  </g>
</svg>
