<svg width="55" height="52" viewBox="0 0 55 52" fill="none" xmlns="http://www.w3.org/2000/svg">
<path d="M54.1204 20.9008L49.5957 16.5676C49.3831 16.3682 49.0957 16.2512 48.7948 16.2512H47.6637V15.1679C47.6637 14.8797 47.5461 14.6045 47.3334 14.4009L38.2841 5.73448C36.4674 3.99689 33.4291 1.08496 27.3027 1.08496C21.1786 1.08496 18.371 3.77153 16.3213 5.73448C16.0001 6.04434 15.9027 6.51232 16.077 6.91745C16.2512 7.32044 16.6652 7.5848 17.1222 7.5848C26.2461 7.5848 27.3027 11.2941 27.3027 14.0846C27.3027 17.4559 24.3729 19.7091 24.3413 19.7309C24.3232 19.746 24.3142 19.7677 24.296 19.7829C24.2779 19.798 24.2575 19.8024 24.2417 19.8175L1.86496 41.2453C0.763237 42.3004 0.154633 43.7065 0.154633 45.325C0.154633 48.408 2.77219 50.9148 5.99147 50.9148C7.6317 50.9148 9.20628 50.2475 10.3126 49.0862L31.4587 26.8113C34.5083 24.6382 37.5489 23.3144 38.6144 23.4033V24.9177C38.6144 25.2058 38.7344 25.4811 38.9448 25.6847L44.6006 31.1012C44.8132 31.3006 45.1006 31.4176 45.4014 31.4176C45.415 31.4176 45.4264 31.4176 45.4399 31.4176C45.7521 31.4089 46.0462 31.2746 46.2521 31.0492L54.1704 22.3828C54.5639 21.9516 54.5435 21.3059 54.1204 20.9008ZM8.63617 47.6282C7.9597 48.3431 6.99594 48.7505 5.99147 48.7505C4.021 48.7505 2.41694 47.2122 2.41694 45.1972C2.41694 44.2829 2.78799 43.4228 3.46436 42.7771L25.0403 22.1142L29.1351 26.0357L8.63617 47.6282ZM45.3471 28.7483L40.8767 24.467V22.751C40.8767 22.4629 40.7568 22.1877 40.5464 21.9841C38.4107 19.9387 33.4992 22.7575 30.8138 24.5796L26.6647 20.6061C27.8004 19.4556 29.565 17.1698 29.565 14.0846C29.565 9.01263 26.3095 6.1462 19.8754 5.53948C21.5269 4.27851 23.701 3.25154 27.3027 3.25154C32.4925 3.25154 35.0127 5.66734 36.6823 7.2663L45.4014 15.6142V17.3345C45.4014 17.9325 45.9082 18.4179 46.5326 18.4179H48.3266L51.7722 21.7177L45.3471 28.7483Z" fill="black" stroke="black"/>
</svg>
