<svg width="87" height="41" viewBox="0 0 87 41" fill="none" xmlns="http://www.w3.org/2000/svg">
<path d="M26.5289 37.27V36.75C27.3989 36.62 27.4689 36.44 27.2389 35.75C27.0889 35.31 26.8689 34.69 26.6489 34.09H23.8189C23.6489 34.54 23.4589 35.09 23.2789 35.66C23.0989 36.23 23.1089 36.58 24.1789 36.66V37.18H20.8789V36.66C21.8789 36.54 22.0289 36.38 22.5189 35.14L25.5189 27.56L26.2689 27.37C27.2089 29.95 28.1289 32.52 29.0889 35.05C29.5889 36.35 29.7789 36.54 30.7089 36.66V37.18L26.5289 37.27ZM25.2789 30.16H25.2289C24.8189 31.23 24.4489 32.3 24.0689 33.34H26.3689L25.2789 30.16Z" fill="#141525"/>
<path d="M39.1089 34.7701C38.9989 35.3901 38.6889 36.8701 38.5689 37.2701H31.3789V36.7501C32.6689 36.6501 32.8089 36.5501 32.8089 35.3101V29.6601C32.8089 28.3901 32.6689 28.3001 31.5489 28.2001V27.6801H36.0589V28.2001C34.9189 28.3001 34.7889 28.3901 34.7889 29.6601V35.4101C34.7889 36.1001 34.8489 36.4101 35.1589 36.5001C35.5189 36.6056 35.8942 36.6496 36.2689 36.6301C36.5403 36.6613 36.8152 36.6328 37.0744 36.5464C37.3335 36.46 37.5706 36.3179 37.7689 36.1301C38.1362 35.6784 38.4175 35.1632 38.5989 34.6101L39.1089 34.7701Z" fill="#141525"/>
<path d="M45.0719 32.12C46.7919 32.33 47.9219 33.02 47.9219 34.42C47.9221 34.882 47.7917 35.3346 47.5458 35.7256C47.2998 36.1166 46.9483 36.4302 46.5319 36.63C45.5637 37.096 44.4954 37.3158 43.4219 37.27H39.6719V36.75C40.8119 36.65 40.9419 36.55 40.9419 35.29V29.66C40.9419 28.4 40.8119 28.3 39.7619 28.2V27.68H44.0719C44.9186 27.6096 45.7674 27.7905 46.5119 28.2C46.7889 28.3818 47.0145 28.6319 47.1668 28.9261C47.3192 29.2203 47.3933 29.5489 47.3819 29.88C47.3819 31.28 46.1419 31.88 45.0719 32.06V32.12ZM43.2319 31.91C44.6519 31.91 45.2819 31.35 45.2819 30.13C45.2819 28.91 44.4819 28.3 43.6919 28.3C43.4546 28.2824 43.2184 28.3458 43.0219 28.48C42.9103 28.67 42.8646 28.8914 42.8919 29.11V31.91H43.2319ZM42.8919 35.26C42.8919 36.35 43.1919 36.66 43.9719 36.65C44.2265 36.6396 44.4762 36.5764 44.7051 36.4644C44.934 36.3524 45.1371 36.1941 45.3017 35.9995C45.4662 35.8049 45.5885 35.5782 45.6608 35.3339C45.7332 35.0895 45.7539 34.8328 45.7219 34.58C45.7219 33.21 44.8719 32.5 43.1919 32.5H42.8919V35.26Z" fill="#141525"/>
<path d="M59.0017 28.2001C58.1917 28.2001 57.8217 28.5501 57.7517 29.0701C57.6468 29.7481 57.6033 30.4342 57.6217 31.1201V32.7201C57.7565 34.0422 57.3729 35.3651 56.5517 36.4101C56.1924 36.764 55.7655 37.042 55.2965 37.2275C54.8275 37.4131 54.3259 37.5023 53.8217 37.4901C52.8899 37.534 51.9705 37.2628 51.2117 36.7201C50.3417 36.0701 50.0017 35.0001 50.0017 33.2601V29.7901C50.0017 28.4001 49.8517 28.3001 48.7617 28.2001V27.6801H53.2017V28.2001C52.1217 28.3001 51.9717 28.4001 51.9717 29.7901V33.0001C51.9717 35.2101 52.7717 36.5001 54.3617 36.5001C56.1217 36.5001 56.8917 35.1701 56.8917 32.7001V31.1201C56.9017 30.4337 56.8515 29.7477 56.7417 29.0701C56.6717 28.5501 56.3117 28.2501 55.3117 28.2001V27.6801H59.0017V28.2001Z" fill="#141525"/>
<path d="M68.6886 37.4H68.2486C66.3886 37.31 65.8186 36.89 65.2486 35.97C64.8586 35.36 64.4686 34.56 64.0386 33.8C63.9638 33.5986 63.8262 33.4266 63.6461 33.3096C63.466 33.1925 63.253 33.1365 63.0386 33.15H62.7586V35.3C62.7586 36.51 62.9086 36.66 64.0186 36.76V37.28H59.5586V36.76C60.6686 36.66 60.8286 36.51 60.8286 35.3V29.63C60.8286 28.45 60.6986 28.3 59.6186 28.2V27.68H63.7686C64.679 27.5884 65.5952 27.7842 66.3886 28.24C66.7151 28.4572 66.9792 28.7561 67.1546 29.1069C67.33 29.4578 67.4107 29.8483 67.3886 30.24C67.3749 30.7857 67.1884 31.3131 66.856 31.7461C66.5235 32.1792 66.0623 32.4957 65.5386 32.65C65.7486 33.07 66.3086 34.06 66.7386 34.74C67.0746 35.2977 67.4524 35.8292 67.8686 36.33C68.1099 36.6157 68.4195 36.8358 68.7686 36.97L68.6886 37.4ZM63.1486 32.56C63.6617 32.6116 64.1756 32.4688 64.5886 32.16C64.8341 31.943 65.026 31.672 65.1492 31.3684C65.2724 31.0647 65.3235 30.7367 65.2986 30.41C65.2986 28.84 64.3886 28.27 63.5586 28.27C63.1886 28.27 62.9786 28.33 62.8986 28.42C62.8186 28.51 62.7586 28.65 62.7586 28.96V32.56H63.1486Z" fill="#141525"/>
<path d="M74.7881 30.0799C74.4781 29.1499 73.9281 28.0799 72.7181 28.0799C72.527 28.0771 72.3373 28.1132 72.1605 28.1859C71.9838 28.2587 71.8237 28.3666 71.6899 28.5032C71.5562 28.6397 71.4516 28.802 71.3825 28.9803C71.3134 29.1585 71.2813 29.3489 71.2881 29.5399C71.2881 30.3499 71.8181 30.8299 73.1181 31.4799C74.6681 32.2299 75.7281 33.0499 75.7281 34.4799C75.7281 36.1699 74.2981 37.4799 72.1481 37.4799C71.6437 37.4855 71.1414 37.4147 70.6581 37.2699C70.3507 37.1855 70.0499 37.0785 69.7581 36.9499C69.55 36.1257 69.4062 35.2865 69.3281 34.4399L69.8481 34.2799C70.1381 35.2199 71.0081 36.8699 72.4281 36.8699C72.6293 36.8778 72.8298 36.8427 73.0164 36.7671C73.2031 36.6915 73.3714 36.5771 73.5105 36.4315C73.6495 36.2859 73.7559 36.1123 73.8228 35.9224C73.8896 35.7325 73.9153 35.5305 73.8981 35.3299C73.8981 34.4599 73.2481 33.9099 72.1481 33.3299C70.6281 32.5599 69.5781 31.7699 69.5781 30.3299C69.5781 28.7099 70.8581 27.4399 72.9581 27.4399C73.6599 27.4499 74.3541 27.5853 75.0081 27.8399C75.0681 28.3799 75.1681 29.0299 75.2881 29.9499L74.7881 30.0799Z" fill="#141525"/>
<path d="M82.1305 37.27V36.75C83.0005 36.62 83.1305 36.44 82.8405 35.75C82.6905 35.31 82.4705 34.69 82.2505 34.09H79.4205C79.2605 34.54 79.0705 35.09 78.8905 35.66C78.7105 36.23 78.7105 36.58 79.7905 36.66V37.18H76.4805V36.66C77.4805 36.54 77.6305 36.38 78.1205 35.14L81.1205 27.56L81.8705 27.37C82.8705 29.95 83.7305 32.52 84.6905 35.05C85.1905 36.35 85.3805 36.54 86.3105 36.66V37.18L82.1305 37.27ZM80.8805 30.16C80.4605 31.23 80.0905 32.3 79.7105 33.34H82.0005L80.8805 30.16Z" fill="#141525"/>
<path d="M34 38.5701H34.21L34.82 40.4501L35.46 38.5801H35.73L35 40.8401H34.78L34.14 39.0001L33.52 40.8201H33.31L32.5 38.5601H32.78L33.42 40.4301L34 38.5701Z" fill="#141525"/>
<path d="M38.4797 40.14C38.4312 40.2787 38.3527 40.405 38.2497 40.51C38.1479 40.6238 38.0213 40.7127 37.8797 40.77C37.7343 40.8315 37.5777 40.8622 37.4197 40.86C37.2654 40.8642 37.1118 40.8361 36.9689 40.7775C36.826 40.719 36.6968 40.6313 36.5897 40.52C36.4855 40.4128 36.4035 40.2861 36.3486 40.147C36.2936 40.008 36.2668 39.8594 36.2697 39.71C36.2686 39.5554 36.2993 39.4022 36.3597 39.26C36.411 39.1225 36.4892 38.9967 36.5897 38.89C36.7562 38.7226 36.9687 38.6085 37.2002 38.5622C37.4317 38.5159 37.6717 38.5395 37.8897 38.63C38.0245 38.6897 38.1467 38.7745 38.2497 38.88C38.3503 38.9867 38.4285 39.1125 38.4797 39.25C38.5371 39.3929 38.5643 39.5461 38.5597 39.7C38.5632 39.8505 38.536 40.0003 38.4797 40.14ZM38.2397 39.34C38.1938 39.233 38.1295 39.1348 38.0497 39.05C37.972 38.9638 37.8765 38.8955 37.7697 38.85C37.6601 38.7987 37.5408 38.7714 37.4197 38.77C37.2954 38.7703 37.1725 38.7976 37.0597 38.85C36.9535 38.8918 36.8578 38.9567 36.7797 39.04C36.7082 39.1326 36.6478 39.2333 36.5997 39.34C36.5197 39.5733 36.5197 39.8266 36.5997 40.06C36.6474 40.1691 36.7115 40.2702 36.7897 40.36C36.8683 40.4452 36.9636 40.5133 37.0697 40.56C37.1794 40.61 37.2992 40.634 37.4197 40.63C37.5434 40.6328 37.6662 40.6089 37.7797 40.56C37.8815 40.5108 37.9731 40.443 38.0497 40.36C38.1295 40.2751 38.1938 40.177 38.2397 40.07C38.2791 39.954 38.2994 39.8324 38.2997 39.71C38.3001 39.5842 38.2798 39.4592 38.2397 39.34Z" fill="#141525"/>
<path d="M40.9094 40.8301L40.2494 40.0001H39.6094V40.8801H39.3594V38.5801H40.3594C40.4749 38.5747 40.5903 38.5917 40.6994 38.6301C40.7911 38.6549 40.8764 38.6992 40.9494 38.7601C41.0223 38.8151 41.0807 38.8872 41.1194 38.9701C41.1593 39.058 41.1798 39.1535 41.1794 39.2501C41.1953 39.3326 41.1953 39.4175 41.1794 39.5001C41.1541 39.574 41.1092 39.6397 41.0494 39.6901C40.9969 39.7499 40.9321 39.7977 40.8594 39.8301C40.7831 39.8668 40.7024 39.8937 40.6194 39.9101L41.3094 40.8301H40.9094ZM40.7294 38.9301C40.6071 38.8435 40.4589 38.8012 40.3094 38.8101H39.6094V39.7301H40.2994C40.3756 39.7411 40.4531 39.7411 40.5294 39.7301C40.5977 39.7072 40.6618 39.6734 40.7194 39.6301C40.7672 39.5908 40.8079 39.5434 40.8394 39.4901C40.8544 39.4242 40.8544 39.3559 40.8394 39.2901C40.852 39.2256 40.8486 39.1591 40.8294 39.0963C40.8102 39.0335 40.7758 38.9764 40.7294 38.9301Z" fill="#141525"/>
<path d="M43.8514 40.83H43.5314L42.6714 39.74L42.1914 40.22V40.83H41.9414V38.58H42.1914V39.92L43.4814 38.58H43.8114L42.8114 39.58L43.8514 40.83Z" fill="#141525"/>
<path d="M44.6903 39.28C44.7137 39.3246 44.7441 39.3651 44.7803 39.4C44.8402 39.4395 44.9038 39.473 44.9703 39.5L45.2703 39.58C45.4733 39.6084 45.6659 39.6875 45.8303 39.81C45.8901 39.8596 45.9375 39.9226 45.9688 39.9937C46 40.0649 46.0142 40.1424 46.0103 40.22C46.0108 40.3102 45.9902 40.3992 45.9503 40.48C45.9141 40.5587 45.8592 40.6274 45.7903 40.68C45.721 40.7406 45.639 40.785 45.5503 40.81C45.4476 40.8261 45.343 40.8261 45.2403 40.81C45.0727 40.8119 44.9063 40.7813 44.7503 40.72C44.593 40.6544 44.4477 40.5632 44.3203 40.45L44.4803 40.26C44.5856 40.3602 44.7074 40.4414 44.8403 40.5C44.9689 40.5581 45.1093 40.5855 45.2503 40.58C45.3813 40.588 45.5112 40.5529 45.6203 40.48C45.6625 40.4469 45.6963 40.4043 45.7189 40.3556C45.7415 40.3069 45.7523 40.2536 45.7503 40.2C45.7558 40.1502 45.7558 40.0998 45.7503 40.05C45.7292 40.0069 45.6984 39.9692 45.6603 39.94C45.6046 39.9022 45.544 39.8719 45.4803 39.85C45.3866 39.8136 45.2894 39.7867 45.1903 39.77C45.0746 39.7454 44.9609 39.712 44.8503 39.67C44.7662 39.6348 44.6858 39.5913 44.6103 39.54C44.5529 39.4915 44.5083 39.4297 44.4803 39.36C44.4465 39.281 44.4295 39.1959 44.4303 39.11C44.429 39.0261 44.4497 38.9434 44.4903 38.87C44.5218 38.7913 44.5735 38.7222 44.6403 38.67C44.7098 38.6151 44.7874 38.5712 44.8703 38.54C44.9697 38.5249 45.0709 38.5249 45.1703 38.54C45.3159 38.5375 45.461 38.5578 45.6003 38.6C45.7286 38.6548 45.8495 38.7253 45.9603 38.81L45.8103 39C45.7162 38.9253 45.6118 38.8647 45.5003 38.82C45.3913 38.7804 45.2763 38.7601 45.1603 38.76C45.0975 38.7488 45.0331 38.7488 44.9703 38.76C44.9124 38.7764 44.8582 38.8035 44.8103 38.84C44.7722 38.8692 44.7414 38.9069 44.7203 38.95C44.7113 38.9996 44.7113 39.0504 44.7203 39.1C44.6931 39.1558 44.6826 39.2184 44.6903 39.28Z" fill="#141525"/>
<path d="M49.62 38.81H48.25V39.62H49.47V39.85H48.25V40.85H48V38.58H49.62V38.81Z" fill="#141525"/>
<path d="M52.4192 40.14C52.3707 40.2787 52.2922 40.4051 52.1892 40.51C52.0902 40.6225 51.9672 40.7114 51.8292 40.77C51.5274 40.8902 51.191 40.8902 50.8892 40.77C50.7544 40.7103 50.6323 40.6254 50.5292 40.52C50.4287 40.4132 50.3505 40.2874 50.2992 40.15C50.243 40.0103 50.2158 39.8606 50.2192 39.71C50.2147 39.5561 50.2419 39.4029 50.2992 39.26C50.3505 39.1226 50.4287 38.9968 50.5292 38.89C50.6354 38.7812 50.7609 38.693 50.8992 38.63C51.0479 38.5677 51.208 38.537 51.3692 38.54C51.5271 38.5378 51.6838 38.5685 51.8292 38.63C51.964 38.6897 52.0862 38.7745 52.1892 38.88C52.2896 38.9889 52.3707 39.114 52.4292 39.25C52.4817 39.3943 52.5087 39.5465 52.5092 39.7C52.5093 39.8512 52.4786 40.0009 52.4192 40.14ZM52.1792 39.34C52.1376 39.2307 52.0728 39.1318 51.9892 39.05C51.9134 38.9617 51.8174 38.893 51.7092 38.85C51.6004 38.7965 51.4805 38.7691 51.3592 38.77C51.2349 38.7703 51.112 38.7976 50.9992 38.85C50.8961 38.8922 50.8038 38.9571 50.7292 39.04C50.651 39.1297 50.5869 39.2309 50.5392 39.34C50.4592 39.5733 50.4592 39.8267 50.5392 40.06C50.5869 40.1691 50.651 40.2702 50.7292 40.36C50.8103 40.4423 50.905 40.51 51.0092 40.56C51.1228 40.6089 51.2456 40.6328 51.3692 40.63C51.4896 40.632 51.6089 40.6081 51.7192 40.56C51.8246 40.5129 51.9195 40.4453 51.9985 40.3612C52.0774 40.2771 52.1389 40.1781 52.1792 40.07C52.2186 39.954 52.2389 39.8325 52.2392 39.71C52.2396 39.5842 52.2193 39.4592 52.1792 39.34Z" fill="#141525"/>
<path d="M54.8508 40.8301L54.2008 40.0001H53.5508V40.8801H53.3008V38.5801H54.3008C54.413 38.5755 54.525 38.5925 54.6308 38.6301C54.7255 38.655 54.814 38.6993 54.8908 38.7601C54.9435 38.8317 54.9809 38.9134 55.0008 39.0001C55.0407 39.088 55.0612 39.1835 55.0608 39.2801C55.0767 39.3626 55.0767 39.4475 55.0608 39.5301C55.0351 39.6014 54.9942 39.6662 54.9408 39.7201C54.8826 39.7778 54.8149 39.8251 54.7408 39.8601C54.6652 39.8986 54.5843 39.9255 54.5008 39.9401L55.1908 40.8601L54.8508 40.8301ZM54.6708 38.9301C54.5485 38.8436 54.4003 38.8012 54.2508 38.8101H53.5508V39.7301H54.2508C54.3271 39.7405 54.4045 39.7405 54.4808 39.7301C54.545 39.7049 54.6055 39.6713 54.6608 39.6301C54.7087 39.5908 54.7493 39.5434 54.7808 39.4901C54.7954 39.4242 54.7954 39.3559 54.7808 39.2901C54.7953 39.2257 54.7928 39.1586 54.7735 39.0955C54.7542 39.0324 54.7188 38.9753 54.6708 38.9301Z" fill="#141525"/>
<path d="M58.84 40.63C58.7794 40.6793 58.712 40.7197 58.64 40.75C58.5677 40.7902 58.4904 40.8205 58.41 40.84H58.13C57.9752 40.8432 57.8216 40.8125 57.68 40.75C57.5457 40.6939 57.4234 40.6124 57.32 40.51C57.2197 40.4011 57.1385 40.276 57.08 40.14C57.0276 39.9957 57.0005 39.8435 57 39.69C56.9995 39.5332 57.0266 39.3775 57.08 39.23C57.1385 39.094 57.2197 38.9689 57.32 38.86C57.423 38.7546 57.5452 38.6697 57.68 38.61C57.8255 38.5485 57.9821 38.5178 58.14 38.52C58.2297 38.5091 58.3203 38.5091 58.41 38.52C58.4898 38.5313 58.5674 38.5549 58.64 38.59L58.84 38.7C58.9035 38.7417 58.9607 38.7922 59.01 38.85L58.84 39.03C58.7458 38.9446 58.6417 38.8708 58.53 38.81C58.4064 38.7466 58.2688 38.7157 58.13 38.72C58.0133 38.722 57.898 38.7458 57.79 38.79C57.6858 38.84 57.5911 38.9077 57.51 38.99C57.4296 39.0724 57.3682 39.1714 57.33 39.28C57.282 39.3974 57.2581 39.5232 57.26 39.65C57.2572 39.7736 57.2811 39.8964 57.33 40.01C57.3655 40.1228 57.4272 40.2256 57.51 40.31C57.5911 40.3924 57.6858 40.46 57.79 40.51C57.8965 40.5589 58.0128 40.5829 58.13 40.58C58.2688 40.5844 58.4064 40.5534 58.53 40.49C58.6511 40.4307 58.7624 40.3531 58.86 40.26L59.03 40.42L58.84 40.63Z" fill="#141525"/>
<path d="M61.7688 40.14C61.7162 40.2767 61.6382 40.4023 61.5388 40.51C61.4352 40.6218 61.3091 40.7104 61.1688 40.77C61.0201 40.8323 60.86 40.863 60.6988 40.86C60.5409 40.8622 60.3842 40.8315 60.2388 40.77C60.104 40.7103 59.9818 40.6254 59.8788 40.52C59.7745 40.4128 59.6926 40.2861 59.6376 40.147C59.5827 40.008 59.5559 39.8594 59.5588 39.71C59.5577 39.5554 59.5883 39.4022 59.6488 39.26C59.7 39.1225 59.7782 38.9967 59.8788 38.89C60.0453 38.7226 60.2578 38.6085 60.4892 38.5622C60.7207 38.5159 60.9608 38.5395 61.1788 38.63C61.3136 38.6897 61.4358 38.7745 61.5388 38.88C61.6394 38.9867 61.7176 39.1125 61.7688 39.25C61.8261 39.3929 61.8534 39.5461 61.8488 39.7C61.8523 39.8505 61.825 40.0003 61.7688 40.14ZM61.5188 39.34C61.4807 39.2313 61.4192 39.1324 61.3388 39.05C61.2611 38.9638 61.1655 38.8955 61.0588 38.85C60.946 38.7976 60.8232 38.7703 60.6988 38.77C60.5778 38.7714 60.4584 38.7987 60.3488 38.85C60.2425 38.8918 60.1469 38.9567 60.0688 39.04C59.9937 39.1301 59.933 39.2313 59.8888 39.34C59.7994 39.5716 59.7994 39.8283 59.8888 40.06C59.9337 40.1705 59.9981 40.2721 60.0788 40.36C60.1573 40.4452 60.2527 40.5133 60.3588 40.56C60.4685 40.61 60.5883 40.634 60.7088 40.63C60.8324 40.6328 60.9552 40.6089 61.0688 40.56C61.1706 40.5108 61.2622 40.443 61.3388 40.36C61.4192 40.2776 61.4807 40.1786 61.5188 40.07C61.5661 39.9559 61.5899 39.8335 61.5888 39.71C61.5907 39.5832 61.5669 39.4573 61.5188 39.34Z" fill="#141525"/>
<path d="M64.2984 38.58H64.5484V40.83H64.3484L62.8884 39V40.85H62.6484V38.58H62.8784L64.2984 40.38V38.58Z" fill="#141525"/>
<path d="M65.6608 39.28C65.6842 39.3245 65.7145 39.3651 65.7508 39.4C65.8107 39.4395 65.8743 39.473 65.9408 39.5L66.2508 39.58C66.4502 39.6104 66.6391 39.6894 66.8008 39.81C66.8606 39.8596 66.908 39.9225 66.9392 39.9937C66.9705 40.0649 66.9847 40.1424 66.9808 40.22C66.9813 40.3101 66.9607 40.3992 66.9208 40.48C66.8846 40.5587 66.8297 40.6274 66.7608 40.68C66.693 40.7428 66.6104 40.7875 66.5208 40.81C66.4181 40.8261 66.3135 40.8261 66.2108 40.81C66.0432 40.8119 65.8768 40.7813 65.7208 40.72C65.5654 40.6565 65.4231 40.5649 65.3008 40.45L65.4508 40.26C65.556 40.3601 65.6778 40.4413 65.8108 40.5C65.9394 40.5581 66.0798 40.5855 66.2208 40.58C66.3519 40.5895 66.4823 40.5543 66.5908 40.48C66.633 40.4469 66.6668 40.4043 66.6894 40.3556C66.712 40.3069 66.7227 40.2536 66.7208 40.2C66.7313 40.1505 66.7313 40.0994 66.7208 40.05C66.6997 40.0068 66.6689 39.9692 66.6308 39.94C66.5775 39.8981 66.5163 39.8675 66.4508 39.85C66.3571 39.8135 66.2599 39.7867 66.1608 39.77C66.0451 39.7454 65.9314 39.712 65.8208 39.67C65.7387 39.637 65.6614 39.5933 65.5908 39.54C65.5276 39.4948 65.479 39.4323 65.4508 39.36C65.417 39.281 65.3999 39.1959 65.4008 39.11C65.3995 39.0261 65.4202 38.9434 65.4608 38.87C65.4922 38.7912 65.544 38.7222 65.6108 38.67C65.6839 38.615 65.7648 38.5711 65.8508 38.54C65.9468 38.5239 66.0448 38.5239 66.1408 38.54C66.2864 38.5367 66.4316 38.5569 66.5708 38.6C66.7001 38.6525 66.8214 38.7232 66.9308 38.81L66.7808 39C66.6867 38.9253 66.5823 38.8646 66.4708 38.82C66.3618 38.7804 66.2467 38.7601 66.1308 38.76C66.0679 38.7495 66.0037 38.7495 65.9408 38.76C65.8851 38.7743 65.8337 38.8017 65.7908 38.84C65.7475 38.8661 65.7127 38.9044 65.6908 38.95C65.6813 38.9995 65.6813 39.0504 65.6908 39.1C65.6635 39.1558 65.6531 39.2183 65.6608 39.28Z" fill="#141525"/>
<path d="M68.5491 40.83H68.2991V38.83H67.5391V38.6H69.3091V38.83H68.5491V40.83Z" fill="#141525"/>
<path d="M71.59 40.8301L70.94 40.0001H70.29V40.8801H70V38.5801H71C71.1122 38.5755 71.2242 38.5925 71.33 38.6301C71.4247 38.655 71.5132 38.6993 71.59 38.7601C71.6571 38.8184 71.7116 38.8899 71.75 38.9701C71.7899 39.058 71.8104 39.1535 71.81 39.2501C71.8259 39.3326 71.8259 39.4175 71.81 39.5001C71.7843 39.5714 71.7434 39.6362 71.69 39.6901C71.6318 39.7478 71.5641 39.7951 71.49 39.8301C71.4144 39.8686 71.3335 39.8955 71.25 39.9101L71.94 40.8301H71.59ZM71.41 38.9301C71.2877 38.8436 71.1396 38.8012 70.99 38.8101H70.29V39.7301H71C71.0763 39.7405 71.1537 39.7405 71.23 39.7301C71.2942 39.7049 71.3548 39.6713 71.41 39.6301C71.4579 39.5908 71.4985 39.5434 71.53 39.4901C71.5447 39.4242 71.5447 39.3559 71.53 39.2901C71.5433 39.2248 71.5392 39.1572 71.5182 39.094C71.4971 39.0308 71.4598 38.9743 71.41 38.9301Z" fill="#141525"/>
<path d="M74.4581 39.87C74.4569 40.016 74.4333 40.161 74.3881 40.3C74.3443 40.414 74.2799 40.5191 74.1981 40.61C74.1126 40.6937 74.0104 40.7584 73.8981 40.8C73.6511 40.8802 73.3851 40.8802 73.1381 40.8C73.0247 40.7609 72.922 40.6958 72.8381 40.61C72.7557 40.5234 72.6911 40.4215 72.6481 40.31C72.603 40.171 72.5794 40.026 72.5781 39.88V38.58H72.8381V39.87C72.8248 40.0727 72.8892 40.2729 73.0181 40.43C73.0823 40.4971 73.1602 40.5497 73.2464 40.5842C73.3327 40.6187 73.4253 40.6343 73.5181 40.63C73.6099 40.6332 73.7014 40.618 73.7873 40.5854C73.8731 40.5527 73.9516 40.5033 74.0181 40.44C74.1499 40.2845 74.2146 40.0831 74.1981 39.88V38.58H74.4581V39.87Z" fill="#141525"/>
<path d="M77.061 40.6299C76.9969 40.6794 76.9262 40.7198 76.851 40.7499C76.7788 40.7901 76.7014 40.8204 76.6211 40.8399H76.341C76.0381 40.8409 75.747 40.7223 75.531 40.5099C75.4305 40.4032 75.3523 40.2774 75.3011 40.1399C75.2406 39.9977 75.21 39.8445 75.211 39.6899C75.2089 39.532 75.2395 39.3754 75.3011 39.2299C75.3523 39.0925 75.4305 38.9667 75.531 38.8599C75.6341 38.7545 75.7563 38.6696 75.891 38.6099C76.0365 38.5484 76.1931 38.5178 76.351 38.5199C76.4441 38.5096 76.538 38.5096 76.631 38.5199C76.7106 38.5326 76.7879 38.5562 76.861 38.5899C76.9277 38.6206 76.9913 38.6575 77.0511 38.6999L77.2311 38.8499L77.0511 39.0299C76.9587 38.9423 76.8543 38.8682 76.741 38.8099C76.6208 38.7474 76.4866 38.7164 76.351 38.7199C76.2311 38.7221 76.1126 38.7458 76.001 38.7899C75.8993 38.8391 75.8077 38.9069 75.7311 38.9899C75.6513 39.0748 75.587 39.173 75.541 39.2799C75.5009 39.3992 75.4807 39.5242 75.4811 39.6499C75.4788 39.7726 75.4991 39.8946 75.541 40.0099C75.6267 40.2281 75.7907 40.4065 76.001 40.5099C76.1111 40.559 76.2306 40.5829 76.351 40.5799C76.4866 40.5835 76.6208 40.5525 76.741 40.4899C76.8636 40.4331 76.9753 40.3552 77.071 40.2599L77.241 40.4199L77.061 40.6299Z" fill="#141525"/>
<path d="M78.7913 40.83H78.5312V38.83H77.7812V38.6H79.5413V38.83H78.7913V40.83Z" fill="#141525"/>
<path d="M80.5508 38.58V40.83H80.3008V38.58H80.5508Z" fill="#141525"/>
<path d="M83.5814 40.14C83.5253 40.2773 83.4439 40.4028 83.3414 40.51C83.2424 40.6225 83.1194 40.7114 82.9814 40.77C82.6796 40.8902 82.3432 40.8902 82.0414 40.77C81.9066 40.7103 81.7844 40.6254 81.6814 40.52C81.5808 40.4132 81.5026 40.2874 81.4514 40.15C81.3951 40.0103 81.3679 39.8606 81.3714 39.71C81.3719 39.5565 81.3989 39.4042 81.4514 39.26C81.5061 39.122 81.5877 38.9962 81.6914 38.89C81.796 38.7748 81.9244 38.6838 82.0678 38.6234C82.2111 38.5629 82.3659 38.5345 82.5214 38.54C82.6793 38.5378 82.8359 38.5684 82.9814 38.63C83.1178 38.692 83.2429 38.7765 83.3514 38.88C83.4486 38.9893 83.5264 39.1144 83.5814 39.25C83.6878 39.5371 83.6878 39.8529 83.5814 40.14ZM83.3314 39.34C83.2932 39.2313 83.2318 39.1324 83.1514 39.05C83.0718 38.9659 82.9767 38.898 82.8714 38.85C82.7586 38.7976 82.6358 38.7703 82.5114 38.77C82.3901 38.7691 82.2702 38.7965 82.1614 38.85C82.0551 38.8918 81.9595 38.9567 81.8814 39.04C81.8027 39.1275 81.7416 39.2294 81.7014 39.34C81.612 39.5717 81.612 39.8283 81.7014 40.06C81.7416 40.1706 81.8027 40.2724 81.8814 40.36C81.9625 40.4423 82.0572 40.51 82.1614 40.56C82.275 40.6089 82.3977 40.6328 82.5214 40.63C82.6418 40.633 82.7614 40.609 82.8714 40.56C82.9756 40.51 83.0703 40.4423 83.1514 40.36C83.2318 40.2776 83.2932 40.1786 83.3314 40.07C83.4234 39.8353 83.4234 39.5746 83.3314 39.34Z" fill="#141525"/>
<path d="M86.1092 38.58H86.3492V40.83H86.1492L84.6992 39V40.85H84.4492V38.58H84.6892L86.1092 40.38V38.58Z" fill="#141525"/>
<path d="M15.5781 24.2499L16.3081 23.9199L18.6381 22.8599L19.3581 22.5299L29.0481 18.1299L46.9581 26.4599H52.1581L29.0481 15.0699L19.3581 19.9099L18.6381 20.2799L16.3081 21.4399L8.07812 25.5499V40.8899H16.3081H31.0181V38.5599H16.3081H10.4081V26.5899L15.5781 24.2499Z" fill="url(#paint0_linear)"/>
<path d="M0 0V40.89H2.33V2.44H16.31V21.44L18.64 20.28V0H0Z" fill="url(#paint1_linear)"/>
<path d="M16.3086 40.89H18.6386V22.86L16.3086 23.92V40.89Z" fill="url(#paint2_linear)"/>
<defs>
<linearGradient id="paint0_linear" x1="12.8081" y1="27.9799" x2="58.5181" y2="27.9799" gradientUnits="userSpaceOnUse">
<stop stop-color="#60411B"/>
<stop offset="0.5" stop-color="#F2DA7C"/>
<stop offset="1" stop-color="#D5B34F"/>
</linearGradient>
<linearGradient id="paint1_linear" x1="173.725" y1="249.838" x2="173.725" y2="1839.64" gradientUnits="userSpaceOnUse">
<stop stop-color="#60411B"/>
<stop offset="0.5" stop-color="#F2DA7C"/>
<stop offset="1" stop-color="#D5B34F"/>
</linearGradient>
<linearGradient id="paint2_linear" x1="57.0137" y1="133.023" x2="57.0137" y2="834.03" gradientUnits="userSpaceOnUse">
<stop stop-color="#60411B"/>
<stop offset="0.5" stop-color="#F2DA7C"/>
<stop offset="1" stop-color="#D5B34F"/>
</linearGradient>
</defs>
</svg>
