<svg width="26" height="24" viewBox="0 0 26 24" fill="none" xmlns="http://www.w3.org/2000/svg">
<path d="M5.47025 17.3614V20.9938L7.0582 20.1171L12.0495 17.3614H16.9999C18.156 17.3614 19.0962 16.4963 19.0962 15.4324V7.71616C19.0962 6.65229 18.156 5.78711 16.9999 5.78711H4.4221C3.266 5.78711 2.32581 6.65229 2.32581 7.71616V15.4324C2.32581 16.4963 3.266 17.3614 4.4221 17.3614H5.47025ZM4.4221 7.71616H16.9999V15.4324H11.4688L7.56655 17.5871V15.4324H4.4221V7.71616Z" fill="black"/>
<path d="M21.1925 1.92896H8.61473C7.45862 1.92896 6.51843 2.79414 6.51843 3.85801H19.0962C20.2523 3.85801 21.1925 4.72319 21.1925 5.78706V13.5033C22.3486 13.5033 23.2888 12.6381 23.2888 11.5742V3.85801C23.2888 2.79414 22.3486 1.92896 21.1925 1.92896Z" fill="black"/>
</svg>
