<svg width="27" height="45" viewBox="0 0 27 45" fill="none" xmlns="http://www.w3.org/2000/svg">
<path d="M14.0667 19.7958C8.23972 18.3454 6.36585 16.8458 6.36585 14.5104C6.36585 11.8308 8.95847 9.9625 13.2966 9.9625C17.8658 9.9625 19.56 12.0521 19.714 15.125H25.3869C25.2073 10.8967 22.512 7.0125 17.147 5.75875V0.375H9.44619V5.685C4.46631 6.7175 0.461867 9.815 0.461867 14.5596C0.461867 20.2383 5.36474 23.0654 12.5265 24.7125C18.9439 26.1875 20.2274 28.3508 20.2274 30.6371C20.2274 32.3333 18.9696 35.0375 13.2966 35.0375C8.0087 35.0375 5.92947 32.7758 5.64711 29.875H-0.000183105C0.307851 35.2588 4.51765 38.2825 9.44619 39.2904V44.625H17.147V39.3396C22.1526 38.43 26.1314 35.6521 26.1314 30.6125C26.1314 23.6308 19.8937 21.2462 14.0667 19.7958Z" fill="black"/>
</svg>
