<svg width="594" height="482" viewBox="0 0 594 482" fill="none" xmlns="http://www.w3.org/2000/svg">
<g clip-path="url(#clip0)">
<path d="M5.5291 308.449C3.94931 308.449 2.76447 308.054 1.57963 306.871C-0.790052 304.504 -0.790052 301.349 1.57963 298.982C14.2179 286.36 53.3177 261.116 94.3921 234.689C124.408 215.362 155.609 195.246 176.146 180.257L178.911 178.285L182.07 179.863C188.389 183.018 197.078 193.273 208.927 207.868C211.296 211.023 214.456 214.573 216.431 217.334C219.195 212.206 222.75 204.712 226.699 196.823C238.548 172.763 255.135 140.025 263.429 127.403L266.589 122.669L271.328 125.825C278.832 130.953 284.757 135.291 290.286 138.841C298.58 144.758 305.294 149.491 313.588 154.619C317.932 146.336 326.621 134.503 338.074 118.725C347.158 106.498 356.242 93.8757 359.007 88.3536L362.561 80.4649L395.342 117.542C408.77 132.925 422.593 148.702 439.181 160.535C446.685 152.647 460.113 138.052 475.516 121.486C513.431 80.4649 565.564 23.6662 575.832 13.8053C578.202 11.8331 581.757 11.8331 583.731 13.8053C585.706 16.1719 585.706 19.7218 583.731 21.694C573.463 31.5549 521.33 87.9592 483.415 129.375C465.642 148.702 449.844 165.663 443.92 171.974L440.761 175.524L436.811 172.763C417.459 159.746 402.056 141.997 387.048 125.036L365.326 100.581C360.981 107.286 354.662 115.964 347.553 125.825C336.889 140.419 323.856 158.169 321.882 164.874L319.907 171.579L313.588 168.03C301.739 160.93 293.84 155.408 283.967 148.308C280.017 145.547 275.278 142.391 270.143 138.447C261.455 152.647 247.632 180.651 236.968 201.557C222.75 229.956 222.75 229.956 220.38 230.745C215.246 232.717 212.876 229.561 200.633 214.573C194.709 207.473 185.625 196.034 180.096 191.301C159.163 206.29 129.542 225.223 101.106 243.761C62.0065 269.005 21.7219 294.643 10.2685 306.476C8.29373 308.054 7.10888 308.449 5.5291 308.449Z" fill="#1B2C3E"/>
<path d="M575.437 53.6432C575.042 53.6432 574.647 53.6432 574.647 53.6432C571.488 53.2488 569.513 50.0933 569.908 47.3322V46.9378C571.093 40.2324 572.278 32.3437 573.858 24.8494C571.883 25.2439 569.908 25.6383 567.933 26.0327L547.791 30.3715C544.631 31.1604 541.867 29.1882 541.077 26.0327C540.287 22.8773 542.262 20.1162 545.421 19.3273L565.564 14.9885C568.723 14.1997 571.488 13.8052 573.858 12.6219C575.832 11.8331 577.412 11.0442 578.992 9.86088L593.21 0L587.286 16.5663C584.126 25.6383 582.151 38.2602 580.177 48.5155V48.91C580.572 51.671 578.202 53.6432 575.437 53.6432Z" fill="#1B2C3E"/>
<path d="M308.058 242.577C306.874 242.577 306.084 242.971 304.899 242.971C304.899 229.955 310.823 203.922 306.084 192.878C304.504 188.933 304.899 186.172 309.243 171.184C310.823 165.662 319.907 156.195 323.066 151.068C327.806 143.573 335.31 140.418 341.234 134.107C347.158 127.796 349.528 138.84 357.822 135.685C359.796 134.896 364.536 131.74 365.721 130.557C366.905 129.374 370.46 110.441 370.855 108.863C374.409 97.4245 380.729 93.8746 392.182 91.1135C393.367 90.7191 394.157 91.9024 394.157 92.6912C393.367 105.313 393.762 115.963 389.812 128.19C386.653 138.446 381.124 148.307 377.569 158.562C373.62 171.184 372.04 184.595 366.905 196.428C363.746 203.528 359.401 210.233 356.242 217.333C353.082 224.433 352.687 229.56 354.267 237.055C354.662 235.477 310.033 242.577 311.218 241.788L308.058 242.577Z" fill="#FF8C7F"/>
<path d="M289.101 416.917C289.101 403.112 304.899 277.682 303.714 248.888C317.142 246.521 330.57 244.155 343.604 241.788C344.788 241.394 345.973 241.394 347.158 241.788C348.343 242.182 349.133 242.971 349.923 244.155C361.771 257.171 363.746 276.104 364.931 293.853C367.695 343.947 364.536 394.435 370.855 444.528C344.788 442.95 323.856 442.161 293.84 443.739C285.941 444.133 285.941 443.345 287.126 437.822C288.311 430.723 289.101 424.017 289.101 416.917Z" fill="#1B2C3E"/>
<path d="M360.191 227.195C364.536 237.451 367.3 248.495 369.67 259.145C344.788 255.2 319.907 259.145 295.025 263.089C295.025 256.384 290.681 237.451 293.05 235.873C294.63 234.69 308.058 233.112 313.193 232.323C317.932 232.323 359.401 225.618 360.191 227.195Z" fill="#C7E7EF"/>
<path d="M338.469 119.91C330.965 118.332 321.881 114.388 315.957 119.91C310.428 125.432 313.982 128.982 313.193 129.771C312.008 130.954 308.058 130.166 305.689 132.927C302.134 136.871 302.924 143.971 307.663 146.337C304.109 146.337 300.159 151.465 299.764 155.409C299.369 158.959 300.949 162.509 302.529 166.059C297.79 171.976 293.05 178.287 297 184.992C299.369 188.936 304.109 190.909 308.453 192.486C315.167 195.247 321.092 198.797 327.016 203.136C329.78 205.108 333.73 207.475 336.494 205.503C342.419 201.953 336.494 191.697 332.545 186.175C328.596 180.653 328.201 181.442 321.881 178.681C329.78 177.498 331.36 177.498 338.864 180.259C345.183 182.625 351.897 183.809 358.611 183.809C360.191 183.809 361.771 183.414 362.561 182.231C363.746 180.653 362.561 178.681 361.771 177.103C354.662 166.454 342.024 161.326 330.175 156.987C341.629 162.509 354.662 165.665 367.695 166.059C368.88 166.059 369.67 166.059 370.46 165.27C372.04 164.087 370.855 161.72 369.67 160.143C362.956 151.859 353.477 145.549 343.209 142.393C351.107 144.76 359.006 146.337 366.905 147.521C369.67 147.915 373.225 147.915 374.804 145.549C376.384 142.787 374.409 139.238 372.04 137.265C362.166 126.616 351.897 123.46 338.469 119.91Z" fill="#FF8C7F"/>
<path d="M180.491 289.517C183.255 285.178 187.6 256.779 188.784 251.651C189.574 248.101 200.238 233.507 201.423 202.347C202.608 178.681 207.347 177.892 213.666 155.409C219.59 154.62 225.119 158.564 227.094 164.481C229.069 170.792 228.674 178.286 228.279 184.597C226.699 203.924 230.649 203.136 231.834 214.574C231.834 216.546 240.127 211.419 240.917 212.996C242.102 215.757 244.867 217.73 247.237 219.702C260.665 230.352 269.354 246.918 270.143 264.273C270.143 268.217 270.143 272.162 270.538 276.106C271.723 283.6 279.227 281.234 281.597 287.939C283.967 295.039 285.941 297.8 281.597 303.717C275.278 312 255.135 321.466 245.657 326.199C237.363 330.538 233.808 343.949 224.33 344.343C220.38 344.738 216.826 343.555 213.271 342.371C206.557 340.399 199.843 338.427 193.524 336.06C188.389 334.482 183.255 332.905 178.121 330.538C171.802 327.383 165.483 322.649 158.768 323.833C158.768 322.255 169.827 306.083 180.491 289.517Z" fill="#FF8C7F"/>
<path d="M218.406 303.719C218.011 302.93 218.406 302.141 218.801 301.352C220.38 297.013 224.33 294.252 227.884 291.885C240.523 283.997 255.926 278.08 270.934 275.714C255.926 275.714 240.918 277.291 226.699 280.447C223.935 281.236 220.38 281.63 218.406 279.264C217.221 277.686 217.221 275.319 218.011 273.741C219.195 270.586 221.96 268.219 225.12 266.247C233.809 259.936 243.287 254.809 253.161 250.47C251.186 250.075 248.817 251.259 246.842 252.047C238.548 255.597 229.859 258.358 220.775 260.725C218.406 261.119 215.641 261.514 214.061 259.542C212.876 257.964 213.666 255.597 214.851 253.625C218.406 247.709 224.33 243.764 229.859 240.214C232.624 238.242 235.783 235.087 239.338 234.692C232.229 236.665 225.515 238.637 218.406 240.609C214.061 241.792 209.322 242.975 205.372 241.398C204.977 241.003 204.188 241.003 204.188 240.609C203.793 239.82 203.793 238.637 204.188 237.848C207.742 227.592 217.221 220.887 226.699 216.154C242.102 209.054 259.085 205.899 276.068 207.476C278.832 207.871 282.387 212.998 282.782 215.759C284.362 224.043 279.227 225.62 274.883 228.776C281.202 227.198 288.311 231.142 289.496 237.453C290.681 243.764 285.152 253.231 279.227 254.414C284.757 255.992 291.076 260.725 291.866 266.247C292.261 272.164 285.547 278.869 280.017 281.63C286.731 288.336 287.126 296.224 281.597 304.113C281.202 304.507 218.801 306.085 218.406 303.719Z" fill="#FF8C7F"/>
<path d="M521.33 271.766C520.145 268.216 521.33 245.733 521.33 242.183C521.33 239.422 515.801 226.406 520.145 203.134C523.305 185.384 519.75 183.807 518.96 165.663C514.616 164.085 509.876 166.057 507.507 170.396C505.137 174.735 502.767 179.074 501.977 183.807C500.003 198.401 498.423 198.795 495.658 207.078C495.263 208.262 490.129 203.134 489.339 204.317C488.154 206.29 485.785 207.078 483.415 208.262C471.566 214.178 462.483 224.828 458.928 237.844C458.138 240.605 457.743 243.761 456.558 246.522C454.584 252.044 449.449 248.889 446.29 253.622C443.13 258.355 441.551 260.327 443.525 265.455C446.685 272.949 460.508 283.204 466.827 288.332C472.356 292.671 472.751 303.715 479.86 305.687C482.625 306.476 485.785 306.476 488.549 306.082C493.683 305.687 499.213 305.293 504.347 304.898C508.691 304.504 512.641 304.11 516.59 303.321C521.725 302.137 527.254 299.376 532.388 301.743C531.993 300.165 526.464 286.36 521.33 271.766Z" fill="#FF8C7F"/>
<path d="M490.524 276.102C490.919 275.708 490.919 274.919 490.919 274.13C490.524 270.58 488.154 267.819 485.389 265.452C477.096 257.564 466.827 250.069 455.768 246.125C466.827 248.492 477.885 252.436 488.154 257.169C490.129 257.958 492.498 259.141 494.473 257.958C495.658 257.169 496.053 255.197 495.658 253.619C495.263 250.858 493.683 248.886 491.709 246.914C486.179 240.603 480.255 235.081 473.541 230.348C475.121 230.348 476.701 231.531 477.885 232.32C483.415 236.264 489.734 239.814 496.053 242.97C497.633 243.758 500.002 244.547 501.187 243.364C502.372 242.181 501.977 240.209 501.582 239.025C499.608 234.292 496.053 229.953 492.498 226.403C490.524 224.431 488.944 221.67 486.574 220.487C491.314 223.248 496.448 226.009 501.187 228.375C504.347 229.953 507.506 231.531 510.666 231.137C511.061 231.137 511.456 231.137 511.851 230.742C512.246 230.348 512.246 229.559 512.246 228.77C511.456 220.487 505.532 213.781 498.818 208.654C488.549 200.765 476.306 195.637 463.272 194.06C461.298 193.665 457.743 197.215 456.953 199.187C454.584 205.104 458.138 207.076 460.508 210.231C456.163 208.259 450.239 209.837 447.87 214.176C445.895 218.515 448.264 226.798 452.609 228.77C448.264 229.164 442.735 231.531 441.155 235.475C439.971 239.814 443.92 246.125 447.475 248.886C441.155 252.83 439.576 258.747 442.34 265.452C443.525 266.241 489.734 278.074 490.524 276.102Z" fill="#FF8C7F"/>
<path d="M137.836 346.315C138.231 345.527 138.626 344.738 139.416 344.343C140.206 343.949 140.996 344.343 141.391 344.343C168.642 348.682 195.104 357.754 222.75 359.332C223.54 359.332 224.33 359.332 224.725 359.726C226.304 360.91 225.909 363.276 225.119 365.248C213.666 391.281 204.582 413.764 192.734 439.797C192.339 440.585 191.944 441.374 191.549 441.769C190.759 442.163 189.969 442.163 189.179 442.163C177.726 442.558 165.877 441.769 148.5 441.374C135.072 440.98 83.7285 441.769 80.9639 438.613C76.6194 433.486 85.3083 421.258 88.0729 417.314C96.3668 405.875 104.266 397.592 112.165 386.153C121.248 373.137 129.937 359.726 137.836 346.315Z" fill="#1B2C3E"/>
<path d="M443.13 290.697C440.761 283.597 436.811 277.286 434.047 270.186C428.912 255.987 423.383 254.803 432.072 230.348C438.391 212.599 433.652 212.599 440.761 195.243C441.945 192.482 442.735 188.933 440.761 186.96C439.971 186.171 438.786 185.777 437.996 185.383C424.963 181.044 412.719 193.271 409.165 206.682C408.375 209.443 407.98 212.599 406.4 215.36C405.215 216.937 394.947 231.532 393.367 234.687C389.418 241.787 355.057 234.687 342.419 242.181C337.285 245.337 333.73 250.07 330.965 255.198C324.251 267.82 321.092 282.019 320.302 296.219C319.907 301.741 319.907 307.658 321.882 312.785C323.856 318.702 327.806 323.829 332.15 328.563C339.654 336.846 349.133 343.157 357.822 350.257C365.326 355.779 372.83 362.878 382.703 362.878C393.367 363.273 398.896 356.568 404.82 349.073C414.694 337.24 431.282 335.268 439.576 321.463C444.71 312.785 446.29 301.347 443.13 290.697Z" fill="#FF8C7F"/>
<path d="M337.68 341.974C352.293 345.129 367.3 344.341 381.519 339.607C383.098 339.213 384.678 338.03 384.678 336.452C384.678 335.663 383.888 334.874 383.098 334.085C373.225 326.591 360.586 323.83 348.343 321.069C345.183 320.28 341.629 319.097 338.469 318.308C351.108 319.491 363.746 320.674 376.384 319.491C377.964 319.491 379.149 319.097 380.334 318.308C382.703 316.73 382.703 313.18 381.124 310.814C379.544 308.447 377.174 306.869 374.804 305.686C363.746 299.769 351.898 295.431 339.654 291.881C337.285 291.092 337.285 289.908 335.31 287.936C334.915 287.936 334.52 288.331 334.52 288.331C355.057 291.092 376.384 293.853 395.342 286.753C396.922 286.359 398.501 285.175 398.501 283.597C398.501 282.414 397.711 281.231 396.922 280.442C390.997 274.92 382.703 272.948 375.199 270.976C363.351 268.214 353.477 265.453 341.629 263.087C350.713 262.692 360.191 262.298 369.275 261.904C379.939 261.509 391.392 260.72 400.476 254.409C400.871 254.015 401.266 253.62 401.661 253.226C401.661 252.831 401.661 252.043 401.266 251.648C397.711 246.126 391.392 243.365 385.073 241.787C378.359 240.21 373.62 236.265 366.906 235.871C356.637 235.476 349.923 235.871 337.68 237.449C333.73 237.449 326.226 242.576 325.041 246.126C323.856 249.676 324.251 253.62 325.041 257.17C325.831 259.537 326.621 261.904 325.831 263.876C324.646 268.214 318.722 268.609 315.957 272.553C312.403 277.286 316.352 283.597 319.512 288.331C319.907 289.12 320.697 289.908 320.697 290.697C320.697 291.881 319.907 292.669 319.117 293.853C313.193 301.347 316.747 313.969 325.436 317.519C319.907 322.252 319.117 331.324 323.856 336.846C327.411 342.763 338.074 341.185 337.68 341.974Z" fill="#FF8C7F"/>
<path d="M440.365 330.538C445.895 350.259 450.239 370.376 453.004 390.492C428.912 397.986 404.03 403.114 379.149 405.875C378.754 386.942 372.435 368.009 360.981 352.626C383.493 349.865 405.215 338.821 421.013 322.649C423.383 320.282 433.256 306.872 436.416 308.844C437.206 309.633 437.206 317.916 437.601 319.493C438.391 323.438 439.181 326.988 440.365 330.538Z" fill="#FF8C7F"/>
<path d="M377.964 419.283C402.056 417.31 426.148 414.944 450.239 412.972C452.214 412.972 454.979 412.577 456.164 414.549C456.953 415.338 456.953 416.522 457.348 417.705C459.323 429.538 460.113 435.06 462.088 447.288C461.693 446.104 386.653 447.288 380.729 446.104C377.569 445.315 378.359 437.821 378.359 434.666C377.569 429.144 377.569 424.016 377.964 419.283Z" fill="#1B2C3E"/>
<path d="M452.214 388.517C452.609 388.517 453.399 388.123 453.794 388.517C454.584 388.912 454.979 390.095 454.979 390.884C456.164 400.35 457.348 409.817 458.533 418.889C430.887 421.255 402.846 424.016 375.594 428.75C374.805 428.75 374.015 429.144 373.62 428.355C373.225 427.961 372.83 427.172 372.83 426.383C372.04 420.072 371.25 403.506 371.25 400.35C371.25 399.956 437.996 392.461 452.214 388.517Z" fill="#C7E7EF"/>
<path d="M476.701 327.775C476.701 326.986 476.701 326.197 477.491 325.803C477.886 325.408 478.675 325.014 479.07 325.014C497.633 321.069 516.59 318.703 535.548 317.52C539.497 358.541 543.842 400.745 548.976 441.767C528.439 444.133 488.154 448.867 483.415 445.317C479.465 442.556 475.121 351.441 476.701 327.775Z" fill="#1B2C3E"/>
<path d="M118.879 281.231C118.484 282.414 118.879 283.597 119.669 284.386C121.643 276.892 124.408 268.609 131.517 265.059C133.887 263.876 136.651 263.481 139.416 262.692C144.155 261.115 149.29 259.142 152.844 255.198C155.609 252.437 161.138 248.098 156.399 242.971C155.609 242.182 151.264 240.998 150.08 240.998C145.34 240.209 141.391 242.182 136.651 242.182C143.366 234.687 156.004 240.604 161.928 234.293C166.667 229.165 159.953 224.038 158.768 223.643C149.29 221.277 141.786 222.854 132.307 223.643C142.576 220.488 158.374 221.277 161.928 211.021C163.903 205.499 154.029 202.738 148.105 201.949C142.576 201.16 139.021 199.977 133.492 201.16C139.021 198.005 142.181 197.61 147.71 194.455C152.054 191.694 157.584 191.694 155.609 182.622C154.029 175.917 132.307 178.678 116.114 179.466C120.459 169.211 121.249 160.139 122.433 149.095C123.618 138.051 120.854 125.823 112.56 117.935C110.585 115.962 107.03 114.385 104.661 115.962C103.081 117.146 102.686 119.907 102.686 121.879C102.291 141.601 97.1568 161.322 87.6781 179.072C85.3084 183.805 82.5437 188.144 80.569 193.272C78.5943 198.399 77.8044 204.316 77.0145 209.838C75.4347 221.671 74.2499 233.504 73.8549 245.337C73.8549 247.704 74.2499 248.887 75.4347 250.859C76.6195 252.831 78.1993 254.015 80.1741 255.592C90.8376 263.876 102.291 272.159 113.745 279.653C115.324 281.231 115.719 280.836 118.879 281.231Z" fill="#FF8C7F"/>
<path d="M39.0994 366.43C46.6034 347.497 60.0316 309.632 62.0063 302.532C63.5861 296.221 65.1659 289.91 65.5609 283.204C65.9558 276.893 65.5609 269.794 69.1154 264.271C84.1234 274.921 99.9212 285.177 116.114 293.854C114.929 305.687 114.139 318.309 112.165 330.142C105.056 369.191 80.1739 419.285 69.5103 434.273C65.1659 440.584 5.92388 439.006 8.68851 429.54C14.6127 411.396 31.9904 384.18 39.0994 366.43Z" fill="#1B2C3E"/>
<path d="M103.476 263.091C106.636 264.669 116.509 271.375 123.223 276.108C126.778 278.869 127.568 283.602 125.593 287.152L118.484 300.957C118.089 301.352 117.694 302.141 117.299 302.141C116.509 302.535 116.114 302.141 115.324 301.746C100.711 294.646 85.7034 287.547 71.0904 280.052C66.351 277.686 62.0066 275.713 57.2672 274.136C54.8976 273.347 53.7127 270.98 54.5026 268.614C56.4773 263.486 58.847 255.992 59.6369 254.808C61.6117 251.258 64.3763 248.497 68.7207 248.497C79.3843 248.103 93.9973 258.358 103.476 263.091Z" fill="#C7E7EF"/>
<path d="M278.437 280.836C269.748 282.808 266.589 284.386 258.295 287.541C251.186 289.908 241.707 294.247 235.388 289.514C228.674 284.386 231.834 274.525 238.153 269.792C239.732 268.609 236.573 268.609 235.388 269.397C229.069 274.131 223.54 290.697 233.808 293.852C239.732 295.825 248.816 292.669 254.346 290.697C264.219 287.541 267.774 284.386 277.647 282.414C280.017 281.625 278.437 280.836 278.437 280.836Z" fill="white"/>
<path d="M221.17 240.213C224.724 238.24 228.674 236.663 232.228 239.818C234.598 241.79 235.388 244.157 236.573 246.918C236.968 247.707 239.337 246.524 239.732 246.524C240.127 246.524 240.127 246.129 240.522 246.129C241.312 245.735 238.153 245.735 237.758 246.524C237.363 246.524 237.363 246.918 236.968 246.918C238.153 246.918 238.942 246.524 240.127 246.524C238.942 242.185 236.178 237.846 231.438 237.057C227.489 236.268 223.54 238.635 219.985 240.213C217.22 240.607 220.38 240.607 221.17 240.213Z" fill="white"/>
<path d="M223.54 259.935C227.489 258.357 233.808 257.568 237.758 259.54C238.943 259.935 240.127 260.724 240.917 261.907C241.707 263.09 242.102 264.668 242.892 265.851C244.077 267.035 245.262 267.429 246.842 265.851C248.026 264.274 244.867 264.274 244.077 265.062L243.682 265.457C244.472 265.063 245.262 265.062 246.052 264.668C246.447 264.668 243.287 259.935 242.892 259.54C241.312 257.963 238.943 257.174 236.573 256.779C231.834 255.99 226.304 256.385 221.96 258.357C219.985 259.146 221.96 260.329 223.54 259.935Z" fill="white"/>
<path d="M231.439 285.969C233.413 282.025 240.917 282.025 244.472 283.603C247.237 284.786 248.421 287.153 249.211 289.914C249.211 290.702 252.766 289.519 252.371 289.125C250.791 283.208 245.657 281.236 239.733 281.63C235.388 282.025 230.254 282.419 227.884 286.758C228.279 286.758 231.044 286.758 231.439 285.969Z" fill="white"/>
<path d="M237.758 305.294C243.682 300.561 250.791 305.294 252.371 311.605C252.371 312.394 255.925 311.605 255.53 310.816C253.161 300.955 241.707 299.772 234.993 305.689C234.203 306.083 236.968 305.689 237.758 305.294Z" fill="white"/>
<path d="M265.009 210.625C269.748 212.992 272.513 219.303 273.303 224.43C273.303 225.614 276.857 224.825 276.463 223.641C275.673 218.119 272.908 211.808 267.774 209.442C266.589 208.653 263.824 209.836 265.009 210.625Z" fill="white"/>
<path d="M276.462 235.874C279.622 240.213 283.177 244.946 282.387 250.468C281.992 252.046 285.546 251.257 285.546 250.074C286.336 243.763 283.177 239.03 279.622 234.296C278.437 233.508 275.278 234.691 276.462 235.874Z" fill="white"/>
<path d="M279.622 266.64C282.387 269.401 283.572 273.345 282.387 276.895C281.992 278.473 285.152 278.078 285.547 276.501C286.731 272.162 285.152 267.823 281.992 264.668C281.202 263.484 278.438 265.456 279.622 266.64Z" fill="white"/>
<path d="M251.976 254.413C253.556 257.174 253.95 260.329 253.95 263.485C253.95 263.879 257.11 263.485 257.11 262.696C257.505 259.54 256.715 256.385 255.135 253.624C254.74 252.44 251.581 253.624 251.976 254.413Z" fill="white"/>
<path d="M247.631 235.478C247.631 237.45 249.606 240.606 248.026 242.184C247.631 242.578 248.421 242.578 248.816 242.578C249.606 242.578 250.396 242.184 251.186 241.789C253.556 239.423 251.186 237.056 251.186 234.295C250.791 234.295 247.631 234.689 247.631 235.478Z" fill="white"/>
<path d="M260.665 278.868C261.06 281.234 261.85 283.601 262.64 285.573C263.035 286.362 266.194 285.573 265.799 284.784C265.009 282.417 264.219 280.445 263.824 278.079C263.824 277.29 260.665 278.079 260.665 278.868Z" fill="white"/>
<path d="M385.863 86.776C384.283 93.087 378.754 100.187 383.493 106.498C387.838 112.414 395.342 112.809 402.056 111.625C403.636 111.231 404.82 109.259 402.451 109.653C395.737 110.837 387.048 109.653 385.073 101.765C383.888 96.6369 387.838 91.1148 389.418 86.3816C389.418 84.8038 386.258 85.5927 385.863 86.776Z" fill="white"/>
<path d="M215.246 153.436C214.851 154.225 217.221 156.592 218.011 158.169C218.8 160.536 218.8 162.903 218.405 165.664C217.616 168.819 216.826 170.397 214.061 171.975C211.691 173.158 210.901 173.158 208.532 172.763C207.347 172.763 206.162 172.763 204.977 172.763C204.187 172.763 201.423 174.341 203.397 173.947C207.742 173.552 212.086 174.736 216.431 172.763C219.985 170.791 221.17 166.452 221.565 162.903C221.96 159.353 221.17 153.042 216.826 151.858C215.246 151.464 212.876 152.253 212.086 153.831C211.691 154.619 214.851 154.225 215.246 153.436Z" fill="white"/>
<path d="M511.851 159.352C507.507 167.241 503.557 177.102 512.246 183.413C518.17 187.752 526.464 187.752 532.783 184.991C534.758 184.202 532.783 183.413 531.598 184.202C524.489 187.357 514.221 185.385 510.666 177.496C508.297 171.185 511.851 164.874 514.616 159.352C515.406 158.169 512.246 158.563 511.851 159.352Z" fill="white"/>
<path d="M163.113 334.483C148.895 353.416 135.072 372.348 120.854 390.887C114.534 399.17 108.215 407.453 102.291 416.131C98.7366 420.864 84.5185 446.897 78.5943 448.08C80.569 447.686 80.1741 446.502 78.1993 446.897C77.8044 446.897 77.8044 446.897 77.4094 446.897C77.0145 446.897 75.8297 447.291 75.8297 447.686C75.8297 448.08 75.8296 448.474 76.2246 448.869C76.2246 449.658 78.5943 448.869 78.5943 448.869C84.1235 445.713 87.2831 439.797 90.8376 434.669C99.5265 423.231 108.215 411.792 116.509 399.959C133.097 377.871 149.29 356.177 165.878 334.088C167.062 333.299 163.903 333.694 163.113 334.483Z" fill="white"/>
<path d="M188.784 345.134C178.121 364.067 167.062 382.211 155.609 400.355C150.475 408.243 144.945 416.132 139.416 424.021C135.467 429.937 131.122 435.459 127.173 441.376C125.988 442.954 114.929 459.914 113.745 459.914C115.324 459.52 116.114 457.548 114.14 457.548C113.745 457.548 113.745 457.548 113.35 457.548C112.56 457.548 111.375 457.942 111.375 459.125C111.375 459.52 111.375 459.914 111.375 460.309C111.375 461.098 113.35 461.098 113.745 460.703C127.173 453.603 140.206 427.176 148.5 414.949C163.903 392.071 178.121 368.8 191.549 344.739C192.734 343.95 189.574 343.95 188.784 345.134Z" fill="white"/>
<path d="M219.59 348.287C197.868 392.859 176.541 437.035 154.819 481.606C154.424 482.395 157.584 482.001 157.979 481.212C179.701 436.641 201.028 392.464 222.75 347.893C223.145 347.104 219.985 347.498 219.59 348.287Z" fill="white"/>
<path d="M174.961 341.585C150.869 386.55 120.458 426.388 88.0729 465.437C87.283 466.621 90.4425 466.226 91.2324 465.437C123.618 426.388 153.634 386.156 178.121 341.585C178.911 340.401 175.751 340.796 174.961 341.585Z" fill="white"/>
<path d="M203.398 345.133C182.07 383.787 159.953 421.653 136.257 458.73C135.467 460.308 138.626 460.308 139.416 459.124C163.113 422.047 185.23 384.182 206.557 345.527C207.742 343.949 204.187 343.949 203.398 345.133Z" fill="white"/>
<path d="M434.836 181.443C428.122 187.359 421.408 198.798 429.307 206.686C433.651 211.025 440.76 210.236 445.5 206.686C445.895 206.292 443.13 206.686 442.735 207.081C435.231 212.997 429.307 202.348 429.307 196.826C429.307 190.515 433.256 185.387 437.996 181.048C438.391 180.654 435.231 181.048 434.836 181.443Z" fill="white"/>
<path d="M487.364 315.944C482.23 367.615 492.894 418.891 495.658 470.168C495.658 470.957 498.818 470.168 498.818 469.379C496.053 417.708 485.39 366.826 490.524 315.155C490.919 314.76 487.364 315.155 487.364 315.944Z" fill="white"/>
<path d="M504.347 314.76C500.397 340.004 503.952 364.853 506.716 390.097C509.876 418.497 507.901 446.896 514.22 474.901C514.615 476.479 517.775 475.69 517.38 474.112C511.456 448.474 513.036 422.441 510.666 396.408C507.901 368.798 503.162 341.976 507.506 314.366C508.296 312.788 504.742 313.182 504.347 314.76Z" fill="white"/>
<path d="M518.96 310.818C514.616 321.862 517.38 332.906 518.96 344.345C520.935 358.15 522.515 371.561 524.489 385.366C527.649 409.427 526.859 439.798 536.733 461.887C537.128 463.07 540.287 461.887 539.892 461.098C530.808 440.982 531.598 413.766 528.439 392.072C526.859 379.844 524.884 367.222 523.304 354.995C521.33 341.189 516.59 323.834 521.725 310.818C522.515 309.24 519.355 309.635 518.96 310.818Z" fill="white"/>
<path d="M460.903 343.949C492.498 341.582 524.094 337.638 555.295 332.116C557.27 331.721 556.875 329.749 554.9 330.144C524.094 335.666 492.893 339.61 461.693 341.977C459.323 341.977 458.533 344.343 460.903 343.949Z" fill="white"/>
<path d="M462.087 364.459C482.23 360.909 502.372 358.937 522.909 358.148C535.153 357.753 545.816 357.359 556.875 352.231C558.849 351.442 557.27 349.47 555.295 350.259C539.102 357.753 520.145 355.387 502.372 356.964C488.549 358.148 474.726 360.12 461.298 362.092C459.323 362.486 459.718 364.853 462.087 364.459Z" fill="white"/>
<path d="M462.087 379.844C463.667 387.338 548.581 376.294 558.454 375.111C559.244 375.111 562.009 373.533 559.639 373.533C551.345 374.322 466.432 384.577 465.247 378.661C465.247 378.266 462.087 379.055 462.087 379.844Z" fill="white"/>
<path d="M469.196 401.537C498.817 400.354 528.439 397.987 558.06 394.043C559.639 393.648 560.824 392.071 558.454 392.465C529.228 396.015 500.002 398.776 470.381 399.565C469.196 399.959 467.222 401.537 469.196 401.537Z" fill="white"/>
<path d="M468.407 421.652C498.818 419.285 529.229 416.524 559.64 413.763C560.429 413.763 563.194 412.186 560.824 412.186C530.414 414.947 500.003 417.708 469.592 420.074C468.802 420.469 466.037 422.046 468.407 421.652Z" fill="white"/>
<path d="M467.617 438.218C500.793 439.401 533.573 437.034 566.354 431.118C567.933 430.723 569.118 428.751 566.749 429.146C534.363 435.062 501.582 437.429 468.802 436.245C467.617 436.64 465.642 438.218 467.617 438.218Z" fill="white"/>
<path d="M100.711 115.173C101.501 114.778 104.661 119.511 105.056 120.3C106.241 122.272 107.03 125.033 107.03 127.4C106.241 133.711 100.316 134.5 94.7871 134.894C93.2073 134.894 92.0224 136.867 94.3921 136.867C101.106 136.472 109.795 134.894 110.19 126.611C110.585 121.878 105.451 111.228 99.5264 113.989C97.5517 114.384 99.5264 115.567 100.711 115.173Z" fill="white"/>
<path d="M250.001 215.359C239.733 220.093 222.75 226.798 218.406 239.026C215.641 247.309 221.565 250.07 229.069 249.281C243.682 248.098 259.875 238.237 272.513 231.137C283.177 224.826 293.051 219.304 293.84 205.893C293.84 205.499 290.681 205.893 290.681 206.682C289.891 217.332 283.177 222.854 274.883 227.981C264.614 234.292 250.791 243.364 238.548 245.337C233.019 246.125 220.38 248.098 221.17 239.814C221.17 237.842 223.54 235.476 224.725 233.898C231.439 224.826 242.102 220.093 251.976 215.754C253.951 214.965 250.791 214.965 250.001 215.359Z" fill="white"/>
<path d="M287.521 248.493C276.463 254.804 265.009 258.748 253.161 262.693C248.816 263.876 244.077 266.243 239.733 266.637C224.33 269.004 218.405 258.354 231.044 248.099C232.623 246.915 229.069 246.915 228.279 247.704C218.405 255.593 216.826 272.554 233.018 270.187C251.581 267.426 273.303 258.748 289.496 249.676C291.471 248.493 288.706 248.099 287.521 248.493Z" fill="white"/>
<path d="M286.336 294.252C279.227 298.196 272.513 303.324 265.009 306.874C255.531 311.213 235.388 320.285 237.363 304.113C238.153 299.38 242.102 295.435 245.657 293.069C246.842 292.28 243.682 292.674 243.287 293.069C233.414 299.774 229.069 314.763 244.867 313.974C261.455 313.185 275.278 302.141 289.101 294.646C290.286 293.463 286.731 293.858 286.336 294.252Z" fill="white"/>
<path d="M268.564 204.712C272.908 208.262 276.068 212.995 277.253 218.517C277.648 219.306 280.807 218.517 280.412 217.728C279.227 212.206 276.068 207.079 271.328 203.529C270.933 203.134 268.169 204.317 268.564 204.712Z" fill="white"/>
<path d="M219.985 370.771C192.339 361.699 164.298 353.811 136.257 347.105C131.912 346.316 129.937 341.189 132.307 337.639L148.105 312.789C148.895 311.211 150.475 309.634 152.054 309.634C152.054 310.028 151.265 310.028 151.659 309.634C152.054 309.239 152.449 309.239 153.239 309.634C180.886 319.889 208.532 330.933 236.573 340.005C239.733 341.189 240.917 345.133 238.548 347.5C233.413 353.022 229.464 360.121 227.094 367.616C225.909 369.982 222.75 371.56 219.985 370.771Z" fill="#C7E7EF"/>
<path d="M541.867 299.377C541.867 306.476 543.447 315.548 544.237 322.648C533.178 323.043 522.12 323.437 510.666 325.015C497.238 326.593 483.81 328.17 470.777 329.748C470.382 329.748 470.382 329.748 469.987 329.748C469.592 329.748 469.592 329.354 469.592 328.959C468.407 321.859 467.222 314.365 466.432 307.265C466.432 306.871 466.432 306.082 466.827 305.688C467.222 305.293 467.617 305.293 468.407 305.293C492.499 301.743 515.801 297.799 540.287 297.799C540.682 297.799 541.472 297.799 541.867 298.193C541.867 298.193 541.867 298.982 541.867 299.377Z" fill="#C7E7EF"/>
</g>
<defs>
<clipPath id="clip0">
<rect width="594" height="482" fill="white"/>
</clipPath>
</defs>
</svg>
