<svg width="49" height="51" viewBox="0 0 49 51" fill="none" xmlns="http://www.w3.org/2000/svg">
<path d="M43.6376 0.916748H17.9681C15.1368 0.916748 12.8342 3.12187 12.8342 5.83342V19.5657L0.751569 31.137C0.392685 31.4808 0.148295 31.9188 0.0492944 32.3956C-0.0497066 32.8724 0.00112676 33.3666 0.195368 33.8158C0.389609 34.2649 0.718536 34.6488 1.14057 34.9189C1.5626 35.1891 2.05879 35.3333 2.5664 35.3334V47.6251C2.5664 48.2771 2.83685 48.9024 3.31824 49.3634C3.79964 49.8244 4.45255 50.0834 5.13335 50.0834H46.2045C46.8853 50.0834 47.5382 49.8244 48.0196 49.3634C48.501 48.9024 48.7715 48.2771 48.7715 47.6251V5.83342C48.7715 3.12187 46.4689 0.916748 43.6376 0.916748ZM23.102 45.1668H7.7003V31.4345L15.4011 24.0595L23.102 31.4345V45.1668ZM43.6376 45.1668H28.2359V35.3334C28.7441 35.3345 29.2411 35.191 29.6639 34.921C30.0868 34.6511 30.4163 34.2669 30.6108 33.8173C30.8052 33.3677 30.8558 32.8729 30.7561 32.3957C30.6564 31.9185 30.4109 31.4804 30.0507 31.137L17.9681 19.5657V5.83342H43.6376V45.1668Z" fill="black"/>
<path d="M23.1023 10.75H28.2362V15.6667H23.1023V10.75ZM33.3701 10.75H38.504V15.6667H33.3701V10.75ZM33.3701 20.6595H38.504V25.5H33.3701V20.6595ZM33.3701 30.4167H38.504V35.3333H33.3701V30.4167ZM12.8345 32.875H17.9684V37.7917H12.8345V32.875Z" fill="black"/>
</svg>
