<svg width="127" height="60" viewBox="0 0 127 60" fill="none" xmlns="http://www.w3.org/2000/svg">
<path d="M38.9285 54.688V53.925C40.2051 53.7343 40.3078 53.4701 39.9703 52.4577C39.7502 51.812 39.4274 50.9023 39.1046 50.0219H34.952C34.7025 50.6822 34.4237 51.4892 34.1596 52.3256C33.8955 53.162 33.9101 53.6756 35.4802 53.7929V54.556H30.6379V53.7929C32.1053 53.6169 32.3254 53.3821 33.0444 51.5626L37.4465 40.44L38.547 40.1613C39.9263 43.947 41.2762 47.7181 42.6849 51.4305C43.4186 53.3381 43.6974 53.6169 45.062 53.7929V54.556L38.9285 54.688ZM37.0943 44.2552H37.0209C36.4193 45.8252 35.8764 47.3953 35.3188 48.9213H38.6937L37.0943 44.2552Z" fill="#141525"/>
<path d="M57.388 51.0197C57.2266 51.9295 56.7717 54.1012 56.5957 54.6881H46.0454V53.9251C47.9383 53.7784 48.1437 53.6316 48.1437 51.8121V43.5216C48.1437 41.658 47.9383 41.526 46.2949 41.3792V40.6162H52.9126V41.3792C51.2398 41.526 51.0491 41.658 51.0491 43.5216V51.9588C51.0491 52.9713 51.1371 53.4262 51.592 53.5583C52.1203 53.7131 52.671 53.7776 53.2208 53.749C53.619 53.7949 54.0224 53.753 54.4026 53.6262C54.7829 53.4995 55.1308 53.291 55.4218 53.0153C55.9607 52.3526 56.3735 51.5966 56.6397 50.785L57.388 51.0197Z" fill="#141525"/>
<path d="M66.1333 47.1313C68.6571 47.4395 70.3152 48.4519 70.3152 50.5062C70.3156 51.1841 70.1243 51.8482 69.7634 52.422C69.4025 52.9957 68.8867 53.4558 68.2756 53.7491C66.8549 54.4328 65.2874 54.7554 63.7122 54.6882H58.2096V53.9252C59.8824 53.7784 60.0731 53.6317 60.0731 51.7828V43.5216C60.0731 41.6728 59.8824 41.526 58.3417 41.3793V40.6163H64.6659C65.9085 40.513 67.1538 40.7784 68.2463 41.3793C68.6528 41.6461 68.9838 42.013 69.2074 42.4447C69.4309 42.8765 69.5396 43.3585 69.5229 43.8445C69.5229 45.8987 67.7034 46.7792 66.1333 47.0433V47.1313ZM63.4334 46.8232C65.517 46.8232 66.4414 46.0015 66.4414 44.2113C66.4414 42.4211 65.2676 41.526 64.1083 41.526C63.7602 41.5001 63.4135 41.5933 63.1252 41.7902C62.9616 42.0689 62.8945 42.3939 62.9345 42.7146V46.8232H63.4334ZM62.9345 51.7388C62.9345 53.3382 63.3747 53.7931 64.5192 53.7784C64.8928 53.7631 65.2592 53.6704 65.5951 53.506C65.9309 53.3417 66.229 53.1094 66.4705 52.8239C66.7119 52.5383 66.8913 52.2057 66.9975 51.8472C67.1036 51.4886 67.1341 51.112 67.0871 50.741C67.0871 48.7307 65.8398 47.6889 63.3747 47.6889H62.9345V51.7388Z" fill="#141525"/>
<path d="M86.5737 41.3792C85.3851 41.3792 84.8422 41.8928 84.7395 42.6558C84.5855 43.6507 84.5216 44.6575 84.5487 45.6639V48.0117C84.7465 49.9517 84.1836 51.8929 82.9786 53.4262C82.4514 53.9455 81.825 54.3534 81.1368 54.6257C80.4486 54.8979 79.7126 55.029 78.9728 55.0109C77.6055 55.0755 76.2563 54.6774 75.143 53.8811C73.8664 52.9273 73.3675 51.3572 73.3675 48.804V43.7123C73.3675 41.6727 73.1474 41.526 71.548 41.3792V40.6162H78.063V41.3792C76.4783 41.526 76.2582 41.6727 76.2582 43.7123V48.4225C76.2582 51.6654 77.4321 53.5583 79.7651 53.5583C82.3477 53.5583 83.4775 51.6067 83.4775 47.9823V45.6639C83.4922 44.6567 83.4185 43.6502 83.2574 42.6558C83.1547 41.8928 82.6265 41.4526 81.1591 41.3792V40.6162H86.5737V41.3792Z" fill="#141525"/>
<path d="M100.792 54.8788H100.147C97.4174 54.7467 96.581 54.1304 95.7446 52.7805C95.1723 51.8854 94.6001 50.7115 93.9691 49.5963C93.8594 49.3008 93.6575 49.0485 93.3932 48.8767C93.1289 48.705 92.8164 48.6228 92.5018 48.6426H92.0909V51.7974C92.0909 53.5729 92.311 53.793 93.9398 53.9397V54.7027H87.3954V53.9397C89.0241 53.793 89.2589 53.5729 89.2589 51.7974V43.4775C89.2589 41.746 89.0682 41.5259 87.4834 41.3792V40.6161H93.5729C94.9088 40.4818 96.2532 40.7691 97.4174 41.4379C97.8966 41.7567 98.284 42.1952 98.5414 42.71C98.7988 43.2248 98.9172 43.7979 98.8847 44.3726C98.8646 45.1734 98.591 45.9472 98.1032 46.5827C97.6154 47.2181 96.9386 47.6825 96.1701 47.9089C96.4783 48.5252 97.3 49.9778 97.931 50.9756C98.424 51.794 98.9783 52.574 99.5891 53.3087C99.9432 53.728 100.397 54.051 100.91 54.2478L100.792 54.8788ZM92.6632 47.7768C93.4161 47.8526 94.1701 47.6431 94.7762 47.1899C95.1364 46.8715 95.418 46.4739 95.5988 46.0284C95.7796 45.5828 95.8546 45.1014 95.818 44.622C95.818 42.3183 94.4827 41.4819 93.2648 41.4819C92.7219 41.4819 92.4137 41.5699 92.2963 41.702C92.179 41.834 92.0909 42.0395 92.0909 42.4943V47.7768H92.6632Z" fill="#141525"/>
<path d="M109.743 44.1376C109.288 42.773 108.481 41.2029 106.706 41.2029C106.425 41.1987 106.147 41.2517 105.887 41.3584C105.628 41.4652 105.393 41.6235 105.197 41.8239C105.001 42.0243 104.847 42.2625 104.746 42.524C104.644 42.7855 104.597 43.0649 104.607 43.3452C104.607 44.5338 105.385 45.2381 107.292 46.1919C109.567 47.2924 111.122 48.4956 111.122 50.5939C111.122 53.0738 109.024 54.996 105.869 54.996C105.129 55.0042 104.392 54.9003 103.683 54.6879C103.232 54.5639 102.79 54.407 102.362 54.2183C102.057 53.0088 101.846 51.7774 101.731 50.5353L102.494 50.3005C102.92 51.6798 104.196 54.1009 106.28 54.1009C106.575 54.1124 106.869 54.061 107.143 53.95C107.417 53.8391 107.664 53.6713 107.868 53.4576C108.072 53.2439 108.228 52.9892 108.326 52.7106C108.424 52.4319 108.462 52.1355 108.437 51.8412C108.437 50.5646 107.483 49.7576 105.869 48.9065C103.639 47.7766 102.098 46.6174 102.098 44.5044C102.098 42.1273 103.976 40.2638 107.058 40.2638C108.087 40.2784 109.106 40.4771 110.066 40.8507C110.154 41.6431 110.301 42.5969 110.477 43.9468L109.743 44.1376Z" fill="#141525"/>
<path d="M120.513 54.688V53.925C121.79 53.7343 121.981 53.4701 121.555 52.4577C121.335 51.812 121.012 50.9023 120.69 50.0219H116.537C116.302 50.6822 116.023 51.4892 115.759 52.3256C115.495 53.162 115.495 53.6756 117.08 53.7929V54.556H112.223V53.7929C113.69 53.6169 113.91 53.3821 114.629 51.5626L119.031 40.44L120.132 40.1613C121.599 43.947 122.861 47.7181 124.27 51.4305C125.004 53.3381 125.282 53.6169 126.647 53.7929V54.556L120.513 54.688ZM118.679 44.2552C118.063 45.8252 117.52 47.3953 116.962 48.9213H120.323L118.679 44.2552Z" fill="#141525"/>
<path d="M49.8897 56.5957H50.1979L51.093 59.3543L52.0321 56.6104H52.4283L51.3571 59.9266H51.0343L50.0952 57.2267L49.1854 59.8973H48.8773L47.6887 56.5811H48.0996L49.0387 59.325L49.8897 56.5957Z" fill="#141525"/>
<path d="M56.4635 58.8994C56.3923 59.103 56.277 59.2883 56.126 59.4423C55.9765 59.6093 55.7908 59.7398 55.5831 59.8238C55.3697 59.9141 55.1398 59.9591 54.9081 59.9559C54.6816 59.962 54.4562 59.9208 54.2465 59.8349C54.0368 59.749 53.8473 59.6203 53.6902 59.457C53.5372 59.2998 53.4169 59.1138 53.3363 58.9098C53.2557 58.7057 53.2164 58.4878 53.2206 58.2684C53.219 58.0416 53.264 57.8169 53.3527 57.6081C53.4279 57.4065 53.5426 57.2219 53.6902 57.0652C53.9345 56.8196 54.2463 56.6521 54.5859 56.5842C54.9256 56.5163 55.2778 56.5509 55.5978 56.6837C55.7955 56.7713 55.9748 56.8958 56.126 57.0505C56.2736 57.2072 56.3883 57.3918 56.4635 57.5934C56.5476 57.8031 56.5876 58.0279 56.5809 58.2538C56.586 58.4747 56.546 58.6944 56.4635 58.8994ZM56.1113 57.7255C56.0439 57.5685 55.9495 57.4245 55.8325 57.3C55.7185 57.1735 55.5783 57.0734 55.4217 57.0065C55.2608 56.9313 55.0857 56.8912 54.9081 56.8891C54.7256 56.8896 54.5454 56.9296 54.3799 57.0065C54.2239 57.0678 54.0836 57.1631 53.969 57.2853C53.864 57.4212 53.7753 57.5689 53.7049 57.7255C53.5875 58.0679 53.5875 58.4396 53.7049 58.782C53.7749 58.9421 53.8689 59.0905 53.9837 59.2222C54.0989 59.3473 54.2388 59.4473 54.3945 59.5157C54.5555 59.5892 54.7313 59.6243 54.9081 59.6184C55.0895 59.6225 55.2697 59.5875 55.4363 59.5157C55.5857 59.4436 55.7201 59.344 55.8325 59.2222C55.9495 59.0977 56.0439 58.9537 56.1113 58.7967C56.1691 58.6265 56.1988 58.4481 56.1994 58.2684C56.1999 58.0839 56.1702 57.9005 56.1113 57.7255Z" fill="#141525"/>
<path d="M60.0292 59.9118L59.0607 58.6939H58.1216V59.9852H57.7548V56.6103H59.2221C59.3916 56.6025 59.561 56.6274 59.721 56.6837C59.8556 56.7201 59.9807 56.7852 60.0878 56.8744C60.1949 56.9552 60.2805 57.061 60.3373 57.1826C60.3959 57.3116 60.4259 57.4517 60.4253 57.5934C60.4487 57.7146 60.4487 57.8391 60.4253 57.9602C60.3883 58.0688 60.3223 58.1652 60.2346 58.239C60.1576 58.3269 60.0625 58.397 59.9558 58.4445C59.8438 58.4984 59.7255 58.5378 59.6036 58.5619L60.6161 59.9118H60.0292ZM59.765 57.1239C59.5855 56.9969 59.3682 56.9348 59.1487 56.9478H58.1216V58.2977H59.1341C59.246 58.314 59.3596 58.314 59.4716 58.2977C59.5718 58.2641 59.6659 58.2146 59.7504 58.151C59.8206 58.0933 59.8802 58.0238 59.9264 57.9456C59.9485 57.849 59.9485 57.7487 59.9264 57.6521C59.945 57.5576 59.9399 57.4599 59.9118 57.3678C59.8836 57.2757 59.8332 57.1919 59.765 57.1239Z" fill="#141525"/>
<path d="M64.3432 59.9119H63.8736L62.6117 58.3125L61.9074 59.0168V59.9119H61.5405V56.6104H61.9074V58.5766L63.8002 56.6104H64.2845L62.8171 58.0777L64.3432 59.9119Z" fill="#141525"/>
<path d="M65.5756 57.6375C65.6099 57.7029 65.6545 57.7623 65.7077 57.8136C65.7956 57.8715 65.889 57.9207 65.9865 57.9603L66.4267 58.0777C66.7246 58.1194 67.0072 58.2354 67.2484 58.4152C67.3362 58.488 67.4057 58.5803 67.4516 58.6848C67.4974 58.7892 67.5183 58.9029 67.5125 59.0168C67.5132 59.1491 67.4831 59.2797 67.4245 59.3983C67.3714 59.5138 67.2908 59.6146 67.1897 59.6918C67.088 59.7807 66.9677 59.8459 66.8376 59.8825C66.6869 59.9062 66.5334 59.9062 66.3827 59.8825C66.1367 59.8853 65.8926 59.8404 65.6637 59.7505C65.4329 59.6542 65.2197 59.5203 65.0327 59.3543L65.2675 59.0755C65.422 59.2224 65.6007 59.3416 65.7957 59.4276C65.9845 59.5129 66.1904 59.5531 66.3974 59.545C66.5895 59.5568 66.7802 59.5052 66.9403 59.3983C67.0022 59.3497 67.0518 59.2872 67.085 59.2158C67.1181 59.1444 67.1339 59.0661 67.131 58.9874C67.1391 58.9143 67.1391 58.8405 67.131 58.7673C67.1001 58.704 67.0549 58.6488 66.999 58.6059C66.9172 58.5504 66.8283 58.506 66.7348 58.4739C66.5974 58.4204 66.4548 58.3811 66.3093 58.3565C66.1395 58.3204 65.9727 58.2714 65.8104 58.2097C65.6869 58.1581 65.5689 58.0942 65.4582 58.019C65.374 57.9478 65.3086 57.8572 65.2675 57.7549C65.2179 57.639 65.1929 57.5141 65.1941 57.388C65.1922 57.265 65.2226 57.1435 65.2822 57.0359C65.3283 56.9203 65.4043 56.8191 65.5023 56.7424C65.6043 56.6618 65.7181 56.5975 65.8398 56.5516C65.9857 56.5295 66.1341 56.5295 66.28 56.5516C66.4936 56.548 66.7065 56.5777 66.9109 56.6397C67.0991 56.7201 67.2766 56.8236 67.4392 56.9478L67.2191 57.2266C67.081 57.117 66.9278 57.028 66.7642 56.9625C66.6043 56.9044 66.4354 56.8746 66.2653 56.8744C66.1731 56.858 66.0787 56.858 65.9865 56.8744C65.9016 56.8985 65.8219 56.9383 65.7517 56.9918C65.6958 57.0347 65.6506 57.0899 65.6197 57.1532C65.6065 57.226 65.6065 57.3006 65.6197 57.3733C65.5797 57.4553 65.5644 57.547 65.5756 57.6375Z" fill="#141525"/>
<path d="M72.8097 56.9478H70.7995V58.1364H72.5896V58.4739H70.7995V59.9412H70.4326V56.6104H72.8097V56.9478Z" fill="#141525"/>
<path d="M76.9183 58.8993C76.8471 59.1029 76.7319 59.2883 76.5808 59.4422C76.4356 59.6074 76.2551 59.7378 76.0526 59.8238C75.6098 60.0002 75.1161 60.0002 74.6733 59.8238C74.4755 59.7362 74.2962 59.6117 74.145 59.4569C73.9975 59.3003 73.8827 59.1157 73.8076 58.914C73.725 58.709 73.6851 58.4893 73.6902 58.2684C73.6835 58.0425 73.7235 57.8177 73.8076 57.6081C73.8827 57.4064 73.9975 57.2218 74.145 57.0651C74.3009 56.9055 74.485 56.7761 74.688 56.6836C74.9062 56.5921 75.1411 56.5472 75.3776 56.5516C75.6093 56.5484 75.8392 56.5933 76.0526 56.6836C76.2504 56.7712 76.4297 56.8957 76.5808 57.0505C76.7281 57.2102 76.8472 57.3938 76.933 57.5934C77.01 57.8051 77.0497 58.0285 77.0504 58.2537C77.0504 58.4756 77.0055 58.6952 76.9183 58.8993ZM76.5662 57.7254C76.505 57.5651 76.4099 57.42 76.2874 57.2999C76.1762 57.1703 76.0352 57.0696 75.8765 57.0064C75.7168 56.9279 75.5409 56.8877 75.363 56.8891C75.1805 56.8895 75.0002 56.9296 74.8347 57.0064C74.6833 57.0683 74.5479 57.1637 74.4385 57.2852C74.3237 57.4169 74.2297 57.5654 74.1597 57.7254C74.0423 58.0678 74.0423 58.4396 74.1597 58.7819C74.2297 58.942 74.3237 59.0904 74.4385 59.2221C74.5575 59.343 74.6965 59.4423 74.8494 59.5156C75.016 59.5874 75.1962 59.6225 75.3776 59.6183C75.5542 59.6213 75.7293 59.5862 75.8912 59.5156C76.0458 59.4465 76.185 59.3474 76.3009 59.2239C76.4168 59.1005 76.507 58.9552 76.5662 58.7966C76.624 58.6265 76.6537 58.4481 76.6542 58.2684C76.6548 58.0838 76.625 57.9004 76.5662 57.7254Z" fill="#141525"/>
<path d="M80.4841 59.912L79.5303 58.6941H78.5766V59.9853H78.2097V56.6104H79.6771C79.8417 56.6038 80.006 56.6287 80.1613 56.6838C80.3003 56.7204 80.4302 56.7853 80.5428 56.8745C80.6201 56.9797 80.6751 57.0995 80.7042 57.2267C80.7628 57.3557 80.7929 57.4959 80.7923 57.6376C80.8156 57.7587 80.8156 57.8832 80.7923 58.0044C80.7546 58.1091 80.6945 58.2042 80.6162 58.2832C80.5308 58.3679 80.4315 58.4374 80.3227 58.4886C80.2118 58.5451 80.0931 58.5847 79.9705 58.606L80.983 59.956L80.4841 59.912ZM80.22 57.124C80.0405 56.9971 79.8232 56.935 79.6037 56.9479H78.5766V58.2979H79.6037C79.7157 58.3132 79.8292 58.3132 79.9412 58.2979C80.0354 58.261 80.1242 58.2117 80.2053 58.1511C80.2756 58.0935 80.3352 58.024 80.3814 57.9457C80.4029 57.8491 80.4029 57.7489 80.3814 57.6522C80.4027 57.5578 80.399 57.4594 80.3707 57.3667C80.3424 57.2741 80.2905 57.1904 80.22 57.124Z" fill="#141525"/>
<path d="M86.3389 59.6183C86.2499 59.6907 86.1511 59.75 86.0454 59.7944C85.9393 59.8534 85.8258 59.8978 85.7079 59.9265H85.297C85.0699 59.9312 84.8445 59.8861 84.6367 59.7944C84.4396 59.7122 84.2602 59.5926 84.1085 59.4423C83.9612 59.2825 83.8422 59.0989 83.7563 58.8993C83.6794 58.6877 83.6397 58.4643 83.6389 58.239C83.6383 58.0089 83.678 57.7804 83.7563 57.5641C83.8422 57.3645 83.9612 57.1809 84.1085 57.0211C84.2596 56.8664 84.4389 56.7419 84.6367 56.6543C84.8501 56.564 85.08 56.519 85.3117 56.5222C85.4433 56.5063 85.5763 56.5063 85.7079 56.5222C85.825 56.5388 85.9389 56.5735 86.0454 56.625L86.3389 56.7864C86.432 56.8475 86.516 56.9216 86.5883 57.0065L86.3389 57.2706C86.2006 57.1453 86.0479 57.0369 85.884 56.9478C85.7027 56.8548 85.5007 56.8093 85.297 56.8157C85.1258 56.8187 84.9566 56.8535 84.7981 56.9184C84.6453 56.9918 84.5062 57.0911 84.3873 57.2119C84.2693 57.3328 84.1791 57.478 84.1232 57.6374C84.0526 57.8096 84.0177 57.9943 84.0204 58.1803C84.0163 58.3618 84.0513 58.5419 84.1232 58.7086C84.1753 58.8741 84.2658 59.0249 84.3873 59.1488C84.5062 59.2696 84.6453 59.3689 84.7981 59.4423C84.9544 59.514 85.1251 59.5492 85.297 59.545C85.5007 59.5514 85.7027 59.5059 85.884 59.4129C86.0617 59.3258 86.225 59.212 86.3682 59.0754L86.6176 59.3102L86.3389 59.6183Z" fill="#141525"/>
<path d="M90.6382 58.8994C90.561 59.1001 90.4465 59.2843 90.3007 59.4423C90.1487 59.6064 89.9636 59.7364 89.7578 59.8238C89.5396 59.9153 89.3047 59.9603 89.0681 59.9559C88.8364 59.9591 88.6065 59.9141 88.3931 59.8238C88.1953 59.7362 88.0161 59.6117 87.8649 59.457C87.7119 59.2998 87.5916 59.1138 87.511 58.9098C87.4304 58.7057 87.3911 58.4878 87.3953 58.2684C87.3937 58.0416 87.4387 57.8169 87.5274 57.6081C87.6026 57.4065 87.7173 57.2219 87.8649 57.0652C88.1091 56.8196 88.4209 56.6521 88.7606 56.5842C89.1003 56.5163 89.4525 56.5509 89.7724 56.6837C89.9702 56.7713 90.1495 56.8958 90.3007 57.0505C90.4483 57.2072 90.563 57.3918 90.6382 57.5934C90.7223 57.8031 90.7622 58.0279 90.7556 58.2538C90.7606 58.4747 90.7207 58.6944 90.6382 58.8994ZM90.2713 57.7255C90.2154 57.5661 90.1252 57.4209 90.0072 57.3C89.8932 57.1735 89.753 57.0734 89.5964 57.0065C89.4308 56.9296 89.2506 56.8896 89.0681 56.8891C88.8905 56.8912 88.7154 56.9313 88.5545 57.0065C88.3986 57.0678 88.2583 57.1631 88.1437 57.2853C88.0335 57.4176 87.9444 57.5661 87.8796 57.7255C87.7484 58.0655 87.7484 58.4421 87.8796 58.782C87.9455 58.9442 88.0399 59.0933 88.1584 59.2222C88.2736 59.3473 88.4135 59.4473 88.5692 59.5157C88.7302 59.5892 88.906 59.6243 89.0828 59.6184C89.2642 59.6225 89.4444 59.5875 89.611 59.5157C89.7603 59.4436 89.8947 59.344 90.0072 59.2222C90.1252 59.1013 90.2154 58.9561 90.2713 58.7967C90.3407 58.6293 90.3756 58.4496 90.3741 58.2684C90.3768 58.0824 90.3418 57.8977 90.2713 57.7255Z" fill="#141525"/>
<path d="M94.3506 56.6104H94.7174V59.9119H94.4239L92.2816 57.2266V59.9412H91.9294V56.6104H92.2669L94.3506 59.2516V56.6104Z" fill="#141525"/>
<path d="M96.3462 57.6374C96.3806 57.7028 96.4251 57.7623 96.4783 57.8135C96.5662 57.8715 96.6596 57.9206 96.7571 57.9602L97.212 58.0776C97.5046 58.1222 97.7818 58.2381 98.019 58.4151C98.1068 58.488 98.1763 58.5803 98.2222 58.6847C98.268 58.7891 98.2889 58.9028 98.2831 59.0167C98.2838 59.149 98.2537 59.2796 98.1951 59.3982C98.142 59.5138 98.0614 59.6146 97.9603 59.6917C97.8608 59.7839 97.7397 59.8495 97.6082 59.8825C97.4574 59.9061 97.304 59.9061 97.1533 59.8825C96.9073 59.8852 96.6632 59.8404 96.4343 59.7504C96.2063 59.6572 95.9974 59.5229 95.818 59.3542L96.0381 59.0754C96.1925 59.2224 96.3713 59.3415 96.5663 59.4276C96.7551 59.5128 96.961 59.553 97.168 59.545C97.3603 59.559 97.5518 59.5073 97.7109 59.3982C97.7728 59.3497 97.8224 59.2871 97.8556 59.2157C97.8887 59.1443 97.9045 59.0661 97.9016 58.9874C97.9171 58.9148 97.9171 58.8398 97.9016 58.7673C97.8707 58.704 97.8255 58.6487 97.7696 58.6059C97.6914 58.5444 97.6015 58.4995 97.5054 58.4738C97.3679 58.4203 97.2254 58.381 97.0799 58.3564C96.9101 58.3204 96.7433 58.2713 96.581 58.2097C96.4606 58.1613 96.3471 58.0972 96.2435 58.0189C96.1509 57.9527 96.0795 57.8609 96.0381 57.7548C95.9885 57.6389 95.9635 57.514 95.9647 57.388C95.9628 57.2649 95.9932 57.1435 96.0528 57.0358C96.0989 56.9203 96.1749 56.819 96.2729 56.7423C96.3801 56.6616 96.4988 56.5973 96.625 56.5516C96.7659 56.5281 96.9097 56.5281 97.0506 56.5516C97.2643 56.5467 97.4773 56.5764 97.6815 56.6396C97.8713 56.7167 98.0492 56.8205 98.2098 56.9478L97.9897 57.2266C97.8516 57.117 97.6984 57.028 97.5348 56.9624C97.3749 56.9044 97.206 56.8746 97.0359 56.8744C96.9436 56.8591 96.8494 56.8591 96.7571 56.8744C96.6754 56.8954 96.5999 56.9356 96.537 56.9918C96.4734 57.0302 96.4224 57.0863 96.3903 57.1532C96.3764 57.2259 96.3764 57.3006 96.3903 57.3733C96.3503 57.4552 96.335 57.547 96.3462 57.6374Z" fill="#141525"/>
<path d="M100.587 59.9118H100.22V56.9771H99.1049V56.6396H101.702V56.9771H100.587V59.9118Z" fill="#141525"/>
<path d="M105.047 59.912L104.094 58.6941H103.14V59.9853H102.714V56.6104H104.182C104.346 56.6038 104.511 56.6287 104.666 56.6838C104.805 56.7204 104.935 56.7853 105.047 56.8745C105.146 56.9601 105.226 57.065 105.282 57.1827C105.341 57.3117 105.371 57.4519 105.37 57.5936C105.394 57.7147 105.394 57.8392 105.37 57.9604C105.333 58.065 105.272 58.1602 105.194 58.2392C105.109 58.3239 105.01 58.3933 104.901 58.4446C104.79 58.5011 104.671 58.5407 104.549 58.562L105.561 59.912H105.047ZM104.783 57.124C104.604 56.9971 104.386 56.935 104.167 56.9479H103.14V58.2979H104.182C104.294 58.3132 104.407 58.3132 104.519 58.2979C104.613 58.261 104.702 58.2117 104.783 58.1511C104.854 58.0935 104.913 58.024 104.959 57.9457C104.981 57.8491 104.981 57.7489 104.959 57.6522C104.979 57.5565 104.973 57.4573 104.942 57.3646C104.911 57.2719 104.856 57.1889 104.783 57.124Z" fill="#141525"/>
<path d="M109.259 58.5032C109.257 58.7176 109.222 58.9304 109.156 59.1342C109.092 59.3016 108.997 59.4558 108.877 59.5891C108.752 59.712 108.602 59.807 108.437 59.8679C108.075 59.9856 107.684 59.9856 107.322 59.8679C107.155 59.8105 107.005 59.715 106.882 59.5891C106.761 59.4621 106.666 59.3125 106.603 59.1489C106.537 58.945 106.502 58.7322 106.5 58.5179V56.6104H106.882V58.5032C106.862 58.8007 106.957 59.0945 107.146 59.3249C107.24 59.4235 107.354 59.5006 107.481 59.5512C107.607 59.6019 107.743 59.6248 107.879 59.6184C108.014 59.6231 108.148 59.6009 108.274 59.553C108.4 59.5051 108.516 59.4326 108.613 59.3396C108.806 59.1115 108.901 58.816 108.877 58.5179V56.6104H109.259V58.5032Z" fill="#141525"/>
<path d="M113.074 59.6182C112.98 59.6908 112.876 59.7501 112.766 59.7943C112.66 59.8533 112.546 59.8977 112.428 59.9264H112.017C111.573 59.9278 111.146 59.7538 110.829 59.4421C110.681 59.2855 110.566 59.1009 110.491 58.8992C110.403 58.6905 110.358 58.4657 110.359 58.2389C110.356 58.0072 110.401 57.7773 110.491 57.5639C110.566 57.3623 110.681 57.1777 110.829 57.021C110.98 56.8663 111.159 56.7418 111.357 56.6542C111.57 56.5639 111.8 56.5189 112.032 56.5221C112.168 56.507 112.306 56.507 112.443 56.5221C112.559 56.5407 112.673 56.5753 112.78 56.6248C112.878 56.6698 112.971 56.7239 113.059 56.7862L113.323 57.0063L113.059 57.2704C112.924 57.1418 112.77 57.0331 112.604 56.9476C112.428 56.8558 112.231 56.8104 112.032 56.8156C111.856 56.8187 111.682 56.8535 111.518 56.9183C111.369 56.9904 111.235 57.0899 111.122 57.2118C111.005 57.3363 110.911 57.4803 110.843 57.6373C110.785 57.8122 110.755 57.9956 110.755 58.1802C110.752 58.3602 110.782 58.5393 110.843 58.7085C110.969 59.0286 111.21 59.2903 111.518 59.4421C111.68 59.5141 111.855 59.5492 112.032 59.5448C112.231 59.55 112.428 59.5046 112.604 59.4128C112.784 59.3293 112.948 59.2151 113.088 59.0753L113.338 59.3101L113.074 59.6182Z" fill="#141525"/>
<path d="M115.613 59.9118H115.231V56.9771H114.13V56.6396H116.713V56.9771H115.613V59.9118Z" fill="#141525"/>
<path d="M118.195 56.6104V59.9119H117.828V56.6104H118.195Z" fill="#141525"/>
<path d="M122.641 58.8994C122.559 59.1009 122.439 59.2851 122.289 59.4423C122.144 59.6075 121.963 59.7379 121.761 59.8238C121.318 60.0003 120.824 60.0003 120.381 59.8238C120.184 59.7362 120.004 59.6117 119.853 59.457C119.706 59.3003 119.591 59.1157 119.516 58.9141C119.433 58.7091 119.393 58.4894 119.398 58.2684C119.399 58.0432 119.439 57.8198 119.516 57.6081C119.596 57.4056 119.716 57.2211 119.868 57.0652C120.021 56.8962 120.21 56.7627 120.42 56.674C120.63 56.5853 120.858 56.5436 121.086 56.5516C121.317 56.5484 121.547 56.5934 121.761 56.6837C121.961 56.7748 122.144 56.8988 122.304 57.0505C122.446 57.2109 122.56 57.3945 122.641 57.5935C122.797 58.0148 122.797 58.4781 122.641 58.8994ZM122.274 57.7255C122.218 57.5661 122.128 57.4209 122.01 57.3C121.893 57.1767 121.754 57.077 121.599 57.0065C121.434 56.9297 121.254 56.8896 121.071 56.8891C120.893 56.8878 120.717 56.928 120.557 57.0065C120.402 57.0678 120.261 57.1631 120.147 57.2853C120.031 57.4138 119.942 57.5632 119.882 57.7255C119.751 58.0655 119.751 58.4421 119.882 58.782C119.942 58.9443 120.031 59.0937 120.147 59.2222C120.266 59.3431 120.405 59.4423 120.557 59.5157C120.724 59.5875 120.904 59.6225 121.086 59.6184C121.262 59.6228 121.438 59.5877 121.599 59.5157C121.752 59.4423 121.891 59.3431 122.01 59.2222C122.128 59.1013 122.218 58.9561 122.274 58.7967C122.409 58.4524 122.409 58.0698 122.274 57.7255Z" fill="#141525"/>
<path d="M126.353 56.6104H126.706V59.9119H126.412L124.284 57.2266V59.9412H123.918V56.6104H124.27L126.353 59.2516V56.6104Z" fill="#141525"/>
<path fill-rule="evenodd" clip-rule="evenodd" d="M0 0V60H3.41893V3.58034H23.9325V31.4598L23.9324 31.4598L11.8561 37.4906V59.9998H23.9324H23.9325V59.9999H27.3514V59.9998H45.5172V56.5809H27.3514V33.5435L23.9325 35.0989V56.5809H23.9324H15.2751V39.0167L22.8613 35.5831L23.9324 35.0989L27.3514 33.5435L28.4079 33.0592L42.6265 26.6029L68.9068 38.8259H76.537L42.6265 22.1128L28.4079 29.2148L27.3514 29.7577V0H0Z" fill="#151515"/>
</svg>
