<svg width="87" height="41" viewBox="0 0 87 41" fill="none" xmlns="http://www.w3.org/2000/svg">
<path d="M26.5309 37.27V36.75C27.4009 36.62 27.4709 36.44 27.2409 35.75C27.0909 35.31 26.8709 34.69 26.6509 34.09H23.8209C23.6509 34.54 23.4609 35.09 23.2809 35.66C23.1009 36.23 23.1109 36.58 24.1809 36.66V37.18H20.8809V36.66C21.8809 36.54 22.0309 36.38 22.5209 35.14L25.5209 27.56L26.2709 27.37C27.2109 29.95 28.1309 32.52 29.0909 35.05C29.5909 36.35 29.7809 36.54 30.7109 36.66V37.18L26.5309 37.27ZM25.2809 30.16H25.2309C24.8209 31.23 24.4509 32.3 24.0709 33.34H26.3709L25.2809 30.16Z" fill="#141525"/>
<path d="M39.1109 34.7701C39.0009 35.3901 38.6909 36.8701 38.5709 37.2701H31.3809V36.7501C32.6709 36.6501 32.8109 36.5501 32.8109 35.3101V29.6601C32.8109 28.3901 32.6709 28.3001 31.5509 28.2001V27.6801H36.0609V28.2001C34.9209 28.3001 34.7909 28.3901 34.7909 29.6601V35.4101C34.7909 36.1001 34.8509 36.4101 35.1609 36.5001C35.5209 36.6056 35.8962 36.6496 36.2709 36.6301C36.5422 36.6613 36.8172 36.6328 37.0763 36.5464C37.3355 36.46 37.5725 36.3179 37.7709 36.1301C38.1381 35.6784 38.4195 35.1632 38.6009 34.6101L39.1109 34.7701Z" fill="#141525"/>
<path d="M45.0699 32.12C46.7899 32.33 47.9199 33.02 47.9199 34.42C47.9201 34.882 47.7898 35.3346 47.5438 35.7256C47.2979 36.1166 46.9464 36.4302 46.5299 36.63C45.5617 37.096 44.4935 37.3158 43.4199 37.27H39.6699V36.75C40.8099 36.65 40.9399 36.55 40.9399 35.29V29.66C40.9399 28.4 40.8099 28.3 39.7599 28.2V27.68H44.0699C44.9167 27.6096 45.7654 27.7905 46.5099 28.2C46.787 28.3818 47.0125 28.6319 47.1649 28.9261C47.3173 29.2203 47.3913 29.5489 47.3799 29.88C47.3799 31.28 46.1399 31.88 45.0699 32.06V32.12ZM43.2299 31.91C44.6499 31.91 45.2799 31.35 45.2799 30.13C45.2799 28.91 44.4799 28.3 43.6899 28.3C43.4526 28.2824 43.2164 28.3458 43.0199 28.48C42.9084 28.67 42.8627 28.8914 42.8899 29.11V31.91H43.2299ZM42.8899 35.26C42.8899 36.35 43.1899 36.66 43.9699 36.65C44.2245 36.6396 44.4742 36.5764 44.7031 36.4644C44.932 36.3524 45.1352 36.1941 45.2997 35.9995C45.4642 35.8049 45.5865 35.5782 45.6589 35.3339C45.7312 35.0895 45.752 34.8328 45.7199 34.58C45.7199 33.21 44.8699 32.5 43.1899 32.5H42.8899V35.26Z" fill="#141525"/>
<path d="M58.9998 28.2001C58.1898 28.2001 57.8198 28.5501 57.7498 29.0701C57.6448 29.7481 57.6013 30.4342 57.6198 31.1201V32.7201C57.7545 34.0422 57.3709 35.3651 56.5498 36.4101C56.1904 36.764 55.7635 37.042 55.2945 37.2275C54.8255 37.4131 54.324 37.5023 53.8198 37.4901C52.888 37.534 51.9685 37.2628 51.2098 36.7201C50.3398 36.0701 49.9998 35.0001 49.9998 33.2601V29.7901C49.9998 28.4001 49.8498 28.3001 48.7598 28.2001V27.6801H53.1998V28.2001C52.1198 28.3001 51.9698 28.4001 51.9698 29.7901V33.0001C51.9698 35.2101 52.7698 36.5001 54.3598 36.5001C56.1198 36.5001 56.8898 35.1701 56.8898 32.7001V31.1201C56.8997 30.4337 56.8496 29.7477 56.7398 29.0701C56.6698 28.5501 56.3098 28.2501 55.3098 28.2001V27.6801H58.9998V28.2001Z" fill="#141525"/>
<path d="M68.6905 37.4H68.2505C66.3905 37.31 65.8205 36.89 65.2505 35.97C64.8605 35.36 64.4705 34.56 64.0405 33.8C63.9658 33.5986 63.8282 33.4266 63.6481 33.3096C63.468 33.1925 63.2549 33.1365 63.0405 33.15H62.7605V35.3C62.7605 36.51 62.9105 36.66 64.0205 36.76V37.28H59.5605V36.76C60.6705 36.66 60.8305 36.51 60.8305 35.3V29.63C60.8305 28.45 60.7005 28.3 59.6205 28.2V27.68H63.7705C64.6809 27.5884 65.5971 27.7842 66.3905 28.24C66.7171 28.4572 66.9812 28.7561 67.1566 29.1069C67.332 29.4578 67.4126 29.8483 67.3905 30.24C67.3768 30.7857 67.1903 31.3131 66.8579 31.7461C66.5255 32.1792 66.0642 32.4957 65.5405 32.65C65.7505 33.07 66.3105 34.06 66.7405 34.74C67.0766 35.2977 67.4543 35.8292 67.8705 36.33C68.1118 36.6157 68.4214 36.8358 68.7705 36.97L68.6905 37.4ZM63.1505 32.56C63.6637 32.6116 64.1775 32.4688 64.5905 32.16C64.8361 31.943 65.028 31.672 65.1512 31.3684C65.2744 31.0647 65.3255 30.7367 65.3005 30.41C65.3005 28.84 64.3905 28.27 63.5605 28.27C63.1905 28.27 62.9805 28.33 62.9005 28.42C62.8205 28.51 62.7605 28.65 62.7605 28.96V32.56H63.1505Z" fill="#141525"/>
<path d="M74.7901 30.0799C74.4801 29.1499 73.9301 28.0799 72.7201 28.0799C72.529 28.0771 72.3392 28.1132 72.1625 28.1859C71.9857 28.2587 71.8256 28.3666 71.6919 28.5032C71.5581 28.6397 71.4535 28.802 71.3845 28.9803C71.3154 29.1585 71.2833 29.3489 71.2901 29.5399C71.2901 30.3499 71.8201 30.8299 73.1201 31.4799C74.6701 32.2299 75.7301 33.0499 75.7301 34.4799C75.7301 36.1699 74.3001 37.4799 72.1501 37.4799C71.6457 37.4855 71.1433 37.4147 70.6601 37.2699C70.3526 37.1855 70.0518 37.0785 69.7601 36.9499C69.5519 36.1257 69.4082 35.2865 69.3301 34.4399L69.8501 34.2799C70.1401 35.2199 71.0101 36.8699 72.4301 36.8699C72.6313 36.8778 72.8318 36.8427 73.0184 36.7671C73.205 36.6915 73.3734 36.5771 73.5124 36.4315C73.6514 36.2859 73.7579 36.1123 73.8247 35.9224C73.8916 35.7325 73.9172 35.5305 73.9001 35.3299C73.9001 34.4599 73.2501 33.9099 72.1501 33.3299C70.6301 32.5599 69.5801 31.7699 69.5801 30.3299C69.5801 28.7099 70.8601 27.4399 72.9601 27.4399C73.6618 27.4499 74.3561 27.5853 75.0101 27.8399C75.0701 28.3799 75.1701 29.0299 75.2901 29.9499L74.7901 30.0799Z" fill="#141525"/>
<path d="M82.1305 37.27V36.75C83.0005 36.62 83.1305 36.44 82.8405 35.75C82.6905 35.31 82.4705 34.69 82.2505 34.09H79.4205C79.2605 34.54 79.0705 35.09 78.8905 35.66C78.7105 36.23 78.7105 36.58 79.7905 36.66V37.18H76.4805V36.66C77.4805 36.54 77.6305 36.38 78.1205 35.14L81.1205 27.56L81.8705 27.37C82.8705 29.95 83.7305 32.52 84.6905 35.05C85.1905 36.35 85.3805 36.54 86.3105 36.66V37.18L82.1305 37.27ZM80.8805 30.16C80.4605 31.23 80.0905 32.3 79.7105 33.34H82.0005L80.8805 30.16Z" fill="#141525"/>
<path d="M34 38.5701H34.21L34.82 40.4501L35.46 38.5801H35.73L35 40.8401H34.78L34.14 39.0001L33.52 40.8201H33.31L32.5 38.5601H32.78L33.42 40.4301L34 38.5701Z" fill="#141525"/>
<path d="M38.4797 40.14C38.4312 40.2787 38.3527 40.405 38.2497 40.51C38.1479 40.6238 38.0213 40.7127 37.8797 40.77C37.7343 40.8315 37.5777 40.8622 37.4197 40.86C37.2654 40.8642 37.1118 40.8361 36.9689 40.7775C36.826 40.719 36.6968 40.6313 36.5897 40.52C36.4855 40.4128 36.4035 40.2861 36.3486 40.147C36.2936 40.008 36.2668 39.8594 36.2697 39.71C36.2686 39.5554 36.2993 39.4022 36.3597 39.26C36.411 39.1225 36.4892 38.9967 36.5897 38.89C36.7562 38.7226 36.9687 38.6085 37.2002 38.5622C37.4317 38.5159 37.6717 38.5395 37.8897 38.63C38.0245 38.6897 38.1467 38.7745 38.2497 38.88C38.3503 38.9867 38.4285 39.1125 38.4797 39.25C38.5371 39.3929 38.5643 39.5461 38.5597 39.7C38.5632 39.8505 38.536 40.0003 38.4797 40.14ZM38.2397 39.34C38.1938 39.233 38.1295 39.1348 38.0497 39.05C37.972 38.9638 37.8765 38.8955 37.7697 38.85C37.6601 38.7987 37.5408 38.7714 37.4197 38.77C37.2954 38.7703 37.1725 38.7976 37.0597 38.85C36.9535 38.8918 36.8578 38.9567 36.7797 39.04C36.7082 39.1326 36.6478 39.2333 36.5997 39.34C36.5197 39.5733 36.5197 39.8266 36.5997 40.06C36.6474 40.1691 36.7115 40.2702 36.7897 40.36C36.8683 40.4452 36.9636 40.5133 37.0697 40.56C37.1794 40.61 37.2992 40.634 37.4197 40.63C37.5434 40.6328 37.6662 40.6089 37.7797 40.56C37.8815 40.5108 37.9731 40.443 38.0497 40.36C38.1295 40.2751 38.1938 40.177 38.2397 40.07C38.2791 39.954 38.2994 39.8324 38.2997 39.71C38.3001 39.5842 38.2798 39.4592 38.2397 39.34Z" fill="#141525"/>
<path d="M40.9094 40.8301L40.2494 40.0001H39.6094V40.8801H39.3594V38.5801H40.3594C40.4749 38.5747 40.5903 38.5917 40.6994 38.6301C40.7911 38.6549 40.8764 38.6992 40.9494 38.7601C41.0223 38.8151 41.0807 38.8872 41.1194 38.9701C41.1593 39.058 41.1798 39.1535 41.1794 39.2501C41.1953 39.3326 41.1953 39.4175 41.1794 39.5001C41.1541 39.574 41.1092 39.6397 41.0494 39.6901C40.9969 39.7499 40.9321 39.7977 40.8594 39.8301C40.7831 39.8668 40.7024 39.8937 40.6194 39.9101L41.3094 40.8301H40.9094ZM40.7294 38.9301C40.6071 38.8435 40.4589 38.8012 40.3094 38.8101H39.6094V39.7301H40.2994C40.3756 39.7411 40.4531 39.7411 40.5294 39.7301C40.5977 39.7072 40.6618 39.6734 40.7194 39.6301C40.7672 39.5908 40.8079 39.5434 40.8394 39.4901C40.8544 39.4242 40.8544 39.3559 40.8394 39.2901C40.852 39.2256 40.8486 39.1591 40.8294 39.0963C40.8102 39.0335 40.7758 38.9764 40.7294 38.9301Z" fill="#141525"/>
<path d="M43.8495 40.83H43.5295L42.6695 39.74L42.1895 40.22V40.83H41.9395V38.58H42.1895V39.92L43.4795 38.58H43.8095L42.8095 39.58L43.8495 40.83Z" fill="#141525"/>
<path d="M44.6903 39.28C44.7137 39.3246 44.7441 39.3651 44.7803 39.4C44.8402 39.4395 44.9038 39.473 44.9703 39.5L45.2703 39.58C45.4733 39.6084 45.6659 39.6875 45.8303 39.81C45.8901 39.8596 45.9375 39.9226 45.9688 39.9937C46 40.0649 46.0142 40.1424 46.0103 40.22C46.0108 40.3102 45.9902 40.3992 45.9503 40.48C45.9141 40.5587 45.8592 40.6274 45.7903 40.68C45.721 40.7406 45.639 40.785 45.5503 40.81C45.4476 40.8261 45.343 40.8261 45.2403 40.81C45.0727 40.8119 44.9063 40.7813 44.7503 40.72C44.593 40.6544 44.4477 40.5632 44.3203 40.45L44.4803 40.26C44.5856 40.3602 44.7074 40.4414 44.8403 40.5C44.9689 40.5581 45.1093 40.5855 45.2503 40.58C45.3813 40.588 45.5112 40.5529 45.6203 40.48C45.6625 40.4469 45.6963 40.4043 45.7189 40.3556C45.7415 40.3069 45.7523 40.2536 45.7503 40.2C45.7558 40.1502 45.7558 40.0998 45.7503 40.05C45.7292 40.0069 45.6984 39.9692 45.6603 39.94C45.6046 39.9022 45.544 39.8719 45.4803 39.85C45.3866 39.8136 45.2894 39.7867 45.1903 39.77C45.0746 39.7454 44.9609 39.712 44.8503 39.67C44.7662 39.6348 44.6858 39.5913 44.6103 39.54C44.5529 39.4915 44.5083 39.4297 44.4803 39.36C44.4465 39.281 44.4295 39.1959 44.4303 39.11C44.429 39.0261 44.4497 38.9434 44.4903 38.87C44.5218 38.7913 44.5735 38.7222 44.6403 38.67C44.7098 38.6151 44.7874 38.5712 44.8703 38.54C44.9697 38.5249 45.0709 38.5249 45.1703 38.54C45.3159 38.5375 45.461 38.5578 45.6003 38.6C45.7286 38.6548 45.8495 38.7253 45.9603 38.81L45.8103 39C45.7162 38.9253 45.6118 38.8647 45.5003 38.82C45.3913 38.7804 45.2763 38.7601 45.1603 38.76C45.0975 38.7488 45.0331 38.7488 44.9703 38.76C44.9124 38.7764 44.8582 38.8035 44.8103 38.84C44.7722 38.8692 44.7414 38.9069 44.7203 38.95C44.7113 38.9996 44.7113 39.0504 44.7203 39.1C44.6931 39.1558 44.6826 39.2184 44.6903 39.28Z" fill="#141525"/>
<path d="M49.62 38.81H48.25V39.62H49.47V39.85H48.25V40.85H48V38.58H49.62V38.81Z" fill="#141525"/>
<path d="M52.4192 40.14C52.3707 40.2787 52.2922 40.4051 52.1892 40.51C52.0902 40.6225 51.9672 40.7114 51.8292 40.77C51.5274 40.8902 51.191 40.8902 50.8892 40.77C50.7544 40.7103 50.6323 40.6254 50.5292 40.52C50.4287 40.4132 50.3505 40.2874 50.2992 40.15C50.243 40.0103 50.2158 39.8606 50.2192 39.71C50.2147 39.5561 50.2419 39.4029 50.2992 39.26C50.3505 39.1226 50.4287 38.9968 50.5292 38.89C50.6354 38.7812 50.7609 38.693 50.8992 38.63C51.0479 38.5677 51.208 38.537 51.3692 38.54C51.5271 38.5378 51.6838 38.5685 51.8292 38.63C51.964 38.6897 52.0862 38.7745 52.1892 38.88C52.2896 38.9889 52.3707 39.114 52.4292 39.25C52.4817 39.3943 52.5087 39.5465 52.5092 39.7C52.5093 39.8512 52.4786 40.0009 52.4192 40.14ZM52.1792 39.34C52.1376 39.2307 52.0728 39.1318 51.9892 39.05C51.9134 38.9617 51.8174 38.893 51.7092 38.85C51.6004 38.7965 51.4805 38.7691 51.3592 38.77C51.2349 38.7703 51.112 38.7976 50.9992 38.85C50.8961 38.8922 50.8038 38.9571 50.7292 39.04C50.651 39.1297 50.5869 39.2309 50.5392 39.34C50.4592 39.5733 50.4592 39.8267 50.5392 40.06C50.5869 40.1691 50.651 40.2702 50.7292 40.36C50.8103 40.4423 50.905 40.51 51.0092 40.56C51.1228 40.6089 51.2456 40.6328 51.3692 40.63C51.4896 40.632 51.6089 40.6081 51.7192 40.56C51.8246 40.5129 51.9195 40.4453 51.9985 40.3612C52.0774 40.2771 52.1389 40.1781 52.1792 40.07C52.2186 39.954 52.2389 39.8325 52.2392 39.71C52.2396 39.5842 52.2193 39.4592 52.1792 39.34Z" fill="#141525"/>
<path d="M54.8508 40.8301L54.2008 40.0001H53.5508V40.8801H53.3008V38.5801H54.3008C54.413 38.5755 54.525 38.5925 54.6308 38.6301C54.7255 38.655 54.814 38.6993 54.8908 38.7601C54.9435 38.8317 54.9809 38.9134 55.0008 39.0001C55.0407 39.088 55.0612 39.1835 55.0608 39.2801C55.0767 39.3626 55.0767 39.4475 55.0608 39.5301C55.0351 39.6014 54.9942 39.6662 54.9408 39.7201C54.8826 39.7778 54.8149 39.8251 54.7408 39.8601C54.6652 39.8986 54.5843 39.9255 54.5008 39.9401L55.1908 40.8601L54.8508 40.8301ZM54.6708 38.9301C54.5485 38.8436 54.4003 38.8012 54.2508 38.8101H53.5508V39.7301H54.2508C54.3271 39.7405 54.4045 39.7405 54.4808 39.7301C54.545 39.7049 54.6055 39.6713 54.6608 39.6301C54.7087 39.5908 54.7493 39.5434 54.7808 39.4901C54.7954 39.4242 54.7954 39.3559 54.7808 39.2901C54.7953 39.2257 54.7928 39.1586 54.7735 39.0955C54.7542 39.0324 54.7188 38.9753 54.6708 38.9301Z" fill="#141525"/>
<path d="M58.84 40.63C58.7794 40.6793 58.712 40.7197 58.64 40.75C58.5677 40.7902 58.4904 40.8205 58.41 40.84H58.13C57.9752 40.8432 57.8216 40.8125 57.68 40.75C57.5457 40.6939 57.4234 40.6124 57.32 40.51C57.2197 40.4011 57.1385 40.276 57.08 40.14C57.0276 39.9957 57.0005 39.8435 57 39.69C56.9995 39.5332 57.0266 39.3775 57.08 39.23C57.1385 39.094 57.2197 38.9689 57.32 38.86C57.423 38.7546 57.5452 38.6697 57.68 38.61C57.8255 38.5485 57.9821 38.5178 58.14 38.52C58.2297 38.5091 58.3203 38.5091 58.41 38.52C58.4898 38.5313 58.5674 38.5549 58.64 38.59L58.84 38.7C58.9035 38.7417 58.9607 38.7922 59.01 38.85L58.84 39.03C58.7458 38.9446 58.6417 38.8708 58.53 38.81C58.4064 38.7466 58.2688 38.7157 58.13 38.72C58.0133 38.722 57.898 38.7458 57.79 38.79C57.6858 38.84 57.5911 38.9077 57.51 38.99C57.4296 39.0724 57.3682 39.1714 57.33 39.28C57.282 39.3974 57.2581 39.5232 57.26 39.65C57.2572 39.7736 57.2811 39.8964 57.33 40.01C57.3655 40.1228 57.4272 40.2256 57.51 40.31C57.5911 40.3924 57.6858 40.46 57.79 40.51C57.8965 40.5589 58.0128 40.5829 58.13 40.58C58.2688 40.5844 58.4064 40.5534 58.53 40.49C58.6511 40.4307 58.7624 40.3531 58.86 40.26L59.03 40.42L58.84 40.63Z" fill="#141525"/>
<path d="M61.7708 40.14C61.7181 40.2767 61.6401 40.4023 61.5408 40.51C61.4372 40.6218 61.3111 40.7104 61.1708 40.77C61.022 40.8323 60.862 40.863 60.7008 40.86C60.5428 40.8622 60.3862 40.8315 60.2408 40.77C60.106 40.7103 59.9838 40.6254 59.8808 40.52C59.7765 40.4128 59.6945 40.2861 59.6396 40.147C59.5847 40.008 59.5579 39.8594 59.5608 39.71C59.5597 39.5554 59.5903 39.4022 59.6508 39.26C59.702 39.1225 59.7802 38.9967 59.8808 38.89C60.0472 38.7226 60.2597 38.6085 60.4912 38.5622C60.7227 38.5159 60.9627 38.5395 61.1808 38.63C61.3156 38.6897 61.4377 38.7745 61.5408 38.88C61.6413 38.9867 61.7195 39.1125 61.7708 39.25C61.8281 39.3929 61.8553 39.5461 61.8508 39.7C61.8542 39.8505 61.827 40.0003 61.7708 40.14ZM61.5208 39.34C61.4826 39.2313 61.4212 39.1324 61.3408 39.05C61.263 38.9638 61.1675 38.8955 61.0608 38.85C60.948 38.7976 60.8251 38.7703 60.7008 38.77C60.5797 38.7714 60.4604 38.7987 60.3508 38.85C60.2445 38.8918 60.1488 38.9567 60.0708 39.04C59.9957 39.1301 59.935 39.2313 59.8908 39.34C59.8014 39.5716 59.8014 39.8283 59.8908 40.06C59.9357 40.1705 60 40.2721 60.0808 40.36C60.1593 40.4452 60.2546 40.5133 60.3608 40.56C60.4704 40.61 60.5902 40.634 60.7108 40.63C60.8344 40.6328 60.9572 40.6089 61.0708 40.56C61.1725 40.5108 61.2641 40.443 61.3408 40.36C61.4212 40.2776 61.4826 40.1786 61.5208 40.07C61.568 39.9559 61.5918 39.8335 61.5908 39.71C61.5926 39.5832 61.5688 39.4573 61.5208 39.34Z" fill="#141525"/>
<path d="M64.3004 38.58H64.5504V40.83H64.3504L62.8904 39V40.85H62.6504V38.58H62.8804L64.3004 40.38V38.58Z" fill="#141525"/>
<path d="M65.6608 39.28C65.6842 39.3245 65.7145 39.3651 65.7508 39.4C65.8107 39.4395 65.8743 39.473 65.9408 39.5L66.2508 39.58C66.4502 39.6104 66.6391 39.6894 66.8008 39.81C66.8606 39.8596 66.908 39.9225 66.9392 39.9937C66.9705 40.0649 66.9847 40.1424 66.9808 40.22C66.9813 40.3101 66.9607 40.3992 66.9208 40.48C66.8846 40.5587 66.8297 40.6274 66.7608 40.68C66.693 40.7428 66.6104 40.7875 66.5208 40.81C66.4181 40.8261 66.3135 40.8261 66.2108 40.81C66.0432 40.8119 65.8768 40.7813 65.7208 40.72C65.5654 40.6565 65.4231 40.5649 65.3008 40.45L65.4508 40.26C65.556 40.3601 65.6778 40.4413 65.8108 40.5C65.9394 40.5581 66.0798 40.5855 66.2208 40.58C66.3519 40.5895 66.4823 40.5543 66.5908 40.48C66.633 40.4469 66.6668 40.4043 66.6894 40.3556C66.712 40.3069 66.7227 40.2536 66.7208 40.2C66.7313 40.1505 66.7313 40.0994 66.7208 40.05C66.6997 40.0068 66.6689 39.9692 66.6308 39.94C66.5775 39.8981 66.5163 39.8675 66.4508 39.85C66.3571 39.8135 66.2599 39.7867 66.1608 39.77C66.0451 39.7454 65.9314 39.712 65.8208 39.67C65.7387 39.637 65.6614 39.5933 65.5908 39.54C65.5276 39.4948 65.479 39.4323 65.4508 39.36C65.417 39.281 65.3999 39.1959 65.4008 39.11C65.3995 39.0261 65.4202 38.9434 65.4608 38.87C65.4922 38.7912 65.544 38.7222 65.6108 38.67C65.6839 38.615 65.7648 38.5711 65.8508 38.54C65.9468 38.5239 66.0448 38.5239 66.1408 38.54C66.2864 38.5367 66.4316 38.5569 66.5708 38.6C66.7001 38.6525 66.8214 38.7232 66.9308 38.81L66.7808 39C66.6867 38.9253 66.5823 38.8646 66.4708 38.82C66.3618 38.7804 66.2467 38.7601 66.1308 38.76C66.0679 38.7495 66.0037 38.7495 65.9408 38.76C65.8851 38.7743 65.8337 38.8017 65.7908 38.84C65.7475 38.8661 65.7127 38.9044 65.6908 38.95C65.6813 38.9995 65.6813 39.0504 65.6908 39.1C65.6635 39.1558 65.6531 39.2183 65.6608 39.28Z" fill="#141525"/>
<path d="M68.5491 40.83H68.2991V38.83H67.5391V38.6H69.3091V38.83H68.5491V40.83Z" fill="#141525"/>
<path d="M71.59 40.8301L70.94 40.0001H70.29V40.8801H70V38.5801H71C71.1122 38.5755 71.2242 38.5925 71.33 38.6301C71.4247 38.655 71.5132 38.6993 71.59 38.7601C71.6571 38.8184 71.7116 38.8899 71.75 38.9701C71.7899 39.058 71.8104 39.1535 71.81 39.2501C71.8259 39.3326 71.8259 39.4175 71.81 39.5001C71.7843 39.5714 71.7434 39.6362 71.69 39.6901C71.6318 39.7478 71.5641 39.7951 71.49 39.8301C71.4144 39.8686 71.3335 39.8955 71.25 39.9101L71.94 40.8301H71.59ZM71.41 38.9301C71.2877 38.8436 71.1396 38.8012 70.99 38.8101H70.29V39.7301H71C71.0763 39.7405 71.1537 39.7405 71.23 39.7301C71.2942 39.7049 71.3548 39.6713 71.41 39.6301C71.4579 39.5908 71.4985 39.5434 71.53 39.4901C71.5447 39.4242 71.5447 39.3559 71.53 39.2901C71.5433 39.2248 71.5392 39.1572 71.5182 39.094C71.4971 39.0308 71.4598 38.9743 71.41 38.9301Z" fill="#141525"/>
<path d="M74.4601 39.87C74.4588 40.016 74.4352 40.161 74.3901 40.3C74.3462 40.414 74.2818 40.5191 74.2001 40.61C74.1146 40.6937 74.0123 40.7584 73.9001 40.8C73.6531 40.8802 73.3871 40.8802 73.1401 40.8C73.0266 40.7609 72.9239 40.6958 72.8401 40.61C72.7577 40.5234 72.6931 40.4215 72.6501 40.31C72.6049 40.171 72.5813 40.026 72.5801 39.88V38.58H72.8401V39.87C72.8268 40.0727 72.8911 40.2729 73.0201 40.43C73.0843 40.4971 73.1621 40.5497 73.2484 40.5842C73.3346 40.6187 73.4273 40.6343 73.5201 40.63C73.6119 40.6332 73.7034 40.618 73.7892 40.5854C73.8751 40.5527 73.9536 40.5033 74.0201 40.44C74.1518 40.2845 74.2165 40.0831 74.2001 39.88V38.58H74.4601V39.87Z" fill="#141525"/>
<path d="M77.0591 40.6299C76.9949 40.6794 76.9243 40.7198 76.8491 40.7499C76.7768 40.7901 76.6995 40.8204 76.6191 40.8399H76.3391C76.0362 40.8409 75.7451 40.7223 75.5291 40.5099C75.4285 40.4032 75.3503 40.2774 75.2991 40.1399C75.2386 39.9977 75.208 39.8445 75.2091 39.6899C75.2069 39.532 75.2376 39.3754 75.2991 39.2299C75.3503 39.0925 75.4285 38.9667 75.5291 38.8599C75.6321 38.7545 75.7543 38.6696 75.8891 38.6099C76.0345 38.5484 76.1912 38.5178 76.3491 38.5199C76.4421 38.5096 76.536 38.5096 76.6291 38.5199C76.7086 38.5326 76.786 38.5562 76.8591 38.5899C76.9257 38.6206 76.9893 38.6575 77.0491 38.6999L77.2291 38.8499L77.0491 39.0299C76.9567 38.9423 76.8524 38.8682 76.7391 38.8099C76.6188 38.7474 76.4846 38.7164 76.3491 38.7199C76.2292 38.7221 76.1106 38.7458 75.9991 38.7899C75.8973 38.8391 75.8057 38.9069 75.7291 38.9899C75.6494 39.0748 75.5851 39.173 75.5391 39.2799C75.499 39.3992 75.4787 39.5242 75.4791 39.6499C75.4768 39.7726 75.4972 39.8946 75.5391 40.0099C75.6247 40.2281 75.7888 40.4065 75.9991 40.5099C76.1091 40.559 76.2287 40.5829 76.3491 40.5799C76.4846 40.5835 76.6188 40.5525 76.7391 40.4899C76.8616 40.4331 76.9733 40.3552 77.0691 40.2599L77.2391 40.4199L77.0591 40.6299Z" fill="#141525"/>
<path d="M78.7893 40.83H78.5293V38.83H77.7793V38.6H79.5393V38.83H78.7893V40.83Z" fill="#141525"/>
<path d="M80.5508 38.58V40.83H80.3008V38.58H80.5508Z" fill="#141525"/>
<path d="M83.5794 40.14C83.5234 40.2773 83.442 40.4028 83.3394 40.51C83.2404 40.6225 83.1174 40.7114 82.9794 40.77C82.6776 40.8902 82.3412 40.8902 82.0394 40.77C81.9046 40.7103 81.7825 40.6254 81.6794 40.52C81.5789 40.4132 81.5007 40.2874 81.4494 40.15C81.3932 40.0103 81.366 39.8606 81.3694 39.71C81.3699 39.5565 81.397 39.4042 81.4494 39.26C81.5041 39.122 81.5857 38.9962 81.6894 38.89C81.794 38.7748 81.9225 38.6838 82.0658 38.6234C82.2092 38.5629 82.364 38.5345 82.5194 38.54C82.6773 38.5378 82.834 38.5684 82.9794 38.63C83.1159 38.692 83.2409 38.7765 83.3494 38.88C83.4467 38.9893 83.5245 39.1144 83.5794 39.25C83.6859 39.5371 83.6859 39.8529 83.5794 40.14ZM83.3294 39.34C83.2913 39.2313 83.2298 39.1324 83.1494 39.05C83.0698 38.9659 82.9748 38.898 82.8694 38.85C82.7566 38.7976 82.6338 38.7703 82.5094 38.77C82.3881 38.7691 82.2683 38.7965 82.1594 38.85C82.0532 38.8918 81.9575 38.9567 81.8794 39.04C81.8008 39.1275 81.7397 39.2294 81.6994 39.34C81.61 39.5717 81.61 39.8283 81.6994 40.06C81.7397 40.1706 81.8008 40.2724 81.8794 40.36C81.9605 40.4423 82.0552 40.51 82.1594 40.56C82.273 40.6089 82.3958 40.6328 82.5194 40.63C82.6398 40.633 82.7594 40.609 82.8694 40.56C82.9736 40.51 83.0684 40.4423 83.1494 40.36C83.2298 40.2776 83.2913 40.1786 83.3294 40.07C83.4214 39.8353 83.4214 39.5746 83.3294 39.34Z" fill="#141525"/>
<path d="M86.1092 38.58H86.3492V40.83H86.1492L84.6992 39V40.85H84.4492V38.58H84.6892L86.1092 40.38V38.58Z" fill="#141525"/>
<path fill-rule="evenodd" clip-rule="evenodd" d="M0 0V40.89H2.33V2.44H16.31V21.44L8.08008 25.5499V40.8899H16.3101L16.3101 40.89H18.6401V40.8899H31.0201V38.5599H18.6401V22.86L18.6401 22.8599L19.3601 22.5299L29.0501 18.1299L46.9601 26.4599H52.1601L29.0501 15.0699L19.3601 19.9099L18.6401 20.2799L18.64 20.28V0H0ZM16.3101 23.92L15.5801 24.2499L10.4101 26.5899V38.5599H16.3101L16.3101 23.92Z" fill="#151515"/>
</svg>
