<svg width="16" height="22" viewBox="0 0 16 22" fill="none" xmlns="http://www.w3.org/2000/svg">
<path d="M4.73205 12.885C5.53205 14.2739 6.52356 15.4941 7.65559 16.5172L10.3403 14.9636C10.678 14.7681 11.0961 14.7924 11.3997 14.9986C12.3141 15.6038 13.3047 16.0606 14.3319 16.3805C14.5777 16.4465 14.7894 16.6134 14.9244 16.8478C15.0644 17.0909 15.0941 17.363 15.0282 17.6095L14.1205 21.0051C14.0886 21.1318 14.0313 21.2506 13.9519 21.3542C13.8726 21.4578 13.773 21.5441 13.6592 21.6077C13.4168 21.748 13.1452 21.7778 12.8994 21.7118C8.87153 20.5126 5.27 17.8283 2.99999 13.8874C0.729984 9.9464 0.211507 5.47794 1.18932 1.382C1.25521 1.13554 1.41671 0.914762 1.6592 0.774434C1.90169 0.634107 2.1732 0.6043 2.41908 0.670339L5.80684 1.58021C6.05272 1.64625 6.27298 1.80813 6.41298 2.05118C6.54798 2.28556 6.57772 2.5577 6.5205 2.79915C6.27559 3.86216 6.1856 4.95514 6.25335 6.04401C6.26656 6.23151 6.2267 6.41893 6.13835 6.58472C6.05 6.75051 5.91675 6.88793 5.75393 6.98118L3.06924 8.5348C3.37355 10.0254 3.93204 11.4961 4.73205 12.885Z" fill="white"/>
</svg>
