<svg width="448" height="290" viewBox="0 0 448 290" fill="none" xmlns="http://www.w3.org/2000/svg">
<path d="M175.252 241.24C175.252 241.24 173.981 265.207 162.744 285.153C162.496 285.589 162.366 286.082 162.368 286.583C162.37 287.084 162.503 287.577 162.754 288.01C163.006 288.444 163.366 288.805 163.8 289.056C164.234 289.307 164.726 289.439 165.228 289.441H277.376C277.876 289.44 278.368 289.309 278.802 289.06C279.236 288.811 279.597 288.452 279.849 288.02C280.102 287.588 280.237 287.098 280.242 286.597C280.246 286.097 280.119 285.604 279.874 285.168C276.503 279.254 271.003 266.331 267.691 241.24H175.252Z" fill="#D5D0D0"/>
<g style="mix-blend-mode:soft-light">
<path d="M175.252 241.239L269.066 250.081L266.671 232.9L175.252 241.239Z" fill="black"/>
</g>
<path d="M395.97 15.096V226.218C395.97 230.218 394.381 234.054 391.553 236.882C388.724 239.71 384.888 241.299 380.889 241.299H66.9782C62.9784 241.299 59.1424 239.71 56.3141 236.882C53.4859 234.054 51.897 230.218 51.897 226.218V15.096C51.897 11.0948 53.4854 7.25735 56.3133 4.42673C59.1411 1.59611 62.977 0.00391885 66.9782 0L380.889 0C384.89 0.00391885 388.726 1.59611 391.554 4.42673C394.381 7.25735 395.97 11.0948 395.97 15.096Z" fill="#D5D0D0"/>
<path d="M395.97 15.096V214.182H51.897V15.096C51.897 11.0948 53.4854 7.25735 56.3133 4.42673C59.1411 1.59611 62.977 0.00391885 66.9782 0L380.889 0C384.89 0.00391885 388.726 1.59611 391.554 4.42673C394.381 7.25735 395.97 11.0948 395.97 15.096Z" fill="#243440"/>
<path d="M382.784 12H65V205.113H382.784V12Z" fill="#FCFCFC"/>
<rect x="96" y="105.275" width="29.537" height="29.537" fill="#DCDCDC"/>
<rect x="96" y="160.369" width="29.537" height="29.537" fill="#DCDCDC"/>
<rect opacity="0.9" x="133.502" y="105.275" width="29.537" height="29.537" fill="#DCDCDC"/>
<rect opacity="0.9" x="133.502" y="160.369" width="29.537" height="29.537" fill="#DCDCDC"/>
<rect opacity="0.9" x="171.004" y="105.275" width="29.537" height="29.537" fill="#DCDCDC"/>
<rect opacity="0.9" x="171.004" y="160.369" width="29.537" height="29.537" fill="#DCDCDC"/>
<rect opacity="0.9" x="208.506" y="105.275" width="29.537" height="29.537" fill="#DCDCDC"/>
<rect opacity="0.9" x="246.008" y="105.275" width="29.537" height="29.537" fill="#DCDCDC"/>
<rect opacity="0.9" x="283.51" y="105.275" width="29.537" height="29.537" fill="#DCDCDC"/>
<rect opacity="0.9" x="322.591" y="105.275" width="29.537" height="29.537" fill="#DCDCDC"/>
<rect opacity="0.9" x="208.506" y="160.369" width="29.537" height="29.537" fill="#DCDCDC"/>
<rect opacity="0.9" x="246.008" y="160.369" width="29.537" height="29.537" fill="#DCDCDC"/>
<rect opacity="0.9" x="283.51" y="160.369" width="29.537" height="29.537" fill="#DCDCDC"/>
<rect opacity="0.9" x="322.591" y="160.369" width="29.537" height="29.537" fill="#DCDCDC"/>
<rect x="96" y="93" width="29.537" height="4.64627" fill="#DCDCDC"/>
<rect x="96" y="148.092" width="29.537" height="4.64627" fill="#DCDCDC"/>
<g style="mix-blend-mode:soft-light">
<path d="M223.882 235.312C228.34 235.312 231.955 231.697 231.955 227.239C231.955 222.78 228.34 219.166 223.882 219.166C219.423 219.166 215.809 222.78 215.809 227.239C215.809 231.697 219.423 235.312 223.882 235.312Z" fill="black"/>
</g>
<g style="mix-blend-mode:soft-light" opacity="0.6">
<path fill-rule="evenodd" clip-rule="evenodd" d="M395.97 32.3349V98.7809C393.547 96.277 392.14 92.9629 392.022 89.4808V89.8504C392.022 98.633 380.312 107.874 364.388 107.992C347.252 108.125 336.015 99.2688 336.015 89.4808V89.8504C336.015 98.633 324.645 108.51 308.721 108.51C291.584 108.51 280.007 99.2688 280.007 89.4808V89.8504C280.007 98.633 267.824 108.377 251.915 108.628C236.331 108.894 224.044 99.2688 224.044 89.4808C224.044 99.2688 208.431 108.347 196.248 108.244C180.309 108.111 168.037 98.633 168.037 89.8504V89.4808C168.037 99.2688 151.995 107.445 139.811 107.342C123.873 107.209 112.03 98.633 112.03 89.8504V89.4808C112.03 99.2688 95.6768 106.676 83.4935 106.573C67.54 106.455 56.0073 98.633 56.0073 89.8504V89.4808C55.9237 91.0642 55.5157 92.6135 54.8087 94.0327C54.1016 95.4519 53.1106 96.7107 51.897 97.7311V32.5271L65.4553 19.5898H382.574L395.97 32.3349Z" fill="black"/>
</g>
<path fill-rule="evenodd" clip-rule="evenodd" d="M224.015 12.2559H184.36C181.63 22.6353 178.904 33.0196 176.184 43.4089C173.463 53.7587 170.713 64.1085 168.007 74.5471H224.015V12.2559Z" fill="#E8F5FC"/>
<path fill-rule="evenodd" clip-rule="evenodd" d="M184.36 12.2559H144.705C139.264 22.6353 133.818 33.0196 128.367 43.4089L112.103 74.5471H168.081C170.787 64.1972 173.537 53.8474 176.258 43.4089C178.978 32.9703 181.699 22.7092 184.434 12.2559" fill="#E6C100"/>
<path fill-rule="evenodd" clip-rule="evenodd" d="M144.706 12.2559H105.081L80.5958 43.4089L56.0667 74.5471H112.03L128.294 43.4089C133.804 33.0295 139.274 22.6451 144.706 12.2559Z" fill="#E8F5FC"/>
<path fill-rule="evenodd" clip-rule="evenodd" d="M105.081 12.2559H65.4555L32.7796 43.4089L0.0888672 74.5471H56.0667L80.5958 43.4089L105.081 12.2559Z" fill="#E6C100"/>
<path fill-rule="evenodd" clip-rule="evenodd" d="M168.007 74.5488H224.015V82.1781C224.015 91.9661 208.401 101.044 196.218 100.956C180.294 100.808 168.007 91.3304 168.007 82.5478V74.5488Z" fill="#C6E8FF"/>
<path fill-rule="evenodd" clip-rule="evenodd" d="M112 74.5488H168.007V82.1781C168.007 91.9661 151.965 100.142 139.782 100.039C123.843 99.9059 112 91.3304 112 82.5478V74.5488Z" fill="#C5A607"/>
<path fill-rule="evenodd" clip-rule="evenodd" d="M56.0074 74.5488H112V82.1781C112 91.9661 95.6473 99.3736 83.4641 99.2701C67.5253 99.1371 56.0074 91.3304 56.0074 82.5478V74.5488Z" fill="#C6E8FF"/>
<path fill-rule="evenodd" clip-rule="evenodd" d="M0 74.5488H56.0074V82.1781C56.0074 91.9661 39.7434 99.2406 27.5306 99.1371C11.6066 99.0632 0 91.3304 0 82.5478V74.5488Z" fill="#C5A607"/>
<path fill-rule="evenodd" clip-rule="evenodd" d="M224.015 12.2559H263.669C266.41 22.6353 269.135 33.0196 271.846 43.4089C274.556 53.7981 277.277 64.1775 280.007 74.5471H224.015V12.2559Z" fill="#E6C100"/>
<path fill-rule="evenodd" clip-rule="evenodd" d="M263.669 12.2559H303.324C308.765 22.6353 314.186 33.0196 319.588 43.4089C324.99 53.7981 330.441 64.1775 335.941 74.5471H280.007C277.307 64.1677 274.586 53.7883 271.846 43.4089C269.106 33.0295 266.38 22.6451 263.669 12.2559Z" fill="#E8F5FC"/>
<path fill-rule="evenodd" clip-rule="evenodd" d="M303.324 12.2559H342.934C351.116 22.6353 359.282 33.0196 367.434 43.4089L391.948 74.5471H336C330.559 64.1677 325.108 53.7883 319.647 43.4089C314.187 33.0295 308.765 22.6451 303.383 12.2559" fill="#E6C100"/>
<path fill-rule="evenodd" clip-rule="evenodd" d="M342.934 12.2559H382.574L415.235 43.4089L448 74.5471H391.948L367.434 43.4089C359.253 33.0295 351.086 22.6451 342.934 12.2559Z" fill="#E8F5FC"/>
<path fill-rule="evenodd" clip-rule="evenodd" d="M280.007 74.5488H224.015V82.1781C224.015 91.9661 236.302 101.591 251.885 101.399C267.809 101.133 279.978 91.3895 279.978 82.6069L280.007 74.5488Z" fill="#C5A607"/>
<path fill-rule="evenodd" clip-rule="evenodd" d="M336.015 74.5488H280.007V82.1781C280.007 91.9661 291.584 101.207 308.721 101.207C324.645 101.207 336.015 91.3304 336.015 82.5478V74.5488Z" fill="#C6E8FF"/>
<path fill-rule="evenodd" clip-rule="evenodd" d="M392.022 74.5488H336.015V82.1781C336.015 91.9661 347.252 100.823 364.388 100.69C380.312 100.571 392.022 91.3304 392.022 82.5478V74.5488Z" fill="#C5A607"/>
<path fill-rule="evenodd" clip-rule="evenodd" d="M448 74.5488H392.022V82.1781C392.022 91.9661 404.723 100.956 420.573 100.956C436.423 100.956 448 91.3304 448 82.5478V74.5488Z" fill="#C6E8FF"/>
</svg>
