<svg width="56" height="56" viewBox="0 0 56 56" fill="none" xmlns="http://www.w3.org/2000/svg">
<path d="M10.037 22.8888C9.8537 22.5211 9.56375 22.2178 9.20381 21.9901C8.82833 21.7601 8.38507 21.5991 7.87849 21.5035C7.36303 21.4102 6.76758 21.368 6.0777 21.3613L2.89272 21.3636C2.56167 21.368 2.23728 21.6257 2.15952 21.9457L0.0165652 31.2796C-0.0611987 31.5951 0.146542 31.8595 0.477594 31.8595H2.00288C2.33393 31.8595 2.66165 31.6028 2.73497 31.2796L3.25821 29.0133C3.3282 28.6978 3.6548 28.4345 3.98919 28.4345H4.42578C6.291 28.4323 7.73519 28.0512 8.77278 27.288C9.81593 26.5237 10.3303 25.5139 10.3303 24.263C10.3292 23.7154 10.2392 23.2554 10.037 22.8888ZM6.74758 25.9383C6.28656 26.276 5.64556 26.4449 4.81904 26.4449H4.44577C4.11361 26.4449 3.91031 26.1827 3.98252 25.8627L4.44133 23.8809C4.50576 23.5632 4.84015 23.2999 5.16787 23.3021L5.66778 23.2988C6.25101 23.2988 6.69648 23.3999 6.99421 23.5954C7.2886 23.7887 7.43635 24.0964 7.43413 24.5041C7.44302 25.124 7.20639 25.6006 6.74758 25.9383Z" fill="#505050"/>
<path d="M53.5182 22.093L53.4227 22.1218L53.295 22.1396L53.1383 22.1152L53.0583 22.0374L53.0217 21.9152L53.0194 21.7319V21.0531H53.5294V20.8432H53.0194V20.4199H52.7673V20.8432H52.5962V21.0531H52.7673V21.843L52.885 22.234L53.2316 22.3585L53.3772 22.3462L53.5316 22.3162V22.093H53.5182Z" fill="#505050"/>
<path d="M55.8833 20.9508L55.5189 20.8008L55.2501 20.8552L54.9768 21.0396L54.8179 20.863L54.5602 20.8019L54.3125 20.8563L54.0781 21.0074V20.843H53.8303V22.3261H54.0769V21.2185L54.2847 21.0896L54.4913 21.0385L54.6602 21.0685L54.7435 21.1541L54.7802 21.2962L54.7924 21.4795V22.3272H55.0401V21.3785L55.0357 21.2996L55.0312 21.2274L55.2423 21.0929L55.4511 21.0407L55.6144 21.0707L55.7033 21.1563L55.7344 21.2996L55.7511 21.4807V22.3283H55.9999V21.3651L55.8833 20.9508Z" fill="#505050"/>
<path d="M17.3925 24.2239C16.817 23.8995 15.9083 23.7373 14.6663 23.7373C14.052 23.7373 13.4398 23.7851 12.8211 23.8806C12.3645 23.9506 12.32 23.9639 12.039 24.025C11.4591 24.1517 11.368 24.7305 11.368 24.7305L11.1814 25.4981C11.0758 25.988 11.358 25.9691 11.4758 25.928C11.729 25.8525 11.8701 25.7747 12.3878 25.6592C12.8822 25.547 13.4032 25.4626 13.8164 25.4681C14.4263 25.4681 14.8929 25.5325 15.204 25.6636C15.5106 25.7969 15.6639 26.0258 15.6639 26.3568L15.6372 26.5724L15.4173 26.7079C14.5519 26.7623 13.9264 26.8423 13.1677 26.9523C12.4256 27.0556 11.7746 27.2367 11.2336 27.4844C10.6526 27.7399 10.2215 28.0832 9.92048 28.5198C9.62942 28.9586 9.48389 29.4907 9.48389 30.1151C9.48389 30.7027 9.69496 31.1882 10.1049 31.5637C10.517 31.9325 11.0614 32.1125 11.7124 32.1125C12.1245 32.1103 12.4434 32.078 12.67 32.0236L13.4087 31.7692L14.0342 31.4226L14.6096 31.0427L14.6174 31.0538L14.5596 31.2982L14.5563 31.3082V31.3104C14.4941 31.6081 14.6741 31.8525 14.964 31.8814L14.9696 31.8881H14.9962H16.166H16.386L16.406 31.8792C16.7104 31.8436 16.9959 31.5992 17.0625 31.3082L18.1746 26.4946L18.2323 26.1024L18.259 25.7347C18.2634 25.0526 17.969 24.5472 17.3925 24.2239ZM14.9329 29.6363L14.6952 29.9495L14.0953 30.2595C13.8131 30.3739 13.5454 30.4317 13.2977 30.4317C12.9222 30.4317 12.6278 30.3772 12.4289 30.2661L12.1345 29.694C12.1345 29.3841 12.2056 29.1386 12.3578 28.9497L13.0044 28.5098C13.281 28.4165 13.6187 28.3376 14.0097 28.2832C14.3586 28.2398 15.0473 28.161 15.1373 28.1587L15.2429 28.3443C15.2218 28.4498 15.0262 29.2674 14.9329 29.6363Z" fill="#505050"/>
<path d="M45.0963 24.2299C44.5175 23.9055 43.6099 23.7422 42.3713 23.7422C41.7569 23.7422 41.1437 23.79 40.5271 23.8888C40.0695 23.9555 40.0239 23.9699 39.7417 24.0299C39.1629 24.1554 39.073 24.7365 39.073 24.7365L38.8863 25.503C38.7819 25.9929 39.0574 25.9707 39.1863 25.9329C39.4407 25.8574 39.5773 25.7829 40.0906 25.663C40.5827 25.5519 41.1082 25.4697 41.5225 25.4719C42.1302 25.4719 42.5968 25.5374 42.9067 25.6685C43.2156 25.8018 43.3666 26.0329 43.3666 26.3606L43.3433 26.575L43.1256 26.7139C42.2513 26.7661 41.6247 26.8461 40.8738 26.9561C40.1339 27.0594 39.4807 27.2393 38.9385 27.4882C38.3598 27.7448 37.9232 28.0881 37.6254 28.5258C37.3311 28.9646 37.1877 29.4956 37.1877 30.1144C37.1877 30.7065 37.3966 31.192 37.8121 31.5652C38.2264 31.933 38.7652 32.1174 39.4162 32.1174C39.8262 32.1129 40.145 32.0863 40.3727 32.0274L41.1093 31.7763L41.7403 31.4297L42.3113 31.0453L42.3213 31.0576L42.2691 31.3042L42.2635 31.3086L42.2657 31.3131C42.1969 31.6108 42.3779 31.8574 42.6712 31.8841L42.6734 31.8896H42.7001C42.8923 31.8896 43.5566 31.8896 43.8732 31.8896H44.0887L44.1121 31.8818C44.4131 31.8452 44.6975 31.6008 44.7608 31.3064L45.8762 26.4995L45.9351 26.1051L45.9673 25.7363C45.9684 25.0564 45.6773 24.5532 45.0963 24.2299ZM42.6423 29.6422L42.3946 29.9589L41.8003 30.2666C41.5181 30.3799 41.2492 30.4388 41.006 30.4388C40.6182 30.4388 40.3316 30.3832 40.1383 30.2721L39.8406 29.7022C39.8406 29.3912 39.9128 29.1479 40.0583 28.9557C40.2061 28.7746 40.4316 28.6258 40.7116 28.5169C40.9848 28.4236 41.3226 28.348 41.7158 28.2914C42.0624 28.2481 42.749 28.167 42.8378 28.1658L42.9456 28.3514C42.9301 28.4569 42.7334 29.2712 42.6423 29.6422Z" fill="#505050"/>
<path d="M37.7366 22.9241C37.5455 22.5542 37.2589 22.2554 36.8967 22.0221C36.5257 21.791 36.0857 21.6288 35.5714 21.5355C35.0659 21.4455 34.4627 21.3966 33.7773 21.3955L30.5878 21.3977C30.2557 21.4033 29.9368 21.661 29.8602 21.9776L27.715 31.316C27.6373 31.6326 27.8505 31.8947 28.1749 31.8947L29.7024 31.8925C30.0268 31.8947 30.359 31.6348 30.4356 31.3148L30.9522 29.0475C31.0278 28.732 31.3555 28.4665 31.6854 28.4687H32.122C33.9895 28.4687 35.437 28.0843 36.479 27.3233C37.5088 26.5535 38.0298 25.5459 38.0298 24.2939C38.0243 23.7484 37.9299 23.2874 37.7366 22.9241ZM34.4471 25.978C33.9872 26.3091 33.3451 26.4779 32.523 26.4779H32.1431C31.8154 26.4813 31.6032 26.2146 31.6765 25.8969L32.1387 23.9184C32.2064 23.6018 32.5375 23.3363 32.8674 23.3396L33.3618 23.3363C33.9483 23.3396 34.3883 23.4363 34.6882 23.6318C34.9871 23.8273 35.1281 24.1339 35.1315 24.5405C35.1348 25.1604 34.9048 25.6381 34.4471 25.978Z" fill="#505050"/>
<path d="M50.8153 22.0518C50.8853 21.733 50.6853 21.4741 50.3576 21.4786H48.9912C48.7112 21.4786 48.4591 21.6863 48.3358 21.9418L48.2602 22.0596L48.1913 22.3617L46.2817 31.0424L46.2195 31.309L46.2217 31.3157C46.1584 31.6012 46.3339 31.8167 46.605 31.8578L46.6283 31.89H48.0469C48.3246 31.89 48.5857 31.679 48.7046 31.419L48.7779 31.3079L50.8198 22.0529L50.8153 22.0518Z" fill="#505050"/>
<path d="M27.7573 23.8536C27.3963 23.8581 25.9287 23.8536 25.9287 23.8536C25.5999 23.8536 25.1778 24.1192 24.9689 24.4358C24.9689 24.4358 22.7849 28.184 22.5727 28.5606L22.3194 28.5572L21.6395 24.4613C21.564 24.1391 21.2274 23.8636 20.8086 23.8636L19.4421 23.8659C19.1133 23.8659 18.9111 24.128 18.9855 24.448C18.9855 24.448 20.0231 30.3525 20.2309 31.7422C20.3275 32.5088 20.2187 32.6454 20.2187 32.6454L18.8678 34.9983C18.6678 35.3183 18.7756 35.5793 19.1033 35.5793L20.683 35.5771C21.0118 35.5771 21.444 35.3183 21.6395 34.9972L27.7162 24.719C27.7162 24.7202 28.3005 23.8414 27.7573 23.8536Z" fill="#505050"/>
</svg>
