<svg width="21" height="24" viewBox="0 0 21 24" fill="none" xmlns="http://www.w3.org/2000/svg">
<path d="M10.2856 11.4285C7.13476 11.4285 4.57129 8.86523 4.57129 5.71435C4.57129 2.56348 7.13476 0 10.2856 0C13.4365 0 16 2.56348 16 5.71435C16 8.86523 13.4365 11.4285 10.2856 11.4285ZM10.2856 1.71428C8.08001 1.71428 6.28557 3.50851 6.28557 5.71435C6.28557 7.91999 8.08001 9.71421 10.2856 9.71421C12.4913 9.71421 14.2857 7.91999 14.2857 5.71435C14.2857 3.50851 12.4913 1.71428 10.2856 1.71428Z" fill="#505050"/>
<path d="M19.7143 24.0001H0.857142C0.383998 24.0001 0 23.6161 0 23.1429V19.1429C0 16.1498 2.43541 13.7144 5.4285 13.7144H15.1429C18.136 13.7144 20.5714 16.1498 20.5714 19.1429V23.1429C20.5714 23.6161 20.1874 24.0001 19.7143 24.0001ZM1.71428 22.2858H18.8571V19.1429C18.8571 17.095 17.1908 15.4286 15.1429 15.4286H5.4285C3.38065 15.4286 1.71428 17.095 1.71428 19.1429V22.2858Z" fill="#505050"/>
</svg>
