<svg width="19" height="28" viewBox="0 0 19 28" fill="none" xmlns="http://www.w3.org/2000/svg">
<path d="M8.46119 21.4016L9.00061 21.8889L9.63017 21.5247L12.9843 19.5845C13.0688 19.5356 13.1794 19.5441 13.2473 19.5902L13.2472 19.5903L13.2574 19.597C14.4837 20.4083 15.8078 21.0177 17.1746 21.4432L17.1934 21.4491L17.2125 21.4542C17.247 21.4635 17.3013 21.4933 17.3466 21.5719C17.3877 21.6433 17.3912 21.7099 17.3767 21.7642L16.2426 26.0048L16.2407 26.012L16.2389 26.0192C16.2323 26.0451 16.2206 26.0693 16.2045 26.0903C16.1884 26.1114 16.1682 26.1289 16.1451 26.1418L16.1387 26.1453L16.1323 26.149C16.0653 26.1878 16.0023 26.193 15.9497 26.1809C11.1591 24.7504 6.8796 21.5582 4.17997 16.8733C1.48034 12.1885 0.860839 6.87905 2.01972 2.00711C2.03555 1.95542 2.07146 1.9034 2.13852 1.86461C2.20902 1.82383 2.27493 1.82023 2.3291 1.83478L6.56163 2.97105C6.61583 2.9856 6.67166 3.02194 6.71281 3.09334C6.74628 3.15142 6.75678 3.22761 6.7405 3.29629L6.74048 3.29628L6.73907 3.30241C6.41138 4.72412 6.29099 6.18586 6.38163 7.64209L6.3816 7.64209L6.38218 7.6503C6.38544 7.69664 6.37558 7.7428 6.35388 7.78351C6.33218 7.82421 6.2995 7.85786 6.25964 7.88067L6.25574 7.88293L2.9016 9.82315L2.27751 10.1842L2.42186 10.8909C2.82425 12.8611 3.56138 14.7986 4.61271 16.623C5.66423 18.4478 6.96899 20.0535 8.46119 21.4016Z" stroke="#323232" stroke-width="2"/>
</svg>
