<svg width="19" height="26" viewBox="0 0 19 26" fill="none" xmlns="http://www.w3.org/2000/svg">
<path fill-rule="evenodd" clip-rule="evenodd" d="M9.27301 6.28564C7.90669 6.28564 6.79907 7.37295 6.79907 8.71422C6.79907 10.0555 7.90669 11.1428 9.27301 11.1428C10.6393 11.1428 11.7469 10.0555 11.7469 8.71422C11.7469 7.37295 10.6393 6.28564 9.27301 6.28564ZM4.76172 8.71422C4.76172 6.26838 6.78149 4.28564 9.27301 4.28564C11.7645 4.28564 13.7843 6.26838 13.7843 8.71422C13.7843 11.16 11.7645 13.1428 9.27301 13.1428C6.78149 13.1428 4.76172 11.16 4.76172 8.71422Z" fill="#505050"/>
<path fill-rule="evenodd" clip-rule="evenodd" d="M9.27245 2C4.72244 2 0.908694 6.44665 3.22355 11.7489C4.51178 14.6997 6.23722 17.8775 7.64896 20.3294C8.27735 21.4208 8.84104 22.3639 9.27245 23.0735C9.70386 22.3639 10.2676 21.4208 10.8959 20.3294C12.3077 17.8775 14.0331 14.6997 15.3214 11.7489C17.6362 6.44665 13.8225 2 9.27245 2ZM9.27245 25C8.40862 25.53 8.40857 25.5299 8.4085 25.5298L8.39495 25.5085L8.35679 25.4481C8.32343 25.3953 8.27448 25.3174 8.21143 25.2165C8.08534 25.0148 7.90283 24.7207 7.67586 24.3493C7.22203 23.6068 6.58989 22.5546 5.87532 21.3135C4.44932 18.8368 2.68214 15.586 1.35092 12.5368C-1.57314 5.83906 3.34463 0 9.27245 0C15.2003 0 20.1181 5.83906 17.194 12.5368C15.8628 15.586 14.0956 18.8368 12.6696 21.3135C11.955 22.5546 11.3229 23.6068 10.869 24.3493C10.6421 24.7207 10.4596 25.0148 10.3335 25.2165C10.2704 25.3174 10.2215 25.3953 10.1881 25.4481L10.15 25.5085L10.1366 25.5295C10.1366 25.5296 10.1363 25.53 9.27245 25ZM9.27245 25L10.1366 25.5295C9.95047 25.8219 9.62368 26 9.27245 26C8.92122 26 8.59465 25.8222 8.4085 25.5298L9.27245 25Z" fill="#505050"/>
</svg>
