<svg width="25" height="24" viewBox="0 0 25 24" fill="none" xmlns="http://www.w3.org/2000/svg">
<g clip-path="url(#clip0)">
<path d="M21.3768 24H2.87693C1.35991 24 0.127075 22.767 0.127075 21.2502V6.75022C0.127075 5.2332 1.35991 4.00037 2.87693 4.00037H6.37695C6.79095 4.00037 7.12695 4.33636 7.12695 4.75036C7.12695 5.16436 6.79095 5.50035 6.37695 5.50035H2.87693C2.18791 5.50035 1.62706 6.0612 1.62706 6.75022V21.2502C1.62706 21.939 2.18791 22.5001 2.87693 22.5001H21.3768C22.0658 22.5001 22.6269 21.939 22.6269 21.2502V12.7502C22.6269 12.3362 22.9628 12.0002 23.3768 12.0002C23.7908 12.0002 24.1268 12.3362 24.1268 12.7502V21.2502C24.1268 22.767 22.8938 24 21.3768 24Z" fill="black"/>
<path d="M6.8756 15.9871C6.82067 15.9871 6.76556 15.9811 6.71063 15.967C6.3717 15.8881 6.12671 15.5981 6.12671 15.2502V13.7502C6.12671 8.37425 10.5007 4.00027 15.8766 4.00027H16.1266V0.750177C16.1266 0.444211 16.3126 0.169189 16.5966 0.0541999C16.8795 -0.0596905 17.2045 0.00915639 17.4165 0.230163L23.9165 6.9801C24.1965 7.27013 24.1965 7.73009 23.9165 8.02012L17.4165 14.7701C17.2045 14.9911 16.8775 15.0592 16.5966 14.946C16.3126 14.831 16.1266 14.556 16.1266 14.25V11.0001H14.9386C11.7927 11.0001 8.96555 12.748 7.55968 15.5611C7.43059 15.8211 7.1596 15.9871 6.8756 15.9871ZM15.8766 5.50025C11.6766 5.50025 8.19871 8.65513 7.68968 12.72C9.50754 10.6922 12.1146 9.50015 14.9386 9.50015H16.8766C17.2906 9.50015 17.6266 9.83615 17.6266 10.2501V12.3901L22.3354 7.50011L17.6266 2.61014V4.75026C17.6266 5.16426 17.2906 5.50025 16.8766 5.50025H15.8766Z" fill="black"/>
</g>
<defs>
<clipPath id="clip0">
<rect x="0.126709" width="24" height="24" fill="white"/>
</clipPath>
</defs>
</svg>
