<svg width="17" height="17" viewBox="0 0 17 17" fill="none" xmlns="http://www.w3.org/2000/svg">
<path d="M1.92114 7.98673L1.90001 13.6704H1.9V13.6745C1.9 14.0328 2.0358 14.4065 2.32037 14.6822C2.5966 14.9657 2.96977 15.1 3.32644 15.1L3.3305 15.1L9.00116 15.079L8.99638 15.1H10.3751H13.6352C14.9336 15.1 15.5979 13.5273 14.6694 12.6014L13.5967 11.5318C13.5459 11.4605 13.4892 11.3936 13.4271 11.3317C13.427 11.3316 13.4269 11.3315 13.4268 11.3314L7.1506 5.07285L7.15059 5.07284L4.39824 2.32818L1.92114 7.98673ZM1.92114 7.98673L1.9 7.99151V6.61467V3.36377C1.9 2.05466 3.48003 1.41252 4.39821 2.32816L1.92114 7.98673ZM2.84472 3.88594L2.84475 3.88597C2.84474 3.88595 2.84474 3.88595 2.84472 3.88594ZM5.99616 9.97359L7.03468 11.0092H5.99616V9.97359Z" stroke="#242424" stroke-width="2.2"/>
</svg>
