<svg width="514" height="431" viewBox="0 0 514 431" fill="none" xmlns="http://www.w3.org/2000/svg">
<path d="M452.513 266.974C455.612 266.974 458.712 267.284 460.882 269.454C462.122 270.694 462.432 272.864 462.742 274.414C465.531 287.432 468.011 304.171 470.801 319.05C472.351 327.109 466.151 334.548 458.092 334.548C385.559 335.788 320.155 333.308 247.311 335.168C185.627 337.028 116.813 337.028 55.4384 340.128C52.6487 340.128 49.549 340.128 47.6891 338.268C46.4493 337.028 46.1393 335.168 45.8293 333.618C43.0396 319.05 45.8293 299.211 46.4493 284.333C47.0692 267.904 50.1689 268.834 65.6675 267.904C97.2847 266.044 125.492 267.904 157.109 266.664C220.034 264.185 283.268 263.565 346.192 264.185C381.839 264.804 417.176 265.734 452.513 266.974Z" fill="#E6C100"/>
<path d="M30.6407 332.378C130.142 323.389 230.263 329.899 330.074 327.419C363.241 326.489 395.788 324.939 428.645 325.559C450.963 325.869 475.451 328.659 497.459 324.319C499.008 324.009 498.698 322.459 497.149 322.769C471.731 328.039 442.594 324.319 416.866 323.699C383.079 323.079 349.602 325.559 315.815 325.869C220.964 327.419 125.802 322.149 31.2606 330.519C29.7108 330.829 29.0908 332.378 30.6407 332.378Z" fill="white"/>
<path d="M67.2175 143.908C66.9075 143.288 66.9075 142.668 66.2876 142.048C65.6677 141.428 64.7377 141.428 64.1178 141.428H58.8483C52.6488 141.428 49.2391 136.159 49.2391 130.269C49.2391 127.789 49.2391 125.62 49.2391 123.14C49.2391 121.59 49.2391 120.04 50.1691 118.8C51.099 117.25 52.9588 116.321 54.5087 115.701C66.2876 110.431 78.9965 107.331 92.0153 105.781C95.115 105.472 97.9047 107.641 98.5247 110.431C99.1446 113.841 99.7646 117.56 100.385 120.97C100.694 123.45 101.004 126.24 99.7646 128.409C97.5948 132.749 94.805 134.609 89.8455 135.229C90.4654 146.078 89.5355 156.307 92.3252 167.156C92.0153 165.296 71.2471 173.355 69.6973 173.355C66.9075 164.986 69.6973 153.827 67.2175 143.908Z" fill="#FF8C7F"/>
<path d="M374.09 68.2805C375.64 68.2805 377.499 68.5905 379.049 69.5204C381.219 70.7603 382.459 73.24 382.459 75.7198C386.489 124.385 384.319 145.154 383.389 194.749C383.389 202.498 379.979 203.738 379.049 205.288C377.499 207.148 369.44 207.458 367.27 207.768C312.095 213.037 261.26 209.008 204.225 205.598C194.306 204.978 158.659 206.528 149.05 208.078C139.441 209.938 136.341 204.978 136.031 201.258C133.861 175.221 133.242 149.183 133.242 123.146C133.242 109.197 126.422 74.4799 141.611 66.1107C149.98 61.7711 163.309 63.9409 172.298 63.9409C185.007 63.6309 198.026 63.6309 210.735 63.6309C236.462 63.6309 262.19 63.9409 287.608 64.5608C316.435 65.4907 345.262 66.7306 374.09 68.2805Z" fill="#C7E7EF"/>
<path d="M349.602 84.7103C353.942 85.0203 360.141 84.4004 362.931 87.1901C366.34 90.2898 365.101 96.4893 365.411 101.139C366.65 129.346 367.58 157.864 368.82 186.071C368.82 187.001 368.82 188.241 368.2 189.171C367.27 190.411 365.721 190.411 364.481 190.721C330.384 193.511 300.626 195.68 266.529 192.581C233.362 189.791 196.786 191.341 157.419 192.271C155.25 192.271 153.39 190.411 153.39 188.241C153.39 175.222 151.84 151.974 151.22 129.656C150.91 117.567 143.781 85.0203 151.84 81.6106C157.419 79.4408 170.748 80.3707 178.497 80.0608C189.346 79.4408 200.195 79.1308 211.354 78.8209C232.743 78.5109 254.441 79.1308 275.829 80.0608C300.006 81.6106 324.804 83.1605 349.602 84.7103Z" fill="white"/>
<path d="M206.395 231.638C198.025 234.428 187.486 234.118 175.397 235.667C174.158 235.667 172.918 235.358 171.988 235.977C170.748 236.597 170.438 238.457 170.438 240.007C169.818 250.856 171.058 256.436 173.538 266.975C225.923 269.454 278.928 271.934 330.693 263.875C331.313 259.845 332.243 254.266 333.173 249.306C334.413 244.037 331.003 238.767 325.424 237.837C317.675 236.597 310.235 235.977 302.176 234.428C301.246 224.199 299.696 212.73 302.486 202.81C279.238 200.951 258.16 200.641 234.912 199.401C229.023 199.091 207.635 194.751 203.605 199.401C200.815 202.81 207.944 231.328 206.395 231.638Z" fill="#C7E7EF"/>
<path d="M234.602 213.038C234.292 212.418 233.982 211.488 234.292 210.868C234.602 209.628 236.152 209.318 237.392 209.318C249.481 208.388 261.57 207.458 273.659 207.148C274.279 207.148 275.209 207.148 275.829 207.458C276.759 208.078 276.758 209.318 276.758 210.558C276.449 217.068 274.899 223.577 274.279 230.086C272.419 244.035 273.659 257.984 277.688 271.313C266.219 272.243 241.112 279.682 238.942 263.563C236.772 246.205 241.732 230.396 234.602 213.038Z" fill="#FF8C7F"/>
<path d="M136.031 154.452H135.721C134.481 154.142 133.861 153.212 133.861 151.972C135.101 145.153 140.681 140.193 144.71 136.474L186.866 97.1073L188.416 99.2771C198.645 116.326 211.664 131.824 226.543 145.153C242.351 125.005 259.09 105.167 276.448 86.2582L277.998 84.7084L298.456 103.927C299.696 105.167 300.936 106.096 302.176 106.406C303.726 106.406 305.276 105.476 306.826 103.927L347.742 71.0696C357.351 63.6303 366.96 55.881 374.709 46.2718C375.329 45.3419 376.879 45.032 377.809 45.9619C378.739 46.5818 379.049 48.1317 378.119 49.0616C370.06 58.9807 360.141 67.04 350.532 74.4793L309.925 107.026C308.375 108.266 305.586 110.746 302.176 110.436C299.386 110.126 297.216 108.266 295.667 106.716L278.308 90.5978C261.26 109.506 244.521 129.344 228.713 149.493L227.163 151.352L225.303 149.802C209.804 136.474 196.476 120.975 185.937 103.617L147.5 139.263C142.85 143.603 139.131 147.633 138.201 152.592C137.891 153.522 136.961 154.452 136.031 154.452Z" fill="#F25A29"/>
<path d="M340.613 333.926C339.993 324.007 345.572 314.398 353.012 307.888C360.451 301.379 369.75 297.039 378.739 293.01C401.987 282.161 426.785 268.212 435.464 244.034C438.874 234.735 439.184 224.506 439.804 214.587C440.734 192.269 441.354 173.361 442.284 151.043C430.815 149.803 421.516 150.113 410.357 151.353C416.246 159.722 413.766 164.681 410.667 174.6C405.707 189.479 408.187 202.808 397.338 216.757C393.928 221.096 386.799 227.296 382.459 230.395C365.411 242.794 331.004 236.905 317.055 252.713C313.335 256.743 309.926 261.393 304.656 262.013C301.866 262.323 298.767 261.393 295.977 260.773C275.209 254.883 253.511 253.023 232.123 255.193C226.233 255.813 220.344 256.743 214.764 254.263C211.045 252.713 208.255 249.614 204.845 247.444C184.697 234.115 154.94 249.614 134.481 236.905C128.592 233.495 124.252 227.916 120.533 222.336C106.274 201.258 98.8347 175.53 99.4546 149.803C85.5059 151.043 71.8671 153.832 58.5383 158.482C59.7782 163.751 61.638 169.331 62.258 174.6C64.4278 196.918 69.0774 219.546 79.3065 239.695C89.5355 259.843 105.964 277.201 126.732 285.88C138.201 290.53 152.15 293.32 158.349 304.169C162.999 312.228 162.069 322.767 167.648 330.206C219.414 341.985 270.249 331.446 323.254 331.446C331.004 331.756 333.174 334.546 340.613 333.926Z" fill="#1B2C3E"/>
<path d="M230.573 239.075C243.281 237.525 260.95 239.385 271.179 238.455C274.589 238.145 278.308 237.835 281.718 239.075C286.368 240.625 288.847 244.654 291.327 248.374C294.117 252.714 296.907 257.053 299.696 261.393C277.688 260.463 254.44 260.153 232.122 260.463C217.864 260.773 212.594 263.253 212.594 260.153C213.524 258.913 221.583 240.315 230.573 239.075Z" fill="#E6C100"/>
<path d="M414.076 141.124C409.117 140.504 404.157 138.025 402.297 133.685C399.817 128.106 403.227 121.286 408.187 117.876C413.146 114.467 419.656 113.537 425.545 112.917C429.885 112.297 448.173 113.847 449.723 116.637C453.133 122.216 451.893 129.655 450.343 133.375C449.103 136.785 441.664 138.025 441.354 138.025C437.944 138.645 441.354 150.114 441.044 153.833C440.734 160.653 435.774 157.863 435.154 164.682C430.195 163.752 421.515 165.302 419.036 159.723C417.176 154.763 416.246 141.434 414.076 141.124Z" fill="#FF8C7F"/>
<path d="M96.3547 146.703C97.5946 146.393 99.1445 146.393 100.074 147.323C100.694 147.943 101.004 148.873 101.004 149.803C101.934 154.452 101.934 159.412 101.624 164.371C88.2955 165.301 75.8966 169.951 63.8077 175.53C62.2578 176.15 60.708 176.77 59.1581 175.84C58.5381 175.53 58.2282 174.91 57.9182 174.29C56.6783 171.811 49.8589 162.822 50.7888 160.342C52.0287 157.242 61.9478 155.692 65.0476 154.762C75.2766 151.043 85.8157 148.563 96.3547 146.703Z" fill="#C7E7EF"/>
<path d="M417.486 148.87C426.165 148.56 439.494 148.25 448.793 149.8C450.653 150.11 451.893 151.66 451.893 153.52C451.893 156.93 450.963 160.649 450.343 163.749C450.033 164.369 450.033 165.299 449.413 165.609C449.103 165.919 448.483 165.919 447.863 165.609C432.365 164.059 425.235 165.609 411.596 166.849C409.427 167.159 407.257 165.609 406.637 163.439C402.917 148.87 407.257 149.49 417.486 148.87Z" fill="#C7E7EF"/>
<path d="M162.379 394.371C158.969 392.202 146.26 320.908 154.01 319.358C161.759 317.808 347.122 310.989 350.842 320.288C354.562 329.587 349.292 389.412 344.642 391.582C339.993 394.061 168.888 398.711 162.379 394.371Z" fill="#C7E7EF"/>
<path d="M275.208 102.688C274.279 103.618 272.109 105.478 270.869 105.478C269.939 105.478 268.699 105.168 267.769 104.548C261.26 101.138 258.16 93.3891 256.61 86.2598C253.51 93.3891 250.101 101.138 251.961 108.578C245.761 103.928 242.661 101.758 240.492 94.629C239.562 102.068 238.322 106.098 239.562 113.227C232.122 104.858 222.513 102.998 211.354 102.688C216.004 108.888 216.934 112.607 221.583 118.807C212.904 117.257 207.015 120.667 198.955 123.766C207.015 123.766 211.044 126.866 215.074 133.685C206.085 134.925 201.745 139.885 194.306 145.154C199.575 144.225 204.535 149.494 206.705 154.454C209.184 159.413 209.494 160.653 209.184 166.233C204.535 169.332 197.715 173.672 196.476 179.251C198.955 177.392 206.705 181.731 209.184 183.591C211.664 185.451 213.214 188.551 215.074 191.03C219.104 197.85 220.343 201.569 225.923 207.149C231.812 213.348 242.041 218.928 244.831 219.858C249.171 221.098 255.68 223.887 258.16 227.917C260.64 222.957 263.43 221.408 268.699 218.308C272.729 215.828 281.718 210.869 284.508 206.839C286.987 203.429 296.907 188.551 301.246 188.86C299.076 186.071 298.766 184.211 295.357 183.281C300.936 179.871 301.556 179.251 306.516 178.941C311.475 178.631 312.405 179.561 317.055 178.941C314.265 175.222 311.165 167.782 306.826 166.852C307.446 160.653 312.715 158.483 318.295 156.003C313.645 155.074 310.235 150.114 305.896 149.184C304.966 148.874 304.656 148.254 304.036 147.324C303.416 146.704 302.486 144.225 302.176 142.985C301.246 134.615 300.936 132.756 306.516 126.556C301.866 126.866 297.526 125.936 294.117 128.726C291.017 120.357 295.667 112.917 303.726 109.818C296.907 109.818 291.017 109.198 285.128 112.917C282.958 107.028 282.338 102.688 285.128 96.7988C280.478 99.5886 278.618 99.5886 275.208 102.688Z" fill="#1B2C3E"/>
<path d="M115.573 241.56C122.393 236.601 129.832 234.121 138.201 233.811C138.821 233.811 140.991 232.881 139.751 232.881C130.142 233.191 121.153 235.981 113.093 241.87C112.783 242.18 114.953 241.87 115.573 241.56Z" fill="white"/>
<path d="M108.754 235.354C116.813 230.394 125.492 227.605 135.101 227.295C136.031 227.295 137.891 226.055 136.031 226.055C125.802 226.365 115.883 229.464 107.204 235.044C105.654 235.664 107.824 235.974 108.754 235.354Z" fill="white"/>
<path d="M384.319 218.004C393.618 218.004 401.677 221.413 408.186 227.923C408.806 228.543 411.286 227.613 410.666 226.993C403.847 220.173 394.858 216.764 385.249 216.764C384.319 216.454 382.769 218.004 384.319 218.004Z" fill="white"/>
<path d="M396.718 208.389C401.677 210.558 406.327 213.038 410.356 216.448C411.286 217.068 413.456 215.828 412.216 214.898C407.876 211.488 402.917 208.699 397.957 206.529C397.027 206.219 395.168 207.769 396.718 208.389Z" fill="white"/>
<path d="M234.602 123.457C235.532 124.387 235.842 125.627 235.842 126.867C235.842 129.036 239.562 128.107 239.562 126.247C239.562 124.387 238.942 122.837 237.702 121.287C236.462 119.737 233.362 122.217 234.602 123.457Z" fill="#40505E"/>
<path d="M245.761 119.734C246.071 120.354 246.381 121.284 246.691 121.904C247.001 123.764 250.721 122.834 250.411 120.974C250.101 120.044 249.791 119.114 249.171 118.184C248.241 116.635 244.831 117.874 245.761 119.734Z" fill="#40505E"/>
<path d="M228.713 130.276C228.403 131.825 227.783 133.065 227.473 134.615C227.163 135.855 229.953 138.645 230.263 136.785C230.573 135.545 230.883 134.305 231.193 133.065C231.502 132.135 230.883 131.206 230.573 130.586C230.263 130.586 229.023 129.656 228.713 130.276Z" fill="#40505E"/>
<path d="M216.004 139.264C215.074 141.124 215.384 142.674 216.004 144.534C216.934 146.393 219.724 146.084 218.484 143.604C218.174 142.984 218.174 142.364 218.484 141.744C219.724 140.194 216.934 137.714 216.004 139.264Z" fill="#40505E"/>
<path d="M225.923 149.802C225.613 151.972 225.923 153.522 227.473 155.071C229.023 156.621 231.812 155.071 230.263 153.212C229.643 152.592 229.643 151.972 229.643 151.042C229.953 148.872 226.233 147.942 225.923 149.802Z" fill="#40505E"/>
<path d="M224.993 116.014C225.303 116.944 225.613 117.564 225.923 118.494C226.543 120.354 229.953 119.114 229.643 116.944C229.333 116.014 229.023 115.085 228.713 114.465C227.473 112.605 224.063 114.155 224.993 116.014Z" fill="#40505E"/>
<path d="M249.481 133.064C251.031 134.303 252.271 135.853 253.51 137.093C254.13 137.713 255.06 138.333 255.99 138.333C256.61 138.643 256.92 138.023 256.3 137.713C254.44 135.853 253.2 133.993 251.031 132.444C250.411 132.134 249.481 131.514 248.861 131.514C247.931 131.824 249.171 133.064 249.481 133.064Z" fill="#40505E"/>
<path d="M240.492 142.056C240.182 144.536 240.802 146.706 242.041 148.876C242.351 149.496 243.281 150.426 243.901 150.426C244.831 150.426 244.211 149.186 243.901 148.566C243.281 147.326 242.971 145.466 243.281 143.916C243.281 142.986 240.492 140.507 240.492 142.056Z" fill="#40505E"/>
<path d="M264.67 129.655C265.909 128.726 267.459 128.106 269.319 128.106C269.939 128.106 268.079 125.006 267.149 125.006C265.289 125.006 263.74 125.626 262.5 126.556C261.57 127.176 264.05 129.965 264.67 129.655Z" fill="#40505E"/>
<path d="M270.249 116.325C270.869 116.015 271.489 115.705 272.419 116.015C273.349 116.015 272.729 115.085 272.419 114.775C271.799 114.155 271.179 113.535 270.249 113.225C269.009 112.915 268.079 113.225 267.149 113.845C266.529 114.465 269.319 116.945 270.249 116.325Z" fill="#40505E"/>
<path d="M280.168 133.062C280.788 134.612 281.098 135.852 281.098 137.402C281.098 138.642 284.818 138.332 284.818 137.092C284.818 135.232 284.508 133.682 283.578 132.132C283.578 131.512 279.548 131.822 280.168 133.062Z" fill="#40505E"/>
<path d="M271.799 146.7C271.179 147.63 271.179 148.56 271.179 149.49C271.179 151.35 274.899 152.28 274.899 150.11C274.899 149.49 274.899 149.18 275.209 148.87C275.829 147.01 272.729 145.151 271.799 146.7Z" fill="#40505E"/>
<path d="M221.273 171.501C220.963 172.741 221.273 173.981 221.893 175.221C222.513 176.151 226.233 176.151 225.613 174.911C224.993 173.981 224.993 172.741 224.993 171.501C225.303 170.571 221.273 170.261 221.273 171.501Z" fill="#40505E"/>
<path d="M212.904 161.273C214.144 161.273 215.384 161.583 216.624 161.893C217.244 162.203 218.484 161.273 218.794 160.963C218.794 160.963 220.343 160.033 219.723 159.723C218.484 159.413 217.244 159.104 216.004 159.104C215.384 159.104 214.454 159.723 213.834 160.033C213.834 160.033 212.284 161.273 212.904 161.273Z" fill="#40505E"/>
<path d="M235.532 162.824C233.982 164.064 233.052 165.304 232.432 166.854C232.122 167.474 235.532 169.334 235.842 168.714C236.462 167.164 237.392 165.614 238.942 164.684C238.942 164.684 236.152 162.204 235.532 162.824Z" fill="#40505E"/>
<path d="M227.783 191.03C227.473 192.58 227.783 194.44 228.713 195.68C229.023 196.3 229.643 197.54 230.263 197.54C230.883 197.54 230.573 196.3 230.263 195.99C229.953 195.06 229.953 194.44 229.953 193.51C229.953 192.58 228.093 189.48 227.783 191.03Z" fill="#40505E"/>
<path d="M291.637 155.386C290.707 156.935 291.637 158.175 292.567 159.105C292.877 159.415 294.117 159.105 294.427 159.105C294.427 159.105 296.287 158.485 296.287 158.175C295.357 157.245 294.427 156.006 295.357 154.766C295.667 154.456 294.117 154.456 293.807 154.766C293.497 154.766 291.947 154.766 291.637 155.386Z" fill="#40505E"/>
<path d="M289.777 170.57C289.157 171.81 288.228 172.74 287.298 173.67C285.438 175.22 288.228 177.08 289.777 175.84C291.327 174.6 292.567 173.36 293.497 171.5C294.117 169.33 290.397 169.02 289.777 170.57Z" fill="#40505E"/>
<path d="M278.928 163.442C278.308 164.062 277.998 164.682 277.998 165.302C277.688 167.472 281.408 167.782 281.718 165.612C281.718 165.612 281.718 165.612 281.718 165.302C282.338 164.682 282.028 163.442 281.408 162.823C280.788 162.203 279.858 162.513 278.928 163.442Z" fill="#40505E"/>
<path d="M278.619 190.407C278.619 191.337 278.619 192.267 278.619 192.887C278.619 194.127 282.338 193.817 282.338 192.577C282.338 191.647 282.338 190.717 282.338 190.097C282.338 188.547 278.619 188.857 278.619 190.407Z" fill="#40505E"/>
<path d="M256.3 160.963C255.68 161.893 255.37 162.823 255.37 164.063C255.37 164.372 259.09 164.372 259.09 163.753C259.4 162.513 259.71 161.583 260.02 160.653C260.02 160.343 258.16 160.653 258.16 160.653C257.85 160.343 256.61 160.343 256.3 160.963Z" fill="#40505E"/>

<g style="mix-blend-mode:hue">
<rect width="514" height="430.346" fill=""/>
</g>
</svg>
