<svg width="19" height="18" viewBox="0 0 19 18" fill="none" xmlns="http://www.w3.org/2000/svg">
<path d="M18.6156 3.98323C16.1733 1.41481 12.9248 0 9.46906 0C6.01329 0 2.76484 1.41481 0.322522 3.98323C-0.107507 4.43556 -0.107507 5.17112 0.322522 5.62345L2.14214 7.53683C2.57065 7.98609 3.32747 7.98609 3.75595 7.53683C4.36556 6.89608 5.05688 6.36862 5.80908 5.97099C6.18595 5.77643 6.42949 5.3676 6.42642 4.98155L6.7008 2.90789C8.71383 2.26444 10.2452 2.26485 12.2382 2.90752L12.5095 4.92958C12.5095 5.3669 12.7415 5.76608 13.1206 5.97451C13.8759 6.37406 14.568 6.90155 15.1776 7.5419C15.3911 7.76731 15.6778 7.891 15.9845 7.891C16.2913 7.891 16.578 7.76731 16.7914 7.54231L18.6157 5.62352C19.0457 5.17108 19.0457 4.43556 18.6156 3.98323Z" fill="#505050"/>
<path d="M14.6027 7.3569C14.259 6.7127 13.5917 6.31274 12.8619 6.31274H6.07609C5.34634 6.31274 4.67899 6.7127 4.33529 7.3569L1.81008 12.0918C1.65828 12.3769 1.57812 12.6979 1.57812 13.02V15.7818C1.57812 16.6522 2.28631 17.36 3.15632 17.36H15.7817C16.6518 17.36 17.3599 16.6522 17.3599 15.7818V13.02C17.3599 12.6979 17.2798 12.3769 17.128 12.0914L14.6027 7.3569ZM7.10097 14.9927C6.66557 14.9927 6.31189 14.6387 6.31189 14.2037C6.31189 13.7687 6.66561 13.4146 7.10097 13.4146C7.53636 13.4146 7.89004 13.7687 7.89004 14.2037C7.89008 14.6387 7.53636 14.9927 7.10097 14.9927ZM7.10097 12.6255C6.66557 12.6255 6.31189 12.2714 6.31189 11.8364C6.31189 11.4014 6.66561 11.0473 7.10097 11.0473C7.53636 11.0473 7.89004 11.4014 7.89004 11.8364C7.89008 12.2714 7.53636 12.6255 7.10097 12.6255ZM7.10097 10.2582C6.66557 10.2582 6.31189 9.90411 6.31189 9.46913C6.31189 9.03414 6.66561 8.68005 7.10097 8.68005C7.53636 8.68005 7.89004 9.03414 7.89004 9.46913C7.89008 9.90411 7.53636 10.2582 7.10097 10.2582ZM9.46901 14.9927C9.03362 14.9927 8.67993 14.6387 8.67993 14.2037C8.67993 13.7687 9.03366 13.4146 9.46901 13.4146C9.90437 13.4146 10.2581 13.7687 10.2581 14.2037C10.2581 14.6387 9.9044 14.9927 9.46901 14.9927ZM9.46901 12.6255C9.03362 12.6255 8.67993 12.2714 8.67993 11.8364C8.67993 11.4014 9.03366 11.0473 9.46901 11.0473C9.90437 11.0473 10.2581 11.4014 10.2581 11.8364C10.2581 12.2714 9.9044 12.6255 9.46901 12.6255ZM9.46901 10.2582C9.03362 10.2582 8.67993 9.90411 8.67993 9.46913C8.67993 9.03414 9.03366 8.68005 9.46901 8.68005C9.90437 8.68005 10.2581 9.03414 10.2581 9.46913C10.2581 9.90411 9.9044 10.2582 9.46901 10.2582ZM11.8355 14.9927C11.4001 14.9927 11.0464 14.6387 11.0464 14.2037C11.0464 13.7687 11.4001 13.4146 11.8355 13.4146C12.2709 13.4146 12.6246 13.7687 12.6246 14.2037C12.6246 14.6387 12.2709 14.9927 11.8355 14.9927ZM11.8355 12.6255C11.4001 12.6255 11.0464 12.2714 11.0464 11.8364C11.0464 11.4014 11.4001 11.0473 11.8355 11.0473C12.2709 11.0473 12.6246 11.4014 12.6246 11.8364C12.6246 12.2714 12.2709 12.6255 11.8355 12.6255ZM11.8355 10.2582C11.4001 10.2582 11.0464 9.90411 11.0464 9.46913C11.0464 9.03414 11.4001 8.68005 11.8355 8.68005C12.2709 8.68005 12.6246 9.03414 12.6246 9.46913C12.6246 9.90411 12.2709 10.2582 11.8355 10.2582Z" fill="#505050"/>
</svg>
