<svg width="24" height="19" viewBox="0 0 24 19" fill="none" xmlns="http://www.w3.org/2000/svg">
<path d="M24 2.23226C23.1169 2.61087 22.1679 2.86674 21.1719 2.98185C22.1887 2.3927 22.9693 1.45975 23.3369 0.348146C22.3704 0.902663 21.3129 1.29336 20.2103 1.50334C19.312 0.578188 18.0324 0 16.6162 0C13.8968 0 11.6921 2.13147 11.6921 4.76038C11.6921 5.13354 11.7357 5.49682 11.8196 5.84533C7.72744 5.64674 4.09931 3.75156 1.67072 0.871406C1.24697 1.5745 1.00416 2.39233 1.00416 3.26465C1.00416 4.91628 1.8735 6.3733 3.19462 7.22703C2.4127 7.20336 1.64798 6.99918 0.964313 6.63153C0.964031 6.65147 0.964031 6.67142 0.964031 6.69145C0.964031 8.99794 2.66128 10.922 4.91372 11.3594C4.18864 11.55 3.42809 11.5779 2.69016 11.4409C3.31669 13.3322 5.13516 14.7085 7.28972 14.747C5.60456 16.0238 3.48141 16.7849 1.17459 16.7849C0.777094 16.7849 0.385219 16.7623 0 16.7183C2.17903 18.069 4.76719 18.8571 7.54781 18.8571C16.6047 18.8571 21.5573 11.6032 21.5573 5.31246C21.5573 5.10598 21.5526 4.90069 21.543 4.69657C22.507 4.02283 23.339 3.18834 24 2.23226Z" fill="#505050"/>
</svg>
