<svg width="48" height="48" viewBox="0 0 48 48" fill="none" xmlns="http://www.w3.org/2000/svg">
<g clip-path="url(#clip0)">
<path d="M19.1529 16.7988L16.7219 31.0648H20.6099L23.0429 16.7988H19.1529Z" fill="#505050"/>
<path d="M13.4621 16.8145L9.65406 26.5435L9.24806 25.0745C8.49706 23.3045 6.36506 20.7625 3.86206 19.1605L7.34406 31.0575L11.4581 31.0505L17.5811 16.8115L13.4621 16.8145Z" fill="#505050"/>
<path d="M7.772 17.8358C7.546 16.9668 6.891 16.7078 6.078 16.6768H0.05L0 16.9608C4.691 18.0988 7.795 20.8408 9.083 24.1378L7.772 17.8358Z" fill="#505050"/>
<path d="M30.923 19.5337C32.195 19.5137 33.117 19.7917 33.833 20.0797L34.184 20.2447L34.71 17.1527C33.94 16.8637 32.733 16.5537 31.227 16.5537C27.385 16.5537 24.677 18.4887 24.656 21.2617C24.631 23.3107 26.585 24.4547 28.061 25.1377C29.576 25.8377 30.084 26.2827 30.077 26.9077C30.065 27.8627 28.869 28.3007 27.752 28.3007C26.195 28.3007 25.368 28.0857 24.091 27.5537L23.59 27.3257L23.043 30.5187C23.953 30.9177 25.632 31.2607 27.375 31.2787C31.462 31.2787 34.118 29.3667 34.146 26.4037C34.163 24.7827 33.126 23.5457 30.879 22.5307C29.519 21.8687 28.687 21.4287 28.695 20.7607C28.695 20.1677 29.401 19.5337 30.923 19.5337Z" fill="#505050"/>
<path d="M44.688 16.8154H41.684C40.751 16.8154 40.057 17.0694 39.647 17.9994L33.874 31.0734H37.957C37.957 31.0734 38.623 29.3154 38.774 28.9304C39.221 28.9304 43.188 28.9364 43.753 28.9364C43.869 29.4344 44.227 31.0734 44.227 31.0734H47.834L44.688 16.8154ZM39.893 26.0104C40.213 25.1914 41.442 22.0234 41.442 22.0234C41.421 22.0624 41.759 21.1984 41.96 20.6614L42.222 21.8914C42.222 21.8914 42.967 25.2974 43.123 26.0104H39.893Z" fill="#505050"/>
</g>
<defs>
<clipPath id="clip0">
<rect width="47.834" height="47.834" fill="white"/>
</clipPath>
</defs>
</svg>
