<svg width="384" height="437" viewBox="0 0 384 437" fill="none" xmlns="http://www.w3.org/2000/svg">
<path d="M314.73 343.918C313.525 297.377 311.417 206.714 309.309 208.527C342.137 206.714 357.798 205.202 380.387 203.691C383.398 203.389 384.904 200.065 383.097 197.647C358.702 168.03 314.73 127.836 285.516 93.6859C259.012 62.5579 222.269 28.4079 190.344 2.71975C188.537 1.20869 186.429 -0.302378 184.321 -0.000164878C181.911 -0.000164878 180.104 2.11533 178.297 3.62639C115.954 67.0911 -3.31229 193.114 0.00064832 202.18C0.603001 203.994 3.61477 203.691 5.723 203.691C24.9983 203.691 68.6689 202.18 71.6806 203.994C69.8736 246.303 73.4877 284.684 73.1865 325.181C73.1865 335.758 72.5842 346.336 72.283 356.913C71.3795 381.695 70.1748 406.779 69.2712 431.56C132.518 433.071 226.485 426.12 304.49 430.956C306.297 430.956 308.104 431.258 309.61 430.049C310.514 429.445 315.031 356.007 314.73 343.918Z" fill="#243440"/>
<path d="M167.153 358.516C167.755 364.258 169.261 370.302 169.562 376.044C170.165 383.297 168.96 390.55 168.96 397.803C168.659 404.15 169.261 410.496 170.466 416.541C170.767 419.261 171.369 421.981 169.863 424.096C169.261 425.003 168.659 425.305 167.755 425.909C165.647 427.723 149.986 431.349 147.576 432.86C153.901 431.954 174.08 430.14 180.405 431.349C179.802 426.211 181.911 421.074 183.115 416.238C184.621 410.496 185.223 404.754 185.525 398.71C187.332 378.764 189.44 358.516 191.247 338.57C193.656 349.449 194.861 360.933 194.861 372.115C194.861 381.786 201.186 409.59 202.391 414.123C203.595 419.261 202.993 424.7 203.294 429.838C203.294 430.745 203.595 431.954 204.499 432.558C205.101 432.86 205.402 432.86 206.005 432.86C210.823 432.558 230.099 431.349 234.918 431.047C234.014 427.723 217.449 425.909 215.04 423.492C214.136 422.887 213.534 421.981 212.932 421.074C212.631 420.167 212.631 419.261 212.631 418.354C214.136 396.897 214.739 375.137 215.04 353.378C215.341 345.521 215.341 337.361 213.534 329.806C211.727 322.552 207.812 315.602 206.607 308.046C206.306 306.837 206.306 305.326 205.402 304.42C204.8 303.815 203.896 303.513 202.993 303.211C196.668 301.095 189.139 300.491 182.814 302.304C177.393 303.815 175.285 310.766 173.176 315.904C167.755 329.806 165.346 344.312 167.153 358.516Z" fill="white"/>
<path d="M158.117 249.023C149.986 255.671 152.094 268.364 152.094 269.271C150.889 287.101 150.889 292.239 153.299 310.07C154.202 317.021 159.623 323.367 160.527 330.016C161.732 338.175 162.936 346.637 167.755 353.286C169.863 352.379 171.972 351.473 174.08 350.566C173.176 342.104 172.574 333.642 171.67 325.18C170.165 307.954 168.659 290.728 166.55 273.804C171.972 288.915 174.983 304.932 175.887 320.949C186.127 320.345 196.367 320.949 206.005 323.065C208.715 307.35 211.727 291.332 212.63 275.315C214.437 300.097 212.028 325.18 205.703 349.357C209.016 351.171 212.329 352.984 215.943 354.797C222.268 333.642 233.412 313.394 233.713 291.332C234.014 281.662 231.906 271.991 230.099 262.622C229.496 259.6 228.894 256.88 227.689 254.16C223.774 245.094 213.835 239.956 204.197 239.05C195.463 238.143 187.332 240.561 178.899 241.467C171.369 242.978 163.84 244.187 158.117 249.023Z" fill="white"/>
<path d="M178.597 234.82C184.32 234.82 190.343 234.518 196.066 234.518C193.355 236.935 194.56 241.468 194.259 245.095C194.259 245.397 194.259 246.002 193.957 246.304C193.656 246.606 193.054 246.606 192.753 246.606C190.343 246.606 182.814 249.326 181.007 247.815C179.2 246.606 179.2 236.935 178.597 234.82Z" fill="white"/>
<path d="M175.887 211.548C175.586 214.57 175.284 217.29 174.983 220.312C174.682 226.054 174.983 232.703 179.2 236.329C183.115 239.654 189.139 239.351 193.355 236.631C197.572 233.912 200.282 229.076 201.487 223.939C202.089 221.823 202.39 219.405 202.39 217.29C202.089 211.246 198.776 205.504 193.355 202.784C189.741 200.668 183.115 199.157 179.2 201.575C176.489 203.388 176.489 207.921 175.887 211.548Z" fill="white"/>
<path d="M113.845 242.976C127.398 237.234 128.903 252.043 128.903 256.576C128.903 259.9 128.602 263.527 127.096 266.247C125.591 269.269 122.278 271.384 118.965 270.78C115.049 270.175 112.339 265.944 111.134 262.016C107.821 254.762 105.11 246.905 113.845 242.976Z" fill="white"/>
<path d="M255.878 242.976C269.431 237.234 270.936 252.043 270.936 256.576C270.936 259.9 270.635 263.527 269.129 266.247C267.623 269.269 264.311 271.384 260.998 270.78C257.082 270.175 254.372 265.944 253.167 262.016C249.854 254.762 247.143 246.905 255.878 242.976Z" fill="white"/>
<path d="M115.35 270.781C115.953 272.292 116.856 273.803 116.555 275.314C116.254 278.638 112.038 279.847 109.327 281.358C105.11 283.776 96.9787 286.798 96.3763 291.634C95.774 296.469 93.9669 330.921 93.9669 333.037C93.9669 334.548 94.5693 336.059 94.8704 337.57C98.1834 347.241 107.821 365.071 111.134 375.044C112.64 373.231 113.543 356.307 115.652 354.796C113.543 347.845 109.628 342.103 107.52 335.152C107.219 333.641 106.616 332.432 106.616 330.921C106.616 329.41 106.918 328.201 107.219 326.992C109.327 318.53 108.725 312.184 110.833 303.722C112.64 313.091 110.532 334.246 109.327 338.779C105.412 352.681 105.11 372.022 104.207 386.528C103.906 393.782 104.207 401.035 103.906 408.288C103.605 417.656 101.798 427.025 99.9904 436.394C103.002 435.487 112.038 433.976 115.35 434.58C118.061 413.425 123.482 368.698 124.687 365.676C127.096 359.027 127.398 355.4 128 348.45C129.205 356.005 129.807 358.423 131.012 365.978C132.216 373.231 133.12 380.484 134.325 387.737C135.228 393.177 131.614 427.025 137.939 437.602C138.24 435.789 147.275 437.905 148.179 436.696C148.48 436.091 148.48 435.487 148.781 434.58C149.685 412.217 149.685 389.853 148.179 367.489C147.576 357.516 152.998 350.867 150.287 341.196C147.275 330.921 149.082 319.739 144.565 302.815C140 302.815 132.47 324.957 137.59 337.65C137.892 333.721 152.789 351.472 155.5 348.45C146.465 340.592 154.202 303.275 148.179 293C144.565 286.654 148.48 281.661 141.553 279.545C139.143 278.941 133.421 275.314 131.313 273.803C129.205 272.292 126.494 264.132 125.892 259.901C118.965 258.088 113.543 265.341 115.35 270.781Z" fill="white"/>
<path d="M257.383 270.781C257.986 272.292 258.889 273.803 258.588 275.314C258.287 278.638 254.07 279.847 251.36 281.358C247.143 283.776 239.012 286.798 238.409 291.634C237.807 296.469 236 330.921 236 333.037C236 334.548 236.602 336.059 236.903 337.57C240.216 347.241 249.854 365.071 253.167 375.044C254.673 373.231 255.576 356.307 257.685 354.796C255.576 347.845 251.661 342.103 249.553 335.152C249.252 333.641 248.649 332.432 248.649 330.921C248.649 329.41 248.95 328.201 249.252 326.992C251.36 318.53 250.758 312.184 252.866 303.722C254.673 313.091 252.565 334.246 251.36 338.779C247.445 352.681 247.143 372.022 246.24 386.528C245.939 393.782 246.24 401.035 245.939 408.288C245.638 417.656 243.83 427.025 242.023 436.394C245.035 435.487 254.07 433.976 257.383 434.58C260.094 413.425 265.515 368.698 266.72 365.676C269.129 359.027 269.43 355.4 270.033 348.45C271.238 356.005 271.84 358.423 273.045 365.978C274.249 373.231 275.153 380.484 276.358 387.737C277.261 393.177 273.647 427.025 279.972 437.602C280.273 435.789 289.308 437.905 290.212 436.696C290.513 436.091 290.513 435.487 290.814 434.58C291.718 412.217 291.718 389.853 290.212 367.489C289.609 357.516 295.03 350.867 292.32 341.196C289.308 330.921 291.115 319.739 286.598 302.815C282.033 302.815 274.503 324.957 279.623 337.65C279.925 333.721 294.822 351.472 297.533 348.45C288.498 340.592 296.235 303.275 290.212 293C286.598 286.654 290.513 281.661 283.586 279.545C281.176 278.941 275.454 275.314 273.346 273.803C271.238 272.292 268.527 264.132 267.925 259.901C260.998 258.088 255.576 265.341 257.383 270.781Z" fill="white"/>
<path d="M186.729 249.327C185.826 249.931 184.922 251.744 185.223 252.651C185.525 252.953 185.826 253.255 185.826 253.255L188.838 255.371C189.741 255.975 191.247 255.673 191.849 254.766C192.452 253.558 193.355 252.047 194.259 250.838C194.861 249.931 194.56 249.024 193.656 248.42C192.452 248.118 188.536 248.42 186.729 249.327Z" fill="#1B2C3E"/>
<path d="M120.169 281.358C119.266 281.963 118.362 283.776 118.965 284.38C119.266 284.683 119.266 284.985 119.567 284.985L122.579 287.1C123.482 287.705 124.988 287.403 125.59 286.496C126.193 285.287 127.096 284.078 128 282.869C128.602 281.963 128.301 281.056 127.397 280.754C125.59 280.149 121.976 280.452 120.169 281.358Z" fill="#1B2C3E"/>
<path d="M262.202 281.358C261.299 281.963 260.395 283.776 260.998 284.38C261.299 284.683 261.299 284.985 261.6 284.985L264.612 287.1C265.515 287.705 267.021 287.403 267.623 286.496C268.226 285.287 269.129 284.078 270.033 282.869C270.635 281.963 270.334 281.056 269.43 280.754C267.623 280.149 264.009 280.452 262.202 281.358Z" fill="#1B2C3E"/>
<path d="M192.753 305.536C189.741 302.816 187.934 301.91 185.525 297.679C185.826 296.168 186.127 288.31 186.428 287.101C187.633 279.244 187.03 270.479 188.235 262.622C188.536 259.298 187.934 251.44 188.235 250.533C188.536 249.627 191.247 249.022 191.548 249.929C193.656 262.017 197.27 285.59 199.078 297.679C199.379 299.794 196.969 301.003 192.753 305.536Z" fill="#1B2C3E"/>
<path d="M126.193 332.133C123.783 329.715 122.277 328.809 119.868 325.484C120.169 324.276 120.47 317.627 120.47 316.418C121.374 309.467 121.073 301.912 121.976 295.263C122.277 292.543 121.675 285.592 121.976 284.686C122.277 283.779 124.386 283.175 124.687 284.081C126.494 294.659 129.506 314.907 131.313 325.182C131.915 326.996 129.807 328.204 126.193 332.133Z" fill="#1B2C3E"/>
<path d="M268.226 332.133C265.816 329.715 264.31 328.809 261.901 325.484C262.202 324.276 262.503 317.627 262.503 316.418C263.407 309.467 263.106 301.912 264.009 295.263C264.31 292.543 263.708 285.592 264.009 284.686C264.31 283.779 266.419 283.175 266.72 284.081C268.527 294.659 271.539 314.907 273.346 325.182C273.948 326.996 271.84 328.204 268.226 332.133Z" fill="#1B2C3E"/>
<path d="M259.614 279.245C258.71 279.85 257.807 281.361 258.108 282.267C258.409 282.57 258.409 282.872 258.71 282.872L261.421 284.987C262.325 285.592 263.83 285.592 264.433 284.383C265.336 283.174 265.939 281.965 266.842 281.059C267.445 280.152 267.143 279.245 266.24 278.943C265.035 278.037 261.12 278.036 259.614 279.245Z" fill="#1B2C3E"/>
</svg>
