<svg width="56" height="56" viewBox="0 0 56 56" fill="none" xmlns="http://www.w3.org/2000/svg">
<rect width="56" height="56" rx="9" fill="#FFF5E5"/>
<path d="M30.5059 22.8359H14.2637C11.7719 22.8359 9.75195 24.8559 9.75195 27.3477V38.9277C9.75195 41.4195 11.7719 43.4395 14.2637 43.4395H19.1498L19.082 43.4453L22.3848 46.748L22.3871 43.4395H30.5059C32.9976 43.4395 35.0176 41.4195 35.0176 38.9277V27.3477C35.0176 24.8559 32.9976 22.8359 30.5059 22.8359Z" fill="#FECF86"/>
<path d="M36.5707 9.75195H34.6676C29.0468 9.75195 24.4902 14.3085 24.4902 19.9293C24.4902 25.5501 29.0468 30.1067 34.6676 30.1067H36.5707C37.6125 30.1067 38.6176 29.9499 39.5639 29.6591L42.6875 32.7809V28.0637C45.1535 26.2064 46.748 23.2542 46.748 19.9293C46.748 14.3085 42.1915 9.75195 36.5707 9.75195Z" fill="#FCB443"/>
<path d="M35.8297 23.0437C35.4144 23.0437 35.0777 22.707 35.0777 22.2917V20.4852C35.0777 19.8116 35.5387 19.2381 36.1987 19.0904C37.0134 18.9081 37.5629 18.168 37.5051 17.3306C37.448 16.5014 36.7795 15.833 35.9503 15.7758C35.4773 15.7432 35.0278 15.9021 34.6839 16.2231C34.3396 16.5444 34.15 16.9806 34.15 17.4513C34.15 17.8666 33.8132 18.2032 33.398 18.2032C32.9828 18.2032 32.6461 17.8666 32.6461 17.4513C32.6461 16.5722 33.0147 15.7238 33.6577 15.1237C34.3095 14.5151 35.1612 14.2141 36.0536 14.2754C37.6279 14.3839 38.8969 15.6529 39.0054 17.2271C39.1133 18.7927 38.0967 20.1792 36.5816 20.5452V22.2917C36.5816 22.707 36.245 23.0437 35.8297 23.0437Z" fill="black"/>
<path d="M35.8297 26.0176C35.6319 26.0176 35.4379 25.9379 35.298 25.798C35.1582 25.6581 35.0777 25.4641 35.0777 25.2656C35.0777 25.0679 35.1582 24.8739 35.298 24.734C35.4379 24.5941 35.6319 24.5137 35.8297 24.5137C36.0274 24.5137 36.2214 24.5941 36.3613 24.734C36.5011 24.8739 36.5816 25.0679 36.5816 25.2656C36.5816 25.4641 36.5011 25.6574 36.3613 25.798C36.2214 25.9379 36.0274 26.0176 35.8297 26.0176Z" fill="black"/>
<path d="M29.6787 33.8145H13.8125C13.3973 33.8145 13.0605 33.4778 13.0605 33.0625C13.0605 32.6472 13.3973 32.3105 13.8125 32.3105H29.6787C30.0939 32.3105 30.4307 32.6472 30.4307 33.0625C30.4307 33.4778 30.094 33.8145 29.6787 33.8145Z" fill="black"/>
<path d="M29.6787 38.0254C29.4809 38.0254 29.2869 37.9449 29.1471 37.8051C29.0072 37.6652 28.9268 37.4712 28.9268 37.2734C28.9268 37.0757 29.0071 36.8817 29.1471 36.7418C29.2869 36.6019 29.4809 36.5215 29.6787 36.5215C29.8765 36.5215 30.0705 36.6019 30.2103 36.7418C30.3501 36.8817 30.4307 37.0757 30.4307 37.2734C30.4307 37.472 30.3502 37.6652 30.2103 37.8051C30.0705 37.9449 29.8765 38.0254 29.6787 38.0254Z" fill="black"/>
<path d="M26.7211 38.0254H13.8125C13.3973 38.0254 13.0605 37.6887 13.0605 37.2734C13.0605 36.8581 13.3973 36.5215 13.8125 36.5215H26.7211C27.1363 36.5215 27.473 36.8581 27.473 37.2734C27.473 37.6887 27.1364 38.0254 26.7211 38.0254Z" fill="black"/>
<path d="M24.791 29.6035H13.8125C13.3973 29.6035 13.0605 29.2669 13.0605 28.8516C13.0605 28.4363 13.3973 28.0996 13.8125 28.0996H24.791C25.2062 28.0996 25.543 28.4363 25.543 28.8516C25.543 29.2669 25.2063 29.6035 24.791 29.6035Z" fill="black"/>
</svg>
