<svg width="56" height="56" viewBox="0 0 56 56" fill="none" xmlns="http://www.w3.org/2000/svg">
<rect width="56" height="56" rx="9" fill="#F0F8FF"/>
<path d="M19.8213 9.33203H33.0569V46.3917H19.8213V9.33203Z" fill="#CBE6FE"/>
<path d="M33.0567 25.2148L27.7625 30.5091L22.4683 35.8033H25.1154V46.3918H33.0567V25.2148Z" fill="#A9C6EB"/>
<path d="M12.2769 25.2148H7.90918V46.3918H19.8212V25.2148H12.2769Z" fill="#CBE6FE"/>
<path d="M35.7039 39.7754H40.9981V46.3932H35.7039V39.7754Z" fill="#A9C6EB"/>
<path d="M46.2924 35.8027H30.4097V46.3912H35.7039V39.7734H40.9981V46.3912H46.2924V35.8027Z" fill="#CBE6FE"/>
<path d="M48.9397 35.8033L38.3512 25.2148L33.0569 30.5091L27.7627 35.8033H48.9397Z" fill="#2B67B3"/>
<path d="M15.8506 25.2148H19.8213V46.3918H15.8506V25.2148Z" fill="#A9C6EB"/>
<path d="M23.792 13.3066H25.1156V15.9538H23.792V13.3066Z" fill="#2B67B3"/>
<path d="M27.7629 13.3066H29.0865V15.9538H27.7629V13.3066Z" fill="#2B67B3"/>
<path d="M23.792 18.6016H25.1156V21.2487H23.792V18.6016Z" fill="#2B67B3"/>
<path d="M27.7629 18.6016H29.0865V21.2487H27.7629V18.6016Z" fill="#2B67B3"/>
<path d="M23.792 23.8945H25.1156V26.5417H23.792V23.8945Z" fill="#2B67B3"/>
<path d="M27.7629 23.8945H29.0865V26.5417H27.7629V23.8945Z" fill="#2B67B3"/>
<path d="M11.8801 29.1895H13.2037V31.8366H11.8801V29.1895Z" fill="#2B67B3"/>
<path d="M15.8506 29.1895H17.1741V31.8366H15.8506V29.1895Z" fill="#2B67B3"/>
<path d="M11.8801 34.4844H13.2037V37.1315H11.8801V34.4844Z" fill="#2B67B3"/>
<path d="M15.8506 34.4844H17.1741V37.1315H15.8506V34.4844Z" fill="#2B67B3"/>
<path d="M11.8801 39.7773H13.2037V42.4245H11.8801V39.7773Z" fill="#2B67B3"/>
<path d="M15.8506 39.7773H17.1741V42.4245H15.8506V39.7773Z" fill="#2B67B3"/>
<path d="M23.792 29.1895H25.1156V31.8366H23.792V29.1895Z" fill="#2B67B3"/>
<path d="M27.7629 29.1895H29.0865V31.8366H27.7629V29.1895Z" fill="#2B67B3"/>
</svg>
