<svg width="56" height="56" viewBox="0 0 56 56" fill="none" xmlns="http://www.w3.org/2000/svg">
<rect width="56" height="56" rx="9" fill="#D9B2A6"/>
<path d="M11.9374 28.8468H16.2119V24.5503C16.2119 24.0056 16.6536 23.5639 17.1984 23.5639H21.4729V19.2674C21.4729 18.7226 21.9146 18.2809 22.4594 18.2809H26.7339V13.9845C26.7339 13.4397 27.1756 12.998 27.7203 12.998H43.5033C44.0481 12.998 44.4897 13.4397 44.4897 13.9845V45.6819C44.4897 46.2267 44.0481 46.6684 43.5033 46.6684H11.9374C11.3926 46.6684 10.9509 46.2267 10.9509 45.6819V29.8332C10.9509 29.2884 11.3926 28.8468 11.9374 28.8468Z" fill="#9D5E4A"/>
<path d="M11.9372 46.6664C11.3925 46.6664 10.9508 46.2248 10.9508 45.68V29.8313C10.9508 29.2865 11.3925 28.8448 11.9372 28.8448H16.2118V24.5484C16.2118 24.0036 16.6535 23.5619 17.1982 23.5619H21.4728V19.2654C21.4728 18.7206 21.9144 18.279 22.4592 18.279H26.7338V13.9825C26.7338 13.4378 27.1754 12.9961 27.7202 12.9961V46.6664H11.9372Z" fill="#7D4A3B"/>
<path d="M26.7336 36.1035H18.1845V39.4136H26.7336V36.1035Z" fill="#5C3629"/>
<path d="M37.2554 36.1016H28.7063V39.4116H37.2554V36.1016Z" fill="#7D4A3B"/>
<path d="M42.5168 36.1016H39.2287V39.4116H42.5168V36.1016Z" fill="#7D4A3B"/>
<path d="M42.517 20.2539H33.9679V23.564H42.517V20.2539Z" fill="#7D4A3B"/>
<path d="M31.9944 30.8184H23.4453V34.1284H31.9944V30.8184Z" fill="#7D4A3B"/>
<path d="M42.5168 30.8184H33.9677V34.1284H42.5168V30.8184Z" fill="#7D4A3B"/>
<path d="M42.5168 25.5352H39.2287V28.8452H42.5168V25.5352Z" fill="#7D4A3B"/>
<path d="M37.2554 25.5352H28.7063V28.8452H37.2554V25.5352Z" fill="#7D4A3B"/>
<path d="M16.2117 36.1035H12.9236V39.4136H16.2117V36.1035Z" fill="#5C3629"/>
<path d="M21.4729 30.8223H12.9238V34.1323H21.4729V30.8223Z" fill="#5C3629"/>
<path d="M26.7336 25.5371H18.1845V28.8471H26.7336V25.5371Z" fill="#5C3629"/>
<path d="M31.9944 20.252H23.4453V23.562H31.9944V20.252Z" fill="#7D4A3B"/>
<path d="M37.2556 14.9688H28.7065V18.2788H37.2556V14.9688Z" fill="#7D4A3B"/>
<path d="M42.517 14.9688H39.2288V18.2788H42.517V14.9688Z" fill="#7D4A3B"/>
<path d="M42.517 41.3867H33.9679V44.6967H42.517V41.3867Z" fill="#7D4A3B"/>
<path d="M31.9944 41.3867H23.4453V44.6967H31.9944V41.3867Z" fill="#7D4A3B"/>
<path d="M27.7202 20.252H23.4457V23.562H27.7202V20.252Z" fill="#5C3629"/>
<path d="M27.7202 30.8223H23.4457V34.1323H27.7202V30.8223Z" fill="#5C3629"/>
<path d="M27.7202 41.3867H23.4457V44.6967H27.7202V41.3867Z" fill="#5C3629"/>
<path d="M21.4729 41.3867H12.9238V44.6967H21.4729V41.3867Z" fill="#5C3629"/>
</svg>
