<svg width="56" height="56" viewBox="0 0 56 56" fill="none" xmlns="http://www.w3.org/2000/svg">
<rect width="56" height="56" rx="9" fill="#F4F4F4"/>
<g clip-path="url(#clip0)">
<path d="M37.2221 33.9435L23.3844 20.1059C23.1496 19.871 22.7687 19.871 22.5338 20.1059L20.2652 22.3743C20.1524 22.4871 20.0891 22.6401 20.0891 22.7996C20.0891 22.9591 20.1524 23.1122 20.2652 23.2249L34.1029 37.0627C34.2157 37.1755 34.3687 37.2389 34.5282 37.2389C34.6877 37.2389 34.8408 37.1755 34.9535 37.0627L37.222 34.7941C37.457 34.5593 37.457 34.1784 37.2221 33.9435Z" fill="#CDD4D5"/>
<path d="M25.426 14.8878L20.2085 9.67032C19.9736 9.43541 19.5927 9.43541 19.3578 9.67032L17.0894 11.9387C16.8545 12.1737 16.8545 12.5545 17.0894 12.7894L20.9742 16.6741L16.8342 20.8141L12.9494 16.9295C12.7145 16.6946 12.3336 16.6946 12.0988 16.9295L9.8303 19.1979C9.59539 19.4328 9.59539 19.8137 9.8303 20.0485L15.0478 25.266C15.1611 25.3793 15.3143 25.4422 15.4731 25.4422C15.4912 25.4422 15.5094 25.4414 15.5276 25.4397L20.5184 24.986C20.6584 24.9732 20.7897 24.9118 20.8892 24.8123L24.9725 20.729C25.072 20.6295 25.1335 20.4982 25.1462 20.3582L25.5999 15.3674C25.6159 15.1897 25.5522 15.0139 25.426 14.8878Z" fill="#CDD4D5"/>
<path d="M47.6572 37.1203L42.4397 31.9027C42.3134 31.7765 42.1376 31.7129 41.9599 31.729L36.9692 32.1828C36.8291 32.1956 36.6979 32.257 36.5984 32.3565L32.5151 36.4397C32.4155 36.5393 32.3541 36.6705 32.3414 36.8106L31.8877 41.8013C31.8715 41.9792 31.9351 42.155 32.0614 42.2811L37.2789 47.4986C37.3963 47.616 37.5503 47.6748 37.7042 47.6748C37.8581 47.6748 38.0121 47.616 38.1295 47.4986L40.3979 45.2302C40.6328 44.9953 40.6328 44.6144 40.3979 44.3796L36.5132 40.4948L40.6531 36.3548L44.5379 40.2396C44.7728 40.4745 45.1536 40.4745 45.3885 40.2396L47.6569 37.9712C47.8921 37.736 47.8921 37.3551 47.6572 37.1203Z" fill="#CDD4D5"/>
<path d="M21.4383 21.2012L20.2652 22.3741C20.1524 22.4869 20.0891 22.64 20.0891 22.7995C20.0891 22.9589 20.1524 23.112 20.2652 23.2248L34.103 37.0625C34.2158 37.1754 34.3688 37.2387 34.5283 37.2387C34.6878 37.2387 34.8409 37.1753 34.9536 37.0625L36.1266 35.8895L21.4383 21.2012Z" fill="#687F82"/>
<path d="M18.9429 18.7061L16.8342 20.8148L12.9494 16.9301C12.7145 16.6952 12.3336 16.6952 12.0988 16.9301L9.8303 19.1985C9.59539 19.4334 9.59539 19.8143 9.8303 20.0491L15.0478 25.2666C15.1611 25.38 15.3143 25.4428 15.4731 25.4428C15.4912 25.4428 15.5094 25.442 15.5276 25.4403L20.5184 24.9866C20.6584 24.9738 20.7897 24.9124 20.8892 24.8129L22.9696 22.7325L18.9429 18.7061Z" fill="#9BAAAB"/>
<path d="M32.515 36.4397C32.4155 36.5392 32.354 36.6704 32.3413 36.8105L31.8876 41.8012C31.8714 41.9791 31.9351 42.1549 32.0613 42.281L37.2788 47.4985C37.3962 47.6159 37.5502 47.6747 37.7041 47.6747C37.8581 47.6747 38.0121 47.616 38.1294 47.4985L40.3979 45.2301C40.6328 44.9952 40.6328 44.6143 40.3979 44.3795L36.5131 40.4946L38.6219 38.3859L34.5954 34.3594L32.515 36.4397Z" fill="#9BAAAB"/>
<path d="M36.6746 20.2723L34.8598 18.4574C34.6249 18.2225 34.244 18.2225 34.0092 18.4574L21.9862 30.4804C21.7513 30.7153 21.7513 31.0961 21.9862 31.3311L23.8009 33.1458C23.9183 33.2632 24.0723 33.322 24.2263 33.322C24.3803 33.322 24.5342 33.2633 24.6516 33.1458L36.6745 21.1229C36.9095 20.888 36.9095 20.5071 36.6746 20.2723Z" fill="#CDD4D5"/>
<path d="M44.1605 12.786L42.3457 10.9711C42.1684 10.7938 41.8998 10.745 41.6714 10.849L36.6807 13.1175C36.615 13.1474 36.5553 13.1887 36.5043 13.2397L32.648 17.0961C32.4131 17.331 32.4131 17.7119 32.648 17.9467L37.185 22.4836C37.3023 22.6012 37.4563 22.6598 37.6103 22.6598C37.7642 22.6598 37.9182 22.6011 38.0356 22.4836L41.892 18.6272C41.943 18.5763 41.9844 18.5165 42.0142 18.4508L44.2826 13.4601C44.3865 13.2319 44.3379 12.9632 44.1605 12.786Z" fill="#CDD4D5"/>
<path d="M24.4248 36.6055L18.5267 30.7074C18.2918 30.4725 17.9109 30.4725 17.6761 30.7074L10.6438 37.7397C10.4089 37.9746 10.4089 38.3555 10.6438 38.5904L16.5419 44.4884C16.6592 44.6058 16.8132 44.6646 16.9672 44.6646C17.1211 44.6646 17.2751 44.6059 17.3925 44.4884L24.4248 37.4561C24.6597 37.2212 24.6597 36.8404 24.4248 36.6055Z" fill="#FD6A33"/>
<path d="M18.5267 30.7074C18.2918 30.4725 17.9109 30.4725 17.6761 30.7074L10.6438 37.7397C10.4089 37.9746 10.4089 38.3555 10.6438 38.5904L13.568 41.5147L21.451 33.6317L18.5267 30.7074Z" fill="#FF8C29"/>
<path d="M13.1671 41.1142L14.0178 41.9648L21.9007 34.082L21.05 33.2313L13.1671 41.1142Z" fill="#365558"/>
<path d="M14.9823 42.4755L15.833 43.3262L23.4889 35.6702L22.6383 34.8196L14.9823 42.4755Z" fill="#365558"/>
<path d="M11.8064 39.2997L12.6571 40.1504L20.313 32.4944L19.4624 31.6438L11.8064 39.2997Z" fill="#687F82"/>
<path d="M35.7425 19.3398L22.8688 32.2134L23.801 33.1455C23.9183 33.2629 24.0723 33.3217 24.2263 33.3217C24.3803 33.3217 24.5342 33.263 24.6516 33.1455L36.6746 21.1226C36.9095 20.8877 36.9095 20.5068 36.6746 20.272L35.7425 19.3398Z" fill="#687F82"/>
<path d="M43.2283 11.8535L34.8917 20.1902L37.185 22.4834C37.3023 22.601 37.4563 22.6596 37.6103 22.6596C37.7642 22.6596 37.9182 22.6009 38.0356 22.4834L41.892 18.627C41.943 18.5761 41.9844 18.5163 42.0142 18.4506L44.2826 13.4599C44.3864 13.2316 44.3377 12.9629 44.1604 12.7856L43.2283 11.8535Z" fill="#9BAAAB"/>
<path d="M14.9256 45.799C15.0254 45.799 15.1259 45.7741 15.2176 45.7232L17.2591 44.589L10.5431 37.873L9.40901 39.9147C9.27862 40.1494 9.3196 40.4422 9.50947 40.6321L14.5002 45.6228C14.6159 45.7386 14.7699 45.799 14.9256 45.799Z" fill="#FF8C29"/>
<path d="M21.7026 29.3461C21.5287 29.1723 21.2664 29.1217 21.0403 29.2185L17.8644 30.5796L24.5523 37.2675L25.9134 34.0916C26.0102 33.8655 25.9598 33.6033 25.7858 33.4293L21.7026 29.3461Z" fill="#FF8C29"/>
</g>
<defs>
<clipPath id="clip0">
<rect x="9.33331" y="9.33398" width="38.5" height="38.5" fill="white"/>
</clipPath>
</defs>
</svg>
