<svg width="56" height="56" viewBox="0 0 56 56" fill="none" xmlns="http://www.w3.org/2000/svg">
<rect width="56" height="56" rx="9" fill="#D6F7FF"/>
<g clip-path="url(#clip0)">
<path d="M35.2621 42.1076C34.6007 42.3711 33.9186 42.5798 33.2226 42.7313V46.0662C33.2219 46.3972 32.9538 46.665 32.6228 46.666H27.8247C27.4938 46.665 27.2257 46.3972 27.2249 46.0662V42.7313C25.6622 42.3884 24.1719 41.7732 22.8223 40.914L20.4713 43.2653C20.3593 43.3802 20.2059 43.4453 20.0453 43.4453C19.885 43.4453 19.7313 43.3802 19.6196 43.2653L16.2305 39.8763C16.1156 39.7645 16.0506 39.6109 16.0506 39.4506C16.0506 39.29 16.1156 39.1366 16.2305 39.0246L18.5818 36.6736C17.7227 35.324 17.1075 33.8337 16.7645 32.2709H13.4297C13.0987 32.2702 12.8309 32.0021 12.8298 31.6711V26.873C12.8309 26.5421 13.0987 26.274 13.4297 26.2732H16.7645C17.1075 24.7105 17.7227 23.2202 18.5818 21.8706L16.2305 19.5196C16.1156 19.4076 16.0506 19.2542 16.0506 19.0936C16.0506 18.9333 16.1156 18.7796 16.2305 18.6679L19.6196 15.2788C19.7313 15.1639 19.885 15.0989 20.0453 15.0989C20.2059 15.0989 20.3593 15.1639 20.4713 15.2788L22.8223 17.6301C24.1719 16.771 25.6622 16.1558 27.2249 15.8128V12.478C27.2257 12.147 27.4938 11.8792 27.8247 11.8781H32.6228C32.9538 11.8792 33.2219 12.147 33.2226 12.478V15.8128C33.9186 15.9644 34.6007 16.173 35.2621 16.4366L33.7476 18.076L33.7726 22.6243L30.1112 30.0593L34.0475 35.8322L33.8225 40.4058L35.2621 42.1076Z" fill="#3F5C6C"/>
<path d="M33.8225 38.8149V36.5477C29.582 34.1906 23.6982 30.094 21.215 24.4978C20.4304 25.9669 20.0225 27.6071 20.0273 29.2723C20.0291 32.6194 21.6728 35.7528 24.4254 37.6572C27.1782 39.5612 30.6899 39.9938 33.8225 38.8149Z" fill="#67B9CC"/>
<path d="M33.8225 36.5469V35.4194L30.4486 29.4214L33.8225 22.8612V19.7289C30.0298 18.301 25.7516 19.2546 22.9242 22.1579C22.2437 22.8504 21.668 23.6384 21.215 24.497C23.6981 30.0932 29.582 34.1898 33.8225 36.5469Z" fill="#67B9CC"/>
<path d="M31.3746 30.7787C31.1634 30.779 30.9675 30.8907 30.8595 31.0725C30.7517 31.2546 30.7475 31.4799 30.8489 31.6654L33.2959 36.158C33.401 36.3507 33.603 36.471 33.8225 36.4707H36.8214C37.1529 36.4707 37.4212 36.2024 37.4212 35.8709C37.4212 35.5396 37.1529 35.2713 36.8214 35.2713H34.1787L31.902 31.0914C31.7966 30.8984 31.5944 30.7784 31.3746 30.7787Z" fill="#2980BA"/>
<path d="M36.8214 22.075H33.8225C33.603 22.075 33.401 22.195 33.2959 22.3877L30.8488 26.8803C30.696 27.1704 30.8043 27.5295 31.0925 27.6866C31.3805 27.8435 31.7412 27.7399 31.902 27.4541L34.1787 23.2744H36.8214C37.1529 23.2744 37.4212 23.0061 37.4212 22.6749C37.4212 22.3434 37.1529 22.075 36.8214 22.075Z" fill="#2980BA"/>
<path d="M41.0201 28.6734H32.6228C32.2915 28.6734 32.0232 28.942 32.0232 29.2732C32.0232 29.6045 32.2915 29.873 32.6228 29.873H41.0201C41.3513 29.873 41.6196 29.6045 41.6196 29.2732C41.6196 28.942 41.3513 28.6734 41.0201 28.6734Z" fill="#2980BA"/>
<path d="M39.8205 14.8783H36.47C36.152 14.8794 35.8473 15.0055 35.622 15.2297L33.5741 17.2777C33.3485 17.5019 33.2219 17.8074 33.2227 18.1256V22.6758C33.2227 23.0071 33.4913 23.2754 33.8225 23.2754C34.1537 23.2754 34.4223 23.0071 34.4223 22.6758V18.1256L36.47 16.078H39.8205C40.1517 16.078 40.4203 15.8094 40.4203 15.4782C40.4203 15.1469 40.1517 14.8783 39.8205 14.8783Z" fill="#2980BA"/>
<path d="M33.8225 35.2709C33.4913 35.2709 33.2227 35.5392 33.2227 35.8705V40.4207C33.2219 40.7389 33.3485 41.0444 33.5741 41.2687L35.622 43.3166C35.8473 43.5408 36.152 43.6669 36.47 43.668H39.8205C40.1517 43.668 40.4203 43.3994 40.4203 43.0681C40.4203 42.7369 40.1517 42.4683 39.8205 42.4683H36.47L34.4223 40.4207V35.8705C34.4223 35.5392 34.1537 35.2709 33.8225 35.2709Z" fill="#2980BA"/>
<path d="M44.6189 43.0678C44.6189 41.7426 43.5448 40.6684 42.2196 40.6684C40.8947 40.6684 39.8206 41.7426 39.8206 43.0678C39.8206 44.3927 40.8947 45.4668 42.2196 45.4668C43.5448 45.4668 44.6189 44.3927 44.6189 43.0678Z" fill="#F0C419"/>
<path d="M41.6198 35.8702C41.6198 34.5453 40.5457 33.4712 39.2207 33.4712C37.8958 33.4712 36.8214 34.5453 36.8214 35.8702C36.8214 37.1954 37.8958 38.2695 39.2207 38.2695C40.5457 38.2695 41.6198 37.1954 41.6198 35.8702Z" fill="#F0C419"/>
<path d="M45.8184 29.2728C45.8184 27.9479 44.7442 26.8738 43.4193 26.8738C42.0944 26.8738 41.0203 27.9479 41.0203 29.2728C41.0203 30.5978 42.0944 31.6719 43.4193 31.6719C44.7442 31.6719 45.8184 30.5978 45.8184 29.2728Z" fill="#F0C419"/>
<path d="M41.6198 22.6752C41.6198 21.35 40.5457 20.2759 39.2207 20.2759C37.8958 20.2759 36.8214 21.35 36.8214 22.6752C36.8214 24.0001 37.8958 25.0742 39.2207 25.0742C40.5457 25.0742 41.6198 24.0001 41.6198 22.6752Z" fill="#F0C419"/>
<path d="M44.6189 15.4757C44.6189 14.1508 43.5448 13.0766 42.2196 13.0766C40.8947 13.0766 39.8206 14.1508 39.8206 15.4757C39.8206 16.8009 40.8947 17.875 42.2196 17.875C43.5448 17.875 44.6189 16.8009 44.6189 15.4757Z" fill="#F0C419"/>
<path d="M32.6229 29.2728C32.6229 27.9479 31.5488 26.8738 30.2239 26.8738C28.8989 26.8738 27.8248 27.9479 27.8248 29.2728C27.8248 30.5978 28.8989 31.6719 30.2239 31.6719C31.5488 31.6719 32.6229 30.5978 32.6229 29.2728Z" fill="#BDC3C7"/>
</g>
<defs>
<clipPath id="clip0">
<rect width="34.7879" height="34.7879" transform="matrix(1 0 0 -1 11.8787 46.666)" fill="white"/>
</clipPath>
</defs>
</svg>
